<?xml version="1.0" encoding="UTF-8"?>
<svg width="404px" height="344px" viewBox="0 0 404 344" version="1.1" xmlns="http://www.w3.org/2000/svg" xmlns:xlink="http://www.w3.org/1999/xlink">
    <!-- Generator: Sketch 54.1 (76490) - https://sketchapp.com -->
    <title>cover-illu</title>
    <desc>Created with Sketch.</desc>
    <defs>
        <linearGradient x1="-156.164384%" y1="53.336806%" x2="132.534247%" y2="48.581036%" id="linearGradient-1">
            <stop stop-color="#FFFFFF" offset="0%"></stop>
            <stop stop-color="#808184" offset="100%"></stop>
        </linearGradient>
        <path d="M57.2431431,22.7241532 C57.2431431,22.4043805 58.0503795,9.57627075 57.7976863,8.18440921 C57.5956192,6.85870956 56.189655,6.31444983 54.849776,6.33821794 C12.6066659,8.78027552 3.60265638,0.00570984 3.60265638,0.00570984 C3.60265638,0.00570984 0.89303855,-0.21323279 0.65741968,2.06040642 C0.42180057,4.33404563 0.43863054,19.2895441 0.43863054,19.2895441 C1.21136408,20.1935277 2.23733059,20.8447412 3.38386724,21.1589793 C5.37071702,24.8000316 46.2660073,23.2193702 49.3963732,23.2193702 C52.5267391,23.2193702 57.2431431,23.043926 57.2431431,22.7241532 Z" id="path-2"></path>
        <linearGradient x1="43.543579%" y1="3.448276%" x2="55.595565%" y2="86.637931%" id="linearGradient-4">
            <stop stop-color="#F9E4E4" offset="0%"></stop>
            <stop stop-color="#FFD24A" offset="100%"></stop>
        </linearGradient>
        <linearGradient x1="0%" y1="49.959968%" x2="100%" y2="49.959968%" id="linearGradient-5">
            <stop stop-color="#FFFFFF" offset="0%"></stop>
            <stop stop-color="#262261" offset="100%"></stop>
        </linearGradient>
    </defs>
    <g id="Page-1" stroke="none" stroke-width="1" fill="none" fill-rule="evenodd">
        <g id="cover-illu">
            <path d="M151.282154,339 C84.5329426,314.434736 36.926004,250.302388 36.926004,175.055556 C36.926004,78.5995823 115.152175,0.406566 211.649048,0.406566 C308.145921,0.406566 386.372092,78.5995823 386.372092,175.055556 C386.372092,250.302388 338.765153,314.434736 272.015942,339 L151.282154,339 Z" id="Combined-Shape" fill="#59C7DD" fill-rule="nonzero"></path>
            <g id="Group" transform="translate(27.881606, 12.897727)">
                <g transform="translate(16.000000, 0.000000)" fill-rule="nonzero">
                    <path d="M97.926271,80.671572 C96.408192,78.960481 84.233798,75.910275 84.233798,75.910275 L84.233798,69.839622 C84.233798,69.839622 100.947545,65.241995 100.337337,62.950621 C99.727129,60.659247 100.337337,48.5328206 100.337337,48.5328206 C103.059982,47.300332 105.497521,45.5170078 107.496119,43.2953945 C105.204118,38.0579685 93.178555,13.5372917 93.178555,13.5372917 C102.108428,0.1461454 93.178555,0.7561865 93.178555,0.7561865 C68.695818,3.3748996 51.148617,15.1739873 46.222303,19.7567352 C41.29599,24.3394829 42.620588,29.2644491 42.620588,29.2644491 C49.184045,54.1571019 62.93605,64.974172 62.93605,64.974172 L62.93605,78.484351 C62.93605,78.484351 54.646151,82.010686 52.800643,83.52835 C50.955136,85.046013 48.931032,89.926342 48.931032,89.926342 C48.931032,89.926342 18.3759811,100.951719 0.7990136,115.220729 L20.8025682,230.025207 L15.8756167,270.706817 L7.510716,325.962779 C43.2580554,325.950677 61.1317251,325.974091 61.1317251,326.033019 C61.1317251,327.367038 61.7232447,326.035879 62.906284,322.039543 C62.906284,323.740617 62.906284,325.016423 62.906284,325.866961 C62.906284,326.334292 113.291989,326.274146 113.291989,326.161119 C113.291989,326.048092 121.27789,275.438354 121.27789,275.438354 L128.347373,271.182946 C128.347373,271.182946 123.406176,242.55565 114.952563,226.768976 C114.952563,226.768976 123.346644,194.183854 126.308385,168.517491 C126.308385,168.517491 104.504611,88.497953 104.504611,88.497953 C104.504611,88.497953 99.444349,82.382662 97.926271,80.671572 Z" id="Path" fill="#FFFFFF"></path>
                    <path d="M69.75252,95.682936 C61.273714,126.502444 57.034311,157.580355 57.034311,188.916671 C57.217854,195.02008 53.886709,193.919548 47.040875,185.61507 L59.311526,96.633597 L65.406648,94.732275 L69.75252,95.682936 Z" id="Path" fill="#D8D8D8"></path>
                    <path d="M99.282852,91.016316 L92.651057,92.321869 C98.057722,120.08463 101.185374,141.153883 102.034013,155.529629 C102.882651,169.905375 103.356432,199.401732 103.455353,244.018701 L108.684239,241.907825 L112.429874,192.36861 L108.684239,132.852405 L99.282852,91.016316 Z" id="Path" fill="#D8D8D8"></path>
                    <ellipse id="Oval" fill="#1C1C1C" cx="76.241561" cy="131.126435" rx="2.190247" ry="2.188908"></ellipse>
                    <ellipse id="Oval" fill="#1C1C1C" cx="76.241561" cy="160.884538" rx="2.190247" ry="2.188908"></ellipse>
                    <ellipse id="Oval" fill="#1C1C1C" cx="76.241561" cy="190.64264" rx="2.190247" ry="2.188908"></ellipse>
                    <ellipse id="Oval" fill="#1C1C1C" cx="76.241561" cy="220.400744" rx="2.190247" ry="2.188908"></ellipse>
                    <path d="M128.436672,271.182946 C128.436672,271.182946 126.42745,259.592164 122.810852,247.078882 L113.523783,238.315122 C107.96043,244.157629 96.960145,247.078882 80.522928,247.078882 C64.085711,247.078882 44.744271,244.157629 22.4986062,238.315122 L22.4986062,250.411791 C22.4986062,251.48438 20.2859819,258.249387 15.8607335,270.706817 C10.2400285,307.835467 7.42967593,326.399791 7.42967593,326.399791 C7.42967593,326.399791 61.0491712,326.185306 61.0491712,326.185306 C61.6069869,326.185306 62.2210636,324.803385 62.891401,322.039543 C62.891401,323.858384 62.891401,325.222515 62.891401,326.131935 C62.891401,326.334292 113.388653,326.399791 113.388653,325.774633 C113.388653,325.149475 121.367189,275.438354 121.367189,275.438354 L128.436672,271.182946 Z" id="Path" fill="#1C1C1C"></path>
                    <path d="M77.581042,101.279058 L72.163586,94.018081 L72.163586,92.113562 L78.920523,83.36468 L87.775981,93.378282 L84.497487,100.847828 L84.501694,100.847565 C84.501694,100.847565 92.955308,137.524427 94.428737,196.653776 C91.004899,203.356417 86.862944,209.66743 82.075745,215.475777 C78.457061,209.372483 75.1488,203.090491 72.163586,196.653776 C72.163586,196.653776 78.697277,134.161761 77.581042,101.279058 L77.581042,101.279058 Z" id="Path" fill="#A6B7C7"></path>
                    <path d="M0.858546,115.161213 L20.8025682,230.025207 L15.9351491,270.6473 L15.444006,273.861174 C38.542612,282.610056 55.181943,279.634247 55.181943,279.634247 C69.862525,244.018701 83.906369,204.327698 83.906369,199.911084 C83.906369,144.21795 65.838259,94.687638 65.838259,94.687638 L50.642591,86.459523 C50.031754,87.565141 49.480296,88.702522 48.990564,89.866825 C48.990564,89.866825 18.4355138,100.892202 0.858546,115.161213 Z" id="Path" fill="#1C1C1C"></path>
                    <path d="M209.238346,147.151236 C190.21955,146.373009 185.137312,146.373009 167.696916,143.763599 C150.25652,141.154189 144.542112,131.341593 144.381717,131.126435 C124.729306,104.764065 124.729306,100.630456 117.841107,96.55707 C104.59391,88.723243 104.504611,88.497953 104.504611,88.497953 C104.504611,88.497953 100.78383,84.034237 98.759726,81.63871 L97.152348,91.072028 C97.152348,91.072028 85.778108,176.654551 83.906369,199.892973 C83.549174,204.327698 97.20692,256.839087 104.59391,279.649127 C110.395319,279.408115 116.084844,277.974726 121.307656,275.438354 L128.377139,271.182946 C128.377139,271.182946 123.435943,242.55565 114.982329,226.768976 C114.982329,226.768976 119.976787,208.151441 123.61873,188.453732 C124.166626,185.490398 124.166626,180.643918 126.270133,172.059104 C128.373639,163.474289 143.214195,172.48863 152.682112,173.407008 C162.15003,174.325387 191.933365,170.772659 210.546922,166.823839 C210.546922,164.400392 210.546922,160.662927 209.238346,147.151236 L209.238346,147.151236 Z" id="Path" fill="#1C1C1C"></path>
                    <path d="M121.277891,246.853673 C121.277891,246.853673 117.665172,247.849812 115.654055,246.85369 C115.677621,246.840653 112.630039,255.595188 103.351871,281.511126 L88.8049,275.438354 L91.453884,293.082494 L109.874544,299.189647 C117.431734,265.468346 121.277891,246.853673 121.277891,246.853673 L121.277891,246.853673 Z" id="Path" fill="#000000" opacity="0.4" transform="translate(105.041395, 273.021660) scale(-1, 1) translate(-105.041395, -273.021660) "></path>
                    <path d="M215.87178,141.633133 C222.391145,141.239512 227.139977,142.31165 230.118274,144.849546 C233.096572,147.387443 234.245422,149.020686 233.564829,149.749276 L226.406882,148.770421 L238.535223,170.213798 C225.914745,174.554649 215.459249,170.924848 207.168739,159.324395 C208.244263,156.932975 211.145277,151.035888 215.87178,141.633133 L215.87178,141.633133 Z" id="Path" fill="#E39C75" transform="translate(222.851981, 156.770344) rotate(-30.000000) translate(-222.851981, -156.770344) "></path>
                    <path d="M97.985803,80.671572 C96.497491,78.945602 84.293331,75.910275 84.293331,75.910275 L84.293331,70.152082 L62.995582,73.351078 L62.995582,78.424835 C62.995582,78.424835 54.705683,81.95117 52.860176,83.468833 C51.014669,84.986497 48.990564,89.866825 48.990564,89.866825 C57.647685,93.633328 66.993718,95.558773 76.435042,95.520865 C76.435042,95.520865 80.09629,94.97034 80.408836,83.36468 C80.408836,83.36468 84.278448,92.173078 86.91276,93.110459 C89.547073,94.047839 97.792323,92.693845 104.564143,88.497953 C104.504611,88.497953 99.503882,82.382662 97.985803,80.671572 Z" id="Path" fill="#FFFFFF"></path>
                    <path d="M79.992108,80.686451 C81.599474,79.25968 83.042183,77.657665 84.293331,75.910275 L84.293331,69.839622 C84.293331,69.839622 101.007077,65.241995 100.396869,62.950621 C99.786661,60.659247 100.396869,48.5328206 100.396869,48.5328206 C103.119515,47.300332 105.557053,45.5170078 107.555651,43.2953945 C105.26365,38.0579685 93.238087,13.5372917 93.238087,13.5372917 C94.310739,11.9660599 95.251582,10.3088376 96.050997,8.5825675 L91.987905,7.3029692 L47.040875,23.7145629 L48.410122,44.8279368 C55.092644,58.680334 62.995582,64.914656 62.995582,64.914656 L62.995582,78.424835 C68.601413,79.57398 74.280782,80.329697 79.992108,80.686451 L79.992108,80.686451 Z" id="Path" fill="#E39C75"></path>
                    <path d="M93.238087,13.4926547 C102.167961,0.1015083 93.238087,0.7115494 93.238087,0.7115494 C68.755351,3.3302626 51.208149,15.1293502 46.281836,19.7120981 C41.355522,24.2948458 42.68012,29.2198118 42.68012,29.2198118 C49.243577,54.1124648 62.995582,64.929535 62.995582,64.929535 L62.995582,54.767143 C62.995582,54.767143 58.084152,53.8446418 58.084152,46.5539068 C58.084152,39.2631715 62.995582,43.756645 62.995582,43.756645 C62.995582,43.756645 62.281193,29.6513043 62.281193,27.6426325 C62.281193,25.6339604 75.973665,15.3227779 93.238087,13.4926547 Z" id="Path" fill="#1C1C1C"></path>
                </g>
                <path d="M99.549174,213.196727 L99.549174,246.85369" id="Path" stroke="#808184" stroke-width="1.09395"></path>
                <path d="M118.540465,272.247922 L115.020416,325.785389" id="Path" stroke="#1A120D" stroke-width="1.09395"></path>
                <path d="M45.2836577,276.576228 L34.6942722,325.944627" id="Path" stroke="#1A120D" stroke-width="1.09395"></path>
                <path d="M113.554193,48.3989091 L116.396869,48.5328206 C119.119515,47.300332 121.557053,45.5170078 123.555651,43.2953945 C119.78258,43.9471262 116.295576,45.7264644 113.554193,48.3989091 L113.554193,48.3989091 Z" id="Path" fill="#000000" fill-rule="nonzero" opacity="0.4"></path>
                <path d="M116.396869,62.950621 C116.396869,62.950621 100.471928,65.64373 93.298263,69.378372 L100.293331,69.839622 C100.293331,69.839622 117.007077,65.241995 116.396869,62.950621 L116.396869,62.950621 Z" id="Path" fill="#000000" fill-rule="nonzero" opacity="0.4"></path>
                <path d="M75.319451,45.780196 C75.22789,47.9394787 75.932246,50.05726 77.298906,51.7318167 C78.132361,52.7733503 79.531375,52.103793 79.680206,50.705162 C79.816081,48.5669748 79.043278,46.4707134 77.551919,44.9320901 C75.855244,43.191241 75.319451,45.780196 75.319451,45.780196 Z" id="Path" fill="#000000" fill-rule="nonzero" opacity="0.4"></path>
                <path d="M144.921535,129.400465 C142.677668,158.845495 140.910104,177.583696 139.618843,185.61507 C139.605431,185.499947 140.796695,140.440075 139.618843,122.872555 C140.97269,124.506774 142.740254,126.682744 144.921535,129.400465 Z" id="Path" fill="#000000" fill-rule="nonzero" opacity="0.4"></path>
                <path d="M90.098392,96.621915 C87.18473,96.690605 84.271821,96.45624 81.406648,95.922599 L81.838259,94.732275 L89.27982,95.476228 L90.098392,96.621915 Z" id="Path" fill="url(#linearGradient-1)" fill-rule="nonzero"></path>
                <path d="M91.9769365,326.12879 C91.9769365,311.868886 92.226678,299.869756 92.226678,299.869756 L78.965816,322.039543 C78.9760821,323.860264 78.9769138,325.225682 78.9683113,326.135795 C78.965816,326.399791 91.9769365,326.221418 91.9769365,326.12879 Z" id="Path" fill="#000000" fill-rule="nonzero" opacity="0.4"></path>
                <path d="M131.705428,121.962669 L131.705428,120.168124 L138.741714,124.358199 L138.741714,133.489163 L138.7235,133.500071 L134.470648,136.032629 L134.470648,134.238311 L134.488862,134.227403 L137.236603,132.591095 L137.236603,125.255206 L131.705428,121.962669 Z M128.940721,131.694997 L128.940721,124.36941 L130.446933,123.478765 L130.446933,134.386247 L126.174766,131.842857 L126.174766,126.004808 L127.680832,125.114315 L127.680832,130.945243 L128.940721,131.694997 Z M123.409986,124.358199 L123.4282,124.347443 L130.446933,120.168124 L130.446933,121.979334 L130.428573,121.990165 L128.940721,122.870205 L128.940721,122.859449 L124.915538,125.255206 L124.915538,132.591095 L130.446933,135.88492 L130.446933,137.67939 L130.392293,137.646818 L123.409986,133.489163 L123.409986,124.358199 Z M133.211566,133.35321 L133.211566,131.748487 L134.470648,131.091999 L134.470648,126.902346 L133.211566,126.152062 L133.211566,131.446674 L133.211566,133.106937 L133.211566,136.782534 L131.705428,137.67939 L131.705428,123.461418 L135.976787,126.004884 L135.976787,131.842857 L133.211566,133.35321 Z" id="Shape" fill="#FFFFFF" fill-rule="nonzero"></path>
                <polygon id="Path" fill="#000000" fill-rule="nonzero" opacity="0.4" points="83.730108 246.85369 72.298177 286.775472 31.8607335 270.706817 30.0740974 283.252004 79.114647 302.291812 90.051315 247.746942"></polygon>
                <path d="M16.858546,115.161213 C3.731222,155.190657 0.2489813,188.207074 0.2489813,197.48731 C0.2489813,206.767544 22.7510527,230.025208 45.2836577,254.226338 L49.348402,236.297944 L16.858546,115.161213 Z" id="Path" fill="#1C1C1C" fill-rule="nonzero"></path>
                <polygon id="Path" fill="#000000" fill-rule="nonzero" transform="translate(40.086984, 189.048027) rotate(169.000000) translate(-40.086984, -189.048027) " points="39.759373 167.517628 43.2785805 188.917669 36.8953875 210.578426"></polygon>
                <path d="M60.227122,238.02292 L47.473904,260.793063" id="Path" stroke="#000000" stroke-width="2.1879"></path>
                <path d="M218.948034,175.138344 C227.677547,170.550321 237.953738,154.870998 249.776607,128.100376 C259.864735,132.701377 271.816512,137.980886 285.631939,143.938903 C273.526898,171.284102 263.173802,187.860023 254.572651,193.666667 C243.627245,188.254872 231.752373,182.078765 218.948034,175.138344 Z" id="Path" fill="#FFFFFF" fill-rule="nonzero"></path>
                <path d="M238.511171,142.708749 C240.866442,143.193915 242.275721,143.523968 242.739008,143.698908 C243.433938,143.961317 249.375661,149.271988 249.565176,149.952004 C249.754691,150.63202 249.085512,152.017043 247.427631,152.017043 C245.769749,152.017043 242.308223,148.897367 241.756929,148.897367 C241.3894,148.897367 239.725309,149.248913 236.764657,149.952004 L238.511171,142.708749 Z" id="Path" fill="#E39C75" fill-rule="nonzero"></path>
            </g>
            <g id="Group" transform="translate(252.250529, 231.440657) scale(-1, 1) translate(-252.250529, -231.440657) translate(146.750529, 121.940657)">
                <g transform="translate(63.000000, 0.000000)">
                    <path d="M108.418907,216.674916 L83.908806,217.178488 L58.851794,214.433501 L58.26914,215.011701 C58.507946,214.629959 58.633005,214.433501 58.633005,214.433501 C57.486468,214.11926 56.460502,213.468047 55.687768,212.564063 C55.687768,212.564063 55.670939,197.608567 55.906558,195.334925 C56.142176,193.061286 58.851794,193.280229 58.851794,193.280229 C58.851794,193.280229 45.943242,153.349127 45.135406,145.23139 C44.327569,137.113654 55.620186,112.845816 55.620186,112.845816 L32.8663911,128.097953 C39.379572,112.199316 42.307979,106.7564 44.849297,100.530093 C47.390616,94.3037865 58.851794,88.0704824 58.851794,88.0704824 C74.520454,82.1581892 88.489291,77.2740741 88.489291,77.2740741 C91.01378,74.5793899 92.309684,65.316413 92.309684,65.316413 C83.490803,64.8280015 78.138887,64.8448433 77.162752,64.0869634 C76.186616,63.3290833 70.582252,47.2620288 70.81787,26.2771755 C71.053489,5.2923222 88.455631,2.36185311 88.455631,2.36185311 C138.726615,-4.35801573 112.892681,61.7122729 112.892681,61.7122729 L111.495798,84.886557 C111.495798,84.886557 122.910053,91.6216976 134.802567,103.124353 L139.74554,110.368165 C141.946006,111.098047 144.471273,116.691299 144.483536,119.011094 C134.301432,177.856261 110.216723,199.528529 110.216723,199.528529 C111.556602,199.504761 112.707444,200.476469 112.909511,201.802168 C112.909511,201.802168 112.424961,215.520298 112.424961,216.015515 C112.424961,216.510732 110.478674,215.873973 108.762022,216.510732 C108.636623,216.518635 108.522369,216.573919 108.418907,216.674916 Z" id="Shape" fill="#774427" fill-rule="nonzero"></path>
                    <path d="M84.450109,11.4058869 C84.450109,11.4058869 72.669162,16.071059 70.98617,32.4412655 C70.98617,32.4412655 72.416713,54.1334734 77.230072,64.103805 C77.230072,64.103805 78.542806,65.0301028 92.377004,65.3332548 C92.018216,67.631424 91.535047,69.9084125 90.92963,72.1541742 C90.92963,72.1541742 85.880653,73.6194088 68.798279,72.1541742 C70.436764,62.6469937 70.436764,52.9292842 68.798279,43.4221038 C66.004512,28.9381762 64.826417,4.5344423 85.846993,1.89028344 C85.846993,1.89028344 111.091879,-7.05269986 119.506841,14.4374068 C127.921804,35.9275132 121.189834,72.8110033 121.189834,72.8110033 L98.149668,72.8110033 C98.149668,72.8110033 105.016277,62.1164755 107.187337,44.1799837 C107.187337,44.1799837 111.226519,43.9441987 110.9909,35.0685828 C110.755281,26.1929666 104.881637,34.2601774 104.881637,34.2601774 C104.881637,34.2601774 87.109237,27.0687391 84.450109,11.4058869 L84.450109,11.4058869 Z" id="Path" fill="#F3C44F" fill-rule="nonzero"></path>
                    <path d="M43.41298,102.300954 L18.7881754,160.11942 L0.7551661,181.714865 L12.1418438,193.291362 C22.5958983,184.903138 27.7210032,180.35785 34.4880607,173.827617 C36.8875364,168.137803 46.864942,159.177208 58.55355,121.256176 L43.41298,102.300954 Z" id="Path" fill="#1C1C1C" fill-rule="nonzero"></path>
                    <path d="M134.092973,102.300954 C121.999625,90.8681543 111.495798,84.886557 111.495798,84.886557 C103.568903,94.6547873 88.455631,102.300954 88.455631,102.300954 C85.796503,84.4655126 88.455631,77.2740741 88.455631,77.2740741 C88.455631,77.2740741 49.92616,86.4023168 43.41298,102.300954 L50.588301,113.130216 C50.588301,113.130216 42.605143,137.811659 43.41298,145.929395 C44.220816,154.047132 58.818135,193.280229 58.818135,193.280229 C71.255448,202.829517 110.065254,199.612737 110.065254,199.612737 C110.065254,199.612737 134.301432,179.927449 144.483536,121.082283 C144.529677,118.771311 145.563237,116.226939 143.186545,112.321811 L134.092973,102.300954 Z" id="Path" fill="#1C1C1C" fill-rule="nonzero"></path>
                    <g transform="translate(55.181818, 193.291362)">
                        <g id="b-link" fill="#F3C44F" fill-rule="nonzero">
                            <path d="M57.2431431,22.7241532 C57.2431431,22.4043805 58.0503795,9.57627075 57.7976863,8.18440921 C57.5956192,6.85870956 56.189655,6.31444983 54.849776,6.33821794 C12.6066659,8.78027552 3.60265638,0.00570984 3.60265638,0.00570984 C3.60265638,0.00570984 0.89303855,-0.21323279 0.65741968,2.06040642 C0.42180057,4.33404563 0.43863054,19.2895441 0.43863054,19.2895441 C1.21136408,20.1935277 2.23733059,20.8447412 3.38386724,21.1589793 C5.37071702,24.8000316 46.2660073,23.2193702 49.3963732,23.2193702 C52.5267391,23.2193702 57.2431431,23.043926 57.2431431,22.7241532 Z" id="b"></path>
                        </g>
                        <g id="Clipped">
                            <mask id="mask-3" fill="white">
                                <use xlink:href="#path-2"></use>
                            </mask>
                            <g id="b"></g>
                            <polygon id="Path" fill="#000000" fill-rule="nonzero" opacity="0.3" mask="url(#mask-3)" transform="translate(-4.503171, 10.615835) scale(-1, 1) translate(4.503171, -10.615835) " points="-22.515856 -2.437827 13.509514 -2.437827 13.509514 23.669496 -22.515856 23.669496"></polygon>
                        </g>
                    </g>
                    <ellipse id="Oval" fill="url(#linearGradient-4)" fill-rule="nonzero" cx="86.385551" cy="110.368165" rx="2.476744" ry="2.477652"></ellipse>
                    <path d="M79.8892,47.548339 C78.228026,46.6972028 76.297433,46.5397396 74.520454,47.1104528 C74.520454,47.1104528 75.37878,49.198833 79.8892,47.548339 Z" id="Path" fill="#000000" fill-rule="nonzero" opacity="0.4"></path>
                    <path d="M89.583236,75.5056877 C87.714669,75.1894633 85.82346,75.0261189 83.928382,75.0172762 C81.202757,83.0926459 80.679872,91.7495784 82.413688,100.094681 C84.921347,113.568102 88.455631,102.317796 88.455631,102.317796 C87.222334,93.3850447 87.60428,84.3031543 89.583236,75.5056877 L89.583236,75.5056877 Z" id="Path" fill="#FFFFFF" fill-rule="nonzero"></path>
                    <path d="M111.613607,82.1581892 C113.614838,83.2496988 115.134215,85.0526001 115.871578,87.2107222 C115.871578,87.2107222 107.170507,103.31146 91.501847,108.363993 C87.429006,109.037664 88.455631,102.300954 88.455631,102.300954 C97.708173,97.5877658 105.660891,90.6705064 111.613607,82.1581892 Z" id="Path" fill="#FFFFFF" fill-rule="nonzero"></path>
                    <path d="M100.270238,65.316413 C100.270238,65.316413 82.430518,66.14166 77.162752,64.103805 C77.162752,64.103805 76.910303,61.2070196 100.270238,65.316413 Z" id="Path" fill="#000000" fill-rule="nonzero" opacity="0.4"></path>
                    <path d="M108.954479,32.8791517 C106.800597,34.0826038 105.231909,36.1148165 104.612359,38.504305 C103.922332,42.1589705 106.800249,43.0515846 107.978343,41.6368756 C109.578997,39.0047358 109.936248,35.7995338 108.954479,32.8791517 Z" id="Path" fill="#000000" fill-rule="nonzero" opacity="0.4"></path>
                    <path d="M143.186545,111.833399 L131.708537,100.044156 C127.610225,96.5103037 124.894331,94.2483915 123.560853,93.2584186 C121.560637,91.7734592 118.623875,89.7973337 118.623875,91.5179618 C118.623875,93.2385897 112.156616,123.757377 111.651719,132.88562 C111.146821,142.013862 102.759993,150.316858 97.711015,152.977859 C92.662038,155.638859 100.270238,184.727255 80.116892,199.307832 L110.031594,199.612737 C110.031594,199.612737 131.910496,167.613362 142.765797,114.056514 C142.917266,113.416526 143.035076,112.574437 143.186545,111.833399 Z" id="Path" fill="#000000" fill-rule="nonzero"></path>
                    <path d="M42.0971313,130.812327 C39.3900323,120.852999 40.7505393,114.1612 46.1786533,110.73693 C54.3208243,105.600524 62.8696633,114.061253 68.2131643,129.218851 C71.7754983,139.323917 77.5773843,156.108842 85.6188223,179.573624 L147.276727,204.786675 L140.40609,217.178488 C102.525234,207.558371 74.5796423,199.330458 68.2131643,195.686849 C61.8466863,192.043242 53.1413413,170.418399 42.0971313,130.812327 L42.0971313,130.812327 Z" id="Path" fill="#1C1C1C" fill-rule="nonzero" transform="translate(94.011312, 163.204993) scale(-1, 1) translate(-94.011312, -163.204993) "></path>
                </g>
                <path d="M21.9767053,152.142677 L96.8924,152.142677 C98.880625,152.142677 100.4924,153.754452 100.4924,155.742677 C100.4924,156.072819 100.446987,156.401392 100.357437,156.719157 L84.004115,214.748846 C83.785471,215.524704 83.077673,216.060606 82.2715962,216.060606 L2.25283015,216.060606 C1.25871762,216.060606 0.4528302,215.254719 0.4528302,214.260606 C0.4528302,214.095535 0.47553676,213.931248 0.52031142,213.772366 L16.7791491,156.077955 C17.4350811,153.750384 19.5584751,152.142677 21.9767053,152.142677 L21.9767053,152.142677 Z" id="Path" fill="#D8D8D8" fill-rule="nonzero" transform="translate(50.472615, 184.101641) scale(-1, 1) translate(-50.472615, -184.101641) "></path>
                <ellipse id="Oval" fill="#FFFFFF" fill-rule="nonzero" transform="translate(47.506061, 186.802399) scale(-1, 1) translate(-47.506061, -186.802399) " cx="47.506061" cy="186.802399" rx="9.906977" ry="10.352904"></ellipse>
                <path d="M114.7612,110.105839 C111.404074,114.511259 110.564205,120.025814 112.241593,126.649505 C114.800606,136.754571 132.615819,188.923896 134.705315,188.923896 C136.098312,188.923896 167.215905,199.612737 210.245897,209.778952 L209.008154,212.601319 L206.017704,218.091394 L205.160415,217.825782 C159.590144,204.304071 140.151562,199.958662 133.822826,196.336652 C127.456348,192.693043 118.751004,171.068202 107.706793,131.46213 C104.999694,121.502801 106.360201,114.811002 111.788315,111.386732 C112.775445,110.764011 113.768552,110.341146 114.7612,110.105839 Z" id="Path" fill="#000000" fill-rule="nonzero" transform="translate(158.300728, 164.098616) scale(-1, 1) translate(-158.300728, -164.098616) "></path>
                <path d="M133.91885,32.4412655 C133.91885,32.4412655 137.621433,17.2836669 147.955007,13.6963685 L147.450109,11.4058869 C147.450109,11.4058869 135.719652,15.7342235 133.91885,32.4412655 Z" id="Path" fill="url(#linearGradient-5)" fill-rule="nonzero" opacity="0.4"></path>
            </g>
            <path d="M0.44275924,339.119145 L403.025768,338.484699" id="Path" stroke="#25304F" stroke-width="0.9" stroke-linecap="square"></path>
            <path d="M246.773784,340.654413 L253.477066,327.133677 L259.775815,322.69697 L258.721285,327.133677 C264.38675,329.003738 267.872287,329.938768 269.177896,329.938768 C271.136309,329.938768 276.071171,327.971853 278.936013,327.971853 C281.800855,327.971853 286.352522,330.330534 287.079023,331.675691 C287.805524,333.020848 276.672062,340.709556 273.63196,342.855424 C271.605225,344.286002 262.6525,343.552332 246.773784,340.654413 L246.773784,340.654413 Z" id="Path" fill="#E39C75" fill-rule="nonzero"></path>
            <path d="M259.256458,324.947601 L258.76378,327.020436 C264.1742,328.842587 267.532214,329.753663 268.837823,329.753663 C270.796236,329.753663 275.731098,327.786748 278.59594,327.786748 C281.436439,327.786748 285.935215,330.105513 286.719605,331.456077 C285.225811,331.177523 283.442393,330.862691 281.369352,330.511581 C277.383015,329.836418 276.227246,332.945698 269.492105,332.945698 C265.002012,332.945698 260.071099,331.321235 254.699366,328.072307 L259.195536,324.950021 L259.256458,324.947601 Z" id="Path" fill="#885D46" fill-rule="nonzero"></path>
        </g>
    </g>
</svg>