<?xml version="1.0" encoding="UTF-8"?>
<svg width="404px" height="344px" viewBox="0 0 404 344" version="1.1" xmlns="http://www.w3.org/2000/svg" xmlns:xlink="http://www.w3.org/1999/xlink">
    <!-- Generator: Sketch 54.1 (76490) - https://sketchapp.com -->
    <title>illu-about</title>
    <desc>Created with Sketch.</desc>
    <defs>
        <linearGradient x1="-156.164384%" y1="53.3368062%" x2="132.534247%" y2="48.5810361%" id="linearGradient-1">
            <stop stop-color="#FFFFFF" offset="0%"></stop>
            <stop stop-color="#808184" offset="100%"></stop>
        </linearGradient>
        <path d="M57.2431431,22.7241532 C57.2431431,22.4043805 58.0503795,9.57627075 57.7976863,8.18440921 C57.5956192,6.85870956 56.189655,6.31444983 54.849776,6.33821794 C12.6066659,8.78027552 3.60265638,0.00570983994 3.60265638,0.00570983994 C3.60265638,0.00570983994 0.893038548,-0.213232791 0.657419682,2.06040642 C0.421800568,4.33404563 0.43863054,19.2895441 0.43863054,19.2895441 C1.21136408,20.1935277 2.23733059,20.8447412 3.38386724,21.1589793 C5.37071702,24.8000316 46.2660073,23.2193702 49.3963732,23.2193702 C52.5267391,23.2193702 57.2431431,23.043926 57.2431431,22.7241532 Z" id="path-2"></path>
        <linearGradient x1="43.5435794%" y1="3.44827586%" x2="55.5955645%" y2="86.637931%" id="linearGradient-4">
            <stop stop-color="#F9E4E4" offset="0%"></stop>
            <stop stop-color="#FFD24A" offset="100%"></stop>
        </linearGradient>
        <linearGradient x1="0%" y1="49.959968%" x2="100%" y2="49.959968%" id="linearGradient-5">
            <stop stop-color="#FFFFFF" offset="0%"></stop>
            <stop stop-color="#262261" offset="100%"></stop>
        </linearGradient>
    </defs>
    <g id="Design" stroke="none" stroke-width="1" fill="none" fill-rule="evenodd">
        <g id="3a-about-" transform="translate(-218.000000, -168.000000)">
            <g id="content-" transform="translate(-165.000000, 59.000000)">
                <g id="Cover" transform="translate(194.000000, 0.000000)">
                    <g id="illu-about" transform="translate(189.000000, 86.000000)">
                        <g id="man" transform="translate(1.801268, 0.000000)">
                            <ellipse id="Oval" fill="#59C7DD" fill-rule="nonzero" cx="209.84778" cy="198.055556" rx="174.723044" ry="174.64899"></ellipse>
                            <g transform="translate(-27.919662, -8.102273)">
                                <path d="M174.504611,132.497953 C174.504611,132.497953 169.444349,126.382662 167.926271,124.671572 C166.408192,122.960481 154.233798,119.910275 154.233798,119.910275 L154.233798,113.839622 C154.233798,113.839622 170.947545,109.241995 170.337337,106.950621 C169.727129,104.659247 170.337337,92.5328206 170.337337,92.5328206 C173.059982,91.300332 175.497521,89.5170078 177.496119,87.2953945 C175.204118,82.0579685 163.178555,57.5372917 163.178555,57.5372917 C172.108428,44.1461454 163.178555,44.7561865 163.178555,44.7561865 C138.695818,47.3748996 121.148617,59.1739873 116.222303,63.7567352 C111.29599,68.3394829 112.620588,73.2644491 112.620588,73.2644491 C119.184045,98.1571019 132.93605,108.974172 132.93605,108.974172 L132.93605,122.484351 C132.93605,122.484351 124.646151,126.010686 122.800643,127.52835 C120.955136,129.046013 118.931032,133.926342 118.931032,133.926342 C118.931032,133.926342 88.3759811,144.951719 70.7990136,159.220729 L90.8025682,274.025207 L85.8756167,314.706817 L68.0158697,432.682815 L54.2489813,576.831063 L70.7990136,576.831063 C70.7990136,576.831063 102.931675,467.484917 106.711988,458.46821 C110.492301,449.451506 103.735364,431.685919 103.735364,431.685919 L132.906284,366.039543 L132.906284,414.902348 C132.906284,414.902348 121.818357,426.80559 120.330045,442.056616 C118.841733,457.307644 121.818357,576.816185 121.818357,576.816185 L139.097663,576.816185 C139.097663,576.816185 170.203388,440.077703 173.656273,425.764055 C177.109157,411.450407 191.27789,319.438354 191.27789,319.438354 L198.347373,315.182946 C198.347373,315.182946 193.406176,286.55565 184.952563,270.768976 C184.952563,270.768976 193.346644,238.183854 196.308385,212.517491 C196.308385,212.517491 174.504611,132.497953 174.504611,132.497953 Z" id="Path" fill="#FFFFFF" fill-rule="nonzero"></path>
                                <path d="M139.75252,139.682936 C131.273714,170.502444 127.034311,201.580355 127.034311,232.916671 C127.217854,239.02008 123.886709,237.919548 117.040875,229.61507 L129.311526,140.633597 L135.406648,138.732275 L139.75252,139.682936 Z" id="Path-12" fill="#D8D8D8" fill-rule="nonzero"></path>
                                <path d="M169.282852,135.016316 L162.651057,136.321869 C168.057722,164.08463 171.185374,185.153883 172.034013,199.529629 C172.882651,213.905375 173.356432,243.401732 173.455353,288.018701 L178.684239,285.907825 L182.429874,236.36861 L178.684239,176.852405 L169.282852,135.016316 Z" id="Path-11" fill="#D8D8D8" fill-rule="nonzero"></path>
                                <ellipse id="Oval" fill="#1C1C1C" fill-rule="nonzero" cx="146.241561" cy="175.126435" rx="2.19024675" ry="2.18890831"></ellipse>
                                <ellipse id="Oval" fill="#1C1C1C" fill-rule="nonzero" cx="146.241561" cy="204.884538" rx="2.19024675" ry="2.18890831"></ellipse>
                                <ellipse id="Oval" fill="#1C1C1C" fill-rule="nonzero" cx="146.241561" cy="234.64264" rx="2.19024675" ry="2.18890831"></ellipse>
                                <ellipse id="Oval" fill="#1C1C1C" fill-rule="nonzero" cx="146.241561" cy="264.400744" rx="2.19024675" ry="2.18890831"></ellipse>
                                <path d="M191.367189,319.438354 L198.436672,315.182946 C198.436672,315.182946 196.42745,303.592164 192.810852,291.078882 L183.523783,282.315122 C177.96043,288.157629 166.960145,291.078882 150.522928,291.078882 C134.085711,291.078882 114.744271,288.157629 92.4986062,282.315122 C92.4986062,289.306976 92.4986062,293.3392 92.4986062,294.411791 C92.4986062,295.48438 90.2859819,302.249387 85.8607335,314.706817 L68.0009865,432.682815 L54.2340984,576.831063 L70.7841304,576.831063 C70.7841304,576.831063 102.916792,467.484917 106.697105,458.46821 C110.477418,449.451506 103.720481,431.685919 103.720481,431.685919 L132.891401,366.039543 L132.891401,414.902348 C132.891401,414.902348 121.803474,426.80559 120.315162,442.056616 C118.82685,457.307644 121.803474,576.816185 121.803474,576.816185 L139.08278,576.816185 C139.08278,576.816185 170.188505,440.077703 173.64139,425.764055 C177.094274,411.450407 191.367189,319.438354 191.367189,319.438354 Z" id="Path" fill="#1C1C1C" fill-rule="nonzero"></path>
                                <path d="M147.581042,145.279058 L142.163586,138.018081 L142.163586,136.113562 L148.920523,127.36468 L157.775981,137.378282 L154.497487,144.847828 L154.501694,144.847565 C154.501694,144.847565 162.955308,181.524427 164.428737,240.653776 C161.004899,247.356417 156.862944,253.66743 152.075745,259.475777 C148.457061,253.372483 145.1488,247.090491 142.163586,240.653776 C142.163586,240.653776 148.697277,178.161761 147.581042,145.279058 Z" id="Path-5" fill="#A6B7C7" fill-rule="nonzero"></path>
                                <path d="M70.858546,159.161213 L90.8025682,274.025207 L85.9351491,314.6473 L85.444006,317.861174 C108.542612,326.610056 125.181943,323.634247 125.181943,323.634247 C139.862525,288.018701 153.906369,248.327698 153.906369,243.911084 C153.906369,188.21795 135.838259,138.687638 135.838259,138.687638 L120.642591,130.459523 C120.031754,131.565141 119.480296,132.702522 118.990564,133.866825 C118.990564,133.866825 88.4355138,144.892202 70.858546,159.161213 Z" id="Path" fill="#1C1C1C" fill-rule="nonzero"></path>
                                <path d="M279.238346,191.151236 C260.21955,190.373009 255.137312,190.373009 237.696916,187.763599 C220.25652,185.154189 214.542112,175.341593 214.381717,175.126435 C194.729306,148.764065 194.729306,144.630456 187.841107,140.55707 C174.59391,132.723243 174.504611,132.497953 174.504611,132.497953 C174.504611,132.497953 170.78383,128.034237 168.759726,125.63871 L167.152348,135.072028 C167.152348,135.072028 155.778108,220.654551 153.906369,243.892973 C153.549174,248.327698 167.20692,300.839087 174.59391,323.649127 C180.395319,323.408115 186.084844,321.974726 191.307656,319.438354 L198.377139,315.182946 C198.377139,315.182946 193.435943,286.55565 184.982329,270.768976 C184.982329,270.768976 189.976787,252.151441 193.61873,232.453732 C194.166626,229.490398 194.166626,224.643918 196.270133,216.059104 C198.373639,207.474289 213.214195,216.48863 222.682112,217.407008 C232.15003,218.325387 261.933365,214.772659 280.546922,210.823839 C280.546922,208.400392 280.546922,204.662927 279.238346,191.151236 Z" id="Path" fill="#1C1C1C" fill-rule="nonzero"></path>
                                <path d="M191.277892,290.853673 C191.277892,290.853673 187.665173,291.849812 185.654056,290.85369 C185.677622,290.840653 182.63004,299.595188 173.351872,325.511126 L158.804901,319.438354 L161.453885,337.082494 L179.874545,343.189647 C187.431735,309.468346 191.277892,290.853673 191.277892,290.853673 Z" id="Path-10" fill="#000000" fill-rule="nonzero" opacity="0.4" style="mix-blend-mode: multiply;" transform="translate(175.041396, 317.021660) scale(-1, 1) translate(-175.041396, -317.021660) "></path>
                                <path d="M285.871781,185.633134 C292.391146,185.239513 297.139978,186.311651 300.118275,188.849547 C303.096573,191.387444 304.245423,193.020687 303.56483,193.749277 L296.406883,192.770422 L308.535224,214.213799 C295.914746,218.55465 285.45925,214.924849 277.16874,203.324396 C278.244264,200.932976 281.145278,195.035889 285.871781,185.633134 Z" id="Path-14" fill="#E39C75" fill-rule="nonzero" transform="translate(292.851982, 200.770345) rotate(-30.000000) translate(-292.851982, -200.770345) "></path>
                                <path d="M167.985803,124.671572 C166.497491,122.945602 154.293331,119.910275 154.293331,119.910275 L154.293331,114.152082 L132.995582,117.351078 L132.995582,122.424835 C132.995582,122.424835 124.705683,125.95117 122.860176,127.468833 C121.014669,128.986497 118.990564,133.866825 118.990564,133.866825 C127.647685,137.633328 136.993718,139.558773 146.435042,139.520865 C146.435042,139.520865 150.09629,138.97034 150.408836,127.36468 C150.408836,127.36468 154.278448,136.173078 156.91276,137.110459 C159.547073,138.047839 167.792323,136.693845 174.564143,132.497953 C174.504611,132.497953 169.503882,126.382662 167.985803,124.671572 Z" id="Path" fill="#FFFFFF" fill-rule="nonzero"></path>
                                <path d="M149.992108,124.686451 C151.599474,123.25968 153.042183,121.657665 154.293331,119.910275 L154.293331,113.839622 C154.293331,113.839622 171.007077,109.241995 170.396869,106.950621 C169.786661,104.659247 170.396869,92.5328206 170.396869,92.5328206 C173.119515,91.300332 175.557053,89.5170078 177.555651,87.2953945 C175.26365,82.0579685 163.238087,57.5372917 163.238087,57.5372917 C164.310739,55.9660599 165.251582,54.3088376 166.050997,52.5825675 L161.987905,51.3029692 L117.040875,67.7145629 L118.410122,88.8279368 C125.092644,102.680334 132.995582,108.914656 132.995582,108.914656 L132.995582,122.424835 C138.601413,123.57398 144.280782,124.329697 149.992108,124.686451 L149.992108,124.686451 Z" id="Path" fill="#E39C75" fill-rule="nonzero"></path>
                                <path d="M163.238087,57.4926547 C172.167961,44.1015083 163.238087,44.7115494 163.238087,44.7115494 C138.755351,47.3302626 121.208149,59.1293502 116.281836,63.7120981 C111.355522,68.2948458 112.68012,73.2198118 112.68012,73.2198118 C119.243577,98.1124648 132.995582,108.929535 132.995582,108.929535 L132.995582,98.767143 C132.995582,98.767143 128.084152,97.8446418 128.084152,90.5539068 C128.084152,83.2631715 132.995582,87.756645 132.995582,87.756645 C132.995582,87.756645 132.281193,73.6513043 132.281193,71.6426325 C132.281193,69.6339604 145.973665,59.3227779 163.238087,57.4926547 Z" id="Path" fill="#1C1C1C" fill-rule="nonzero"></path>
                                <path d="M153.549174,257.196727 L153.549174,290.85369" id="Path" stroke="#808184" stroke-width="1.0939499"></path>
                                <polyline id="Path" stroke="#1A120D" stroke-width="1.0939499" points="172.540465 316.247922 165.917049 416.985416 135.778726 576.816185"></polyline>
                                <polyline id="Path" stroke="#1A120D" stroke-width="1.0939499" points="99.2836577 320.576228 78.5977698 417.015172 59.6217887 576.816185"></polyline>
                                <path d="M167.554193,92.3989091 L170.396869,92.5328206 C173.119515,91.300332 175.557053,89.5170078 177.555651,87.2953945 C173.78258,87.9471262 170.295576,89.7264644 167.554193,92.3989091 L167.554193,92.3989091 Z" id="Path" fill="#000000" fill-rule="nonzero" opacity="0.4" style="mix-blend-mode: multiply;"></path>
                                <path d="M170.396869,106.950621 C170.396869,106.950621 154.471928,109.64373 147.298263,113.378372 L154.293331,113.839622 C154.293331,113.839622 171.007077,109.241995 170.396869,106.950621 Z" id="Path" fill="#000000" fill-rule="nonzero" opacity="0.4" style="mix-blend-mode: multiply;"></path>
                                <path d="M129.319451,89.780196 C129.22789,91.9394787 129.932246,94.05726 131.298906,95.7318167 C132.132361,96.7733503 133.531375,96.103793 133.680206,94.705162 C133.816081,92.5669748 133.043278,90.4707134 131.551919,88.9320901 C129.855244,87.191241 129.319451,89.780196 129.319451,89.780196 Z" id="Path" fill="#000000" fill-rule="nonzero" opacity="0.4" style="mix-blend-mode: multiply;"></path>
                                <path d="M198.921535,173.400465 C196.677668,202.845495 194.910104,221.583696 193.618843,229.61507 C193.605431,229.499947 194.796695,184.440075 193.618843,166.872555 C194.97269,168.506774 196.740254,170.682744 198.921535,173.400465 Z" id="Path-7" fill="#000000" fill-rule="nonzero" opacity="0.4" style="mix-blend-mode: multiply;"></path>
                                <path d="M144.098392,140.621915 C141.18473,140.690605 138.271821,140.45624 135.406648,139.922599 L135.838259,138.732275 L143.27982,139.476228 L144.098392,140.621915 Z" id="Path" fill="url(#linearGradient-1)" fill-rule="nonzero"></path>
                                <path d="M132.995582,414.902348 C132.995582,414.902348 121.907656,426.80559 120.419344,442.056616 C118.931032,457.307644 121.907656,576.816185 121.907656,576.816185 L128.858074,576.816185 C128.858074,569.451054 128.619944,507.018555 132.995582,465.223299 C137.668883,420.690299 143.175638,423.874416 144.530002,415.571905 C145.884366,407.269395 146.226678,343.869756 146.226678,343.869756 L132.965816,366.039543 L132.995582,414.902348 Z" id="Path" fill="#000000" fill-rule="nonzero" opacity="0.4" style="mix-blend-mode: multiply;"></path>
                                <path d="M185.705428,165.962669 L185.705428,164.168124 L192.741714,168.358199 L192.741714,177.489163 L192.7235,177.500071 L188.470648,180.032629 L188.470648,178.238311 L188.488862,178.227403 L191.236603,176.591095 L191.236603,169.255206 L185.705428,165.962669 Z M182.940721,175.694997 L182.940721,168.36941 L184.446933,167.478765 L184.446933,178.386247 L180.174766,175.842857 L180.174766,170.004808 L181.680832,169.114315 L181.680832,174.945243 L182.940721,175.694997 Z M177.409986,168.358199 L177.4282,168.347443 L184.446933,164.168124 L184.446933,165.979334 L184.428573,165.990165 L182.940721,166.870205 L182.940721,166.859449 L178.915538,169.255206 L178.915538,176.591095 L184.446933,179.88492 L184.446933,181.67939 L184.392293,181.646818 L177.409986,177.489163 L177.409986,168.358199 Z M187.211566,177.35321 L187.211566,175.748487 L188.470648,175.091999 L188.470648,170.902346 L187.211566,170.152062 L187.211566,175.446674 L187.211566,177.106937 L187.211566,180.782534 L185.705428,181.67939 L185.705428,167.461418 L189.976787,170.004884 L189.976787,175.842857 L187.211566,177.35321 Z" id="path-7-2" fill="#FFFFFF" fill-rule="nonzero"></path>
                                <polygon id="Path-9" fill="#000000" fill-rule="nonzero" opacity="0.4" style="mix-blend-mode: multiply;" points="137.730108 290.85369 126.298177 330.775472 85.8607335 314.706817 84.0740974 327.252004 133.114647 346.291812 144.051315 291.746942"></polygon>
                                <path d="M70.858546,159.161213 C57.731222,199.190657 54.2489813,232.207074 54.2489813,241.48731 C54.2489813,250.767544 76.7510527,274.025208 99.2836577,298.226338 L103.348402,280.297944 L70.858546,159.161213 Z" id="Path-5" fill="#1C1C1C" fill-rule="nonzero"></path>
                                <polygon id="Path-32" fill="#000000" fill-rule="nonzero" transform="translate(94.086985, 233.048026) rotate(169.000000) translate(-94.086985, -233.048026) " points="93.7593744 211.517627 97.278582 232.917668 90.8953889 254.578425"></polygon>
                                <path d="M114.227122,282.02292 L101.473904,304.793063" id="Path-33" stroke="#000000" stroke-width="2.18789979"></path>
                                <g id="Path-34"></g>
                                <path d="M272.948034,219.138344 C281.677547,214.550321 291.953738,198.870998 303.776607,172.100376 C313.864735,176.701377 325.816512,181.980886 339.631939,187.938903 C327.526898,215.284102 317.173802,231.860023 308.572651,237.666667 C297.627245,232.254872 285.752373,226.078765 272.948034,219.138344 Z" id="Path-3" fill="#FFFFFF"></path>
                                <path d="M292.511171,186.708749 C294.866442,187.193915 296.275721,187.523968 296.739008,187.698908 C297.433938,187.961317 303.375661,193.271988 303.565176,193.952004 C303.754691,194.63202 303.085512,196.017043 301.427631,196.017043 C299.769749,196.017043 296.308223,192.897367 295.756929,192.897367 C295.3894,192.897367 293.725309,193.248913 290.764657,193.952004 L292.511171,186.708749 Z" id="Path-4" fill="#E39C75"></path>
                            </g>
                        </g>
                        <g id="femme" transform="translate(251.276956, 428.970328) scale(-1, 1) translate(-251.276956, -428.970328) translate(146.803383, 144.940657)">
                            <path d="M169.418907,216.674916 L144.908806,217.178488 L119.851794,214.433501 L119.26914,215.011701 C119.507946,214.629959 119.633005,214.433501 119.633005,214.433501 C118.486468,214.11926 117.460502,213.468047 116.687768,212.564063 C116.687768,212.564063 116.670939,197.608567 116.906558,195.334925 C117.142176,193.061286 119.851794,193.280229 119.851794,193.280229 C119.851794,193.280229 106.943242,153.349127 106.135406,145.23139 C105.327569,137.113654 116.620186,112.845816 116.620186,112.845816 L93.8663911,128.097953 C100.379572,112.199316 103.307979,106.7564 105.849297,100.530093 C108.390616,94.3037865 119.851794,88.0704824 119.851794,88.0704824 C135.520454,82.1581892 149.489291,77.2740741 149.489291,77.2740741 C152.01378,74.5793899 153.309684,65.316413 153.309684,65.316413 C144.490803,64.8280015 139.138887,64.8448433 138.162752,64.0869634 C137.186616,63.3290833 131.582252,47.2620288 131.81787,26.2771755 C132.053489,5.2923222 149.455631,2.36185311 149.455631,2.36185311 C199.726615,-4.35801573 173.892681,61.7122729 173.892681,61.7122729 L172.495798,84.886557 C172.495798,84.886557 183.910053,91.6216976 195.802567,103.124353 L200.74554,110.368165 C202.946006,111.098047 205.471273,116.691299 205.483536,119.011094 C195.301432,177.856261 171.216723,199.528529 171.216723,199.528529 C172.556602,199.504761 173.707444,200.476469 173.909511,201.802168 C173.909511,201.802168 173.424961,215.520298 173.424961,216.015515 C173.424961,216.510732 171.478674,215.873973 169.762022,216.510732 C169.636623,216.518635 169.522369,216.573919 169.418907,216.674916 Z M187.30324,347.536278 C189.861329,361.707262 191.631422,371.112546 191.631422,371.112546 C186.750744,372.325154 182.021535,373.184084 177.410136,374.009332 L182.038365,389.16693 C178.167482,416.551657 155.649043,535.690385 155.649043,535.690385 L155.649043,559.942542 C162.128564,560.818315 160.698021,567.13398 160.698021,567.13398 L133.585013,567.13398 C131.178333,563.310897 137.068807,559.942542 137.068807,559.942542 C137.068807,559.942542 141.343608,542.747088 142.790981,535.690385 C144.238355,528.633679 141.814846,390.969001 142.790981,386.99434 C143.713122,383.760682 144.83733,380.588181 146.156966,377.495579 C133.281003,378.067517 120.380217,377.339645 107.650099,375.322991 L106.135406,379.819745 C111.79026,387.011183 113.271294,401.932995 112.126859,414.732746 C110.982424,427.532497 105.849297,524.55797 105.849297,524.55797 C108.161611,528.535782 109.326746,533.077183 109.215282,537.677714 C108.929173,545.054411 102.668441,567.13398 102.668441,567.13398 L69.5976402,567.13398 L69.5976402,563.61405 C69.8837487,558.174156 77.5918541,558.140472 80.1500027,555.9342 C82.7081513,553.727926 93.8663911,525.096906 93.8663911,525.096906 L71.88651,371.550432 L73.821951,365.84107 C69.1173334,363.941812 64.6081828,361.589762 60.3580118,358.818048 C60.9249013,355.082541 61.6114024,351.317005 62.4024945,347.536278 L187.30324,347.536278 Z" id="Combined-Shape" fill="#774427" fill-rule="nonzero"></path>
                            <path d="M145.450109,11.4058869 C145.450109,11.4058869 133.669162,16.071059 131.98617,32.4412655 C131.98617,32.4412655 133.416713,54.1334734 138.230072,64.103805 C138.230072,64.103805 139.542806,65.0301028 153.377004,65.3332548 C153.018216,67.631424 152.535047,69.9084125 151.92963,72.1541742 C151.92963,72.1541742 146.880653,73.6194088 129.798279,72.1541742 C131.436764,62.6469937 131.436764,52.9292842 129.798279,43.4221038 C127.004512,28.9381762 125.826417,4.5344423 146.846993,1.89028344 C146.846993,1.89028344 172.091879,-7.05269986 180.506841,14.4374068 C188.921804,35.9275132 182.189834,72.8110033 182.189834,72.8110033 L159.149668,72.8110033 C159.149668,72.8110033 166.016277,62.1164755 168.187337,44.1799837 C168.187337,44.1799837 172.226519,43.9441987 171.9909,35.0685828 C171.755281,26.1929666 165.881637,34.2601774 165.881637,34.2601774 C165.881637,34.2601774 148.109237,27.0687391 145.450109,11.4058869 Z" id="Path" fill="#F3C44F" fill-rule="nonzero"></path>
                            <path d="M104.41298,102.300954 L79.7881754,160.11942 L61.7551661,181.714865 L73.1418438,193.291362 C83.5958983,184.903138 88.7210032,180.35785 95.4880607,173.827617 C97.8875364,168.137803 107.864942,159.177208 119.55355,121.256176 L104.41298,102.300954 Z" id="Path-16" fill="#1C1C1C" fill-rule="nonzero"></path>
                            <path d="M195.092973,102.300954 C182.999625,90.8681543 172.495798,84.886557 172.495798,84.886557 C164.568903,94.6547873 149.455631,102.300954 149.455631,102.300954 C146.796503,84.4655126 149.455631,77.2740741 149.455631,77.2740741 C149.455631,77.2740741 110.92616,86.4023168 104.41298,102.300954 L111.588301,113.130216 C111.588301,113.130216 103.605143,137.811659 104.41298,145.929395 C105.220816,154.047132 119.818135,193.280229 119.818135,193.280229 C132.255448,202.829517 171.065254,199.612737 171.065254,199.612737 C171.065254,199.612737 195.301432,179.927449 205.483536,121.082283 C205.529677,118.771311 206.563237,116.226939 204.186545,112.321811 L195.092973,102.300954 Z" id="Path" fill="#1C1C1C" fill-rule="nonzero"></path>
                            <g id="Rectangle" transform="translate(116.181818, 193.291362)">
                                <mask id="mask-3" fill="white">
                                    <use xlink:href="#path-2"></use>
                                </mask>
                                <use id="Mask" fill="#F3C44F" fill-rule="nonzero" xlink:href="#path-2"></use>
                                <rect fill="#000000" fill-rule="nonzero" opacity="0.3" mask="url(#mask-3)" transform="translate(-4.503171, 10.615835) scale(-1, 1) translate(4.503171, -10.615835) " x="-22.5158562" y="-2.43782674" width="36.02537" height="26.1073232"></rect>
                            </g>
                            <ellipse id="Oval" fill="url(#linearGradient-4)" fill-rule="nonzero" cx="147.385551" cy="110.368165" rx="2.47674419" ry="2.47765152"></ellipse>
                            <path d="M140.8892,47.548339 C139.228026,46.6972028 137.297433,46.5397396 135.520454,47.1104528 C135.520454,47.1104528 136.37878,49.198833 140.8892,47.548339 Z" id="Path" fill="#000000" fill-rule="nonzero" opacity="0.4" style="mix-blend-mode: multiply;"></path>
                            <path d="M150.583236,75.5056877 C148.714669,75.1894633 146.82346,75.0261189 144.928382,75.0172762 C142.202757,83.0926459 141.679872,91.7495784 143.413688,100.094681 C145.921347,113.568102 149.455631,102.317796 149.455631,102.317796 C148.222334,93.3850447 148.60428,84.3031543 150.583236,75.5056877 L150.583236,75.5056877 Z" id="Path" fill="#FFFFFF" fill-rule="nonzero"></path>
                            <path d="M172.613607,82.1581892 C174.614838,83.2496988 176.134215,85.0526001 176.871578,87.2107222 C176.871578,87.2107222 168.170507,103.31146 152.501847,108.363993 C148.429006,109.037664 149.455631,102.300954 149.455631,102.300954 C158.708173,97.5877658 166.660891,90.6705064 172.613607,82.1581892 Z" id="Path" fill="#FFFFFF" fill-rule="nonzero"></path>
                            <path d="M161.270238,65.316413 C161.270238,65.316413 143.430518,66.14166 138.162752,64.103805 C138.162752,64.103805 137.910303,61.2070196 161.270238,65.316413 Z" id="Path" fill="#000000" fill-rule="nonzero" opacity="0.4" style="mix-blend-mode: multiply;"></path>
                            <path d="M169.954479,32.8791517 C167.800597,34.0826038 166.231909,36.1148165 165.612359,38.504305 C164.922332,42.1589705 167.800249,43.0515846 168.978343,41.6368756 C170.578997,39.0047358 170.936248,35.7995338 169.954479,32.8791517 L169.954479,32.8791517 Z" id="Path" fill="#000000" fill-rule="nonzero" opacity="0.4" style="mix-blend-mode: multiply;"></path>
                            <path d="M204.186545,111.833399 L192.708537,100.044156 C188.610225,96.5103037 185.894331,94.2483915 184.560853,93.2584186 C182.560637,91.7734592 179.623875,89.7973337 179.623875,91.5179618 C179.623875,93.2385897 173.156616,123.757377 172.651719,132.88562 C172.146821,142.013862 163.759993,150.316858 158.711015,152.977859 C153.662038,155.638859 161.270238,184.727255 141.116892,199.307832 L171.031594,199.612737 C171.031594,199.612737 192.910496,167.613362 203.765797,114.056514 C203.917266,113.416526 204.035076,112.574437 204.186545,111.833399 Z" id="Path" fill="#000000" fill-rule="nonzero"></path>
                            <path d="M103.097131,130.812327 C100.390032,120.852999 101.750539,114.1612 107.178653,110.73693 C115.320824,105.600524 123.869663,114.061253 129.213164,129.218851 C132.775498,139.323917 138.577384,156.108842 146.618822,179.573624 L208.276727,204.786675 L201.40609,217.178488 C163.525234,207.558371 135.579642,199.330458 129.213164,195.686849 C122.846686,192.043242 114.141341,170.418399 103.097131,130.812327 Z" id="Path-3" fill="#1C1C1C" fill-rule="nonzero" transform="translate(155.011312, 163.204993) scale(-1, 1) translate(-155.011312, -163.204993) "></path>
                            <path d="M19.3993392,152.142677 L94.3150339,152.142677 C96.3032589,152.142677 97.9150338,153.754452 97.9150338,155.742677 C97.9150338,156.072819 97.8696207,156.401392 97.7800713,156.719157 L81.4267489,214.748846 C81.2081049,215.524704 80.5003069,216.060606 79.6942301,216.060606 L-0.324535962,216.060606 C-1.31864849,216.060606 -2.12453591,215.254719 -2.12453591,214.260606 C-2.12453591,214.095535 -2.10182935,213.931248 -2.05705469,213.772366 L14.201783,156.077955 C14.857715,153.750384 16.981109,152.142677 19.3993392,152.142677 Z" id="Rectangle" fill="#D8D8D8" transform="translate(48.183932, 184.101641) scale(-1, 1) translate(-48.183932, -184.101641) "></path>
                            <ellipse id="Oval" fill="#FFFFFF" transform="translate(45.506061, 186.802399) scale(-1, 1) translate(-45.506061, -186.802399) " cx="45.506061" cy="186.802399" rx="9.90697674" ry="10.352904"></ellipse>
                            <path d="M112.7612,110.105839 C109.404074,114.511259 108.564205,120.025814 110.241593,126.649505 C112.800606,136.754571 130.615819,188.923896 132.705315,188.923896 C134.098312,188.923896 165.215905,199.612737 208.245897,209.778952 L207.008154,212.601319 L204.017704,218.091394 L203.160415,217.825782 C157.590144,204.304071 138.151562,199.958662 131.822826,196.336652 C125.456348,192.693043 116.751004,171.068202 105.706793,131.46213 C102.999694,121.502801 104.360201,114.811002 109.788315,111.386732 C110.775445,110.764011 111.768552,110.341146 112.7612,110.105839 Z" id="Combined-Shape" fill="#000000" fill-rule="nonzero" transform="translate(156.300728, 164.098617) scale(-1, 1) translate(-156.300728, -164.098617) "></path>
                            <path d="M131.91885,32.4412655 C131.91885,32.4412655 135.621433,17.2836669 145.955007,13.6963685 L145.450109,11.4058869 C145.450109,11.4058869 133.719652,15.7342235 131.91885,32.4412655 Z" id="Path" fill="url(#linearGradient-5)" fill-rule="nonzero" opacity="0.4" style="mix-blend-mode: multiply;"></path>
                        </g>
                        <path d="M0.442759242,362.119145 L403.025768,361.484699" id="Line-3" stroke="#25304F" stroke-width="0.899999976" stroke-linecap="square"></path>
                        <path d="M246.773784,363.654413 L253.477066,350.133677 L259.775815,345.69697 L258.721285,350.133677 C264.38675,352.003738 267.872287,352.938768 269.177896,352.938768 C271.136309,352.938768 276.071171,350.971853 278.936013,350.971853 C281.800855,350.971853 286.352522,353.330534 287.079023,354.675691 C287.805524,356.020848 276.672062,363.709556 273.63196,365.855424 C271.605225,367.286002 262.6525,366.552332 246.773784,363.654413 Z" id="Path-19" fill="#E39C75"></path>
                        <path d="M259.256458,347.947601 L258.76378,350.020436 C264.1742,351.842587 267.532214,352.753663 268.837823,352.753663 C270.796236,352.753663 275.731098,350.786748 278.59594,350.786748 C281.436439,350.786748 285.935215,353.105513 286.719605,354.456077 C285.225811,354.177523 283.442393,353.862691 281.369352,353.511581 C277.383015,352.836418 276.227246,355.945698 269.492105,355.945698 C265.002012,355.945698 260.071099,354.321235 254.699366,351.072307 L259.195536,347.950021 L259.256458,347.947601 Z" id="Combined-Shape" fill="#885D46"></path>
                    </g>
                </g>
            </g>
        </g>
    </g>
</svg>