<?xml version="1.0" encoding="UTF-8"?>
<svg width="73px" height="32px" viewBox="0 0 73 32" version="1.1" xmlns="http://www.w3.org/2000/svg" xmlns:xlink="http://www.w3.org/1999/xlink">
    <!-- Generator: Sketch 54.1 (76490) - https://sketchapp.com -->
    <title>happn</title>
    <desc>Created with Sketch.</desc>
    <g id="Design" stroke="none" stroke-width="1" fill="none" fill-rule="evenodd">
        <g id="3a-about-" transform="translate(-1211.000000, -3492.000000)" fill="#FFFFFF" fill-rule="nonzero">
            <g id="content-" transform="translate(-165.000000, 59.000000)">
                <g id="Section-3" transform="translate(164.000000, 3137.000000)">
                    <g id="Logo" transform="translate(704.000000, 289.000000)">
                        <path d="M532.900613,16.2873563 L532.900613,17.2068966 C532.004908,16.4712644 530.840491,16.0114943 529.496933,16.0114943 C526.182822,16.0114943 523.585276,18.954023 523.406135,22.908046 C523.137423,27.8735632 526.182822,30.1724138 529.13865,30.1724138 C530.303067,30.1724138 531.467485,29.8045977 532.36319,29.1609195 L532.36319,29.1609195 C532.990184,29.8045977 534.960736,29.8965517 535.58773,29.8965517 L535.58773,29.8965517 L536.035583,20.8850575 L536.214724,17.1149425 C535.408589,16.2873563 532.900613,16.2873563 532.900613,16.2873563 Z M532.452761,24.1954023 C532.452761,24.4712644 532.452761,24.7471264 532.36319,24.9310345 C532.004908,26.2183908 530.840491,27.045977 529.586503,27.045977 C527.347239,27.045977 526.630675,24.9310345 526.720245,22.908046 C526.809816,20.9770115 527.884663,18.954023 529.855215,18.954023 C531.109202,18.954023 532.184049,19.8735632 532.452761,21.2528736 C532.452761,21.3448276 532.452761,21.3448276 532.452761,21.4367816 C532.452761,21.6206897 532.452761,21.8965517 532.452761,22.0804598 L532.452761,24.1954023 Z M545.26135,16.0114943 C548.57546,16.0114943 550.904294,18.862069 550.635583,22.908046 C550.366871,27.8735632 547.142331,30.1724138 544.186503,30.1724138 C543.022086,30.1724138 541.947239,29.8045977 541.141104,29.1609195 L540.603681,39 L537.2,39 L538.095706,20.9770115 L538.364417,16.2873563 C538.364417,16.2873563 540.961963,16.2873563 541.768098,17.2068966 C542.663804,16.3793103 543.917791,16.0114943 545.26135,16.0114943 Z M544.007362,27.137931 C546.157055,27.137931 547.142331,25.0229885 547.142331,23 C547.321472,21.0689655 546.515337,19.045977 544.455215,19.045977 C543.201227,19.045977 542.03681,20.0574713 541.588957,21.3448276 C541.588957,21.4367816 541.588957,21.4367816 541.588957,21.5287356 C541.499387,21.8045977 541.499387,21.9885057 541.499387,22.1724138 L541.409816,24.2873563 C541.409816,24.5632184 541.409816,24.8390805 541.409816,25.0229885 C541.678528,26.2183908 542.753374,27.137931 544.007362,27.137931 Z M559.323926,16.0114943 C562.727607,16.0114943 564.966871,18.862069 564.69816,22.908046 C564.429448,27.8735632 561.204908,30.1724138 558.24908,30.1724138 C557.084663,30.1724138 556.009816,29.8045977 555.203681,29.1609195 L554.666258,39 L551.262577,39 L552.158282,20.9770115 L552.426994,16.2873563 C552.426994,16.2873563 555.02454,16.2873563 555.830675,17.2068966 C556.72638,16.3793103 557.980368,16.0114943 559.323926,16.0114943 Z M558.069939,27.137931 C560.309202,27.137931 561.204908,25.0229885 561.204908,23 C561.384049,21.0689655 560.577914,19.045977 558.517791,19.045977 C557.263804,19.045977 556.099387,20.0574713 555.651534,21.3448276 C555.651534,21.4367816 555.651534,21.4367816 555.651534,21.5287356 C555.561963,21.8045977 555.561963,21.9885057 555.561963,22.1724138 L555.472393,24.2873563 C555.472393,24.5632184 555.472393,24.8390805 555.472393,25.0229885 C555.741104,26.2183908 556.815951,27.137931 558.069939,27.137931 Z M522.331288,27.2298851 C522.868712,27.2298851 523.137423,27.137931 523.406135,27.2298851 C523.406135,28.4252874 522.868712,29.1609195 522.331288,29.6206897 C520.808589,30.7241379 519.106748,29.7126437 518.927607,29.6206897 C517.584049,28.7931034 517.404908,27.045977 517.494479,25.5747126 L517.494479,25.4827586 L517.67362,22.1724138 C517.76319,20.1494253 517.046626,19.137931 515.613497,19.137931 C515.523926,19.137931 515.434356,19.137931 515.344785,19.137931 C514.53865,19.137931 512.120245,19.9655172 511.672393,26.3103448 L511.493252,29.8965517 L508,29.8965517 L508.537423,20.2413793 L509.253988,7 C509.253988,7 512.657669,7.09195402 512.478528,10.2183908 L512.120245,18.0344828 C512.209816,17.9425287 513.284663,16.2873563 515.613497,15.9195402 C515.792638,15.9195402 515.882209,15.9195402 516.06135,15.9195402 C516.240491,15.9195402 516.419632,15.9195402 516.598773,15.9195402 C518.838037,15.9195402 521.435583,17.4827586 521.166871,21.8045977 L520.98773,25.1149425 C520.89816,26.954023 521.614724,27.2298851 522.331288,27.2298851 Z M579.925153,27.2298851 C580.373006,27.2298851 580.641718,27.137931 581,27.045977 C581,28.2413793 580.462577,28.9770115 579.925153,29.4367816 C578.402454,30.5402299 576.700613,29.5287356 576.521472,29.4367816 C575.177914,28.6091954 574.998773,26.862069 575.088344,25.3908046 L575.088344,25.2988506 L575.267485,21.9885057 C575.357055,19.9655172 574.640491,18.954023 573.207362,18.954023 C573.117791,18.954023 573.028221,18.954023 572.93865,18.954023 C572.132515,18.954023 569.71411,19.7816092 569.266258,26.1264368 L569.087117,29.7126437 L565.593865,29.7126437 L566.131288,20.0574713 L566.310429,16.1034483 C566.310429,16.1034483 568.728834,16.1034483 569.71411,16.9310345 L569.71411,18.0344828 C569.803681,17.9425287 570.878528,16.2873563 573.207362,15.9195402 C573.386503,15.9195402 573.476074,15.9195402 573.655215,15.9195402 C573.834356,15.9195402 574.013497,15.9195402 574.192638,15.9195402 C576.431902,15.9195402 579.029448,17.4827586 578.760736,21.8045977 L578.581595,25.1149425 C578.492025,26.954023 579.208589,27.2298851 579.925153,27.2298851 Z" id="happn"></path>
                    </g>
                </g>
            </g>
        </g>
    </g>
</svg>