<?xml version="1.0" encoding="UTF-8"?>
<svg width="123px" height="17px" viewBox="0 0 123 17" version="1.1" xmlns="http://www.w3.org/2000/svg" xmlns:xlink="http://www.w3.org/1999/xlink">
    <!-- Generator: Sketch 54.1 (76490) - https://sketchapp.com -->
    <title>figaro</title>
    <desc>Created with Sketch.</desc>
    <g id="Design" stroke="none" stroke-width="1" fill="none" fill-rule="evenodd">
        <g id="3a-about-" transform="translate(-1030.000000, -3497.000000)" fill="#FFFFFF" fill-rule="nonzero">
            <g id="content-" transform="translate(-165.000000, 59.000000)">
                <g id="Section-3" transform="translate(164.000000, 3137.000000)">
                    <g id="Logo" transform="translate(704.000000, 289.000000)">
                        <path d="M442.566726,14.9287588 C440.504222,14.915307 440.158488,17.0668794 440.158488,20.6082303 C440.158488,24.6012769 440.742176,26.4052277 442.554829,26.4052277 C444.713214,26.4052277 444.849688,24.268523 444.849688,20.6082303 C444.849688,16.9337779 444.647427,14.9422105 442.566726,14.9287588 Z M442.531033,28.8782262 C438.11838,28.8782262 435.085162,25.4820127 435.085162,20.4857486 C435.085162,15.4894845 438.11838,12.0699073 442.531033,12.0699073 C446.965382,12.0699073 450,15.4894845 450,20.4857486 C450,25.4820127 446.965382,28.8782262 442.531033,28.8782262 Z M435.425996,26.4115996 C435.425996,27.3241948 434.425188,29 431.91547,29 C429.404352,29 427.977325,26.660103 427.780663,24.7669458 C427.725402,24.2220612 427.652108,23.6792026 427.560905,23.1392838 C427.502117,22.8086539 427.17388,21.8960586 426.140878,21.8627833 L424.697755,21.8627833 L424.697755,24.2026802 C424.697755,24.7846455 425.173663,25.7637915 426.731565,25.5981226 L426.731565,28.6509624 L418.36467,28.6509624 L418.36467,25.5981226 C419.791696,25.7970669 420.201817,24.5510098 420.201817,24.1368374 L420.201817,16.6682828 C420.087039,15.1241632 418.922463,15.1744302 418.36467,15.1744302 L418.36467,12.0543316 L427.617595,12.0543316 C430.620718,12.0543316 433.110141,14.1952843 433.185026,16.8035083 C433.261312,19.4570435 431.818189,20.8843452 429.93555,21.1618761 C431.292589,21.7466734 432.473963,23.6051392 432.884084,25.5981226 C433.015659,26.0795537 433.671433,25.9464522 433.605646,25.0671323 L435.426696,25.0671323 L435.426696,26.4115996 L435.425996,26.4115996 Z M424.697055,18.942337 L426.501309,18.9487088 C427.590537,18.9487088 428.47353,18.0554689 428.47353,16.9536015 C428.47353,15.8517342 427.590537,14.9584942 426.501309,14.9584942 L426.534202,14.9422105 L424.697055,14.9422105 L424.697055,18.942337 Z M336.648349,23.9874522 L336.648349,22.365454 L340.016103,22.365454 L340.016103,28.6389266 L327,28.6389266 L327,25.5896267 C327.890929,25.5825468 328.246461,24.6012769 328.246461,24.162325 L328.246461,16.6357154 C328.246461,16.2703941 328.081992,15.2785043 327.021696,15.1772622 L327.021696,12.0649514 L334.457769,12.0649514 L334.457769,15.1772622 C334.081941,15.1744302 332.83968,15.408066 332.83968,16.710762 L332.83968,25.5903347 L332.83618,25.5903347 C332.841779,25.5846708 335.034458,25.5903347 335.034458,25.5903347 C336.313813,25.5896267 336.648349,24.3025064 336.648349,23.9874522 L336.648349,23.9874522 Z M342.367651,23.9308132 L342.367651,16.7277537 C342.367651,16.1875596 341.817557,15.1708903 340.846143,15.1708903 L340.846143,12.0607035 L354.699285,12.0607035 L354.699285,18.3348841 L351.069782,18.3348841 L351.069782,16.6258036 C351.069782,16.004191 350.646363,15.1765542 349.632258,15.1765542 L347.256913,15.1765542 L347.256913,18.6725939 L349.968893,18.6725939 L349.968893,21.5788805 L347.256913,21.5788805 L347.256913,25.5846708 L349.553173,25.5846708 C350.849324,25.5846708 351.066982,24.5170264 351.066982,24.1453333 L351.066982,22.3852776 L354.698585,22.3852776 L354.698585,28.6587503 L340.823748,28.6587503 L340.823748,25.5988305 C341.790262,25.5995385 342.367651,24.650836 342.367651,23.9308132 L342.367651,23.9308132 Z M369.495846,25.5910427 L370.285995,25.5910427 L370.285995,28.6927337 L361.744134,28.6927337 L361.744134,25.6158222 C362.33482,25.6158222 363.411914,25.1195234 363.411914,23.9216094 L363.411914,16.8601472 C363.411914,15.5588672 362.33412,15.1673504 361.744134,15.1673504 L361.744134,12.0430038 L375.243144,12.0430038 L375.243144,18.1416037 L372.172133,18.1416037 L372.172133,16.3886279 C372.172133,15.837814 371.77041,14.9415025 370.768902,14.9415025 L368.027528,14.9415025 L368.027528,18.3801953 L371.232913,18.3801953 L371.232913,21.3048895 L368.027528,21.3048895 L368.027528,24.1786087 C368.026828,25.2660767 369.094123,25.5910427 369.495846,25.5910427 Z M384.222421,25.5995385 L384.222421,28.6927337 L376.122875,28.6927337 L376.122875,25.5995385 C377.457519,25.5995385 377.927129,24.5680015 377.927129,23.9718765 L377.927129,16.8304118 C377.927129,16.3369449 377.567398,15.1701823 376.144571,15.1701823 L376.144571,12.0437118 L384.222421,12.0437118 L384.222421,15.1701823 C382.71491,15.1701823 382.405569,16.2866778 382.405569,16.92953 L382.405569,24.0051519 C382.405569,24.8016372 383.108235,25.5995385 384.222421,25.5995385 Z M398.346411,24.0865704 L398.347811,24.0143557 L398.347811,28.6509624 L394.461456,28.6509624 L394.461456,27.9373115 C393.60692,28.4683018 393.064524,28.7309649 392.024524,28.7309649 C388.043688,28.7309649 384.906889,26.1411486 384.906889,20.6655773 C384.906889,15.4406334 387.24724,12.0161003 390.79066,12.0161003 C391.99373,12.0161003 393.830877,11.8291918 394.727405,12.7290432 L394.727405,12.0670754 L398.393302,12.0670754 L398.393302,18.1394797 L394.765198,18.1394797 C394.765198,16.4020797 394.475453,14.4324599 392.382855,14.4324599 C390.111091,14.4324599 390.209772,16.8665191 390.213271,19.5519137 C390.216071,22.1778375 389.979516,25.8756535 392.381455,25.8756535 C393.644713,25.8423781 394.032438,25.1662505 394.164013,24.9673062 C395.208213,23.3814153 393.967351,22.6854641 393.392761,22.6854641 L392.883959,22.6854641 L392.883959,20.2422011 L399.926008,20.2422011 L399.926008,22.6854641 L399.65516,22.6868801 C398.806922,22.6875881 398.346411,23.1739751 398.346411,24.0865704 L398.346411,24.0865704 Z M417.510834,25.5981226 L417.510834,28.6509624 L409.733226,28.6509624 L409.733226,25.6257341 C411.128758,25.2398811 410.668247,24.0702867 410.553469,23.7049654 L405.878366,23.7049654 C405.763588,24.0037359 405.172901,25.2660767 406.837882,25.5981226 L407.338285,25.5981226 L407.338285,28.6509624 L399.75874,28.6509624 L399.75874,25.5981226 C401.57979,25.7970669 401.776453,24.8165049 402.022106,24.269231 L406.485149,12.0543316 L410.796322,12.0543316 L415.817159,24.5014507 C416.01662,24.9680141 416.344857,25.5981226 417.510834,25.5981226 Z M406.419597,20.5271658 L410.190535,20.5271658 L408.305066,15.5617714 L406.419597,20.5271658 Z" id="figaro"></path>
                    </g>
                </g>
            </g>
        </g>
    </g>
</svg>