<?xml version="1.0" encoding="UTF-8"?>
<svg width="10px" height="6px" viewBox="0 0 10 6" version="1.1" xmlns="http://www.w3.org/2000/svg" xmlns:xlink="http://www.w3.org/1999/xlink">
    <!-- Generator: Sketch 54.1 (76490) - https://sketchapp.com -->
    <title>arrow-down</title>
    <desc>Created with Sketch.</desc>
    <g id="Symbols" stroke="none" stroke-width="1" fill="none" fill-rule="evenodd">
        <g id="Footer" transform="translate(-1306.000000, -66.000000)" fill="#FFFFFF" stroke="#FFFFFF" stroke-width="0.3">
            <g id="Languages">
                <g transform="translate(1219.000000, 58.000000)">
                    <path d="M91.9851577,9.00044405 C91.9189664,9.00388063 91.8559856,9.03141346 91.8070499,9.07830614 L88.1024067,12.666425 C88.0216494,12.7371356 87.9845749,12.8487689 88.0059616,12.9568266 C88.0273482,13.0648843 88.1037189,13.1517982 88.2046314,13.1829235 C88.3055439,13.2140488 88.4145916,13.184325 88.488307,13.1056003 L92,9.70436243 L95.5116931,13.1056003 C95.5854084,13.184325 95.6944561,13.2140487 95.7953686,13.1829235 C95.8962811,13.1517982 95.9726517,13.0648843 95.9940384,12.9568266 C96.0154251,12.8487689 95.9783506,12.7371356 95.8975934,12.666425 L92.1929502,9.07830614 C92.1364589,9.02413121 92.0615758,8.99607172 91.9851577,9.00044405 L91.9851577,9.00044405 Z" id="arrow-down" transform="translate(92.000000, 11.097535) rotate(180.000000) translate(-92.000000, -11.097535) "></path>
                </g>
            </g>
        </g>
    </g>
</svg>