<?xml version="1.0" encoding="UTF-8"?>
<svg width="17px" height="15px" viewBox="0 0 17 15" version="1.1" xmlns="http://www.w3.org/2000/svg" xmlns:xlink="http://www.w3.org/1999/xlink">
    <!-- Generator: Sketch 54.1 (76490) - https://sketchapp.com -->
    <title>linkedin-link</title>
    <desc>Created with Sketch.</desc>
    <g id="Symbols" stroke="none" stroke-width="1" fill="none" fill-rule="evenodd">
        <g id="Footer" transform="translate(-1119.000000, -60.000000)" fill="#FFFFFF">
            <g id="Social">
                <g transform="translate(1053.000000, 60.000000)">
                    <path d="M83,14.9999813 L79.4544928,14.9999775 L79.4544928,9.72688409 C79.4544928,8.34666082 78.8998878,7.40441824 77.6803268,7.40441824 C76.7474986,7.40441824 76.2287365,8.0402637 75.9872751,8.65305418 C75.8967274,8.87300678 75.9108757,9.17940353 75.9108757,9.48580064 L75.9108757,14.9999813 L72.3983867,14.9999813 C72.3983867,14.9999813 72.4436605,5.65919293 72.3983867,4.81011899 L75.9108757,4.81011899 L75.9108757,6.40933449 C76.1183806,5.71009536 77.2407911,4.71214661 79.0319361,4.71214661 C81.2541226,4.71214661 83,6.17785478 83,9.33401583 L83,14.9999813 L83,14.9999813 L83,14.9999813 Z M68.8462768,3.53556683 L68.8236397,3.53556683 C67.6917957,3.53556683 66.9579832,2.7566103 66.9579832,1.76922529 C66.9579832,0.762629047 67.7134889,0 68.8679703,0 C70.0215075,0 70.7307976,0.760709049 70.7534351,1.76634154 C70.7534351,2.75372656 70.0215075,3.53556308 68.8462772,3.53556308 L68.8462772,3.53556308 L68.8462772,3.53556308 L68.8462768,3.53556683 Z M67.362617,4.81013774 L70.4893358,4.81013774 L70.4893358,15 L67.362617,15 L67.362617,4.81013774 L67.362617,4.81013774 Z" id="linkedin-link"></path>
                </g>
            </g>
        </g>
    </g>
</svg>