<?xml version="1.0" encoding="UTF-8"?>
<svg width="15px" height="15px" viewBox="0 0 15 15" version="1.1" xmlns="http://www.w3.org/2000/svg" xmlns:xlink="http://www.w3.org/1999/xlink">
    <!-- Generator: Sketch 54.1 (76490) - https://sketchapp.com -->
    <title>Phones-Mobile-Devices / Phone / phone</title>
    <desc>Created with Sketch.</desc>
    <g id="Design" stroke="none" stroke-width="1" fill="none" fill-rule="evenodd" stroke-linecap="round" stroke-linejoin="round">
        <g id="7a-Mentions-Légales" transform="translate(-950.000000, -544.000000)" stroke="#000000">
            <g id="Content" transform="translate(270.000000, 141.000000)">
                <g id="Infos" transform="translate(681.000000, 191.000000)">
                    <g id="Phones-Mobile-Devices-/-Phone-/-phone" transform="translate(0.000000, 213.000000)">
                        <g id="Group">
                            <g id="phone" stroke-width="1.5">
                                <path d="M8.14666667,12.1279167 L8.15316667,12.1317083 C9.33832236,12.8862479 10.8885573,12.7162264 11.882,11.72275 L12.30125,11.3035 C12.6911505,10.91311 12.6911505,10.2806817 12.30125,9.89029167 L10.534875,8.125 C10.144485,7.73509947 9.5120567,7.73509947 9.12166667,8.125 L9.12166667,8.125 C8.93441545,8.31248196 8.68030976,8.41782765 8.41533333,8.41782765 C8.15035691,8.41782765 7.89625122,8.31248196 7.709,8.125 L4.88258333,5.29804167 C4.4926828,4.90765164 4.4926828,4.27522336 4.88258333,3.88483333 L4.88258333,3.88483333 C5.0700653,3.69758211 5.17541099,3.44347643 5.17541099,3.1785 C5.17541099,2.91352357 5.0700653,2.65941789 4.88258333,2.47216667 L3.11675,0.704166667 C2.72635997,0.314266133 2.0939317,0.314266133 1.70354167,0.704166667 L1.28429167,1.12341667 C0.291029231,2.11691106 0.120812525,3.66687376 0.874791667,4.85225 L0.879125,4.85875 C2.81472351,7.72407185 5.28177764,10.1916776 8.14666667,12.1279167 L8.14666667,12.1279167 Z" id="Shape"></path>
                            </g>
                        </g>
                    </g>
                </g>
            </g>
        </g>
    </g>
</svg>