<svg xmlns="http://www.w3.org/2000/svg" viewBox="0 0 299 300"><defs><linearGradient id="a" x1="-156.164%" x2="132.534%" y1="53.341%" y2="48.579%"><stop offset="0%" stop-color="#FFF"/><stop offset="100%" stop-color="#808184"/></linearGradient><linearGradient id="b" x1="43.539%" x2="55.6%" y1="3.448%" y2="86.638%"><stop offset="0%" stop-color="#F9E4E4"/><stop offset="100%" stop-color="#FFD24A"/></linearGradient><linearGradient id="c" x1="0%" x2="100%" y1="49.96%" y2="49.96%"><stop offset="0%" stop-color="#FFF"/><stop offset="100%" stop-color="#262261"/></linearGradient></defs><g fill="none" fill-rule="evenodd" transform="translate(-50)"><circle cx="168" cy="117" r="117" fill="#59C7DD" fill-rule="nonzero"/><circle cx="167.5" cy="119.5" r="59.5" fill="#FFF" fill-rule="nonzero"/><g stroke="#1C1C1C" stroke-linecap="square"><path d="M267 297.5h81M50.706 297.942h53.263M104.243 251.942l-.274 46M205.243 251.942v22M206.243 273.942h60.726M104.243 251.942h100.726"/></g><g transform="matrix(-1 0 0 1 313 26)"><path fill="#FFF" fill-rule="nonzero" d="M79.673 60.532s-2.31-2.794-3.003-3.576c-.693-.782-6.252-2.175-6.252-2.175v-2.774s7.631-2.1 7.353-3.147c-.279-1.047 0-6.586 0-6.586a9.874 9.874 0 0 0 3.268-2.393c-1.046-2.393-6.537-13.595-6.537-13.595 4.077-6.118 0-5.84 0-5.84-11.178 1.197-19.19 6.588-21.438 8.681-2.25 2.094-1.645 4.344-1.645 4.344 2.997 11.372 9.276 16.314 9.276 16.314v6.172s-3.785 1.61-4.628 2.304c-.843.694-1.767 2.923-1.767 2.923S40.35 66.221 32.325 72.74l9.133 52.448-2.25 18.585-8.154 53.898-6.286 65.854h7.557s14.67-49.955 16.396-54.074c1.726-4.12-1.359-12.236-1.359-12.236l13.319-29.99v22.323s-5.062 5.438-5.742 12.405c-.68 6.967.68 61.565.68 61.565h7.889s14.202-62.47 15.778-69.008c1.577-6.54 8.046-48.575 8.046-48.575l3.227-1.944s-2.256-13.078-6.115-20.29c0 0 3.832-14.887 5.184-26.613l-9.955-36.556z"/><path fill="#D8D8D8" fill-rule="nonzero" d="M63.807 63.814C59.936 77.894 58 92.092 58 106.408c.084 2.788-1.437 2.285-4.563-1.509l5.603-40.65 2.783-.87 1.984.435zM77.29 61.682l-3.028.596c2.468 12.684 3.896 22.31 4.283 28.877.388 6.567.604 20.043.65 40.426l2.387-.964 1.71-22.632-1.71-27.19-4.293-19.113z"/><circle cx="66.769" cy="80.006" r="1" fill="#1C1C1C" fill-rule="nonzero"/><circle cx="66.769" cy="93.601" r="1" fill="#1C1C1C" fill-rule="nonzero"/><circle cx="66.769" cy="107.196" r="1" fill="#1C1C1C" fill-rule="nonzero"/><circle cx="66.769" cy="120.791" r="1" fill="#1C1C1C" fill-rule="nonzero"/><path fill="#1C1C1C" fill-rule="nonzero" d="M87.372 145.935l3.228-1.944s-.917-5.295-2.568-11.012l-4.24-4.004c-2.54 2.67-7.563 4.004-15.068 4.004s-16.335-1.335-26.492-4.004v5.527c0 .49-1.01 3.58-3.03 9.271l-8.155 53.898-6.285 65.854h7.556s14.67-49.955 16.397-54.074c1.726-4.12-1.36-12.236-1.36-12.236l13.32-29.99v22.323s-5.063 5.438-5.743 12.405c-.68 6.967.68 61.565.68 61.565H63.5s14.202-62.47 15.778-69.008c1.577-6.54 8.093-48.575 8.093-48.575z"/><path fill="#A6B7C7" fill-rule="nonzero" d="M31.659 263.525l1.614 3.541v4.596H20.295c-3.932.215-4.253-1.02-.963-3.704 3.29-2.685 5.102-4.165 5.436-4.44l6.89.007zM64.908 62.183v.87l2.473 3.318h3.071l1.584-3.61-4.043-4.575z"/><path fill="#A6B7C7" fill-rule="nonzero" d="M70.54 66.173s3.86 16.756 4.533 43.77a47.482 47.482 0 0 1-5.64 8.598 96.345 96.345 0 0 1-4.525-8.599s2.983-28.549 2.473-43.571l3.16-.198z"/><path fill="#1C1C1C" fill-rule="nonzero" d="M32.352 72.713l9.106 52.475-2.223 18.558-.224 1.468c10.546 3.997 18.143 2.638 18.143 2.638-4.45-61.36 4.866-84.493 4.866-84.493L55.082 59.6c-.28.505-.53 1.025-.755 1.557 0 0-13.95 5.037-21.975 11.556zM127.492 87.327c-8.684-.355-11.004-.355-18.967-1.547-7.963-1.193-10.572-5.675-10.645-5.774-8.973-12.043-8.973-13.932-12.117-15.793-6.049-3.579-6.09-3.681-6.09-3.681s-1.698-2.04-2.622-3.134l-.734 4.31s10.335 40.105 3.397 86.15a19.293 19.293 0 0 0 7.631-1.923l3.228-1.944s-2.256-13.078-6.116-20.29c0 0 2.28-8.506 3.943-17.505.25-1.354.25-3.568 1.211-7.49.96-3.922 7.736.197 12.059.616 4.323.42 17.92-1.203 26.42-3.007 0-1.108 0-2.815-.598-8.988z"/><path style="mix-blend-mode:multiply" fill="#000" fill-rule="nonzero" d="M77.712 132.132s2.952-1.06 3.87-1.515c-.011-.006-.308 6.025-.892 18.092l6.642-2.774-1.21 8.06-8.41 2.79v-24.653z" opacity=".4"/><path fill="#E39C75" fill-rule="nonzero" d="M127.492 87.327c2.488-1.645 4.61-2.305 6.367-1.981 1.757.323 2.584.707 2.481 1.15l-3.053 1.249 9.69 5.713c-3.999 4.6-8.962 5.552-14.888 2.857-.12-1.192-.32-4.188-.597-8.988z"/><path fill="#FFF" fill-rule="nonzero" d="M76.697 56.956c-.68-.788-6.251-2.175-6.251-2.175v-2.63l-9.724 1.46v2.319s-3.785 1.61-4.628 2.304c-.842.693-1.767 2.923-1.767 2.923 3.953 1.72 8.22 2.6 12.53 2.583 0 0 1.672-.252 1.815-5.554 0 0 1.767 4.024 2.97 4.453 1.202.428 4.967-.19 8.059-2.107-.028 0-2.31-2.794-3.004-3.576z"/><path fill="#E39C75" fill-rule="nonzero" d="M68.482 56.963a13.165 13.165 0 0 0 1.964-2.182v-2.774s7.63-2.1 7.352-3.147c-.279-1.047 0-6.586 0-6.586a9.874 9.874 0 0 0 3.269-2.393c-1.047-2.393-6.537-13.595-6.537-13.595.49-.718.919-1.475 1.284-2.264l-1.855-.584-20.522 7.497.625 9.646c3.051 6.328 6.66 9.177 6.66 9.177v6.172c2.56.525 5.152.87 7.76 1.033z"/><path fill="#FFF" fill-rule="nonzero" d="M74.53 26.265c4.077-6.117 0-5.839 0-5.839-11.179 1.197-19.19 6.587-21.44 8.68-2.248 2.094-1.644 4.344-1.644 4.344 2.997 11.373 9.276 16.314 9.276 16.314v-4.642s-2.243-.422-2.243-3.753c0-3.33 2.243-1.277 2.243-1.277s-.326-6.444-.326-7.362c0-.918 6.251-5.628 14.134-6.465z"/><path stroke="#808184" stroke-width=".5" d="M70.106 117.5v15.376"/><path stroke="#1A120D" stroke-width=".5" d="M78.545 134.502l-2.792 55.997-13.76 73.019M45.33 146.455l-9.445 44.058-8.664 73.005"/><path style="mix-blend-mode:multiply" fill="#000" fill-rule="nonzero" d="M76.5 42.212l1.298.062a9.874 9.874 0 0 0 3.269-2.393 8.65 8.65 0 0 0-4.567 2.331zM77.798 48.86s-7.27 1.23-10.546 2.937l3.194.21s7.63-2.1 7.352-3.147zM59.043 41.016c-.041.986.28 1.954.904 2.719.38.476 1.02.17 1.087-.47a3.474 3.474 0 0 0-.971-2.636c-.775-.796-1.02.387-1.02.387zM90.822 79.218C89.797 92.67 88.99 101.23 88.4 104.899c-.006-.052.538-20.638 0-28.663.619.746 1.426 1.74 2.422 2.982z" opacity=".4"/><path fill="url(#a)" fill-rule="nonzero" d="M65.79 64.243a19.19 19.19 0 0 1-3.967-.32l.197-.543 3.397.34.374.523z"/><path fill="#A6B7C7" fill-rule="nonzero" d="M55.66 263.518a22.436 22.436 0 0 0-2.134 5.186l12.645 2.46s7.788.85 8.65.327c.592-.367-.08-1.856-.08-1.856l-11.192-6.117h-7.89z"/><path style="mix-blend-mode:multiply" fill="#000" fill-rule="nonzero" d="M60.722 189.548s-5.063 5.438-5.742 12.405c-.68 6.967.68 61.565.68 61.565h3.173c0-3.365-.109-31.887 1.889-50.981 2.133-20.345 4.648-18.89 5.266-22.684.618-3.792.775-32.757.775-32.757l-6.055 10.129.014 22.323z" opacity=".4"/><path fill="#FFF" fill-rule="nonzero" d="M84.787 75.82V75L88 76.914v4.172l-.008.005-1.942 1.157v-.82l.008-.005 1.255-.748v-3.351l-2.526-1.504zm-1.262 4.446v-3.347l.688-.407v4.984l-1.95-1.162v-2.668l.687-.406v2.664l.575.342zM81 76.914l.008-.005L84.213 75v.827l-.009.005-.679.402v-.004l-1.838 1.094v3.351l2.526 1.505V83l-.025-.015-3.188-1.9v-4.17zm4.475 4.11v-.734l.575-.3v-1.913l-.575-.343v4.857l-.688.409v-6.495l1.95 1.162v2.667l-1.262.69z"/><path style="mix-blend-mode:multiply" fill="#000" fill-rule="nonzero" d="M56.118 132.132v18.131l-16.917-6.49-.815 5.732 22.39 8.698-.467-25.774z" opacity=".4"/><path fill="#1C1C1C" fill-rule="nonzero" d="M32.352 72.713c-5.994 18.287-7.584 33.37-7.584 37.61 0 4.24 10.274 14.865 20.562 25.921l1.856-8.19-14.834-55.341z"/><path fill="#161C2F" fill-rule="nonzero" d="M44.98 116.095l-3.442-9.29.974-10.27z"/><path stroke="#161C2F" d="M52.153 128.842l-5.823 10.402"/></g><path stroke="#1C1C1C" stroke-linecap="square" d="M267.51 274v23.13"/><path fill="#FFF" fill-rule="nonzero" d="M266.99 298.5v-23.968h-61.87l-.233 24.598z"/><g transform="matrix(-1 0 0 1 221.717 21.834)"><path fill="#E39C75" fill-rule="nonzero" d="M90.693 42.349c-4.802-4.643-9.41-7.361-9.41-7.361l.564-9.354S92.277-1.032 71.98 1.68c0 0-7.026 1.183-7.121 9.652-.096 8.47 2.167 14.955 2.561 15.26.395.307 2.555.3 6.116.497 0 0-.523 3.739-1.542 4.826 0 0-4.574-1.801-10.054-3.56 0 0-2.543-.951-4.187 1.346-1.645 2.298-5.214 7.367-7.844 13.783l6.795 2.903s-1.515 3.555-1.189 6.831c.326 3.277 4.512 25.518 4.512 25.518s-1.094-.088-1.189.83c-.095.917-.088 6.953-.088 6.953.312.365.726.628 1.189.755 0 0-19.808 31.105-23.933 58.275a31.628 31.628 0 0 0 5.436 2.834l-.781 2.304 8.874 61.973s-4.505 11.556-5.538 12.446c-1.032.89-4.145.904-4.26 3.1v1.42h13.352s2.528-8.911 2.644-11.888a10.05 10.05 0 0 0-1.36-5.296s2.073-39.16 2.535-44.326c.462-5.166-.136-11.188-2.419-14.091l.612-1.815a77.44 77.44 0 0 0 15.547.877 32.418 32.418 0 0 0-1.359 3.834c-.394 1.604.584 57.166 0 60.015-.584 2.848-2.31 9.788-2.31 9.788s-2.379 1.36-1.407 2.903H76.52s.578-2.55-2.038-2.903v-9.788s9.092-48.086 10.654-59.138l-1.868-6.118c1.862-.333 3.771-.68 5.742-1.17 0 0 5.048-42.144-8.42-61.503 0 0 .918 0 1.013-.795.095-.795.251-6.036.251-6.036a1.08 1.08 0 0 0-1.087-.918s9.724-8.747 13.836-32.497c-.005-.937-1.025-3.194-1.913-3.489l-1.996-2.923z"/><path fill="#FFF" fill-rule="nonzero" d="M70.363 5.33s-4.757 1.883-5.436 8.49c0 0 .577 8.755 2.52 12.78 0 0 .53.373 6.116.496-.145.927-.34 1.846-.584 2.753 0 0-2.039.591-8.936 0 .662-3.837.662-7.76 0-11.597-1.128-5.846-1.603-15.695 6.884-16.762 0 0 10.192-3.61 13.59 5.064 3.398 8.673.68 23.56.68 23.56h-9.303s2.772-4.317 3.649-11.556c0 0 1.63-.095 1.536-3.677-.095-3.583-2.467-.327-2.467-.327s-7.176-2.902-8.25-9.224z"/><path style="mix-blend-mode:multiply" fill="#000" fill-rule="nonzero" d="M56.5 152.434l-5.605-4.132s-5.043 3.623-3.167 7.633c1.875 4.01 6.116 21.881 4.587 49.071a56.356 56.356 0 0 0 .333 6.471 4.84 4.84 0 0 1-1.36 3.882s-.91 8.768-4.756 11.555c-3.846 2.787 7.332 0 7.332 0l1.644-7.409c.108-.582.178-1.17.211-1.76a10.05 10.05 0 0 0-1.359-5.296s2.073-39.16 2.535-44.326c.462-5.166-.136-11.189-2.42-14.091l.612-1.815 1.414.217z" opacity=".4"/><g transform="rotate(-88 39.846 37.556)"><path fill="#FFF" fill-rule="nonzero" stroke="#25304F" d="M21.982 2.12l12.51 11.532a2.781 2.781 0 0 1 .16 3.93L18.53 35.085a2.781 2.781 0 0 1-3.93.16L2.09 23.714a2.781 2.781 0 0 1-.16-3.929L18.053 2.279a2.781 2.781 0 0 1 3.93-.16h0z"/><path stroke="#59C7DD" stroke-linecap="round" stroke-linejoin="round" stroke-width="1.539" d="M21.903 20.644l-5.556 1.614 4.66-13.267"/><circle cx="12.161" cy="25.425" r="1.5" fill="#25304F" fill-rule="nonzero"/></g><path fill="#1C1C1C" fill-rule="nonzero" d="M49.896 43.484L43.85 65.352h-6.178l.897 6.777c5.595 0 9.468-.415 11.62-1.244.969-2.297 3.813-11.097 8.532-26.403l-8.826-.998z"/><path fill="#1C1C1C" fill-rule="nonzero" d="M90.406 42.016c-4.882-4.614-9.123-7.028-9.123-7.028-3.201 3.942-9.303 7.028-9.303 7.028-1.074-7.198 0-10.1 0-10.1s-19.455 5.152-22.084 11.568l6.795 2.903s-1.516 3.555-1.19 6.831c.327 3.277 4.513 25.518 4.513 25.518 5.021 3.854 20.691 2.556 20.691 2.556s9.785-7.945 13.897-31.696c.018-.932.435-1.96-.524-3.535l-3.672-4.045zM80.515 89.048a72.63 72.63 0 0 1-20.603-1.767s-19.808 31.105-23.933 58.274a31.628 31.628 0 0 0 5.436 2.835l13.638 3.827a77.44 77.44 0 0 0 15.548.877l12.577-1.36c1.862-.333 3.772-.68 5.742-1.169.014-.014 5.063-42.171-8.405-61.517z"/><path fill="#A6B7C7" fill-rule="nonzero" d="M54.34 212.45c-2.718.523-3.2 10.834-6.429 12.663-3.227 1.829-3.927 0-3.927 0-1.04.904-4.145.904-4.26 3.1v1.42h13.352s2.528-8.911 2.643-11.888a10.05 10.05 0 0 0-1.38-5.296z"/><path style="mix-blend-mode:multiply" fill="#000" fill-rule="nonzero" d="M70.363 226.078c-.68-7.083 4.077-49.71 4.947-53.802.87-4.092.876-10.42-.293-13.833a6.323 6.323 0 0 1 1.067-5.947l-6.876.639 1.406-.041a32.418 32.418 0 0 0-1.359 3.834c-.394 1.604.584 57.166 0 60.014-.584 2.849-2.31 9.789-2.31 9.789s-2.379 1.36-1.407 2.902h4.077c.585-.591.924-1.679.748-3.555z" opacity=".4"/><path fill="#A6B7C7" fill-rule="nonzero" d="M72.91 225.276a2.14 2.14 0 0 1-3.553 0c-1.067-1.604-.122-8.313-.122-8.313-.591 2.848-2.31 9.788-2.31 9.788s-2.379 1.36-1.407 2.903h10.947s.577-2.55-2.039-2.903v-9.788s-.387 6.695-1.515 8.313zM81.527 88.253c.095-.782.252-6.037.252-6.037a1.08 1.08 0 0 0-1.088-.917C63.635 82.284 60 78.743 60 78.743s-1.094-.088-1.19.83c-.094.917-.087 6.953-.087 6.953.312.365.726.628 1.189.755 9.764 2.719 20.603 1.767 20.603 1.767s.917-.014 1.012-.795z"/><circle cx="71.144" cy="45.272" r="1" fill="url(#b)" fill-rule="nonzero"/><path style="mix-blend-mode:multiply" fill="#000" fill-rule="nonzero" d="M68.521 19.918a2.846 2.846 0 0 0-2.167-.177s.346.843 2.167.177z" opacity=".4"/><path fill="#FFF" fill-rule="nonzero" d="M72.435 31.201a14.082 14.082 0 0 0-2.283-.197 19.338 19.338 0 0 0-.612 10.122c1.013 5.438 2.44.897 2.44.897a30.368 30.368 0 0 1 .455-10.822z"/><path fill="#FFF" fill-rule="nonzero" d="M81.33 33.886a3.677 3.677 0 0 1 1.72 2.04s-3.514 6.498-9.84 8.537c-1.645.272-1.23-2.447-1.23-2.447a25.573 25.573 0 0 0 9.35-8.13z"/><path style="mix-blend-mode:multiply" fill="#000" fill-rule="nonzero" d="M76.75 27.089s-7.203.333-9.33-.49c0 0-.102-1.169 9.33.49zM80.256 13.997a3.65 3.65 0 0 0-1.753 2.27c-.278 1.475.884 1.836 1.36 1.265a4.216 4.216 0 0 0 .393-3.535z" opacity=".4"/><path style="mix-blend-mode:multiply" fill="#D8D8D8" fill-rule="nonzero" d="M94.078 45.864l-4.634-4.759c-1.655-1.426-2.752-2.339-3.29-2.738-.808-.6-1.993-1.397-1.993-.703 0 .695-2.612 13.012-2.815 16.696-.204 3.685-3.59 7.036-5.63 8.11-2.038 1.074 1.034 12.814-7.103 18.699l12.078.123s8.834-12.915 13.217-34.531c.061-.258.109-.598.17-.897z" opacity=".4"/><path fill="#1C1C1C" fill-rule="nonzero" d="M95.184 53.524c1.093-4.02.543-6.72-1.648-8.103-3.288-2.073-6.74 1.342-8.897 7.46-1.438 4.078-3.78 10.852-7.027 20.323l-26.17 16.96 2.775 5.002c17.71-8.835 27.852-13.988 30.422-15.459 2.57-1.47 6.086-10.198 10.545-26.183z"/><path fill="#161C2F" fill-rule="nonzero" d="M92.323 45.166c1.355 1.778 1.695 4.004 1.017 6.677-1.033 4.079-8.226 25.135-9.07 25.135-.562 0-11.08 5.423-31.553 16.268l.5 1.14 1.207 2.215.346-.107C72.12 86.94 82.072 81.432 84.627 79.97c2.57-1.47 6.085-10.199 10.544-26.184 1.093-4.02.544-6.72-1.648-8.103a3.963 3.963 0 0 0-1.2-.517z"/><path fill="#E39C75" fill-rule="nonzero" d="M51.443 90.165c-1.706-1.509-4.123-2.163-7.251-1.964-1.868.05-3.993.307-3.993 1.065 0 .759 3.7.714 3.993 1.297.292.583-2.954 1.58-2.954 1.58l9.11 6.15c1.236.001 2.692-.452 4.369-1.359-.177-1.049-1.268-3.305-3.274-6.77z"/><path style="mix-blend-mode:multiply" fill="#000" fill-rule="nonzero" d="M83.192 151.72c1.862-.332 3.771-.68 5.742-1.169 0 0 5.049-42.144-8.42-61.503a70.074 70.074 0 0 1-3.886.102s9.275 34.925-.537 63.346l7.101-.775z" opacity=".4"/><path style="mix-blend-mode:multiply" fill="url(#c)" fill-rule="nonzero" d="M64.9 13.82s1.494-6.117 5.667-7.565l-.204-.925s-4.737 1.747-5.464 8.49z" opacity=".4"/><path fill="#161C2F" fill-rule="nonzero" d="M56.828 46.946c-1.118 1.695-1.891 3.29-2.321 4.788-.43 1.497-.43 3.298 0 5.404-1.284 5.228-2.723 9.81-4.317 13.747-1.128.602-6.756 1.885-11.578 1.244-.207-1.481-.364-2.409-.47-2.783 4.571.248 7.967-.08 10.186-.984 1.575-4.462 3.732-10.774 4.044-12.806.313-2.032.332-4.656 2.135-6.464 1.202-1.206 1.976-1.921 2.321-2.146z"/><path fill="#E39C75" fill-rule="nonzero" d="M37.673 65.352c-.746-.675-1.4-1.194-1.96-1.558-.84-.545-2.573.545-4.79 0-2.216-.545-2.746.367-1.357 1.374.926.67 2.182 1.175 3.768 1.513l-5.026 5.448c3.113 1.332 6.534 1.332 10.262 0-.166-1.651-.465-3.91-.897-6.777z"/><path fill="#1C1C1C" fill-rule="nonzero" d="M69.665 32.822l.487-1.818a1334.303 1334.303 0 0 0-7.966-2.565c-1.053-.327-2.806-1.033-4.85 1.675-2.045 2.708-6.38 10.298-7.44 13.37-.708 2.049 2.668 1.317 10.128-2.195l9.64-8.467z"/></g></g></svg>