<svg xmlns="http://www.w3.org/2000/svg" viewBox="0 0 306 260"><defs><linearGradient id="a" x1="18.1%" x2="132.5%" y1="49.656%" y2="49.656%"><stop offset="0%" stop-color="#FFF"/><stop offset="100%" stop-color="#262261"/></linearGradient><linearGradient id="b" x1="-3849.707%" x2="2463.012%" y1="-2927.252%" y2="1471.748%"><stop offset="0%" stop-color="#FFF"/><stop offset="100%" stop-color="#262261"/></linearGradient><linearGradient id="c" x1="36.684%" x2="69.863%" y1="-30.573%" y2="83.791%"><stop offset="0%" stop-color="#FFF"/><stop offset="100%" stop-color="#262261"/></linearGradient></defs><g fill="none" fill-rule="evenodd"><path fill="#00585E" d="M182.171 39.63C134.38 12 73.27 28.397 45.676 76.25 18.083 124.105 34.458 185.295 82.25 212.924L182.17 39.63z"/><g fill-rule="nonzero"><path fill="#FFF" stroke="#25304F" stroke-width=".855" d="M131.687.606L265.77.596l-.012 178.724-134.084.01z"/><path fill="#25304F" d="M157.717 17.717v-1.845l7.343 4.307v9.386l-.019.011-4.438 2.603v-1.844l.019-.011 2.867-1.682v-7.54l-5.772-3.385zm-2.885 10.004v-7.53l1.572-.916v11.212l-4.459-2.614v-6.001l1.572-.916v5.994l1.315.77zm-5.772-7.542l.02-.011 7.324-4.296v1.862l-.02.01-1.552.906v-.012l-4.2 2.463v7.54l5.772 3.386v1.845l-.057-.033-7.287-4.274v-9.386zm10.229 9.246v-1.65l1.314-.674v-4.307l-1.314-.771V32.95l-1.572.922V19.257l4.458 2.615v6l-2.886 1.553zM201.778 23.68l-31.298-.021a1.823 1.823 0 0 0-1.821 1.825c0 1.007.816 1.824 1.822 1.824l31.29.02a1.827 1.827 0 0 0 .006-3.648zM180.143 66.01l-31.29-.028a1.823 1.823 0 0 0-1.825 1.82 1.823 1.823 0 0 0 1.819 1.828l31.29.028a1.827 1.827 0 0 0 .006-3.648zM239.668 81.125l-91.48-.226a1.823 1.823 0 0 0-1.825 1.82 1.823 1.823 0 0 0 1.818 1.828l91.487.227a1.823 1.823 0 0 0 1.822-1.825 1.823 1.823 0 0 0-1.822-1.824zM239.519 93.243l-91.48-.226a1.827 1.827 0 0 0-.006 3.648l91.487.227a1.827 1.827 0 0 0 1.577-2.737 1.821 1.821 0 0 0-1.578-.912zM239.748 106.129l-91.479-.254a1.827 1.827 0 0 0-.006 3.648l91.48.227a1.827 1.827 0 0 0 .006-3.648l-.001.027z"/></g><path fill="#FFF" fill-rule="nonzero" stroke="#25304F" stroke-width=".855" d="M74.26 73.368l125.176-48.113 63.966 166.853-125.177 48.113z"/><path fill="#25304F" fill-rule="nonzero" d="M104.414 78.194l-.662-1.722 8.4 1.39 3.363 8.762-.014.017-3.21 4.02-.661-1.721.013-.017 2.075-2.598-2.703-7.04-6.601-1.091zm.891 10.373l-2.698-7.03 1.139-1.417 4.018 10.467-5.1-.843-2.15-5.603 1.14-1.417 2.147 5.595 1.504.248zm-8.091-4.972l.014-.017 5.298-6.635.668 1.738-.014.017-1.126 1.4-.004-.01-3.039 3.805 2.703 7.04 6.602 1.092.661 1.722-.065-.01-8.334-1.38-3.364-8.762zm12.863 4.966l-.591-1.54.985-1.1-1.544-4.02-1.503-.25 1.95 5.08.612 1.594 1.354 3.527-1.137 1.424-5.237-13.644 5.098.844 2.15 5.602-2.137 2.483zM147.242 66.211L118.14 77.725a1.839 1.839 0 0 0 1.333 3.424l29.108-11.513a1.845 1.845 0 0 0 1.026-2.398 1.84 1.84 0 0 0-2.393-1.027h.027zM142.714 113.532l-29.108 11.514a1.844 1.844 0 0 0 1.368 3.425l29.06-11.548a1.823 1.823 0 0 0-1.333-3.39h.013zM203.598 105.649l-85.143 33.513a1.845 1.845 0 0 0-1.026 2.397 1.84 1.84 0 0 0 2.394 1.028l85.143-33.513a1.845 1.845 0 0 0 1.026-2.398 1.84 1.84 0 0 0-2.394-1.027zM207.914 116.97l-85.143 33.514a1.844 1.844 0 0 0 1.368 3.425l85.142-33.514a1.844 1.844 0 0 0-1.367-3.424zM212.858 128.868l-85.136 33.513a1.844 1.844 0 0 0 1.368 3.425l85.136-33.514a1.828 1.828 0 0 0-1.368-3.39v-.034z"/><path stroke="#25304F" stroke-linecap="square" d="M.756 258.893h300"/><g transform="rotate(27 -13.625 428.833)"><path fill="#30C554" fill-rule="nonzero" d="M10.03 143.18L50.02 97.06a2.052 2.052 0 0 1 2.897-.204l24.559 21.356c.854.743.945 2.038.204 2.893l-39.992 46.12a2.052 2.052 0 0 1-2.897.204l-24.558-21.357a2.052 2.052 0 0 1-.204-2.892z"/><path stroke="#FFF" stroke-linecap="round" stroke-linejoin="round" stroke-width="3.42" d="M34.856 134.243l12.014 4.199-8.064-28.97"/><path style="mix-blend-mode:multiply" fill="#FFF" fill-rule="nonzero" d="M63.843 63.124s6.648 19.041 40.407 31.068c0 0 8.015 3.678 7.366 32.938 0 0 34.265-3.192 55.44-22.185l1.935-1.883-34.587-78.348-35.188-18.09-20.662 2.823-10.778 16.486-3.933 37.191z" opacity=".4"/><path fill="url(#a)" fill-rule="nonzero" d="M45.254 48.748s-2.975 7.849-.684 11.815c2.29 3.965 9.322 13.979 9.322 13.979s11.839 10.013 15.046 8.76c3.208-1.253 7.995-10.397-4.035-17.35l-19.65-17.204z"/><path fill="#E39C75" fill-rule="nonzero" d="M45.254 48.748s-2.975 7.849-.684 11.815c2.29 3.965 9.322 13.979 9.322 13.979s9.154 7.912 12.578 8.32c3.424.407 10.463-9.957-1.567-16.91l-19.65-17.204z"/><path style="mix-blend-mode:multiply" fill="#000" fill-rule="nonzero" d="M45.254 48.748c-.504 1.382-.538 2.797-.103 4.244.385 1.28 2.757 3.952 8.594 11.22 1.289 1.606 6.952 7.142 8.246 8.312 2.075 1.875 4.19.042 5.13.733 3.725 2.739 2.547 7.02-1.902 9.287 3.097 1.595 5.578-1.499 6.042-2.258.465-.76 3.662-3.942-1.66-11.119-3.549-4.784-11.664-11.59-24.347-20.42z" opacity=".4"/><path fill="#E39C75" fill-rule="nonzero" d="M52.647 26.748s-3.748 2.178-5.013 8.623c-1.266 6.445-3.748 15.842-1.546 17.808 1.468 1.31 7.698 7.582 18.69 18.814.694.176 1.248.233 1.665.171 1.207-.178 2.442-.787 2.99-1.09 5.64-3.125 4.82-9.369-2.28-17.169L52.647 26.748z"/><path style="mix-blend-mode:multiply" fill="#000" fill-rule="nonzero" d="M69.887 64.17c.342 3.891-3.174 6.021-5.992 7.097.288.28.601.533.937.753 2.25 1.315 15.86-4.315 3.666-17.705l-.451-.85-9.562-7.916c-.249 2.564 10.848 12.204 11.402 18.622z" opacity=".4"/><path fill="#E39C75" fill-rule="nonzero" d="M64.41 14.22s-6.77 1.775-9.3 5.596c-2.531 3.822-3.797 9.46-3.721 11.61.075 2.15 4.944 13.048 6.388 14.842 1.443 1.795 7.577 9.274 10.942 9.123 3.365-.15 13.173-5.274 4.296-15.876-7.319-8.78-8.604-25.294-8.604-25.294z"/><path fill="url(#b)" fill-rule="nonzero" d="M65.744 35.522a.833.833 0 0 0-.396 0h.396z"/><path style="mix-blend-mode:multiply" fill="#000" fill-rule="nonzero" d="M73.042 39.515a25.083 25.083 0 0 1-2.558-3.747l-4.74-.246c.8.185 2.77 1.37 5.656 7.63 2.34 5.096-.8 9.472-3.59 12.11.303.094.62.138.937.13 3.399-.151 13.172-5.275 4.295-15.877z" opacity=".4"/><path fill="#E39C75" fill-rule="nonzero" d="M150.415 78.528s-17.324-36.767-20.518-41.095c-3.194-4.33-28.328-17.966-30.94-19.247 0 0-25.635 1.904-29.827 2.281 0 0-2.873 8.158 2.845 11.836 5.615 3.616 22.125 5.726 24.027 6.582 8.111 3.67 6.709 13.363 5.58 19.938-2.147 12.486 3.543 24.746 11.073 32.013 0 0 6.787 17.434.368 50.728 0 0 43.269-10.73 62.036-30.085 0 0-14.925-32.581-19.186-43.978-4.26-11.397-18.952-50.397-23.103-53.137-4.152-2.74-27.358-10.417-31.899-11.212-8.809-1.561-18.699-7.328-33.861 8.473-11.627 12.13-6.334 20.273-3.995 22.5 4.268 4.061 18.809 2.67 12.804-13.267"/><path style="mix-blend-mode:multiply" fill="#000" fill-rule="nonzero" d="M117.368 117.52l24.922-53.458s-16.982-41.568-24.088-44.143c-7.106-2.575-28.937-10.637-40.653-4.945-8.556 4.15-11.326 14.98-12.195 20.548 2.941 1.055 7.08.746 9.623-1.74 7.038 2.74 19.376 4.384 21.004 5.116 8.111 3.672 6.71 13.363 5.58 19.938-2.147 12.487 3.544 24.747 11.074 32.014 0 0 5.991 4.596.978 28.13l3.755-1.46z" opacity=".4"/><path fill="#1C1C1C" fill-rule="nonzero" d="M100.057 11.7C89.553 9.406 79.18 16.072 76.886 26.59v.083l-5.383 10.732c.477.732.995 1.437 1.553 2.11 8.89 10.602-.896 15.753-4.296 15.876h-.314c7.31 9.487 4.442 12.865 1.583 15.379 2.545 2.692 2.66 4.286 2.442 6.608-.146 1.548 4.653 8.172 14.398 19.874l25.834-56.6a19.525 19.525 0 0 0 1.054-17.693 19.478 19.478 0 0 0-13.686-11.238l-.014-.02z"/><path fill="url(#c)" fill-rule="nonzero" d="M175.059 111.479s-14.74-31.937-19.042-43.526c-6.922-7.582-22.256-24.301-24.827-26.377-3.338-2.691-25.306-20.664-29.218-21.232-3.912-.569-26.05-1.137-28.5-.685-2.448.452-3.645 3.233-3.645 3.233-2.01 7.876 5.075 10.876 5.144 10.904 7.037 2.74 19.375 4.383 21.003 5.116 8.112 3.671 6.71 13.363 5.581 19.938-2.147 12.486 3.543 24.746 11.073 32.013 0 0 8.392 21.428.042 52.106 4.638.894 43.622-12.161 62.389-31.49z"/><path fill="#E39C75" fill-rule="nonzero" d="M175.059 111.479c-2.906-5.703-14.74-31.937-19.042-43.526-6.922-7.582-22.256-24.301-24.827-26.377-3.338-2.691-25.306-20.664-29.218-21.232-3.912-.569-26.05-1.137-28.5-.685-2.448.452-3.645 3.233-3.645 3.233-2.01 7.876 5.075 10.876 5.144 10.904 7.037 2.74 19.375 4.383 21.003 5.116 8.112 3.671 6.71 13.363 5.581 19.938-2.147 12.486 3.543 24.746 11.073 32.013 0 0 8.746 20.023.395 50.7 0-.034 43.269-10.755 62.036-30.084z"/><path fill="#1C1C1C" fill-rule="nonzero" d="M105.879 144.953l73.707-36.568 11.162 26.301L97.83 181.87zM14.685 80.762l11.069 12.012 70.972 32.048 11.286-3.659 1.993-5.37-92.263-41.575z"/><path fill="#1C1C1C" fill-rule="nonzero" d="M16.53 78.685l-2.722 5.925 8.857 8.917 69.105 30.897 13.966.062 2.222-5.603z"/><path fill="#00585E" d="M16.53 78.685l-2.722 5.925 91.928 39.876 2.222-5.603L16.53 78.685"/><ellipse cx="169.026" cy="129.823" fill="#FFF" fill-rule="nonzero" rx="5.102" ry="5.11"/><path style="mix-blend-mode:multiply" fill="#000" fill-rule="nonzero" d="M113.023 141.564l43.836-21.826-16.402-35.326s-22.118-45.89-34.47-49.02c-10.259-2.569-29.97-9.192-36.399-11.377-1.074 7.014 5.314 9.72 5.376 9.746 7.037 2.74 19.376 4.384 21.003 5.117 8.112 3.671 6.71 13.363 5.581 19.938-2.147 12.486 3.543 24.746 11.073 32.013.007 0 7.502 13.686.402 50.735z" opacity=".4"/><path fill="#885D46" fill-rule="nonzero" d="M111.119 89.303c2.871 2.71 4.461 5.328 4.77 7.855.469 3.827.447 35.591-1.843 43.758-.79.552-2.268 1.305-4.432 2.258 2.575-23.67 3.48-37.916 2.717-42.737-.693-4.371-2.566-7.627-5.62-9.768-4.964-.047-9.937-1.45-14.918-4.207 4.253-9.774 7.42-16.725 9.503-20.853-.627 6.41 4.368 17.213 9.823 23.694z"/><path fill="#1C1C1C" fill-rule="nonzero" d="M72.51 76.4c-.058 1.125-.47 2.344-1.236 3.659-1.15 1.971-2.662 2.488-3.359 2.671-.697.184-1.487.256-3.476-.604-1.326-.574-3.583-2.097-6.772-4.57l-4.524 12.701 30.66 13.725 6.13-13.339L72.51 76.4z"/><path fill="#E39C75" fill-rule="nonzero" d="M46.533 63.203c.063 4.916.63 9.082 1.705 12.497 1.612 5.123 8.733 13.05 10.264 14.66 1.532 1.609 10.144.643 7.383-8.114-6.878-3.88-9.476-6.29-11.27-7.637-1.089-1.56-3.783-5.362-8.082-11.406z"/><path style="mix-blend-mode:multiply" fill="#000" fill-rule="nonzero" d="M58.525 90.358c4.608-.3 5.111-3.183 4.556-5.004-.556-1.824-9.165-6.51-10.248-8.546-.722-1.358-2.777-5.715-6.167-13.073 4.299 6.044 6.993 9.846 8.082 11.406 1.793 1.347 4.392 3.757 11.27 7.637 2.761 8.757-5.656 9.511-7.188 7.901l-.305-.321z" opacity=".4"/></g></g></svg>