<svg xmlns="http://www.w3.org/2000/svg" viewBox="0 0 343 251"><defs><linearGradient id="a" x1="18.1%" x2="132.5%" y1="49.656%" y2="49.656%"><stop offset="0%" stop-color="#FFF"/><stop offset="100%" stop-color="#262261"/></linearGradient><linearGradient id="b" x1="-3849.707%" x2="2463.012%" y1="-2896.319%" y2="1456.977%"><stop offset="0%" stop-color="#FFF"/><stop offset="100%" stop-color="#262261"/></linearGradient><linearGradient id="c" x1="36.544%" x2="70.071%" y1="-30.573%" y2="83.791%"><stop offset="0%" stop-color="#FFF"/><stop offset="100%" stop-color="#262261"/></linearGradient><linearGradient id="d" x1="-156.164%" x2="132.534%" y1="53.32%" y2="48.588%"><stop offset="0%" stop-color="#FFF"/><stop offset="100%" stop-color="#808184"/></linearGradient><linearGradient id="e" x1="43.539%" x2="55.6%" y1="3.738%" y2="86.41%"><stop offset="0%" stop-color="#F9E4E4"/><stop offset="100%" stop-color="#FFD24A"/></linearGradient><linearGradient id="f" x1="0%" x2="100%" y1="49.96%" y2="49.96%"><stop offset="0%" stop-color="#FFF"/><stop offset="100%" stop-color="#262261"/></linearGradient></defs><g fill="none" fill-rule="evenodd" transform="translate(-42)"><ellipse cx="141.043" cy="97.92" fill="#59C7DD" fill-rule="nonzero" rx="98.226" ry="97.92"/><ellipse cx="140.623" cy="100.012" fill="#FFF" fill-rule="nonzero" rx="49.953" ry="49.797"/><g stroke-linecap="square"><path stroke="#1C1C1C" stroke-width=".84" d="M224.158 248.985H384.16"/><g fill-rule="nonzero"><path fill="#FFF" stroke="#25304F" stroke-width=".5" d="M280.285 121.448l53.812-.005-.007 71.757-53.811.005z"/><path fill="#25304F" d="M290.732 128.317v-.74l2.947 1.729v3.768l-.008.005-1.781 1.045v-.74l.008-.005 1.15-.675v-3.028l-2.316-1.359zm-1.158 4.017v-3.023l.63-.368v4.502l-1.789-1.05v-2.41l.631-.367v2.407l.528.309zm-2.317-3.028l.008-.004 2.94-1.725v.747l-.008.005-.623.363v-.005l-1.686.99v3.027l2.317 1.36v.74l-.023-.014-2.925-1.716v-3.768zm4.106 3.712v-.662l.527-.27v-1.73l-.527-.31v4.388l-.631.37v-5.868l1.789 1.05v2.409l-1.158.623zM308.415 130.711l-12.561-.008a.732.732 0 0 0 0 1.465l12.558.008a.731.731 0 0 0 .635-1.097.73.73 0 0 0-.632-.368zM299.732 147.707l-12.558-.011a.732.732 0 0 0-.003 1.465l12.558.01a.731.731 0 0 0 .635-1.097.73.73 0 0 0-.632-.367zM323.62 153.775l-36.713-.09a.732.732 0 0 0-.003 1.465l36.717.09a.732.732 0 0 0 0-1.465zM323.56 158.64l-36.713-.09a.731.731 0 0 0-.635 1.098.73.73 0 0 0 .632.367l36.717.09a.731.731 0 0 0 .633-1.099.73.73 0 0 0-.633-.366zM323.652 163.814l-36.713-.101a.731.731 0 0 0-.635 1.097.73.73 0 0 0 .633.368l36.713.09a.731.731 0 0 0 .635-1.098.73.73 0 0 0-.632-.367v.01z"/><path fill="#FFF" stroke="#25304F" stroke-width=".5" d="M257.237 150.66l50.237-19.317 25.672 66.992-50.238 19.317z"/><path fill="#25304F" d="M269.339 152.599l-.266-.692 3.371.558 1.35 3.519-.005.006-1.288 1.615-.266-.692.006-.007.832-1.043-1.085-2.826-2.65-.438zm.358 4.164l-1.084-2.822.458-.57 1.613 4.203-2.047-.339-.863-2.249.457-.57.862 2.248.604.1zm-3.248-1.996l.006-.007 2.126-2.664.268.698-.006.007-.451.562-.002-.004-1.22 1.527 1.086 2.827 2.65.439.265.691-.026-.004-3.345-.554-1.35-3.518zm5.163 1.994l-.237-.618.395-.442-.62-1.614-.603-.1.783 2.04.246.64.543 1.415-.456.572-2.103-5.478 2.046.339.864 2.25-.858.996zM286.527 147.787l-11.679 4.623a.738.738 0 0 0 .535 1.375l11.682-4.623a.74.74 0 0 0-.549-1.375h.011zM284.71 166.787l-11.682 4.622a.74.74 0 0 0 .55 1.375l11.662-4.636a.732.732 0 0 0-.535-1.361h.005zM309.145 163.622l-34.17 13.455a.74.74 0 0 0 .548 1.375l34.17-13.455a.74.74 0 0 0-.548-1.375zM310.877 168.167l-34.17 13.456a.74.74 0 0 0 .548 1.375l34.17-13.456a.74.74 0 0 0-.548-1.375zM312.861 172.944l-34.168 13.455a.74.74 0 0 0 .55 1.375l34.167-13.455a.734.734 0 0 0-.549-1.361v-.014z"/></g><g transform="rotate(27 -189.164 693.693)"><path fill="#30C554" fill-rule="nonzero" d="M3.609 34.475L19.703 16.01a.828.828 0 0 1 1.165-.083l9.866 8.535c.343.297.38.815.08 1.157L14.72 44.084a.828.828 0 0 1-1.164.083L3.69 35.632a.818.818 0 0 1-.081-1.157z"/><path stroke="#FFF" stroke-linecap="round" stroke-linejoin="round" stroke-width="1.368" d="M14.32 32.316l4.828 1.676-3.232-11.587"/><path style="mix-blend-mode:multiply" fill="#FFF" fill-rule="nonzero" d="M36.87 25.25s2.674 7.616 16.248 12.427c0 0 3.223 1.471 2.962 13.175 0 0 13.778-1.277 22.292-8.874l.778-.753-13.907-31.34L51.094 2.65l-8.308 1.129-4.334 6.594-1.581 14.877z" opacity=".4"/><path fill="url(#a)" fill-rule="nonzero" d="M29.396 19.499s-1.196 3.14-.275 4.726c.922 1.586 3.749 5.592 3.749 5.592s4.76 4.005 6.05 3.504c1.29-.502 3.215-4.16-1.623-6.94l-7.9-6.882z"/><path fill="#E39C75" fill-rule="nonzero" d="M29.396 19.499s-1.196 3.14-.275 4.726c.922 1.586 3.749 5.592 3.749 5.592s3.68 3.164 5.057 3.328c1.377.163 4.208-3.983-.63-6.764l-7.9-6.882z"/><path style="mix-blend-mode:multiply" fill="#000" fill-rule="nonzero" d="M29.396 19.499a2.614 2.614 0 0 0-.041 1.698c.155.512 1.109 1.58 3.455 4.488.519.642 2.796 2.857 3.316 3.325.834.75 1.685.016 2.063.293 1.498 1.095 1.024 2.808-.765 3.715 1.245.638 2.243-.6 2.43-.904.187-.304 1.472-1.576-.668-4.447-1.427-1.914-4.69-4.636-9.79-8.168z" opacity=".4"/><path fill="#E39C75" fill-rule="nonzero" d="M32.37 10.7s-1.508.87-2.017 3.448c-.508 2.578-1.507 6.337-.621 7.124.59.524 3.095 3.032 7.515 7.525.279.07.502.093.67.069.485-.072.981-.315 1.202-.437 2.267-1.25 1.937-3.747-.917-6.867l-5.833-10.863z"/><path style="mix-blend-mode:multiply" fill="#000" fill-rule="nonzero" d="M39.301 25.668c.138 1.556-1.276 2.408-2.409 2.839.115.112.242.213.377.301.904.526 6.377-1.726 1.474-7.082l-.182-.34-3.844-3.166c-.1 1.025 4.361 4.881 4.584 7.448z" opacity=".4"/><path fill="#E39C75" fill-rule="nonzero" d="M37.1 5.688s-2.723.71-3.74 2.239c-1.018 1.528-1.527 3.783-1.497 4.643.03.86 1.988 5.22 2.569 5.937.58.718 3.047 3.71 4.4 3.65 1.353-.06 5.296-2.11 1.727-6.351-2.943-3.512-3.46-10.118-3.46-10.118z"/><path fill="url(#b)" fill-rule="nonzero" d="M37.635 14.209a.337.337 0 0 0-.16 0h.16z"/><path style="mix-blend-mode:multiply" fill="#000" fill-rule="nonzero" d="M40.57 15.806c-.388-.468-.732-.97-1.029-1.499l-1.906-.098c.322.074 1.114.548 2.275 3.052.94 2.038-.322 3.789-1.444 4.843.122.038.25.056.377.053 1.366-.06 5.296-2.11 1.727-6.351z" opacity=".4"/><path fill="#E39C75" fill-rule="nonzero" d="M71.681 31.411s-6.966-14.706-8.25-16.438c-1.284-1.731-11.39-7.186-12.441-7.698 0 0-10.308.761-11.993.912 0 0-1.155 3.263 1.144 4.734 2.258 1.447 8.896 2.29 9.66 2.633 3.262 1.468 2.698 5.345 2.245 7.975-.864 4.995 1.424 9.899 4.452 12.805 0 0 2.729 6.974.148 20.291 0 0 17.398-4.291 24.944-12.033 0 0-6.001-13.033-7.714-17.592-1.714-4.559-7.62-20.158-9.29-21.254-1.67-1.096-11-4.167-12.826-4.485C48.218.636 44.24-1.671 38.144 4.65c-4.675 4.852-2.546 8.11-1.606 9 1.716 1.624 7.563 1.068 5.148-5.307"/><path style="mix-blend-mode:multiply" fill="#000" fill-rule="nonzero" d="M58.393 47.008l10.021-21.383S61.586 8.998 58.728 7.968c-2.857-1.03-11.635-4.255-16.346-1.978-3.44 1.66-4.554 5.991-4.903 8.219 1.182.422 2.846.298 3.869-.696 2.83 1.096 7.79 1.753 8.445 2.046 3.262 1.469 2.698 5.345 2.244 7.976-.863 4.994 1.425 9.898 4.453 12.805 0 0 2.409 1.838.393 11.252l1.51-.584z" opacity=".4"/><path fill="#1C1C1C" fill-rule="nonzero" d="M51.432 4.68c-4.223-.918-8.394 1.749-9.317 5.956v.033l-2.164 4.293c.192.293.4.575.624.844 3.575 4.241-.36 6.301-1.727 6.35h-.126c2.94 3.795 1.786 5.146.636 6.152 1.023 1.077 1.07 1.714.982 2.643-.058.62 1.871 3.27 5.79 7.95l10.387-22.64a7.774 7.774 0 0 0 .424-7.077 7.823 7.823 0 0 0-5.503-4.496l-.006-.008z"/><path fill="url(#c)" fill-rule="nonzero" d="M81.59 44.592s-5.927-12.775-7.657-17.41c-2.783-3.034-8.948-9.721-9.982-10.551-1.342-1.077-10.176-8.266-11.749-8.493-1.573-.228-10.475-.455-11.459-.274-.985.18-1.466 1.293-1.466 1.293-.808 3.15 2.04 4.35 2.068 4.361 2.83 1.096 7.791 1.754 8.446 2.047 3.261 1.468 2.697 5.345 2.244 7.975-.864 4.995 1.424 9.899 4.452 12.805 0 0 3.375 8.572.017 20.843 1.865.357 17.54-4.865 25.086-12.596z"/><path fill="#E39C75" fill-rule="nonzero" d="M81.59 44.592c-1.168-2.282-5.927-12.775-7.657-17.41-2.783-3.034-8.948-9.721-9.982-10.551-1.342-1.077-10.176-8.266-11.749-8.493-1.573-.228-10.475-.455-11.459-.274-.985.18-1.466 1.293-1.466 1.293-.808 3.15 2.04 4.35 2.068 4.361 2.83 1.096 7.791 1.754 8.446 2.047 3.261 1.468 2.697 5.345 2.244 7.975-.864 4.995 1.424 9.899 4.452 12.805 0 0 3.517 8.01.159 20.28 0-.013 17.398-4.302 24.944-12.033z"/><path fill="#1C1C1C" fill-rule="nonzero" d="M53.773 57.981l29.638-14.627 4.488 10.52-37.363 18.874zM17.105 32.305l4.45 4.805 28.538 12.819 4.538-1.464.801-2.148-37.098-16.63z"/><path fill="#1C1C1C" fill-rule="nonzero" d="M17.847 31.474l-1.095 2.37 3.561 3.567L48.1 49.77l5.616.024.893-2.24z"/><path fill="#00585E" d="M17.847 31.474l-1.095 2.37 36.964 15.95.893-2.24-36.762-16.08"/><ellipse cx="79.165" cy="51.929" fill="#FFF" fill-rule="nonzero" rx="2.052" ry="2.044"/><path style="mix-blend-mode:multiply" fill="#000" fill-rule="nonzero" d="M56.646 56.625l17.626-8.73-6.595-14.13s-8.894-18.356-13.86-19.608c-4.125-1.028-12.051-3.677-14.636-4.551-.432 2.805 2.137 3.888 2.161 3.899 2.83 1.095 7.791 1.753 8.446 2.046 3.261 1.469 2.698 5.345 2.244 7.975-.864 4.995 1.424 9.899 4.452 12.806.003 0 3.017 5.474.162 20.293z" opacity=".4"/><path fill="#885D46" fill-rule="nonzero" d="M55.88 35.721c1.155 1.084 1.794 2.131 1.918 3.142.189 1.531.18 14.237-.74 17.503-.319.221-.913.522-1.783.904 1.036-9.469 1.4-15.167 1.093-17.095-.279-1.749-1.032-3.051-2.26-3.907-1.996-.02-3.996-.58-5.998-1.683 1.71-3.91 2.983-6.69 3.82-8.342-.251 2.565 1.757 6.886 3.95 9.478z"/><path fill="#1C1C1C" fill-rule="nonzero" d="M40.356 30.56c-.023.45-.19.938-.497 1.464-.462.788-1.07.995-1.35 1.068-.28.073-.599.102-1.398-.242-.534-.23-1.441-.838-2.723-1.827l-1.82 5.08 12.329 5.49 2.465-5.336-7.006-5.697z"/><path fill="#E39C75" fill-rule="nonzero" d="M29.91 25.281c.026 1.967.254 3.633.686 4.999.648 2.05 3.512 5.22 4.128 5.864.615.644 4.078.257 2.968-3.246-2.766-1.552-3.81-2.516-4.531-3.054a885.995 885.995 0 0 0-3.25-4.563z"/><path style="mix-blend-mode:multiply" fill="#000" fill-rule="nonzero" d="M34.732 36.143c1.853-.12 2.056-1.273 1.833-2.001-.224-.73-3.686-2.604-4.121-3.419-.29-.543-1.117-2.286-2.48-5.229a885.987 885.987 0 0 1 3.25 4.562c.721.54 1.766 1.503 4.531 3.055 1.11 3.503-2.274 3.805-2.89 3.16a58.923 58.923 0 0 1-.123-.128z" opacity=".4"/></g><path stroke="#1C1C1C" stroke-width=".84" d="M42.57 249.354h44.716M87.516 210.856l-.23 38.498M172.31 210.856v18.412M173.15 229.268h50.981M87.516 210.856h84.564"/></g><g transform="matrix(-1 0 0 1 262.777 21.76)"><path fill="#FFF" fill-rule="nonzero" d="M66.89 50.66s-1.94-2.338-2.522-2.992c-.582-.654-5.249-1.82-5.249-1.82v-2.322s6.407-1.758 6.173-2.634c-.234-.876 0-5.512 0-5.512a8.288 8.288 0 0 0 2.744-2.003C67.157 31.375 62.548 22 62.548 22c3.423-5.12 0-4.887 0-4.887-9.385 1.002-16.11 5.513-17.999 7.265-1.888 1.752-1.38 3.635-1.38 3.635 2.515 9.518 7.787 13.654 7.787 13.654v5.166s-3.178 1.348-3.885 1.928c-.708.58-1.484 2.446-1.484 2.446s-11.712 4.216-18.45 9.672l7.668 43.895-1.888 15.554-6.846 45.108-5.277 55.115h6.344s12.317-41.808 13.766-45.256c1.449-3.447-1.141-10.24-1.141-10.24l11.181-25.1v18.683s-4.25 4.55-4.82 10.382c-.57 5.831.57 51.525.57 51.525h6.623s11.924-52.282 13.247-57.754c1.324-5.473 6.755-40.654 6.755-40.654l2.71-1.627s-1.895-10.945-5.135-16.981c0 0 3.218-12.46 4.353-22.273L66.889 50.66z"/><path fill="#D8D8D8" fill-rule="nonzero" d="M53.568 53.407c-3.25 11.784-4.875 23.667-4.875 35.648.07 2.334-1.206 1.913-3.83-1.262l4.703-34.022 2.337-.727 1.665.363zM64.888 51.623l-2.542.5c2.072 10.614 3.27 18.67 3.596 24.167.325 5.496.507 16.774.545 33.833l2.004-.807 1.436-18.941-1.436-22.756-3.603-15.996z"/><ellipse cx="56.056" cy="66.959" fill="#1C1C1C" fill-rule="nonzero" rx="1" ry="1"/><ellipse cx="56.056" cy="78.337" fill="#1C1C1C" fill-rule="nonzero" rx="1" ry="1"/><ellipse cx="56.056" cy="89.715" fill="#1C1C1C" fill-rule="nonzero" rx="1" ry="1"/><ellipse cx="56.056" cy="101.093" fill="#1C1C1C" fill-rule="nonzero" rx="1" ry="1"/><path fill="#1C1C1C" fill-rule="nonzero" d="M73.353 122.136l2.71-1.627s-.77-4.431-2.157-9.216l-3.56-3.35c-2.132 2.233-6.349 3.35-12.65 3.35-6.3 0-13.713-1.117-22.24-3.35v4.625c0 .41-.849 2.996-2.545 7.76l-6.846 45.107-5.277 55.115h6.344s12.317-41.808 13.766-45.256c1.449-3.447-1.141-10.24-1.141-10.24l11.181-25.1v18.683s-4.25 4.55-4.82 10.382c-.57 5.831.57 51.525.57 51.525h6.624s11.923-52.282 13.246-57.754c1.324-5.473 6.795-40.654 6.795-40.654z"/><path fill="#A6B7C7" fill-rule="nonzero" d="M26.579 220.55l1.355 2.964v3.846H17.04c-3.302.18-3.571-.853-.809-3.1a2964.02 2964.02 0 0 0 4.564-3.716l5.785.006zM54.493 52.043v.728l2.076 2.776h2.579l1.329-3.02-3.394-3.83z"/><path fill="#A6B7C7" fill-rule="nonzero" d="M59.222 55.382s3.24 14.023 3.805 36.631a39.727 39.727 0 0 1-4.735 7.197 80.546 80.546 0 0 1-3.8-7.197s2.505-23.893 2.077-36.466l2.653-.165z"/><path fill="#1C1C1C" fill-rule="nonzero" d="M27.16 60.855l7.645 43.918-1.865 15.532-.189 1.228c8.854 3.345 15.232 2.208 15.232 2.208-3.736-51.355 4.085-70.714 4.085-70.714l-5.825-3.146c-.234.423-.445.857-.633 1.303 0 0-11.712 4.215-18.45 9.67zM107.035 73.086c-7.29-.297-9.239-.297-15.924-1.295-6.685-.998-8.875-4.75-8.937-4.832-7.532-10.08-7.532-11.66-10.173-13.217-5.078-2.996-5.112-3.082-5.112-3.082s-1.426-1.706-2.202-2.622l-.616 3.606s8.677 33.565 2.852 72.102a16.238 16.238 0 0 0 6.407-1.61l2.71-1.627s-1.894-10.945-5.135-16.981c0 0 1.915-7.119 3.31-14.65.21-1.133.21-2.986 1.017-6.268.806-3.283 6.495.164 10.124.515 3.63.351 15.045-1.007 22.18-2.517 0-.927 0-2.356-.501-7.522z"/><path style="mix-blend-mode:multiply" fill="#000" fill-rule="nonzero" d="M65.242 110.585s2.478-.888 3.25-1.269c-.01-.005-.26 5.042-.75 15.142l5.577-2.322-1.016 6.747-7.06 2.335v-20.633z" opacity=".4"/><path fill="#E39C75" fill-rule="nonzero" d="M107.035 73.086c2.088-1.377 3.87-1.93 5.345-1.658 1.475.27 2.17.592 2.083.963l-2.563 1.044 8.135 4.782c-3.357 3.85-7.523 4.647-12.499 2.39-.101-.997-.268-3.504-.501-7.52z"/><path fill="#FFF" fill-rule="nonzero" d="M64.39 47.668c-.57-.66-5.248-1.82-5.248-1.82v-2.202l-8.164 1.223v1.94s-3.177 1.348-3.885 1.928c-.707.58-1.483 2.447-1.483 2.447a26.162 26.162 0 0 0 10.52 2.161s1.403-.21 1.523-4.647c0 0 1.483 3.367 2.493 3.726 1.01.358 4.17-.16 6.766-1.764-.023 0-1.94-2.338-2.522-2.992z"/><path fill="#E39C75" fill-rule="nonzero" d="M57.493 47.674a11.03 11.03 0 0 0 1.649-1.827v-2.32s6.407-1.759 6.173-2.635c-.234-.876 0-5.512 0-5.512a8.288 8.288 0 0 0 2.744-2.003C67.18 31.375 62.57 22 62.57 22c.41-.6.771-1.234 1.078-1.894l-1.558-.49-17.228 6.275.525 8.073c2.561 5.297 5.59 7.68 5.59 7.68v5.166a47.16 47.16 0 0 0 6.515.865z"/><path fill="#FFF" fill-rule="nonzero" d="M62.57 21.982c3.424-5.12 0-4.887 0-4.887-9.384 1.002-16.11 5.513-17.998 7.265-1.888 1.752-1.38 3.635-1.38 3.635 2.515 9.518 7.786 13.654 7.786 13.654v-3.886s-1.882-.352-1.882-3.14c0-2.788 1.882-1.07 1.882-1.07s-.273-5.393-.273-6.16c0-.769 5.248-4.711 11.866-5.41z"/><path stroke="#808184" stroke-width=".6" d="M58.857 98.338v12.87"/><path stroke="#1A120D" stroke-width=".6" d="M65.942 112.568l-2.344 46.865-11.553 61.111M38.056 122.571l-7.929 36.874-7.273 61.1"/><path style="mix-blend-mode:multiply" fill="#000" fill-rule="nonzero" d="M64.225 35.328l1.09.052a8.288 8.288 0 0 0 2.744-2.003 7.27 7.27 0 0 0-3.834 1.951zM65.315 40.892s-6.105 1.03-8.854 2.458l2.681.176s6.407-1.758 6.173-2.634zM49.57 34.327a3.367 3.367 0 0 0 .758 2.276c.32.398.856.142.913-.393a2.902 2.902 0 0 0-.816-2.207c-.65-.666-.856.324-.856.324zM76.248 66.3c-.86 11.257-1.537 18.422-2.032 21.493-.005-.044.451-17.273 0-23.99.519.625 1.196 1.457 2.032 2.496z" opacity=".4"/><path fill="url(#d)" fill-rule="nonzero" d="M55.234 53.766a16.16 16.16 0 0 1-3.331-.267l.165-.455 2.852.284.314.438z"/><path fill="#A6B7C7" fill-rule="nonzero" d="M46.728 220.544a18.744 18.744 0 0 0-1.791 4.34l10.617 2.06s6.537.711 7.262.273c.496-.307-.069-1.553-.069-1.553l-9.395-5.12h-6.624z"/><path style="mix-blend-mode:multiply" fill="#000" fill-rule="nonzero" d="M50.978 158.637s-4.25 4.55-4.82 10.382c-.57 5.831.57 51.525.57 51.525h2.664c0-2.816-.09-26.687 1.586-42.667 1.792-17.027 3.903-15.81 4.422-18.984.519-3.175.65-27.415.65-27.415l-5.083 8.476.011 18.683z" opacity=".4"/><path fill="#FFF" fill-rule="nonzero" d="M71.183 63.455v-.686l2.697 1.602v3.491l-.007.005-1.63.968v-.686l.006-.004 1.054-.626v-2.805l-2.12-1.259zm-1.06 3.721v-2.8l.577-.341v4.17l-1.637-.972v-2.232l.577-.34v2.229l.483.286zm-2.12-2.805l.007-.004 2.69-1.598v.693l-.007.004-.57.336v-.004l-1.543.916v2.805l2.12 1.26v.686l-.02-.013-2.677-1.59v-3.49zm3.757 3.44v-.614l.483-.251v-1.602l-.483-.287V69.122l-.577.343v-5.437l1.637.973v2.232l-1.06.578z"/><path style="mix-blend-mode:multiply" fill="#000" fill-rule="nonzero" d="M47.114 110.585v15.174l-14.203-5.432-.685 4.797 18.798 7.28-.392-21.571z" opacity=".4"/><path fill="#1C1C1C" fill-rule="nonzero" d="M27.16 60.855c-5.031 15.305-6.366 27.929-6.366 31.477 0 3.548 8.625 12.44 17.262 21.694l1.558-6.855-12.453-46.316z"/><path fill="#161C2F" fill-rule="nonzero" d="M37.762 97.162l-2.889-7.775.818-8.595z"/><path stroke="#161C2F" stroke-width=".84" d="M43.784 107.83l-4.888 8.707"/></g><path stroke="#1C1C1C" stroke-linecap="square" stroke-width=".84" d="M224.585 229.317v19.358"/><path fill="#FFF" fill-rule="nonzero" d="M224.15 249.822v-20.06h-51.943l-.196 20.587z"/><g transform="matrix(-1 0 0 1 186.14 18.273)"><path fill="#E39C75" fill-rule="nonzero" d="M76.14 35.442c-4.03-3.885-7.9-6.16-7.9-6.16l.474-7.828S77.47-.864 60.43 1.406c0 0-5.899.99-5.979 8.078-.08 7.089 1.82 12.516 2.151 12.772.331.256 2.145.25 5.135.415 0 0-.44 3.13-1.295 4.04 0 0-3.84-1.508-8.441-2.98 0 0-2.135-.796-3.515 1.127-1.38 1.923-4.377 6.165-6.585 11.535l5.705 2.43s-1.272 2.975-.999 5.717c.274 2.742 3.788 21.356 3.788 21.356s-.918-.074-.998.694c-.08.768-.074 5.82-.074 5.82.262.305.61.525.998.631 0 0-16.63 26.033-20.092 48.772 1.44.936 2.969 1.73 4.564 2.372l-.656 1.929 7.45 51.866s-3.782 9.671-4.65 10.417c-.866.745-3.48.756-3.576 2.594v1.189h11.21s2.122-7.459 2.219-9.95a8.39 8.39 0 0 0-1.141-4.432s1.74-32.774 2.128-37.098c.388-4.323-.114-9.364-2.031-11.793l.513-1.519c4.315.681 8.688.927 13.053.734a27.075 27.075 0 0 0-1.141 3.209c-.33 1.342.49 47.844 0 50.227-.49 2.384-1.94 8.193-1.94 8.193s-1.996 1.137-1.18 2.429h9.19s.485-2.134-1.711-2.43v-8.192s7.633-40.243 8.945-49.494l-1.57-5.12c1.564-.278 3.167-.569 4.821-.978 0 0 4.24-35.272-7.068-51.474 0 0 .77 0 .85-.665.08-.666.211-5.052.211-5.052a.906.906 0 0 0-.912-.768s8.164-7.32 11.615-27.198c-.004-.784-.86-2.673-1.606-2.92l-1.676-2.447z"/><path fill="#FFF" fill-rule="nonzero" d="M59.072 4.461s-3.993 1.576-4.563 7.105c0 0 .484 7.328 2.116 10.696 0 0 .445.313 5.134.415a21.662 21.662 0 0 1-.49 2.304s-1.712.495-7.502 0a28.475 28.475 0 0 0 0-9.705c-.947-4.893-1.346-13.136 5.779-14.03 0 0 8.557-3.02 11.41 4.239 2.852 7.26.57 19.718.57 19.718h-7.81s2.328-3.613 3.064-9.671c0 0 1.369-.08 1.289-3.078-.08-2.998-2.07-.273-2.07-.273s-6.025-2.43-6.927-7.72z"/><path style="mix-blend-mode:multiply" fill="#000" fill-rule="nonzero" d="M47.435 127.576l-4.707-3.459s-4.233 3.032-2.658 6.389c1.574 3.356 5.134 18.312 3.85 41.068a47.02 47.02 0 0 0 .28 5.416 4.044 4.044 0 0 1-1.141 3.249s-.765 7.338-3.993 9.67c-3.23 2.333 6.155 0 6.155 0l1.38-6.2c.09-.487.15-.98.177-1.474a8.39 8.39 0 0 0-1.14-4.431s1.74-32.774 2.127-37.098c.388-4.324-.114-9.364-2.03-11.793l.513-1.52 1.187.183z" opacity=".4"/><g transform="rotate(-88 33.399 31.429)"><path fill="#FFF" fill-rule="nonzero" stroke="#25304F" stroke-width=".84" d="M18.455 1.774l10.503 9.652a2.323 2.323 0 0 1 .135 3.288l-13.536 14.65a2.34 2.34 0 0 1-3.3.135L1.755 19.846a2.323 2.323 0 0 1-.135-3.288l13.536-14.65a2.34 2.34 0 0 1 3.3-.135h0z"/><path stroke="#59C7DD" stroke-linecap="round" stroke-linejoin="round" stroke-width="1.293" d="M18.388 17.277l-4.664 1.351 3.912-11.103"/><ellipse cx="10.209" cy="21.279" fill="#25304F" fill-rule="nonzero" rx="1.259" ry="1.255"/></g><path fill="#1C1C1C" fill-rule="nonzero" d="M41.89 36.393l-5.075 18.302h-5.187l.753 5.671c4.697 0 7.949-.347 9.756-1.04.813-1.923 3.2-9.288 7.163-22.098l-7.41-.835z"/><path fill="#1C1C1C" fill-rule="nonzero" d="M75.9 35.164c-4.1-3.862-7.66-5.882-7.66-5.882-2.687 3.3-7.81 5.882-7.81 5.882-.901-6.024 0-8.453 0-8.453s-16.333 4.312-18.54 9.682l5.704 2.43s-1.272 2.975-.998 5.717c.274 2.742 3.788 21.356 3.788 21.356 4.216 3.226 17.371 2.14 17.371 2.14s8.216-6.65 11.667-26.528c.016-.78.366-1.64-.44-2.959L75.9 35.164zM67.595 74.526a61.16 61.16 0 0 1-17.297-1.479S33.668 99.08 30.206 121.82c1.44.936 2.97 1.73 4.564 2.372l11.45 3.203c4.315.681 8.688.927 13.052.734l10.56-1.138c1.563-.279 3.166-.569 4.82-.979.012-.011 4.25-35.294-7.057-51.485z"/><path fill="#A6B7C7" fill-rule="nonzero" d="M45.62 177.804c-2.282.438-2.687 9.068-5.396 10.598-2.71 1.53-3.298 0-3.298 0-.873.757-3.48.757-3.577 2.594v1.19h11.21s2.123-7.459 2.22-9.95a8.39 8.39 0 0 0-1.159-4.432z"/><path style="mix-blend-mode:multiply" fill="#000" fill-rule="nonzero" d="M59.072 189.21c-.57-5.928 3.423-41.603 4.154-45.028.73-3.425.735-8.721-.246-11.577a5.28 5.28 0 0 1 .896-4.978l-5.773.535 1.18-.034a27.075 27.075 0 0 0-1.14 3.208c-.331 1.343.49 47.844 0 50.228-.491 2.384-1.94 8.192-1.94 8.192s-1.997 1.138-1.181 2.43h3.423c.49-.496.776-1.406.627-2.976z" opacity=".4"/><path fill="#A6B7C7" fill-rule="nonzero" d="M61.212 188.539a1.798 1.798 0 0 1-2.984 0c-.896-1.343-.103-6.958-.103-6.958-.496 2.384-1.94 8.192-1.94 8.192s-1.996 1.138-1.18 2.43h9.19s.485-2.134-1.711-2.43v-8.192s-.325 5.604-1.272 6.958zM68.445 73.86c.08-.654.212-5.051.212-5.051a.906.906 0 0 0-.913-.768c-14.32.825-17.371-2.14-17.371-2.14s-.919-.073-.999.695c-.08.768-.074 5.82-.074 5.82.262.305.61.525.998.631 8.198 2.276 17.297 1.48 17.297 1.48s.77-.012.85-.666z"/><ellipse cx="59.728" cy="37.889" fill="url(#e)" fill-rule="nonzero" rx="1" ry="1"/><path style="mix-blend-mode:multiply" fill="#000" fill-rule="nonzero" d="M57.526 16.67a2.396 2.396 0 0 0-1.82-.148s.292.705 1.82.147z" opacity=".4"/><path fill="#FFF" fill-rule="nonzero" d="M60.812 26.113a11.858 11.858 0 0 0-1.916-.165 16.136 16.136 0 0 0-.514 8.471c.85 4.551 2.048.751 2.048.751a25.338 25.338 0 0 1 .382-9.057z"/><path fill="#FFF" fill-rule="nonzero" d="M68.28 28.36a3.08 3.08 0 0 1 1.443 1.707s-2.95 5.439-8.26 7.145c-1.38.228-1.033-2.048-1.033-2.048a21.45 21.45 0 0 0 7.85-6.804z"/><path style="mix-blend-mode:multiply" fill="#000" fill-rule="nonzero" d="M64.435 22.671s-6.047.28-7.833-.41c0 0-.085-.978 7.833.41zM67.379 11.714a3.056 3.056 0 0 0-1.472 1.9c-.234 1.235.741 1.537 1.14 1.059.543-.89.664-1.972.332-2.959z" opacity=".4"/><path style="mix-blend-mode:multiply" fill="#D8D8D8" fill-rule="nonzero" d="M78.982 38.384l-3.89-3.982c-1.39-1.194-2.31-1.958-2.762-2.292-.678-.502-1.674-1.17-1.674-.588 0 .581-2.192 10.89-2.363 13.973-.171 3.084-3.014 5.889-4.726 6.787-1.711.9.868 10.725-5.963 15.65l10.14.103s7.416-10.809 11.096-28.9c.051-.216.09-.5.142-.75z" opacity=".4"/><path fill="#1C1C1C" fill-rule="nonzero" d="M79.91 44.795c.918-3.364.457-5.624-1.383-6.781-2.76-1.735-5.658 1.123-7.469 6.243-1.207 3.413-3.174 9.083-5.9 17.01L43.188 75.46l2.33 4.186C60.386 72.252 68.9 67.94 71.057 66.709c2.158-1.23 5.11-8.535 8.853-21.914z"/><path fill="#161C2F" fill-rule="nonzero" d="M77.509 37.8c1.138 1.489 1.423 3.352.854 5.589-.867 3.413-6.906 21.036-7.614 21.036-.473 0-9.303 4.538-26.491 13.615l.42.953 1.013 1.855.29-.09c14.566-7.996 22.921-12.606 25.067-13.83 2.158-1.23 5.109-8.535 8.852-21.913.918-3.365.457-5.625-1.383-6.782a3.332 3.332 0 0 0-1.008-.432z"/><path fill="#E39C75" fill-rule="nonzero" d="M43.188 75.461c-1.431-1.262-3.46-1.81-6.087-1.643-1.568.04-3.352.256-3.352.89 0 .636 3.106.599 3.352 1.086.245.488-2.48 1.323-2.48 1.323l7.649 5.147c1.037 0 2.26-.379 3.667-1.137-.148-.878-1.064-2.767-2.749-5.666z"/><path style="mix-blend-mode:multiply" fill="#000" fill-rule="nonzero" d="M69.843 126.979c1.563-.28 3.166-.57 4.82-.979 0 0 4.24-35.272-7.068-51.474a59.014 59.014 0 0 1-3.263.086s7.787 29.23-.45 53.015l5.961-.648z" opacity=".4"/><path style="mix-blend-mode:multiply" fill="url(#f)" fill-rule="nonzero" d="M54.486 11.566s1.255-5.12 4.758-6.331l-.172-.774s-3.976 1.462-4.586 7.105z" opacity=".4"/><path fill="#161C2F" fill-rule="nonzero" d="M47.71 39.29c-.939 1.419-1.588 2.754-1.95 4.007-.36 1.253-.36 2.76 0 4.524-1.077 4.374-2.285 8.21-3.623 11.504-.948.505-5.672 1.578-9.72 1.041-.175-1.24-.306-2.016-.395-2.329 3.838.208 6.688-.067 8.551-.823 1.323-3.735 3.134-9.017 3.396-10.718.262-1.7.278-3.897 1.792-5.41 1.009-1.009 1.659-1.608 1.949-1.796z"/><path fill="#E39C75" fill-rule="nonzero" d="M31.628 54.695c-.626-.565-1.175-1-1.645-1.304-.706-.456-2.16.456-4.021 0-1.861-.456-2.306.307-1.14 1.15.777.56 1.832.983 3.163 1.266l-4.22 4.56c2.615 1.115 5.487 1.115 8.616 0-.14-1.383-.39-3.273-.753-5.672z"/><path fill="#1C1C1C" fill-rule="nonzero" d="M58.487 27.47l.409-1.522c-3.87-1.248-6.099-1.964-6.688-2.146-.884-.274-2.356-.866-4.072 1.4-1.717 2.267-5.356 8.62-6.247 11.191-.594 1.715 2.24 1.102 8.504-1.837l8.094-7.087z"/></g></g></svg>