<svg xmlns="http://www.w3.org/2000/svg" viewBox="0 0 66 66"><g fill="none" fill-rule="evenodd"><path fill="#59C7DD" fill-rule="nonzero" d="M17.947 0h30.106c6.24 0 8.503.65 10.785 1.87a12.721 12.721 0 0 1 5.292 5.292C65.35 9.444 66 11.707 66 17.947v30.106c0 6.24-.65 8.503-1.87 10.785a12.721 12.721 0 0 1-5.292 5.292C56.556 65.35 54.293 66 48.053 66H17.947c-6.24 0-8.503-.65-10.785-1.87a12.721 12.721 0 0 1-5.292-5.292C.65 56.556 0 54.293 0 48.053V17.947c0-6.24.65-8.503 1.87-10.785A12.721 12.721 0 0 1 7.162 1.87C9.444.65 11.707 0 17.947 0z"/><path fill="#FFF" fill-rule="nonzero" d="M31.444 43.295h-9.125a7 7 0 0 1-6.991-6.992c0-2.678 1.743-5.458 4.147-6.61l.365-.175v-.406c0-.082.005-.165.01-.249l.006-.103-.008-.135c-.004-.052-.008-.105-.008-.157a4.518 4.518 0 0 1 4.513-4.513 4.51 4.51 0 0 1 .741.066c.172.029.342.066.509.115.022.006.046.01.068.017.184.056.363.127.538.207.046.02.09.043.136.065a4.51 4.51 0 0 1 2.52 4.043.644.644 0 1 0 1.29 0 5.789 5.789 0 0 0-2.063-4.43c1.848-2.417 4.891-3.951 7.92-3.951 4.992 0 9.139 3.955 9.571 8.953-.659-.046-1.645-.07-2.632.08a.645.645 0 0 0 .194 1.275c1.435-.218 2.932-.014 3.02-.002 3 .57 5.263 3.336 5.263 6.437 0 3.564-2.9 6.465-6.464 6.465h-13.52z"/><path fill="#25304F" fill-rule="nonzero" d="M42.623 40.443a4.086 4.086 0 1 0 0-8.172 4.086 4.086 0 0 0 0 8.172z"/><path fill="#FFF" fill-rule="nonzero" d="M42.623 38.225a1.868 1.868 0 1 0 0-3.737 1.868 1.868 0 0 0 0 3.737z"/></g></svg>