<svg xmlns="http://www.w3.org/2000/svg" viewBox="0 0 66 66"><g fill="none" fill-rule="nonzero"><path fill="#1C1C1C" d="M17.947 0h30.106c6.24 0 8.503.65 10.785 1.87a12.721 12.721 0 0 1 5.292 5.292C65.35 9.444 66 11.707 66 17.947v30.106c0 6.24-.65 8.503-1.87 10.785a12.721 12.721 0 0 1-5.292 5.292C56.556 65.35 54.293 66 48.053 66H17.947c-6.24 0-8.503-.65-10.785-1.87a12.721 12.721 0 0 1-5.292-5.292C.65 56.556 0 54.293 0 48.053V17.947c0-6.24.65-8.503 1.87-10.785A12.721 12.721 0 0 1 7.162 1.87C9.444.65 11.707 0 17.947 0z"/><path fill="#FFF" d="M20 19.82l12.083-2.266a3.167 3.167 0 0 1 1.167 0l12.083 2.266v14.698c0 4.646-2.393 8.964-6.333 11.427l-5.494 3.434c-.514.32-1.165.32-1.679 0l-5.494-3.434A13.475 13.475 0 0 1 20 34.518V19.82z"/><path fill="#A6B7C7" d="M31.292 38.486c-.47 0-.938-.183-1.313-.55l-3.75-3.666c-.75-.734-.75-1.834 0-2.567.75-.733 1.969-.733 2.625 0l2.438 2.383 6.187-6.05c.75-.733 1.875-.733 2.625 0 .75.734.75 1.834 0 2.567l-7.5 7.333c-.375.367-.844.55-1.312.55z"/></g></svg>