<svg xmlns="http://www.w3.org/2000/svg" viewBox="0 0 66 66"><g fill="none" fill-rule="nonzero"><path fill="#F3C44F" d="M17.947 0h30.106c6.24 0 8.503.65 10.785 1.87a12.721 12.721 0 0 1 5.292 5.292C65.35 9.444 66 11.707 66 17.947v30.106c0 6.24-.65 8.503-1.87 10.785a12.721 12.721 0 0 1-5.292 5.292C56.556 65.35 54.293 66 48.053 66H17.947c-6.24 0-8.503-.65-10.785-1.87a12.721 12.721 0 0 1-5.292-5.292C.65 56.556 0 54.293 0 48.053V17.947c0-6.24.65-8.503 1.87-10.785A12.721 12.721 0 0 1 7.162 1.87C9.444.65 11.707 0 17.947 0z"/><path fill="#1C1C1C" d="M19.754 46.72h26.492c1.29 0 2.337-1.066 2.337-2.38V26.887c0-1.315-1.046-2.38-2.337-2.38H29.883l-3.99-4.063a2.317 2.317 0 0 0-1.653-.697h-4.486c-1.29 0-2.337 1.065-2.337 2.38V44.34c0 1.314 1.046 2.38 2.337 2.38z"/><path fill="#FFF" d="M36.896 34.027c.86 0 1.558.71 1.558 1.586v4.76c0 .877-.698 1.587-1.558 1.587h-7.792c-.86 0-1.558-.71-1.558-1.587v-4.76c0-.876.698-1.586 1.558-1.586v-.794c0-2.19 1.744-3.966 3.896-3.966s3.896 1.776 3.896 3.966v.794zM33 30.853c-1.291 0-2.338 1.066-2.338 2.38v.794h4.676v-.794c0-1.314-1.047-2.38-2.338-2.38z"/></g></svg>