<svg xmlns="http://www.w3.org/2000/svg" xmlns:xlink="http://www.w3.org/1999/xlink" viewBox="0 0 113 166"><defs><path id="a" d="M16.847 10h118v182h-118z"/></defs><g fill="none" fill-rule="evenodd"><g transform="rotate(-11 -80.467 195.164)"><mask id="b" fill="#fff"><use xlink:href="#a"/></mask><g mask="url(#b)"><path fill="#1C1C1C" fill-rule="nonzero" d="M34.35 131.323a26.37 26.37 0 0 0-3.782 3.054l-1.171 1.538s-7.062 41.242-9.11 44.336c-2.048 3.094-7.06 10.067-7.06 13.893 0 3.825-.516 49.14-.516 49.14l9.671-1.395C27.643 220.278 48.9 166.72 48.9 166.72s1.667 19.94.509 22.644c-1.158 2.705-4.103 6.819-3.588 10.678.516 3.86 8.849 35.128 8.849 35.128l14.725 3.355.16-3.758c.817-15.597.315-43.215 1.42-50.812.668-4.564 3.259-19.88 5.226-31.39L34.35 131.323z"/><path stroke="#1A120D" stroke-width=".6" d="M49.114 142.58l-12.917 41.094-16.612 58.691M67.668 152.962l-1.794 36.792v47.631"/><path style="mix-blend-mode:multiply" fill="#000" fill-rule="nonzero" d="M40.775 135.929l-15.903-3.953-.1.282 4.585 3.657s-7.062 41.242-9.11 44.336c-2.048 3.094-7.061 10.067-7.061 13.893 0 3.825-.515 49.14-.515 49.14l1.767-.254c-.241-11.074-.228-37.55 5.133-45.101 6.847-9.624 15.582-22.302 21.204-62zM48.88 166.741s1.667 19.94.509 22.644c-1.158 2.705-4.103 6.82-3.588 10.678.516 3.86 9.063 36.363 9.063 36.363l6.405.268c-8.868-15.913-11.572-21.63-8.902-41.523 2.778-20.692-3.487-28.43-3.487-28.43z" opacity=".4"/><g transform="translate(24.008 56.237)"><path fill="#FFF" fill-rule="nonzero" d="M102.684 19.404L82.877 31.248 61.229 6.906 58.552 2.98A9.648 9.648 0 0 1 49.804.262c-.817.584-3.795 2.684-4.786 2.684-1.157 0-20.28 17.396-20.28 17.396-.254 7.202-2.309 19.685-2.309 19.685s-3.975 14.926-3.848 14.926C8.575 70.391 4.55 75.738 3.956 75.738 30.94 92.477 51.745 93.051 52.193 93.9c.449.849 2.31-11.188 2.31-11.188s1.265-13.786 1.378-16.886c.114-3.101.67-4.141.67-4.141 8.942-8.269 12.496-23.208 12.496-23.208s3.547 1.725 7.101 3.678c3.554 1.953 6.07 1.375 6.07 1.375l22.536-18.839c-.807-1.489-.807-4.349-2.07-5.287z"/><path stroke="#808184" stroke-width=".6" d="M56.37 4.403s4.21 23.745-6.184 55.033c0 0-3.08 20.362-8.32 32.188"/><path fill="#1C1C1C" fill-rule="nonzero" d="M50.614 59.228c4.766-17.57-3.949-49.57-5.301-56.322a1.335 1.335 0 0 1-.295.047c-1.157 0-20.28 17.39-20.28 17.39-.254 7.2-2.309 19.684-2.309 19.684s-3.767 14.926-3.848 14.926C10.884 62.473.764 76.02.764 76.02 8.568 82.9 28.35 93.41 36.03 93.41c.417.078 13.03-28.45 14.584-34.182z"/><path fill="#FFF" fill-rule="nonzero" d="M41.958 20.263v-.86l3.452 2.007v4.372l-.009.006L43.315 27v-.859l.008-.005 1.349-.784V21.84l-2.714-1.577zm-1.357 4.66v-3.508l.74-.426v5.223l-2.097-1.218V22.2l.739-.427v2.792l.618.36zm-2.714-3.513l.01-.005 3.443-2.001v.867l-.009.005-.73.422v-.006l-1.975 1.148v3.512l2.714 1.578v.859l-.027-.016-3.426-1.99V21.41zm4.81 4.307v-.768l.618-.314v-2.007l-.618-.359v5.09l-.74.43V20.98l2.097 1.218v2.795l-1.357.723z"/><path fill="#1C1C1C" fill-rule="nonzero" d="M49.991 59.782c-.856 1.96-4.498 23.429-6.331 35.832.97.268 8.92 1.3 9.333.751.415-.55 1.516-13.68 1.516-13.68s1.265-13.785 1.379-16.886c.114-3.1.67-4.141.67-4.141 8.941-8.269 12.495-23.208 12.495-23.208s2.356 3.182 5.91 5.135c3.554 1.953 4.313 2.166 6.242 2.085l24.925-19.458c.96-3.905-3.446-6.808-3.446-6.808-11.062 5.939-17.664 9.417-19.807 10.435-2.845-2.844-6.045-7.355-9.6-13.533L61.221 6.94s4.03 22.138-11.23 52.842z"/><path fill="#000" fill-rule="nonzero" d="M81.205 45.67l24.925-19.458c.318-.52-.014-2.917-.511-3.427-2.916 1.352-22.49 16.604-25.308 16.229-2.952-.396-10.26-6.403-10.26-6.403-.469 3.027-.991 5.859-.991 5.859s2.698 3.406 6.252 5.359c3.554 1.953 4.086 1.953 5.893 1.841z"/><ellipse cx="108.678" cy="27.699" stroke="#30C554" stroke-width="1.512" rx="2.926" ry="2.935"/><path stroke="#30C554" stroke-width="1.512" d="M109.096 24.764l3.344-18.866"/><path fill="#30C554" fill-rule="nonzero" d="M112.873 7.156l4.582.753-.522 2.558-3.236-.568-.2 1.074 3.183.523-.465 2.368-4.611-.78z"/><path fill="#E39C75" fill-rule="nonzero" d="M102.684 19.404c2.166-1.344 3.36-2.016 3.583-2.016.222 0 1.387-.228 3.495-.685l-1.328 7.285a3.92 3.92 0 0 0-2.167.904c-.12-1.612-1.168-3.564-2.82-4.867a8.47 8.47 0 0 0-.763-.621z"/><path fill="#E39C75" fill-rule="nonzero" d="M111.187 18.056c.239.284.557.785.955 1.503.397.72.397 3.007 0 6.863-3.258 1.573-5.534 2.652-6.829 3.238-1.942.878-1.314-2.676 0-5.802.876-2.084 2.834-4.018 5.874-5.802z"/><path fill="#E39C75" fill-rule="nonzero" d="M106.223 17.54c1.525.214 2.548.386 3.068.516.781.196 1.713 2.277 1.713 2.742 0 .465-.771 2.253-1.242 2.56-.47.308-.861-.732-.666-1.81.195-1.08-.331-1.642-1.139-1.072-.538.38-1.273 1.238-2.204 2.574l.47-5.51z"/><path fill="#000" fill-rule="nonzero" d="M24.745 20.309c-.254 7.201-2.309 19.684-2.309 19.684S18.819 54.92 18.588 54.92C8.58 64.96.864 75.738.864 75.738c2.142 1.712 4.383 4.169 6.598 5.68 6.018-11.62 17.524-26.68 17.524-26.68 7.226-16.624 12.901-30.185 12.901-34.43 0-4.244-13.142 0-13.142 0z"/><path fill="#FFF" fill-rule="nonzero" d="M61.23 6.906L58.551 2.98A9.648 9.648 0 0 1 49.804.262a27.93 27.93 0 0 1-3.936 2.43s3.133 4.174 5.723 4.483l4.779-2.772 3.286 3.785s.61-.06 1.64-1.201l-.067-.08z"/><circle cx="43.921" cy="77.759" r="1" fill="#25304F" fill-rule="nonzero"/><circle cx="47.267" cy="64.336" r="1" fill="#25304F" fill-rule="nonzero"/><circle cx="50.614" cy="50.913" r="1" fill="#25304F" fill-rule="nonzero"/><circle cx="53.291" cy="37.49" r="1" fill="#25304F" fill-rule="nonzero"/><circle cx="55.299" cy="24.067" r="1" fill="#25304F" fill-rule="nonzero"/><path fill="#30C554" fill-rule="nonzero" d="M54.677 6.317l1.244-1.914 1.292-.178 1.72 2.092-.959 2.752 2.316 3.017c.667 7.518.215 15.615-1.357 24.292a45.312 45.312 0 0 1-1.72 7.207l-6.237 14.686.78-16.736c1.842-13.503 3.023-23.32 3.543-29.45-.044.031.381-.816 1.276-2.542l-1.898-3.226z"/><path fill="#1C1C1C" fill-rule="nonzero" d="M45.41 2.906C35.3 4.766 29.42 5.902 27.772 6.317 25.3 6.94 16.617 38.383 13.48 41.121c-2.092 1.825-5.267 13.117-9.524 33.875l7.855 2.138 22.166-52.443L45.41 2.906z"/><path fill="#E39C75" fill-rule="nonzero" d="M3.956 75.085C2.213 77.331 1.183 78.733.864 79.29c-.477.836 1.233 5.481 1.85 6.267.619.787 2.975 2.625 4.205 2.625 1.231 0 0-3.43 0-4.469 0-.692.102-1.712.305-3.06l1.64.305 1.157-4.3-6.065-1.572z"/></g><g fill-rule="nonzero"><path fill="#E39C75" d="M73.812 56.5c1.084 1.341 3.835 3.811 8.855 2.885l-.107-.168 1.499-4.382s5.87-1.765 6.198-2.483c.328-.719.328-5.759.328-5.759s1.894-1.63 1.693-2.55c-.2-.92-3.132-8.309-3.132-8.309 3.393-5.557.462-5.691.462-5.691-9.003-2.416-18.467 4.973-19.832 6.476-1.365 1.504-1.305 2.161-1.305 2.161l5.77 8.631a5.828 5.828 0 0 0 1.746 4.785l-1.927 4.249-.248.154z"/><path style="mix-blend-mode:multiply" fill="#000" d="M84.059 54.835s5.274-1.517 6.198-2.483a32.915 32.915 0 0 0-7.316 2.483c.36.137.758.137 1.118 0z"/><path style="mix-blend-mode:multiply" fill="#000" d="M90.585 46.593a9.334 9.334 0 0 0 1.452-1.658 14.04 14.04 0 0 0-3.507 1.759 2.123 2.123 0 0 0 2.055-.1zM75.137 48.405s-.26-1.235.823-.496c1.085.738 1.767 1.973 1.272 2.597-.495.624-1.653-.37-2.095-2.1z" opacity=".7"/></g><g><path fill="#1C1C1C" fill-rule="nonzero" d="M89.146 35.734c3.393-5.557.462-5.691.462-5.691-9.003-2.416-18.467 4.973-19.832 6.476-1.365 1.504-1.305 2.161-1.305 2.161l5.77 8.631s.83-2.262 3.707.712c0 0 .763.852 1.339.63l-4.585-9.395s8.52-6.034 14.444-3.524z"/></g></g></g><path stroke="#1C1C1C" stroke-linecap="square" stroke-width="2" d="M1.594 164.78h65"/></g></svg>