<svg xmlns="http://www.w3.org/2000/svg" viewBox="0 0 66 66"><g fill="none" fill-rule="evenodd"><path fill="#30C554" fill-rule="nonzero" d="M17.947 0h30.106c6.24 0 8.503.65 10.785 1.87a12.721 12.721 0 0 1 5.292 5.292C65.35 9.444 66 11.707 66 17.947v30.106c0 6.24-.65 8.503-1.87 10.785a12.721 12.721 0 0 1-5.292 5.292C56.556 65.35 54.293 66 48.053 66H17.947c-6.24 0-8.503-.65-10.785-1.87a12.721 12.721 0 0 1-5.292-5.292C.65 56.556 0 54.293 0 48.053V17.947c0-6.24.65-8.503 1.87-10.785A12.721 12.721 0 0 1 7.162 1.87C9.444.65 11.707 0 17.947 0z"/><g transform="translate(17 19)"><path fill="#00585E" d="M33 4v8a2 2 0 0 1-2 2H9a2 2 0 0 1-2-2V4a2 2 0 0 1 2-2h22a2 2 0 0 1 2 2z"/><path stroke="#F2F2F2" stroke-linecap="round" stroke-width="4" d="M0 0v23a2 2 0 0 0 2 2h5"/><rect width="26" height="12" x="7" y="18" fill="#00585E" rx="2"/><path stroke="#F2F2F2" stroke-width="4" d="M0 8.5h7"/></g></g></svg>