<svg xmlns="http://www.w3.org/2000/svg" xmlns:xlink="http://www.w3.org/1999/xlink" viewBox="0 0 67 66"><defs><path id="a" d="M17.947 0h30.106c6.24 0 8.503.65 10.785 1.87a12.721 12.721 0 0 1 5.292 5.292C65.35 9.444 66 11.707 66 17.947v30.106c0 6.24-.65 8.503-1.87 10.785a12.721 12.721 0 0 1-5.292 5.292C56.556 65.35 54.293 66 48.053 66H17.947c-6.24 0-8.503-.65-10.785-1.87a12.721 12.721 0 0 1-5.292-5.292C.65 56.556 0 54.293 0 48.053V17.947c0-6.24.65-8.503 1.87-10.785A12.721 12.721 0 0 1 7.162 1.87C9.444.65 11.707 0 17.947 0z"/></defs><g fill="none" fill-rule="evenodd" transform="translate(.465)"><mask id="b" fill="#fff"><use xlink:href="#a"/></mask><use fill="#F3C44F" fill-rule="nonzero" xlink:href="#a"/><g mask="url(#b)"><g fill="#1C1C1C"><path d="M40 33V16l12 8.471zM40 20H21.796L13 29h27z"/></g><g fill="#F2F2F2"><path d="M25.728 32.842V50l-12.234-8.55zM25.728 46.065h18.387L53 37.5H25.728z"/></g></g></g></svg>