<svg xmlns="http://www.w3.org/2000/svg" viewBox="0 0 66 66"><g fill="none" fill-rule="evenodd"><path fill="#6E59DD" fill-rule="nonzero" d="M17.947 0h30.106c6.24 0 8.503.65 10.785 1.87a12.721 12.721 0 0 1 5.292 5.292C65.35 9.444 66 11.707 66 17.947v30.106c0 6.24-.65 8.503-1.87 10.785a12.721 12.721 0 0 1-5.292 5.292C56.556 65.35 54.293 66 48.053 66H17.947c-6.24 0-8.503-.65-10.785-1.87a12.721 12.721 0 0 1-5.292-5.292C.65 56.556 0 54.293 0 48.053V17.947c0-6.24.65-8.503 1.87-10.785A12.721 12.721 0 0 1 7.162 1.87C9.444.65 11.707 0 17.947 0z"/><g transform="translate(19 17)"><rect width="30" height="24.129" y="9.571" fill="#25304F" rx="3.3"/><ellipse cx="15" cy="21.087" fill="#FFF" rx="2.778" ry="2.742"/><path stroke="#25304F" stroke-width="4.4" d="M6.877 10.046C6.877 3.349 9.585 0 15 0c5.415 0 8.03 3.349 7.846 10.046"/></g></g></svg>