<svg xmlns="http://www.w3.org/2000/svg" viewBox="0 0 595 374"><g fill="none" fill-rule="evenodd"><circle cx="116.5" cy="119.5" r="59.5" fill="#1C1C1C" fill-rule="nonzero" transform="translate(27)"/><path fill="#FFF" d="M160 0h298v199H160z"/><path fill="#F2F2F2" d="M160 87h39v112h-39zM440 118h18v81h-18z"/><g transform="translate(184 46)"><path fill="#1C1C1C" d="M46 8h33v6H46z"/><path fill="#D6D6D6" d="M46 20h83v4H46z"/><circle cx="16" cy="16" r="16" fill="#DEDEDE"/><path fill="#E39C75" d="M223 8h16v16h-16z"/></g><g transform="translate(184 94)"><path fill="#1C1C1C" d="M46 12h33v6H46z"/><path fill="#D6D6D6" d="M46 24h83v4H46z"/><circle cx="16" cy="16" r="16" fill="#DEDEDE"/><circle cx="16" cy="72" r="16" fill="#DEDEDE"/><path fill="#E39C75" d="M223 11h16v16h-16z"/></g><path fill="#1C1C1C" d="M230 155h33v6h-33z"/><path fill="#D6D6D6" d="M230 167h83v4h-83z"/><path fill="#E39C75" d="M407 155h16v16h-16z"/><path fill="#5D179F" d="M160 0h298v26H160z"/><path fill="#FFF" d="M309.116 6.742V5L316 9.068v8.864l-.018.01-4.16 2.46v-1.743l.017-.01 2.688-1.589V9.94l-5.411-3.197zm-2.705 9.448V9.08l1.474-.865v10.589l-4.18-2.47v-5.667l1.473-.864v5.66l1.233.728zM301 9.068l.018-.01L307.885 5v1.758l-.018.01-1.456.855v-.01l-3.938 2.326v7.121l5.412 3.198V22l-.054-.032L301 17.932V9.068zm9.59 8.732v-1.558l1.231-.637v-4.067l-1.231-.729v10.32l-1.474.871V8.197l4.179 2.47v5.667L310.59 17.8z"/><g><path fill="#FFF" d="M0 97h189v125H0z"/><path fill="#DEDEDE" d="M50.4 138.374h74.7v3.597H50.4z"/><path fill="#1C1C1C" d="M50.4 132.165h37.8v3.597H50.4z"/><path fill="#59C7DD" d="M14.4 129.374h28.8v14.388H14.4z"/><path fill="#FFF" d="M21.6 134.77H36v3.597H21.6z"/><g><path fill="#DEDEDE" d="M50.4 167.151h74.7v3.597H50.4z"/><path fill="#1C1C1C" d="M50.4 160.942h37.8v3.597H50.4z"/><path fill="#59C7DD" d="M14.4 158.151h28.8v14.388H14.4z"/><path fill="#FFF" d="M21.6 163.547H36v3.597H21.6z"/></g><g><path fill="#DEDEDE" d="M50.4 195.928h74.7v3.597H50.4z"/><path fill="#1C1C1C" d="M50.4 189.72h37.8v3.596H50.4z"/><path fill="#59C7DD" d="M14.4 186.928h28.8v14.388H14.4z"/><path fill="#FFF" d="M21.6 192.324H36v3.597H21.6z"/></g><path fill="#5D179F" d="M0 97h189v13.489H0z"/></g><g><path fill="#FFF" d="M448 128h147v97H448z"/><g transform="translate(462.7 153.122)"><path fill="#1C1C1C" d="M22.5 3.838h16.141v2.879H22.5z"/><path fill="#DEDEDE" d="M22.5 9.595h40.597v1.919H22.5z"/><path fill="#1C1C1C" d="M45.6 31.752h16.141v2.879H45.6z"/><path fill="#DEDEDE" d="M45.6 37.509h40.597v1.919H45.6zM45.6 43.092h40.597v1.919H45.6zM45.6 48.674h19.597v1.919H45.6z"/><ellipse cx="7.826" cy="7.676" fill="#DEDEDE" rx="7.826" ry="7.676"/><path fill="#F3C44F" d="M109.074 3.838h7.826v7.676h-7.826z"/><ellipse cx="17.15" cy="42.917" stroke="#F3C44F" stroke-width="6.3" rx="12.95" ry="12.91"/></g><path fill="#5D179F" d="M448 128h147v10.468H448z"/></g><g transform="translate(213.969 143.948)"><path fill="#E39C75" d="M85.682 18.703c1.64 5.422 4.089 12.955 7.35 22.598-2.271 1.82-4.607 3.228-7.01 4.228.236 5.166.123 9.668-.34 13.507-4.216 1.712-8.161 2.697-11.836 2.954l1.728 9.761c-2.67 2.868-6.203 4.301-10.603 4.301-4.399 0-9.575-.844-15.527-2.532l2.414-13.53-9.42-10.417C32.498 34.975 29.88 21.59 34.583 9.418 57.708-3.804 88.11.223 90.926 1.952c1.878 1.153.13 6.736-5.244 16.75z"/><ellipse cx="99.031" cy="225.052" fill="#000" rx="99" ry="5"/><path fill="#FFF" d="M96.96 173.544c23.51-12.607 45.594-21.936 66.255-27.986 30.99-9.075 34.816 3.013 34.816 12.268 0 16.263-24.658 39.769-63.239 57.487-19.881 9.13-44.603 8.167-64.118 8.167-19.515 0-36.234-5.024-49.914-17.587C-1.708 183.95.031 167.25.031 157.826c0-9.423 11.139-24.397 33.05-9.423 14.608 9.984 28.415 18.127 41.422 24.43l22.456.711z"/><path fill="#1C1C1C" d="M112.434 165.84c18.865-9.132 35.791-15.892 50.78-20.282 30.99-9.075 34.817 3.013 34.817 12.268 0 .236-.005.474-.015.714a34.754 34.754 0 0 0-1.985-3.136c-5.284-7.499-13.073-3.736-27.193 1.81-14.12 5.546-38.22 14.69-46.18 14.69-4.873 0-8.282-2.021-10.224-6.063z"/><path fill="#00585E" d="M34.593 76.052c10.936-4.16 20.48-6.24 28.63-6.24 12.226 0 32.078 2.868 44.896 8.409 12.818 5.54 19.572 57.154 20.992 62.02.947 3.244 13.934 3.244 38.961 0l2.58 13.189c-16.19 7.592-30.036 12.399-41.541 14.42-11.505 2.02-20.02-6.48-25.543-25.502l-7.24 31.439c-19.202 9.03-37.49 8.819-54.866-.635-19.932-25.117-19.539-79.574-8.927-94.64 1.442-1.582 2.128-2.402 2.058-2.46z"/><path fill="#01383C" d="M170.052 150.362l.6 3.068c-16.19 7.592-30.036 12.399-41.541 14.42-11.38 1.998-19.835-6.297-25.363-24.887v-.911l1.813-10.248c4.356 16.551 8.966 26.128 13.831 28.73 4.832 2.586 21.719-.805 50.66-10.172z"/><path fill="#30C554" d="M96.96 173.544c-16.335 9.955-35.923 9.955-58.766 0-1.086-4.194-1.889-7.229-2.408-9.105 23.033 11.673 44.115 11.673 63.245 0-1.096 4.493-1.787 7.528-2.072 9.105z"/><path fill="#FFF" d="M43.832 167.741c-.713-1.085-1.725-1.906-3.036-2.465-1.966-.837-3.091-2.23-3.868 1.306-.518 2.358-.093 4.883 1.274 7.575 5.681 3.803 7.796 4.658 6.345 2.565-1.451-2.093-1.69-5.086-.715-8.981zM51.086 178.908c-.668-4.594-.668-7.651 0-9.172 1.002-2.28 7.531.136 6.99 2.168-.362 1.354-.362 4.188 0 8.5l-6.99-1.496zM67.409 181.01c1.013-2.916 1.013-5.678 0-8.286 1.592-1.82 6.738-1.884 7.458 0 .72 1.885 1.22 5.373 0 8.286-.813 1.942-3.3 1.942-7.458 0zM84.372 179.24c1.33-3.327 1.33-6.053 0-8.177 1.77-2.755 4.994-3.581 7.105-2.25 1.408.887 1.7 3.583.879 8.087l-6.389 2.34h-1.595z"/><path fill="#E39C75" d="M168.072 140.24c5.477-2.681 9.408-4.32 11.792-4.914 3.577-.892 15.895 1.813 18.167 3.364 2.272 1.55 5.221 18.217 3.747 21.621-1.475 3.405-3.747.864-3.747-.81 0-1.675-2.263-11.191-7.585-12.438-5.323-1.246-5.658 5.629-10.582 7.239-3.282 1.073-6.353.783-9.212-.872l-2.58-13.19z"/><path fill="#885D46" d="M199.672 161.945c-.906-.259-1.64-1.492-1.64-2.444 0-1.675-2.264-11.191-7.586-12.438-5.323-1.246-5.658 5.629-10.582 7.239-3.282 1.073-6.353.783-9.212-.872l-.554-2.832c3.349.923 5.94.906 7.773-.05 2.798-1.46 6.143-6.83 11.75-5.804 5.608 1.024 8.474 6.615 9.15 10.919.39 2.49.691 4.585.9 6.282z"/><path fill="#1C1C1C" d="M51.858 60.125v-.135l-9.42-10.417C32.498 34.975 29.88 21.59 34.583 9.418 57.708-3.804 88.11.223 90.926 1.952c1.878 1.153.13 6.736-5.244 16.75-5.911-1.193-11.03-.833-15.356 1.08C66 21.696 64.412 26.878 65.56 35.33c-2.983.275-3.73 2.48-2.237 6.612 1.492 4.134 3.337 5.09 5.535 2.867L56.905 63.662l-5.047-3.537z"/><path fill="#00585E" d="M34.593 76.052c-7.7 3.123-13.336 6.668-16.908 10.636-5.357 5.952-13.654 40.293-13.654 55.364 0 15.072 13.473 18.633 19.752 12.576 4.186-4.037 5.891-7.66 5.116-10.867l5.694-67.709z"/><path fill="#01383C" d="M29.06 145.823c-.205 2.675-1.964 5.61-5.277 8.805-3.37 3.25-8.81 3.731-13.13 1.15 11.89 1.22 14.668-6.959 15.85-10.23.79-2.189.79-8.398 0-18.627l2.558 18.627v.275z"/><path fill="#885D46" d="M86.022 45.53c2.913-.988 5.25-2.398 7.01-4.229-2.337.605-4.674 2.014-7.01 4.228zM85.682 59.036c-4.74-.039-8.67.585-11.79 1.871-.064.628-.064.993 0 1.093 4.33-.317 8.044-1.215 11.14-2.693l.65-.271zM66.36 37.56c-1.195-.464-2.212.087-1.868 1.914.345 1.827 1.466 5.272 3.064 3.941 1.598-1.331 0-5.389-1.196-5.854z"/><path fill="#1C1C1C" d="M29.06 147.66c-2.551 5.826-6.511 9.084-11.88 9.772-5.369.689-9.329-2.032-11.88-8.162.949 4.624 3.325 7.976 7.13 10.055 5.706 3.12 14.24-1.29 16.14-8.29l.49-3.375z"/></g></g></svg>