<?xml version="1.0" encoding="UTF-8"?>
<svg width="336px" height="334px" viewBox="0 0 336 334" version="1.1" xmlns="http://www.w3.org/2000/svg" xmlns:xlink="http://www.w3.org/1999/xlink">
    <!-- Generator: Sketch 54.1 (76490) - https://sketchapp.com -->
    <title>illu1-solut-entreprise</title>
    <desc>Created with Sketch.</desc>
    <defs>
        <rect id="path-1" x="0" y="0" width="403" height="348"></rect>
        <linearGradient x1="-156.164384%" y1="53.342001%" x2="132.534247%" y2="48.578827%" id="linearGradient-3">
            <stop stop-color="#FFFFFF" offset="0%"></stop>
            <stop stop-color="#808184" offset="100%"></stop>
        </linearGradient>
        <linearGradient x1="43.5638592%" y1="3.44827586%" x2="55.5779887%" y2="86.637931%" id="linearGradient-4">
            <stop stop-color="#F9E4E4" offset="0%"></stop>
            <stop stop-color="#FFD24A" offset="100%"></stop>
        </linearGradient>
        <linearGradient x1="0%" y1="49.959968%" x2="100%" y2="49.959968%" id="linearGradient-5">
            <stop stop-color="#FFFFFF" offset="0%"></stop>
            <stop stop-color="#262261" offset="100%"></stop>
        </linearGradient>
    </defs>
    <g id="Design" stroke="none" stroke-width="1" fill="none" fill-rule="evenodd">
        <g id="4a-solution-entreprise-" transform="translate(-302.000000, -200.000000)">
            <g id="content-" transform="translate(0.000000, 85.000000)">
                <g id="Cover">
                    <g id="illu1-solut-entreprise" transform="translate(221.000000, 100.000000)">
                        <mask id="mask-2" fill="white">
                            <use xlink:href="#path-1"></use>
                        </mask>
                        <g id="Mask"></g>
                        <g id="illu1" mask="url(#mask-2)">
                            <g transform="translate(80.540847, 15.269461)">
                                <circle id="Oval" fill="#F3C44F" fill-rule="nonzero" cx="117.771323" cy="117" r="117"></circle>
                                <g id="man" stroke-width="1" fill="none" fill-rule="evenodd" transform="translate(205.500000, 280.500000) scale(-1, 1) translate(-205.500000, -280.500000) translate(88.000000, 58.000000)">
                                    <path d="M111.512667,71.0237862 C111.512667,71.0237862 107.427157,66.082634 106.201504,64.7000733 C104.975851,63.3175125 95.1465927,60.8529475 95.1465927,60.8529475 L95.1465927,55.9478622 C95.1465927,55.9478622 108.640794,52.2329813 108.148129,50.3815521 C107.655465,48.5301228 108.148129,38.7319744 108.148129,38.7319744 C110.346316,37.736124 112.314315,36.2951987 113.927925,34.5001361 C112.077429,30.2682977 102.368333,10.4556 102.368333,10.4556 C109.578058,-0.364441231 102.368333,0.12847174 102.368333,0.12847174 C82.6016722,2.244391 68.4345635,11.7780494 64.4571988,15.4809081 C60.479834,19.1837665 61.5492765,23.1631374 61.5492765,23.1631374 C66.848424,43.2763916 77.9513998,52.0165805 77.9513998,52.0165805 L77.9513998,62.9327998 C77.9513998,62.9327998 71.2583723,65.7820773 69.7683624,67.0083488 C68.2783527,68.2346201 66.6441486,72.177924 66.6441486,72.177924 C66.6441486,72.177924 41.9748745,81.0864246 27.7837335,92.6157796 L48.6783397,173.621821 L39.9561517,218.248481 L25.5367026,313.573044 L14.4217106,430.044775 L27.7837335,430.044775 C27.7837335,430.044775 53.7267255,341.693129 56.7788422,334.407633 C59.8309589,327.12214 54.3756006,312.767552 54.3756006,312.767552 L77.9273675,259.725304 L77.9273675,299.206433 C77.9273675,299.206433 68.9752928,308.824248 67.773672,321.147071 C66.5720513,333.469897 68.9752928,430.032753 68.9752928,430.032753 L82.9261096,430.032753 C82.9261096,430.032753 108.039983,319.54811 110.827744,307.982688 C113.615504,296.417266 125.054933,222.071562 125.054933,222.071562 L130.762632,218.633193 C130.762632,218.633193 126.773251,195.502349 119.948045,182.746722 C119.948045,182.746722 126.725186,156.417955 129.116411,135.679544 C129.116411,135.679544 111.512667,71.0237862 111.512667,71.0237862 Z" id="Path" fill="#E3E3E3" fill-rule="nonzero"></path>
                                    <path d="M83.4548229,76.8292504 C76.6092774,101.731401 73.1865048,126.842342 73.1865048,152.162073 C73.3346919,157.093626 70.6452204,156.204396 65.1180902,149.494381 L75.0250626,77.597384 L79.9460902,76.0611166 L83.4548229,76.8292504 Z" id="Path-12" fill="#D8D8D8" fill-rule="nonzero"></path>
                                    <path d="M107.296768,73.0586227 L101.942447,74.1135091 C106.307634,96.5458095 108.83281,113.569758 109.517977,125.185356 C110.203144,136.800953 110.58566,160.633999 110.665526,196.684493 L114.887179,194.978906 L117.911298,154.951239 L114.887179,106.862167 L107.296768,73.0586227 Z" id="Path-11" fill="#D8D8D8" fill-rule="nonzero"></path>
                                    <ellipse id="Oval" fill="#1C1C1C" fill-rule="nonzero" cx="88.6938893" cy="105.467584" rx="1.76834259" ry="1.76863711"></ellipse>
                                    <ellipse id="Oval" fill="#FFD24A" fill-rule="nonzero" cx="88.6938893" cy="129.51212" rx="1.76834259" ry="1.76863711"></ellipse>
                                    <ellipse id="Oval" fill="#FFD24A" fill-rule="nonzero" cx="88.6938893" cy="153.556656" rx="1.76834259" ry="1.76863711"></ellipse>
                                    <ellipse id="Oval" fill="#FFD24A" fill-rule="nonzero" cx="88.6938893" cy="177.601193" rx="1.76834259" ry="1.76863711"></ellipse>
                                    <path d="M125.12703,222.071562 L130.834729,218.633193 C130.834729,218.633193 129.212541,209.267846 126.292603,199.157119 L118.794489,192.076003 C114.302797,196.796747 105.421481,199.157119 92.1505425,199.157119 C78.8796035,199.157119 63.2638774,196.796747 45.303364,192.076003 C45.303364,197.725419 45.303364,200.983454 45.303364,201.850107 C45.303364,202.716759 43.5169544,208.182882 39.9441355,218.248481 L25.5246864,313.573044 L14.4096946,430.044775 L27.7717172,430.044775 C27.7717172,430.044775 53.7147093,341.693129 56.766826,334.407633 C59.8189427,327.12214 54.3635845,312.767552 54.3635845,312.767552 L77.9153512,259.725304 L77.9153512,299.206433 C77.9153512,299.206433 68.9632765,308.824248 67.7616559,321.147071 C66.5600351,333.469897 68.9632765,430.032753 68.9632765,430.032753 L82.9140936,430.032753 C82.9140936,430.032753 108.027967,319.54811 110.815727,307.982688 C113.603487,296.417266 125.12703,222.071562 125.12703,222.071562 Z" id="Path" fill="#FFFFFF" fill-rule="nonzero"></path>
                                    <path d="M95.3594876,81.0024806 L95.3628845,81.0022686 C95.3628845,81.0022686 102.18809,110.637159 103.377695,158.413652 C100.613386,163.829383 97.2692899,168.928679 93.4042426,173.621821 C90.4826208,168.690362 87.8116252,163.614515 85.4014485,158.413652 C85.4014485,158.413652 90.6765635,107.920127 89.7753479,81.3509144 L85.4014485,75.4840476 L85.4014485,73.9451973 L90.8568066,66.8761037 L98.0064501,74.9670902 L95.3594876,81.0024806 Z" id="Path-3" fill="#F3C44F" fill-rule="nonzero"></path>
                                    <path d="M27.8317982,92.5676905 L48.6783397,173.621821 L39.6076816,217.345048 L39.6076816,220.7972 C58.2568357,227.866294 88.6938893,225.855955 88.6938893,225.855955 C92.5635215,192.076003 95.8380807,165.621468 94.5938472,161.7162 C85.4014485,132.864076 80.2945603,76.0250496 80.2945603,76.0250496 L68.0260123,69.3767355 C67.5328403,70.2700746 67.0876091,71.1890779 66.6922134,72.1298349 C66.6922134,72.1298349 42.0229394,81.0383355 27.8317982,92.5676905 Z" id="Path" fill="#FFFFFF" fill-rule="nonzero"></path>
                                    <path d="M71.9973951,110.001296 L71.9973951,108.339635 L78.6088911,112.219439 L78.6088911,120.674264 L78.5917772,120.684365 L74.5956755,123.029389 L74.5956755,121.367938 L74.6127894,121.357838 L77.194646,119.842698 L77.194646,113.050024 L71.9973951,110.001296 Z M69.3995977,119.012954 L69.3995977,112.229819 L70.814878,111.405126 L70.814878,121.50492 L66.8006272,119.149866 L66.8006272,113.744119 L68.2157694,112.919566 L68.2157694,118.318719 L69.3995977,119.012954 Z M64.2027609,112.219439 L64.2198748,112.209479 L70.814878,108.339635 L70.814878,110.016726 L70.797626,110.026756 L69.3995977,110.84163 L69.3995977,110.831671 L65.6174201,113.050024 L65.6174201,119.842698 L70.814878,122.892618 L70.814878,124.55421 L70.7635362,124.52405 L64.2027609,120.674264 L64.2027609,112.219439 Z M73.4126063,120.548379 L73.4126063,119.062483 L74.5956755,118.454609 L74.5956755,114.575195 L73.4126063,113.880469 L73.4126063,118.78302 L73.4126063,120.320342 L73.4126063,123.723765 L71.9973951,124.55421 L71.9973951,111.389065 L76.0108867,113.744189 L76.0108867,119.149866 L73.4126063,120.548379 Z" id="path-7-2" fill="#25304F" fill-rule="nonzero" transform="translate(71.405826, 116.446922) scale(-1, 1) rotate(9.000000) translate(-71.405826, -116.446922) "></path>
                                    <path d="M176.005054,136.923077 C160.649823,136.29427 155.651949,131.280757 150.388789,129.266194 C145.125629,127.251631 138.472362,109.586986 137.163197,105.467584 C131.385274,87.2868433 127.841508,80.8268445 122.280173,77.5355497 C111.584765,71.2058206 111.512667,71.0237862 111.512667,71.0237862 C111.512667,71.0237862 108.508616,67.4171058 106.874411,65.4815206 L105.576661,73.1036386 C105.576661,73.1036386 103.377695,132.6953 94.8822362,159.930243 C94.1634859,162.234429 96.7932973,198.975163 98.467167,225.855955 C103.151059,225.661218 120.862216,224.120949 125.078966,222.071562 L130.786664,218.633193 C130.786664,218.633193 126.797283,195.502349 119.972077,182.746722 C119.972077,182.746722 124.00446,167.70376 126.944861,151.788019 C127.387216,149.393646 128.586547,143.694274 129.085527,140.024667 C129.584507,136.35506 130.836786,140.749777 138.940235,143.992351 C147.043683,147.234925 151.174393,150.04211 173.036331,151.788019 C173.036331,149.829874 174.087826,146.77381 176.005054,136.923077 Z" id="Path" fill="#FFFFFF" fill-rule="nonzero"></path>
                                    <path d="M125.054935,227.864374 C125.054935,227.864374 123.13864,227.864374 119.788715,226.978359 L108.043907,222.071562 L110.182621,236.32802 L125.054935,241.262597 C125.054935,212.194102 125.054935,227.864374 125.054935,227.864374 Z" id="Path-10" fill="#000000" fill-rule="nonzero" opacity="0.1" style="mix-blend-mode: multiply;" transform="translate(116.549421, 231.667079) scale(-1, 1) translate(-116.549421, -231.667079) "></path>
                                    <path d="M201.888006,112.725841 C207.152686,112.406084 210.987211,113.27091 213.391581,115.320321 C215.79595,117.369731 217.039485,118.861025 216.489688,119.449796 C216.206124,119.940942 215.756415,120.008733 215.14056,119.653169 C212.430879,118.088734 210.848512,117.700604 210.393459,118.48878 C213.269792,122.599048 215.714943,125.276124 217.728909,126.520009 C222.19211,129.276614 228.89779,129.750851 230.609554,131.698817 C231.473177,132.681608 230.33549,134.65214 227.196493,137.610412 C217.003917,141.120569 201.546907,136.389047 194.85524,127.019963 C195.724407,125.087779 198.068663,120.323072 201.888006,112.725841 Z" id="Path-14" fill="#E39C75" fill-rule="nonzero" transform="translate(212.872151, 125.715124) rotate(-30.000000) translate(-212.872151, -125.715124) "></path>
                                    <path d="M106.249568,64.7000733 C105.047948,63.3054902 95.1946577,60.8529475 95.1946577,60.8529475 L95.1946577,56.2003298 L77.9994646,58.7851174 L77.9994646,62.8847107 C77.9994646,62.8847107 71.3064371,65.7339883 69.8164274,66.9602595 C68.3264177,68.186531 66.6922134,72.1298349 66.6922134,72.1298349 C73.6817249,75.1731675 81.2274449,76.7289267 88.8501,76.6982967 C88.8501,76.6982967 91.8060871,76.2534728 92.0584274,66.8761037 C92.0584274,66.8761037 95.1826414,73.9932864 97.3095102,74.7506893 C99.4363787,75.5080922 106.093358,74.4140658 111.560732,71.0237862 C111.512667,71.0237862 107.475222,66.082634 106.249568,64.7000733 Z" id="Path" fill="#FFFFFF" fill-rule="nonzero"></path>
                                    <path d="M91.7219736,64.7120956 C93.0197151,63.5592657 94.1845164,62.2648375 95.1946577,60.8529475 L95.1946577,55.9478622 C95.1946577,55.9478622 108.688859,52.2329813 108.196194,50.3815521 C107.70353,48.5301228 108.196194,38.7319744 108.196194,38.7319744 C110.39438,37.736124 112.362379,36.2951987 113.97599,34.5001361 C112.125494,30.2682977 102.416398,10.4556 102.416398,10.4556 C103.282427,9.18604527 104.042037,7.84701029 104.687461,6.45218472 L101.407037,5.41826971 L65.1180902,18.6788314 L66.2235812,35.7384297 C71.6188585,46.9311612 77.9994646,51.9684915 77.9994646,51.9684915 L77.9994646,62.8847107 C82.5254517,63.8132199 87.1108121,64.4238383 91.7219736,64.7120956 L91.7219736,64.7120956 Z" id="Path" fill="#E39C75" fill-rule="nonzero"></path>
                                    <path d="M102.416398,10.4195333 C109.626123,-0.400507987 102.416398,0.0924049844 102.416398,0.0924049844 C82.649737,2.20832424 68.4826283,11.7419827 64.5052636,15.4448413 C60.527899,19.1476997 61.5973415,23.1270705 61.5973415,23.1270705 C66.896489,43.2403248 77.9994646,51.9805136 77.9994646,51.9805136 L77.9994646,43.7693046 C77.9994646,43.7693046 74.0341161,43.023924 74.0341161,37.1330127 C74.0341161,31.2421014 77.9994646,34.8728263 77.9994646,34.8728263 C77.9994646,34.8728263 77.4226867,23.4757162 77.4226867,21.8527101 C77.4226867,20.2297038 88.4775975,11.8982722 102.416398,10.4195333 Z" id="Path" fill="#1C1C1C"></path>
                                    <path d="M94.5938472,171.78035 L94.5938472,198.975163" id="Path" stroke="#808184" stroke-width="0.680399938"></path>
                                    <polyline id="Path" stroke="#1A120D" stroke-width="0.680399938" opacity="0.2" points="108.043907 228.376737 104.579316 300.889551 80.2464954 430.032753"></polyline>
                                    <polyline id="Path" stroke="#1A120D" stroke-width="0.680399938" opacity="0.2" points="50.7814206 222.990963 34.0802262 300.913594 18.7595617 430.032753"></polyline>
                                    <path d="M105.901099,38.623774 L108.196194,38.7319744 C110.39438,37.736124 112.362379,36.2951987 113.97599,34.5001361 C110.92972,35.026735 108.114413,36.4644396 105.901099,38.623774 L105.901099,38.623774 Z" id="Path" fill="#000000" fill-rule="nonzero" opacity="0.3" style="mix-blend-mode: multiply;"></path>
                                    <path d="M108.196194,50.3815521 C108.196194,50.3815521 95.338852,52.5575826 89.54704,55.5751718 L95.1946577,55.9478622 C95.1946577,55.9478622 108.688859,52.2329813 108.196194,50.3815521 Z" id="Path" fill="#000000" fill-rule="nonzero" opacity="0.3" style="mix-blend-mode: multiply;"></path>
                                    <path d="M75.0314614,36.5078547 C74.9575379,38.2525544 75.5262141,39.9637209 76.6296169,41.316762 C77.3025247,42.1583208 78.432048,41.6173187 78.5522103,40.4872254 C78.6619119,38.759571 78.037973,37.0657925 76.8338925,35.8225855 C75.4640448,34.4159801 75.0314614,36.5078547 75.0314614,36.5078547 Z" id="Path" fill="#000000" fill-rule="nonzero" opacity="0.3" style="mix-blend-mode: multiply;"></path>
                                    <path d="M131.226194,104.073001 C129.41456,127.864574 127.987479,143.005034 126.944952,149.494381 C126.934123,149.401362 127.895916,112.993002 126.944952,98.7984524 C128.038009,100.118901 129.46509,101.877084 131.226194,104.073001 Z" id="Path-7" fill="#000000" fill-rule="nonzero" opacity="0.1" style="mix-blend-mode: multiply;"></path>
                                    <path d="M86.9635555,77.5879446 C84.6111486,77.6434465 82.2593488,77.4540794 79.9460902,77.0228979 L80.2945603,76.0611166 L86.302664,76.66223 L86.9635555,77.5879446 Z" id="Path" fill="url(#linearGradient-3)" fill-rule="nonzero"></path>
                                    <path d="M77.9994646,299.206433 C77.9994646,299.206433 69.04739,308.824248 67.8457692,321.147071 C66.6441486,333.469897 69.04739,430.032753 69.04739,430.032753 L74.6589589,430.032753 C74.6589589,424.08173 74.4666996,373.636294 77.9994646,339.865743 C81.7725538,303.883095 86.2185506,306.455861 87.3120254,299.747434 C88.4055003,293.03901 88.6818731,241.812125 88.6818731,241.812125 L77.9754323,259.725304 L77.9994646,299.206433 Z" id="Path" fill="#000000" fill-rule="nonzero" opacity="0.1" style="mix-blend-mode: multiply;"></path>
                                    <path d="M120.555886,98.0632646 L120.555886,96.6132726 L126.236783,99.9988519 L126.236783,107.376668 L126.222078,107.385481 L122.788446,109.431787 L122.788446,107.981979 L122.803152,107.973165 L125.021599,106.651029 L125.021599,100.723634 L120.555886,98.0632646 Z M118.323741,105.926982 L118.323741,100.00791 L119.539814,99.2882694 L119.539814,108.101511 L116.090589,106.046453 L116.090589,101.329312 L117.306543,100.609794 L117.306543,105.321181 L118.323741,105.926982 Z M113.858384,99.9988519 L113.873089,99.9901608 L119.539814,96.6132726 L119.539814,98.0767296 L119.524991,98.0854817 L118.323741,98.7965538 L118.323741,98.7878629 L115.073924,100.723634 L115.073924,106.651029 L119.539814,109.312439 L119.539814,110.762369 L119.495699,110.736052 L113.858384,107.376668 L113.858384,99.9988519 Z M121.7719,107.266818 L121.7719,105.970202 L122.788446,105.43976 L122.788446,102.054522 L121.7719,101.448293 L121.7719,105.726337 L121.7719,107.067829 L121.7719,110.03771 L120.555886,110.762369 L120.555886,99.2742536 L124.00446,101.329373 L124.00446,106.046453 L121.7719,107.266818 Z" id="path-7-2" fill="#FFFFFF" fill-rule="nonzero"></path>
                                    <polygon id="Path-9" fill="#000000" fill-rule="nonzero" opacity="0.1" style="mix-blend-mode: multiply;" points="69.8587226 229.726623 39.9441355 218.248481 38.5016565 228.384988 78.0955943 243.769145 78.0955943 232.745768"></polygon>
                                    <path d="M41.7037588,83.8043777 C33.0002713,88.7058881 27.0326166,92.3830258 23.8007948,94.8357906 C18.9530621,98.5149378 36.5875943,152.23596 41.7037588,162.909355 C45.1145352,170.024952 69.6953931,181.283331 115.446332,196.684493 L119.539814,184.392467 C85.7727662,163.547942 67.6321915,151.882856 65.1180902,149.397209 C62.6039889,146.911562 59.6160793,128.592276 56.1543615,94.439353 L41.7037588,83.8043777 Z" id="Path-6" fill="#FFFFFF"></path>
                                    <path d="M56.2953141,95.8237858 C59.6972498,129.087553 62.6381752,146.945361 65.1180902,149.397209 C67.6321915,151.882856 85.7727662,163.547942 119.539814,184.392467 L117.911298,188.320146 C82.5906279,166.664873 63.7358413,155.193096 61.3469382,153.904816 C58.9580351,152.616536 57.2271762,133.150373 56.1543615,95.5063274 L56.2953141,95.8237858 Z" id="Combined-Shape" fill="#E5E5E5"></path>
                                    <path d="M115.249042,196.102993 C102.535771,191.337003 91.2373948,187.061872 81.3539129,183.2776 C66.5286901,177.601193 56.4205204,172.503051 54.6422997,171.78035 C52.8640789,171.057648 49.6818228,169.215023 47.498837,168.177892 C47.1008806,171.381571 50.7404838,172.852068 55.4366821,174.890459 C58.5674809,176.249386 76.7308777,183.320231 109.926872,196.102993 L115.249042,196.102993 Z" id="Path-9" fill="#E5E5E5"></path>
                                </g>
                                <g id="femme" stroke-width="1" fill="none" fill-rule="evenodd" transform="translate(116.500000, 315.000000) scale(-1, 1) translate(-116.500000, -315.000000) translate(31.000000, 67.000000)">
                                    <path d="M159.556348,90.5910533 C149.202742,80.5610929 139.265507,74.6882583 139.265507,74.6882583 L140.481632,54.4809986 C140.481632,54.4809986 162.972619,-3.13025179 119.206771,2.72926623 C119.206771,2.72926623 104.056491,5.28454474 103.851361,23.5826885 C103.646232,41.8808322 108.525384,55.8908073 109.375206,56.5516554 C110.225029,57.2125032 114.884399,57.1978177 122.562104,57.6236974 C122.562104,57.6236974 121.433892,65.7007271 119.236075,68.0504084 C119.236075,68.0504084 109.375206,64.1587486 97.5574613,60.3604264 C97.5574613,60.3604264 92.0747825,58.3042783 88.5289722,63.2679801 C84.983162,68.2316821 77.2870889,79.182024 71.6167229,93.0451441 L86.2688312,99.3158563 C86.2688312,99.3158563 83.0014111,106.996377 83.7047123,114.074792 C84.4080136,121.153208 93.4337123,169.204191 93.4337123,169.204191 C93.4337123,169.204191 91.0747229,169.01328 90.8695934,170.995823 C90.6644639,172.978369 90.6791159,186.019099 90.6791159,186.019099 C91.3518566,186.807345 92.2450616,187.375183 93.243235,187.649191 C93.243235,187.649191 50.5323389,254.850077 41.6385091,313.548055 C45.338702,315.964904 49.2643622,318.015819 53.3601957,319.671914 L51.6752034,324.6503 L70.810857,458.538082 C70.810857,458.538082 61.0965091,483.503447 58.8693886,485.42725 C56.642268,487.351051 49.9316023,487.380422 49.6825166,492.123842 L49.6825166,495.193112 L78.4739096,495.193112 C78.4739096,495.193112 83.9244939,475.94041 84.1735798,469.508158 C84.2706206,465.496637 83.256255,461.536676 81.2431582,458.068146 C81.2431582,458.068146 85.7120513,373.464932 86.7083947,362.303944 C87.7047381,351.142957 86.4153523,338.131598 81.4922439,331.860886 L82.8109338,327.939855 C93.8937562,329.698316 105.125163,330.332998 116.334958,329.834285 C115.186085,332.530938 114.207351,335.297262 113.404536,338.116911 C112.554714,341.582693 114.664618,461.622039 113.404536,467.775268 C112.144455,473.928495 108.422819,488.9224 108.422819,488.9224 C108.422819,488.9224 103.294581,491.859501 105.389833,495.193112 L128.994379,495.193112 C128.994379,495.193112 130.239809,489.686047 124.598747,488.9224 L124.598747,467.775268 C124.598747,467.775268 144.203268,363.889978 147.573253,340.011343 L143.543923,326.794386 C147.558601,326.074794 151.675843,325.325834 155.924955,324.268478 C155.924955,324.268478 166.811471,233.218323 137.770993,191.393995 C137.770993,191.393995 139.749027,191.393995 139.954157,189.675792 C140.159286,187.957587 140.496285,176.635059 140.496285,176.635059 C140.320365,175.47909 139.318444,174.631791 138.151947,174.652516 C138.151947,174.652516 159.12006,155.754968 167.984586,104.443801 C167.97391,102.42101 165.775416,97.5438677 163.859693,96.907433 L159.556348,90.5910533 Z" id="Path" fill="#E39C75" fill-rule="nonzero"></path>
                                    <path d="M115.719569,10.6153843 C115.719569,10.6153843 105.463093,14.6832702 103.997882,28.9575845 C103.997882,28.9575845 105.243312,47.8725196 109.433815,56.5663407 C109.433815,56.5663407 110.576679,57.3740437 122.620712,57.638383 C122.308352,59.6423155 121.887707,61.6277791 121.360631,63.5860139 C121.360631,63.5860139 116.964999,64.8636532 102.093108,63.5860139 C103.519571,55.2960463 103.519571,46.8225038 102.093108,38.5325362 C99.6608584,25.9029989 98.6352109,4.62369688 116.935694,2.31807204 C116.935694,2.31807204 138.913857,-5.47993309 146.239911,13.2587759 C153.565965,31.9974848 147.705122,64.1587486 147.705122,64.1587486 L127.646386,64.1587486 C127.646386,64.1587486 133.624446,54.8334508 135.514568,39.1933841 C135.514568,39.1933841 139.031074,38.9877869 138.825944,31.248524 C138.620815,23.5092609 133.507229,30.5436194 133.507229,30.5436194 C133.507229,30.5436194 118.034602,24.2729074 115.719569,10.6153843 Z" id="Path" fill="#FFFFFF" fill-rule="nonzero"></path>
                                    <path d="M71.5874188,93.0451441 L47.0839995,146.592474 L23.9586607,151.993563 L29.9507937,162.659515 C42.0136613,162.659515 56.1496634,156.485908 60.7906349,154.694108 C62.8796151,149.732766 80.4441932,128.267118 90.6202785,95.2011499 L71.5874188,93.0451441 Z" id="Path-16" fill="#1C1C1C" fill-rule="nonzero"></path>
                                    <path d="M158.938576,89.8730742 C148.410125,79.9040264 139.265507,74.6882583 139.265507,74.6882583 C132.364364,83.2058534 119.206771,89.8730742 119.206771,89.8730742 C116.891738,74.3211206 119.206771,68.0504084 119.206771,68.0504084 C119.206771,68.0504084 77.2577846,79.182024 71.5874188,93.0451441 L86.2395271,99.3158563 C86.2395271,99.3158563 82.972107,106.996377 83.6754082,114.074792 C84.3787093,121.153208 93.4044082,169.204191 93.4044082,169.204191 C104.232316,177.530875 138.020078,174.725943 138.020078,174.725943 C138.020078,174.725943 159.12006,157.56098 167.984586,106.249813 C168.024757,104.234717 170.053731,102.47302 167.984586,99.0678686 L158.938576,89.8730742 Z" id="Path" fill="#1C1C1C" fill-rule="nonzero"></path>
                                    <path d="M137.609819,191.482108 C122.69553,192.338844 107.735646,191.05308 93.1846264,187.663875 C93.1846264,187.663875 50.4737303,254.864764 41.5799005,313.562742 C45.2800937,315.979589 49.2057536,318.030503 53.3015873,319.686598 L82.7083689,327.95454 C93.7911914,329.713 105.022598,330.347684 116.232393,329.848969 L143.353446,326.911868 C147.368124,326.192279 151.485366,325.443318 155.734477,324.38596 C155.763782,324.356591 166.650298,233.277065 137.609819,191.482108 Z" id="Path" fill="#1C1C1C" fill-rule="nonzero"></path>
                                    <path d="M139.792983,189.763903 C139.998113,188.075071 140.335111,176.723172 140.335111,176.723172 C140.159192,175.567203 139.157271,174.719904 137.990774,174.740629 C101.213982,176.870028 93.3751039,169.218878 93.3751039,169.218878 C93.3751039,169.218878 91.0161145,169.027967 90.810985,171.01051 C90.6058553,172.993053 90.6205075,186.033786 90.6205075,186.033786 C91.2932482,186.822031 92.1864532,187.389869 93.1846264,187.663875 L93.1846264,187.663875 C114.239706,193.53808 137.609819,191.482108 137.609819,191.482108 C137.609819,191.482108 139.587854,191.452737 139.792983,189.763903 Z" id="Path" fill="#F3C44F" fill-rule="nonzero"></path>
                                    <ellipse id="Oval" fill="url(#linearGradient-4)" fill-rule="nonzero" cx="117.404562" cy="96.907433" rx="2.15625" ry="2.16043557"></ellipse>
                                    <path d="M111.748848,42.1304859 C110.302633,41.3883214 108.621861,41.2510183 107.074825,41.7486626 C107.074825,41.7486626 107.822083,43.5696656 111.748848,42.1304859 Z" id="Path" fill="#000000" fill-rule="nonzero" opacity="0.4" style="mix-blend-mode: multiply;"></path>
                                    <path d="M120.188462,66.5084301 C118.56169,66.2326922 116.915207,66.090261 115.265354,66.0825504 C112.892429,73.1240233 112.437206,80.6726009 113.946664,87.9492727 C116.129828,99.6976796 119.206771,89.8877598 119.206771,89.8877598 C118.133064,82.098677 118.465586,74.1795492 120.188462,66.5084301 L120.188462,66.5084301 Z" id="Path" fill="#FFFFFF" fill-rule="nonzero"></path>
                                    <path d="M139.368072,72.3092059 C141.110341,73.2609685 142.433109,74.8330427 143.075056,76.7148586 C143.075056,76.7148586 135.499916,90.7542048 121.858803,95.1598573 C118.312993,95.7472778 119.206771,89.8730742 119.206771,89.8730742 C127.262021,85.76332 134.185646,79.7316835 139.368072,72.3092059 Z" id="Path" fill="#FFFFFF" fill-rule="nonzero"></path>
                                    <path d="M129.492551,57.6236974 C129.492551,57.6236974 113.961316,58.3432873 109.375206,56.5663407 C109.375206,56.5663407 109.155425,54.0404333 129.492551,57.6236974 Z" id="Path" fill="#000000" fill-rule="nonzero" opacity="0.4" style="mix-blend-mode: multiply;"></path>
                                    <path d="M137.053039,29.3394078 C135.177873,30.3887808 133.812175,32.1608074 133.272795,34.2443676 C132.672059,37.431123 135.177569,38.209455 136.203217,36.9758724 C137.596743,34.6807278 137.907766,31.8858907 137.053039,29.3394078 L137.053039,29.3394078 Z" id="Path" fill="#000000" fill-rule="nonzero" opacity="0.4" style="mix-blend-mode: multiply;"></path>
                                    <path d="M166.855428,98.1850722 L156.86269,87.9052162 C153.294705,84.8238064 150.930252,82.8514888 149.769328,81.988263 C148.027942,80.6934243 145.471202,78.9703039 145.471202,80.4706384 C145.471202,81.9709728 139.840815,108.582412 139.401252,116.541958 C138.961689,124.501504 131.660128,131.741459 127.264496,134.06177 C122.868863,136.38208 129.492551,161.746262 111.947077,174.460075 L137.990774,174.725943 C137.990774,174.725943 157.038515,146.823477 166.489125,100.123559 C166.620994,99.56551 166.723559,98.8312345 166.855428,98.1850722 Z" id="Path" fill="#D8D8D8" fill-rule="nonzero" opacity="0.4" style="mix-blend-mode: multiply;"></path>
                                    <g id="feuilles" transform="translate(3.797206, 133.089752)" fill="#FFFFFF" stroke="#1C1C1C" stroke-width="0.899999976">
                                        <polygon id="Path-4" points="105.577902 53.4512078 41.4362131 84.3446071 1.8 58.0564838 62.5340832 30.6061706"></polygon>
                                        <polygon id="Path-4" points="105.577902 51.6508448 41.4362131 82.5442441 1.8 56.2561208 62.5340832 28.8058076"></polygon>
                                        <polygon id="Path-4" points="103.777902 48.9503004 39.6362131 79.8436996 -2.55795385e-13 53.5555763 60.7340832 26.1052632"></polygon>
                                        <polygon id="Path-4" points="103.777902 47.1499374 39.6362131 78.0433367 -2.55795385e-13 51.7552134 60.7340832 24.3049002"></polygon>
                                        <polygon id="Path-4" points="103.777902 44.4493929 39.6362131 75.3427922 -2.55795385e-13 49.0546689 60.7340832 21.6043557"></polygon>
                                        <polygon id="Path-4" points="103.777902 41.7488485 39.6362131 72.6422477 -2.55795385e-13 46.3541244 60.7340832 18.9038113"></polygon>
                                        <polygon id="Path-4" points="103.777902 39.048304 39.6362131 69.9417033 -2.55795385e-13 43.65358 60.7340832 16.2032668"></polygon>
                                        <polygon id="Path-4" points="103.777902 36.3477595 39.6362131 67.2411588 -2.55795385e-13 40.9530355 60.7340832 13.5027223"></polygon>
                                        <polygon id="Path-4" points="104.677902 33.6472151 40.5362131 64.5406143 0.9 38.252491 61.6340832 10.8021779"></polygon>
                                        <polygon id="Path-4" points="104.677902 30.9466706 40.5362131 61.8400699 0.9 35.5519466 61.6340832 8.10163339"></polygon>
                                        <polygon id="Path-4" points="104.677902 28.2461261 40.5362131 59.1395254 0.9 32.8514021 61.6340832 5.40108893"></polygon>
                                        <polygon id="Path-4" points="104.677902 25.5455817 40.5362131 56.4389809 0.9 30.1508576 61.6340832 2.70054446"></polygon>
                                        <polygon id="Path-4" points="103.777902 22.8450372 39.6362131 53.7384365 -2.55795385e-13 27.4503132 60.7340832 2.4158453e-13"></polygon>
                                    </g>
                                    <path d="M76.099937,114.734111 C73.74314,106.049885 74.9275957,100.214842 79.6533039,97.2289846 C86.7418665,92.750198 94.1844737,100.127692 98.8365181,113.344649 C101.937881,122.155955 106.988995,136.79189 113.98986,157.252455 L170.416334,193.895194 L164.434767,204.700472 C126.245248,185.612399 104.379165,174.479804 98.8365181,171.302689 C93.2938712,168.125577 85.7150109,149.269382 76.099937,114.734111 Z" id="Path-3" fill="#1C1C1C" fill-rule="nonzero" transform="translate(122.669944, 150.308383) scale(-1, 1) translate(-122.669944, -150.308383) "></path>
                                    <path d="M84.9886826,96.6786934 C82.0659735,100.520083 81.3347846,105.328605 82.7951162,111.104259 C85.0229899,119.915564 100.532889,165.405603 102.352001,165.405603 C103.564743,165.405603 126.243907,177.121077 170.389493,200.552025 L169.311917,203.013042 L166.708435,207.800217 L165.96208,207.568612 C128.552955,186.92735 107.093497,175.027578 101.583707,171.869298 C96.0410606,168.692183 88.4622002,149.83599 78.8471261,115.300719 C76.4903293,106.616492 77.6747851,100.78145 82.4004933,97.7955924 C83.259887,97.2525991 84.1244846,96.8838734 84.9886826,96.6786934 Z" id="Combined-Shape" fill="#000000" fill-rule="nonzero" transform="translate(124.030118, 152.239455) scale(-1, 1) translate(-124.030118, -152.239455) "></path>
                                    <path d="M45.4638432,193.895194 C49.141204,190.636157 54.353022,189.222053 61.0992971,189.652878 C65.1263283,189.759163 69.7080666,190.314574 69.7080666,191.953574 C69.7080666,193.592573 61.7299791,193.496723 61.0992971,194.755561 C60.4686153,196.014402 62.9012415,196.914657 62.9012415,196.914657 C62.9012415,196.914657 79.6979893,197.807681 81.6626049,200.330911 C83.0127514,202.064954 79.9996487,210.031818 74.4955497,211.133089 C71.2324995,211.785966 67.1429912,212.60938 52.0646326,211.133089 C49.4002431,211.133918 46.9959929,210.035979 38.4041515,208.520459 C38.7845401,206.253708 41.1377707,201.378618 45.4638432,193.895194 Z" id="Path-15" fill="#E39C75" fill-rule="nonzero" transform="translate(60.193699, 200.768440) scale(-1, 1) translate(-60.193699, -200.768440) "></path>
                                    <path d="M143.38275,326.882497 C147.397428,326.162908 151.51467,325.413947 155.763782,324.356591 C155.763782,324.356591 166.650298,233.306436 137.609819,191.482108 C134.679398,191.643648 131.924801,191.70239 129.228813,191.70239 L129.228813,191.70239 C129.228813,191.70239 149.228941,267.156534 128.071297,328.556647 L143.38275,326.882497 Z" id="Path" fill="#000000" fill-rule="nonzero" opacity="0.4" style="mix-blend-mode: multiply;"></path>
                                    <path d="M103.939274,28.9575845 C103.939274,28.9575845 107.162738,15.7406269 116.159132,12.6126134 L115.719569,10.6153843 C115.719569,10.6153843 105.50705,14.38956 103.939274,28.9575845 Z" id="Path" fill="url(#linearGradient-5)" fill-rule="nonzero" opacity="0.4" style="mix-blend-mode: multiply;"></path>
                                    <path d="M114.214895,70.009527 L115.265354,66.0825504 C105.328183,62.8596554 99.6027733,61.0126372 98.0891248,60.5414957 C95.8186522,59.8347833 92.0387768,58.3079704 87.6303819,64.1587486 C83.2219868,70.009527 73.8758161,86.4064192 71.5874188,93.0451441 C70.0618206,97.4709608 77.3414763,95.8900096 93.4263862,88.3022902 L114.214895,70.009527 Z" id="Path-23" fill="#1C1C1C" fill-rule="nonzero"></path>
                                    <polygon id="Path-5" fill="#FFFFFF" points="51.8115238 129.541853 64.3301587 132.812458 47.0839995 140.53138"></polygon>
                                    <path d="M2.95292053,176.087427 L0.0245527782,190.565141 C3.93283176,193.474928 6.96597916,195.830003 9.12399498,197.630366 C12.3610187,200.330911 22.8917463,200.76844 25.50483,200.76844 C28.1179136,200.76844 38.8142857,197.630366 40.05,194.929822 C41.2857143,192.229277 35.2796772,188.492325 30.8784353,189.528733 C27.944274,190.219672 24.0204583,189.223747 19.1069881,186.54096 C20.6747288,185.20459 22.8073427,184.536406 25.50483,184.536406 C29.5510609,184.536406 29.9173214,181.845664 23.9586607,180.846524 C19.9862202,180.180431 12.9843068,178.594065 2.95292053,176.087427 Z" id="Path-10" fill="#E39C75"></path>
                                </g>
                            </g>
                        </g>
                        <path d="M125.359854,348 L415.540847,348" id="Line-2" stroke="#FFFFFF" stroke-linecap="square"></path>
                    </g>
                </g>
            </g>
        </g>
    </g>
</svg>