<?xml version="1.0" encoding="UTF-8"?>
<svg width="332px" height="233px" viewBox="0 0 332 233" version="1.1" xmlns="http://www.w3.org/2000/svg" xmlns:xlink="http://www.w3.org/1999/xlink">
    <!-- Generator: Sketch 54.1 (76490) - https://sketchapp.com -->
    <title>illu2-solut-pro</title>
    <desc>Created with Sketch.</desc>
    <g id="Design" stroke="none" stroke-width="1" fill="none" fill-rule="evenodd">
        <g id="4b-solutionprofessionnels" transform="translate(-743.000000, -564.000000)">
            <g id="content-" transform="translate(0.000000, 85.000000)">
                <g id="Cover" transform="translate(84.000000, 0.000000)">
                    <g id="illu2-solut-pro" transform="translate(659.000000, 479.000000)">
                        <path d="M343.972577,159.195099 C344.003626,103.992014 299.24879,59.2662419 244.009853,59.297291 C188.770916,59.3283402 143.965739,104.104453 143.93469,159.307538 C199.04147,159.276563 304.967134,159.217023 343.972577,159.195099 Z" id="Oval" fill="#F3C44F" transform="translate(243.953642, 109.302407) rotate(-230.000000) translate(-243.953642, -109.302407) "></path>
                        <g id="plateau1" transform="translate(13.000000, 48.000000)">
                            <path d="M10.4704195,84.7407256 C10.4069569,84.7431038 10.3450756,84.7455028 10.2847756,84.7479225 C4.49800781,81.6951285 1.06974928,78.6423344 0,75.5895403 C67.4270348,75.5895403 103.23329,75.5895403 107.418767,75.5895403 C105.478979,79.4055329 101.669803,82.458327 95.9912386,84.7479225 C95.9809077,84.7478643 95.9705778,84.7478061 95.9602487,84.7477479 C89.9066865,86.9823513 72.2719482,89.3271136 53.1380071,89.3271136 C33.1828646,89.3271136 15.5201033,86.9898235 10.4704195,84.7407256 Z" id="Combined-Shape" fill="#FFFFFF"></path>
                            <ellipse id="Oval" fill="#979696" cx="53.7093835" cy="75.5895403" rx="53.7093835" ry="5.72398889"></ellipse>
                            <path d="M7.18535923,78.4515348 C16.4719646,76.7406306 33.829329,75.5895403 53.7093835,75.5895403 C73.589438,75.5895403 90.9468024,76.7406306 100.233408,78.4515348 C90.9468024,80.162439 73.589438,81.3135292 53.7093835,81.3135292 C33.829329,81.3135292 16.4719646,80.162439 7.18535923,78.4515348 Z" id="Combined-Shape" fill="#5C5C5C"></path>
                            <polygon id="Path-18" fill="#D8D8D8" points="56.5662656 0.0328870303 73.2905903 70.3000439 75.1555912 70.3000439"></polygon>
                            <polygon id="Path-19" fill="#D8D8D8" points="56.5662656 0.0328870303 21.9434445 70.9733402 23.8137428 70.9733402"></polygon>
                            <polygon id="Path-20" fill="#D8D8D8" points="56.5662656 0 62.3794856 81.3135292 63.9865774 81.3135292"></polygon>
                        </g>
                        <g id="plateau2" transform="translate(278.000000, 95.000000) scale(-1, 1) translate(-278.000000, -95.000000) translate(224.000000, 50.000000)">
                            <path d="M10.4704195,84.7407256 C10.4069569,84.7431038 10.3450756,84.7455028 10.2847756,84.7479225 C4.49800781,81.6951285 1.06974928,78.6423344 0,75.5895403 C67.4270348,75.5895403 103.23329,75.5895403 107.418767,75.5895403 C105.478979,79.4055329 101.669803,82.458327 95.9912386,84.7479225 C95.9809077,84.7478643 95.9705778,84.7478061 95.9602487,84.7477479 C89.9066865,86.9823513 72.2719482,89.3271136 53.1380071,89.3271136 C33.1828646,89.3271136 15.5201033,86.9898235 10.4704195,84.7407256 Z" id="Combined-Shape" fill="#FFFFFF"></path>
                            <ellipse id="Oval" fill="#979696" cx="53.7093835" cy="75.5895403" rx="53.7093835" ry="5.72398889"></ellipse>
                            <path d="M7.18535923,78.4515348 C16.4719646,76.7406306 33.829329,75.5895403 53.7093835,75.5895403 C73.589438,75.5895403 90.9468024,76.7406306 100.233408,78.4515348 C90.9468024,80.162439 73.589438,81.3135292 53.7093835,81.3135292 C33.829329,81.3135292 16.4719646,80.162439 7.18535923,78.4515348 Z" id="Combined-Shape" fill="#5C5C5C"></path>
                            <polygon id="Path-18" fill="#D8D8D8" points="56.5662656 0.0328870303 73.1408188 70.3000439 75.1555912 70.3000439"></polygon>
                            <polygon id="Path-19" fill="#D8D8D8" points="56.5662656 0.0328870303 21.9434445 70.9733402 23.8402329 70.9733402"></polygon>
                            <polygon id="Path-20" fill="#D8D8D8" points="56.5662656 0 63.1838944 81.3135292 64.6466654 81.3135292"></polygon>
                        </g>
                        <polygon id="Rectangle" fill="#D8D8D8" points="70.9321149 49.6 277.062663 49.6 277.062663 51.9030984 70.9321149 52.2635882"></polygon>
                        <polygon id="Rectangle" fill="#D8D8D8" points="172.399478 6.4 174.796345 6.4 176.394256 188 170.801567 188"></polygon>
                        <ellipse id="Oval" fill="#D8D8D8" cx="173.597911" cy="6.8" rx="2.79634465" ry="2.8"></ellipse>
                        <ellipse id="Oval" fill="#D8D8D8" cx="69.7336815" cy="50" rx="2.79634465" ry="2.8"></ellipse>
                        <ellipse id="Oval" fill="#D8D8D8" cx="277.462141" cy="50" rx="2.79634465" ry="2.8"></ellipse>
                        <polygon id="Path-5" fill="#D8D8D8" points="70.9321149 49.6 172.530443 9.6 172.530443 11.5336122 73.5067361 49.6"></polygon>
                        <polygon id="Path-5" fill="#D8D8D8" transform="translate(225.595509, 29.600000) scale(-1, 1) translate(-225.595509, -29.600000) " points="174.796345 49.6 276.394673 9.6 276.394673 11.5336122 177.370966 49.6"></polygon>
                        <path d="M170.801567,59.4647808 C174.541642,65.1609908 178.604156,68.8394282 182.989108,70.5000929 C187.374061,72.1607577 184.827898,68.6336908 175.350621,59.9188921 L175.350621,58.3182724 L181.75384,59.7168065 C198.945218,73.4093148 210.380962,84.4595214 216.06107,92.8674263 C210.504382,88.2505427 203.618089,84.3074076 195.402193,81.038021 L180.777674,81.038021 L170.801567,59.4647808 Z" id="Path-13" fill="#E39C75"></path>
                        <path d="M178.906556,232.264461 L214.329605,232.264461 C214.329605,200.5919 214.329605,182.517091 214.329605,178.040034 C214.329605,173.562978 218.084906,158.465607 225.595509,132.747923 C225.521883,120.776124 224.010287,110.434648 221.060719,101.723494 C218.111151,93.0123412 205.08656,79.0508336 181.986945,59.8389715 C172.260942,56.9623695 166.668253,57.60047 165.208877,61.7532731 C163.019814,67.9824778 163.192045,65.698294 163.019814,70.0390045 C162.847583,74.379715 161.797032,74.2359956 160.08007,87.979745 C158.363107,101.723494 156.723081,107.369419 155.55967,113.194088 C154.396259,119.018756 152.399121,125.58954 151.368001,131.313529 C150.336881,137.037518 149.871385,136.371199 152.120265,141.807759 C154.369146,147.244319 157.83313,148.107725 163.019814,153.552755 C168.206498,158.997785 170.018143,165.97824 172.530443,171.718322 C174.20531,175.545042 171.764788,195.727089 165.208877,232.264461 L178.906556,232.264461 Z" id="Path-67" fill="#D28B64"></path>
                        <path d="M0.819006967,231.730539 L291,231.730539" id="Line-2" stroke="#FFFFFF" stroke-linecap="square"></path>
                        <polygon id="Path-8" fill="#D8D8D8" points="172.005209 54.7599154 172.005209 61.1589448 175.567765 62.727683 175.197402 56.9811624"></polygon>
                        <path d="M149.175361,124.66267 L148.395705,125.58954 C147.484336,127.807659 146.767398,129.715656 146.244891,131.313529 C145.46113,133.710339 153.385138,147.768289 157.606223,149.995276 C160.420279,151.479934 168.140882,151.703779 180.768033,150.666812 C185.487234,150.516141 187.846834,148.683482 187.846834,145.168835 C187.846834,139.896865 179.082319,139.719213 173.997389,139.327114 C168.912459,138.935014 166,139.327114 164.096858,137.037518 C162.828097,135.511121 161.779068,134.081256 160.949769,132.747923 L149.175361,124.66267 Z" id="Path-15" fill="#E39C75"></path>
                        <path d="M151.937023,103.010544 C146.945098,106.6072 144.449136,108.906179 144.449136,109.907479 C144.449136,111.409429 146.288,120.727546 148.193079,125.58954 C150.098159,130.451535 166.874602,138.654227 168.838084,139.327114 C170.801567,140 188.89896,144.953927 190.494586,144.953927 C192.090212,144.953927 197.459095,140.465119 193.216837,134.458327 C190.388665,130.453799 182.262414,125.58954 168.838084,119.865551 L151.937023,103.010544 Z" id="Path-14" fill="#D28B64"></path>
                        <path d="M151.937023,101.010544 C146.945098,105.537152 144.449136,108.301106 144.449136,109.302407 C144.449136,110.804357 146.288,118.727546 148.193079,123.58954 C150.098159,128.451535 166.874602,136.654227 168.838084,137.327114 C170.801567,138 188.89896,142.953927 190.494586,142.953927 C192.090212,142.953927 197.459095,138.465119 193.216837,132.458327 C190.388665,128.453799 182.262414,123.58954 168.838084,117.865551 L151.937023,101.010544 Z" id="Path-14" fill="#E39C75"></path>
                        <path d="M157.606223,76.4832647 C153.985044,80.7142998 151.482356,83.6087001 150.098159,85.1664655 C148.021864,87.5031136 150.098159,94.9123537 150.098159,99.2 C150.098159,103.487646 166.667606,117.558914 169.599025,120.5 C172.530443,123.441086 191.85002,134.168731 194.744842,134.458327 C197.639664,134.747923 202.179099,131.313529 202.179099,125.58954 C202.179099,121.773548 199.701013,117.912218 194.744842,114.005551 C185.571196,109.504466 180.219354,106.662377 178.689315,105.479284 C177.159275,104.29619 171.762003,97.525251 162.497497,85.1664655 L157.606223,76.4832647 Z" id="Path-12" fill="#D28B64"></path>
                        <path d="M157.606223,74.4832647 C153.985044,78.7142998 151.482356,81.6087001 150.098159,83.1664655 C148.021864,85.5031136 150.098159,92.9123537 150.098159,97.2 C150.098159,101.487646 166.667606,115.558914 169.599025,118.5 C172.530443,121.441086 191.85002,132.168731 194.744842,132.458327 C197.639664,132.747923 202.179099,129.313529 202.179099,123.58954 C202.179099,119.773548 199.701013,115.912218 194.744842,112.005551 C185.571196,107.504466 180.219354,104.662377 178.689315,103.479284 C177.159275,102.29619 171.762003,95.525251 162.497497,83.1664655 L157.606223,74.4832647 Z" id="Path-12" fill="#E39C75"></path>
                        <path d="M172.005209,60.0732092 C166.010377,60.5171681 161.783817,63.1032777 159.325528,67.8315381 C155.638094,74.9239286 158.766664,80.3128224 160.520917,82.739644 C161.690419,84.357525 166.448895,92.0828882 174.796345,105.915734 L198.044726,122.97334 C202.972472,124.378311 205.966022,122.618193 207.025375,117.692985 C208.614406,110.305173 196.246312,101.378203 192.62512,98.1891014 C190.210991,96.0630338 183.337688,84.3863149 172.005209,63.1589448 L172.005209,60.0732092 Z" id="Path-11" fill="#D28B64"></path>
                        <path d="M172.005209,58.0732092 C166.010377,58.5171681 161.783817,61.1032777 159.325528,65.8315381 C155.638094,72.9239286 158.766664,78.3128224 160.520917,80.739644 C161.690419,82.357525 166.448895,90.0828882 174.796345,103.915734 L198.044726,120.97334 C202.972472,122.378311 205.966022,120.618193 207.025375,115.692985 C208.614406,108.305173 196.246312,99.3782027 192.62512,96.1891014 C190.210991,94.0630338 183.337688,82.3863149 172.005209,61.1589448 L172.005209,58.0732092 Z" id="Path-11" fill="#E39C75"></path>
                        <path d="M222.595509,133.313529 C221.937432,117.286609 219.946048,106.353815 216.621357,100.515148 C213.296666,94.6764811 205.223611,88.2256108 192.402193,81.1625371 C176.007355,80.4795328 167.206624,80.6487604 166,81.6702201 C164.190064,83.2024096 163.970121,93 173.597911,95 C183.225702,97 190.279353,98.0464084 192.402193,103.010544 C194.525033,107.97468 172.216111,138.942462 173.786487,153.42974 C174.833404,163.087925 171.974201,189.188191 165.208877,231.730539 L214.74697,231.730539 L211.74697,179.044639 L222.595509,133.313529 Z" id="Path-16" fill="#D28B64"></path>
                        <path d="M225.595509,131.313529 C224.937432,115.286609 222.946048,104.353815 219.621357,98.515148 C216.296666,92.6764811 208.027764,87.31687 194.814652,82.4363148 C177.490717,81.4148552 168.225438,81.4148552 167.018814,82.4363148 C165.208877,83.9685043 164.369598,91 173.997389,93 C183.62518,95 193.279353,96.0464084 195.402193,101.010544 C197.525033,105.97468 178.038385,128.705711 176.394256,152.804404 C175.906072,159.959915 174.141063,173.999623 173.597911,181.305797 C172.968774,189.768599 169.229297,206.576846 162.379482,231.730539 L214.74697,231.730539 L214.74697,177.044639 L225.595509,131.313529 Z" id="Path-16" fill="#E39C75"></path>
                        <path d="M120.584432,198.4 L120.467363,198.4 L120.467363,189.6 L227.527415,189.6 L227.527415,198.4 L227.410347,198.4 C225.573959,201.527213 202.362032,204 173.997389,204 C145.632746,204 122.420819,201.527213 120.584432,198.4 Z" id="Combined-Shape" fill="#FFFFFF"></path>
                        <ellipse id="Oval" fill="#979696" cx="173.997389" cy="189.2" rx="53.5300261" ry="6"></ellipse>
                        <ellipse id="Oval" stroke="#979797" stroke-width="0.799999952" fill="#D8D8D8" cx="173.597911" cy="187.6" rx="8.38903394" ry="2"></ellipse>
                        <polygon id="Path-68" fill="#D8D8D8" points="170.801567 187.6 170.801567 151.30646 176.394256 151.001586 176.394256 187.6"></polygon>
                    </g>
                </g>
            </g>
        </g>
    </g>
</svg>