<?xml version="1.0" encoding="UTF-8"?>
<svg width="316px" height="334px" viewBox="0 0 316 334" version="1.1" xmlns="http://www.w3.org/2000/svg" xmlns:xlink="http://www.w3.org/1999/xlink">
    <!-- Generator: Sketch 54.1 (76490) - https://sketchapp.com -->
    <title>illu1-solut-fonds</title>
    <desc>Created with Sketch.</desc>
    <defs>
        <rect id="path-1" x="0" y="0" width="403" height="348"></rect>
        <linearGradient x1="-156.164384%" y1="53.342001%" x2="132.534247%" y2="48.578827%" id="linearGradient-3">
            <stop stop-color="#FFFFFF" offset="0%"></stop>
            <stop stop-color="#808184" offset="100%"></stop>
        </linearGradient>
    </defs>
    <g id="Design" stroke="none" stroke-width="1" fill="none" fill-rule="evenodd">
        <g id="4c2-solutionFonds-" transform="translate(-321.000000, -200.000000)">
            <g id="content-" transform="translate(0.000000, 85.000000)">
                <g id="Cover" transform="translate(84.000000, 0.000000)">
                    <g id="illu1-solut-fonds" transform="translate(351.500000, 275.000000) scale(-1, 1) translate(-351.500000, -275.000000) translate(150.000000, 100.000000)">
                        <mask id="mask-2" fill="white">
                            <use xlink:href="#path-1"></use>
                        </mask>
                        <g id="Mask"></g>
                        <g id="illu1" mask="url(#mask-2)">
                            <g transform="translate(80.540847, 15.269461)">
                                <circle id="Oval" fill="#59C7DD" fill-rule="nonzero" cx="117.771323" cy="117" r="117"></circle>
                                <g id="man" stroke-width="1" fill="none" fill-rule="evenodd" transform="translate(142.000000, 280.500000) scale(-1, 1) translate(-142.000000, -280.500000) translate(39.000000, 58.000000)">
                                    <path d="M111.512667,71.0237862 C111.512667,71.0237862 107.427157,66.082634 106.201504,64.7000733 C104.975851,63.3175125 95.1465927,60.8529475 95.1465927,60.8529475 L95.1465927,55.9478622 C95.1465927,55.9478622 108.640794,52.2329813 108.148129,50.3815521 C107.655465,48.5301228 108.148129,38.7319744 108.148129,38.7319744 C110.346316,37.736124 112.314315,36.2951987 113.927925,34.5001361 C112.077429,30.2682977 102.368333,10.4556 102.368333,10.4556 C109.578058,-0.364441231 102.368333,0.12847174 102.368333,0.12847174 C82.6016722,2.244391 68.4345635,11.7780494 64.4571988,15.4809081 C60.479834,19.1837665 61.5492765,23.1631374 61.5492765,23.1631374 C66.848424,43.2763916 77.9513998,52.0165805 77.9513998,52.0165805 L77.9513998,62.9327998 C77.9513998,62.9327998 71.2583723,65.7820773 69.7683624,67.0083488 C68.2783527,68.2346201 66.6441486,72.177924 66.6441486,72.177924 C66.6441486,72.177924 41.9748745,81.0864246 27.7837335,92.6157796 L48.6783397,173.621821 L39.9561517,218.248481 L25.5367026,313.573044 L14.4217106,430.044775 L27.7837335,430.044775 C27.7837335,430.044775 53.7267255,341.693129 56.7788422,334.407633 C59.8309589,327.12214 54.3756006,312.767552 54.3756006,312.767552 L77.9273675,259.725304 L77.9273675,299.206433 C77.9273675,299.206433 68.9752928,308.824248 67.773672,321.147071 C66.5720513,333.469897 68.9752928,430.032753 68.9752928,430.032753 L82.9261096,430.032753 C82.9261096,430.032753 108.039983,319.54811 110.827744,307.982688 C113.615504,296.417266 125.054933,222.071562 125.054933,222.071562 L130.762632,218.633193 C130.762632,218.633193 126.773251,195.502349 119.948045,182.746722 C119.948045,182.746722 126.725186,156.417955 129.116411,135.679544 C129.116411,135.679544 111.512667,71.0237862 111.512667,71.0237862 Z" id="Path" fill="#E3E3E3" fill-rule="nonzero"></path>
                                    <path d="M83.4548229,76.8292504 C76.6092774,101.731401 73.1865048,126.842342 73.1865048,152.162073 C73.3346919,157.093626 70.6452204,156.204396 65.1180902,149.494381 L75.0250626,77.597384 L79.9460902,76.0611166 L83.4548229,76.8292504 Z" id="Path-12" fill="#D8D8D8" fill-rule="nonzero"></path>
                                    <path d="M107.296768,73.0586227 L101.942447,74.1135091 C106.307634,96.5458095 108.83281,113.569758 109.517977,125.185356 C110.203144,136.800953 110.58566,160.633999 110.665526,196.684493 L114.887179,194.978906 L117.911298,154.951239 L114.887179,106.862167 L107.296768,73.0586227 Z" id="Path-11" fill="#D8D8D8" fill-rule="nonzero"></path>
                                    <ellipse id="Oval" fill="#1C1C1C" fill-rule="nonzero" cx="88.6938893" cy="105.467584" rx="1.76834259" ry="1.76863711"></ellipse>
                                    <ellipse id="Oval" fill="#FFD24A" fill-rule="nonzero" cx="88.6938893" cy="129.51212" rx="1.76834259" ry="1.76863711"></ellipse>
                                    <ellipse id="Oval" fill="#FFD24A" fill-rule="nonzero" cx="88.6938893" cy="153.556656" rx="1.76834259" ry="1.76863711"></ellipse>
                                    <ellipse id="Oval" fill="#FFD24A" fill-rule="nonzero" cx="88.6938893" cy="177.601193" rx="1.76834259" ry="1.76863711"></ellipse>
                                    <path d="M125.12703,222.071562 L130.834729,218.633193 C130.834729,218.633193 129.212541,209.267846 126.292603,199.157119 L118.794489,192.076003 C114.302797,196.796747 105.421481,199.157119 92.1505425,199.157119 C78.8796035,199.157119 63.2638774,196.796747 45.303364,192.076003 C45.303364,197.725419 45.303364,200.983454 45.303364,201.850107 C45.303364,202.716759 43.5169544,208.182882 39.9441355,218.248481 L25.5246864,313.573044 L14.4096946,430.044775 L27.7717172,430.044775 C27.7717172,430.044775 53.7147093,341.693129 56.766826,334.407633 C59.8189427,327.12214 54.3635845,312.767552 54.3635845,312.767552 L77.9153512,259.725304 L77.9153512,299.206433 C77.9153512,299.206433 68.9632765,308.824248 67.7616559,321.147071 C66.5600351,333.469897 68.9632765,430.032753 68.9632765,430.032753 L82.9140936,430.032753 C82.9140936,430.032753 108.027967,319.54811 110.815727,307.982688 C113.603487,296.417266 125.12703,222.071562 125.12703,222.071562 Z" id="Path" fill="#FFFFFF" fill-rule="nonzero"></path>
                                    <path d="M95.3594876,81.0024806 L95.3628845,81.0022686 C95.3628845,81.0022686 102.18809,110.637159 103.377695,158.413652 C100.613386,163.829383 97.2692899,168.928679 93.4042426,173.621821 C90.4826208,168.690362 87.8116252,163.614515 85.4014485,158.413652 C85.4014485,158.413652 90.6765635,107.920127 89.7753479,81.3509144 L85.4014485,75.4840476 L85.4014485,73.9451973 L90.8568066,66.8761037 L98.0064501,74.9670902 L95.3594876,81.0024806 Z" id="Path-3" fill="#F3C44F" fill-rule="nonzero"></path>
                                    <path d="M27.8317982,92.5676905 L48.6783397,173.621821 L39.6076816,217.345048 L39.6076816,220.7972 C58.2568357,227.866294 88.6938893,225.855955 88.6938893,225.855955 C92.5635215,192.076003 95.8380807,165.621468 94.5938472,161.7162 C85.4014485,132.864076 80.2945603,76.0250496 80.2945603,76.0250496 L68.0260123,69.3767355 C67.5328403,70.2700746 67.0876091,71.1890779 66.6922134,72.1298349 C66.6922134,72.1298349 42.0229394,81.0383355 27.8317982,92.5676905 Z" id="Path" fill="#FFFFFF" fill-rule="nonzero"></path>
                                    <path d="M71.9973951,110.001296 L71.9973951,108.339635 L78.6088911,112.219439 L78.6088911,120.674264 L78.5917772,120.684365 L74.5956755,123.029389 L74.5956755,121.367938 L74.6127894,121.357838 L77.194646,119.842698 L77.194646,113.050024 L71.9973951,110.001296 Z M69.3995977,119.012954 L69.3995977,112.229819 L70.814878,111.405126 L70.814878,121.50492 L66.8006272,119.149866 L66.8006272,113.744119 L68.2157694,112.919566 L68.2157694,118.318719 L69.3995977,119.012954 Z M64.2027609,112.219439 L64.2198748,112.209479 L70.814878,108.339635 L70.814878,110.016726 L70.797626,110.026756 L69.3995977,110.84163 L69.3995977,110.831671 L65.6174201,113.050024 L65.6174201,119.842698 L70.814878,122.892618 L70.814878,124.55421 L70.7635362,124.52405 L64.2027609,120.674264 L64.2027609,112.219439 Z M73.4126063,120.548379 L73.4126063,119.062483 L74.5956755,118.454609 L74.5956755,114.575195 L73.4126063,113.880469 L73.4126063,118.78302 L73.4126063,120.320342 L73.4126063,123.723765 L71.9973951,124.55421 L71.9973951,111.389065 L76.0108867,113.744189 L76.0108867,119.149866 L73.4126063,120.548379 Z" id="path-7-2" fill="#25304F" fill-rule="nonzero" transform="translate(71.405826, 116.446922) rotate(-11.000000) translate(-71.405826, -116.446922) "></path>
                                    <path d="M176.005054,136.923077 C160.649823,136.29427 155.651949,131.280757 150.388789,129.266194 C145.125629,127.251631 138.472362,109.586986 137.163197,105.467584 C131.385274,87.2868433 127.841508,80.8268445 122.280173,77.5355497 C111.584765,71.2058206 111.512667,71.0237862 111.512667,71.0237862 C111.512667,71.0237862 108.508616,67.4171058 106.874411,65.4815206 L105.576661,73.1036386 C105.576661,73.1036386 103.377695,132.6953 94.8822362,159.930243 C94.1634859,162.234429 96.7932973,198.975163 98.467167,225.855955 C103.151059,225.661218 120.862216,224.120949 125.078966,222.071562 L130.786664,218.633193 C130.786664,218.633193 126.797283,195.502349 119.972077,182.746722 C119.972077,182.746722 124.00446,167.70376 126.944861,151.788019 C127.387216,149.393646 128.586547,143.694274 129.085527,140.024667 C129.584507,136.35506 130.836786,140.749777 138.940235,143.992351 C147.043683,147.234925 151.174393,150.04211 173.036331,151.788019 C173.036331,149.829874 174.087826,146.77381 176.005054,136.923077 Z" id="Path" fill="#FFFFFF" fill-rule="nonzero"></path>
                                    <path d="M125.054935,227.864374 C125.054935,227.864374 123.13864,227.864374 119.788715,226.978359 L108.043907,222.071562 L110.182621,236.32802 L125.054935,241.262597 C125.054935,212.194102 125.054935,227.864374 125.054935,227.864374 Z" id="Path-10" fill="#000000" fill-rule="nonzero" opacity="0.1" style="mix-blend-mode: multiply;" transform="translate(116.549421, 231.667079) scale(-1, 1) translate(-116.549421, -231.667079) "></path>
                                    <path d="M106.249568,64.7000733 C105.047948,63.3054902 95.1946577,60.8529475 95.1946577,60.8529475 L95.1946577,56.2003298 L77.9994646,58.7851174 L77.9994646,62.8847107 C77.9994646,62.8847107 71.3064371,65.7339883 69.8164274,66.9602595 C68.3264177,68.186531 66.6922134,72.1298349 66.6922134,72.1298349 C73.6817249,75.1731675 81.2274449,76.7289267 88.8501,76.6982967 C88.8501,76.6982967 91.8060871,76.2534728 92.0584274,66.8761037 C92.0584274,66.8761037 95.1826414,73.9932864 97.3095102,74.7506893 C99.4363787,75.5080922 106.093358,74.4140658 111.560732,71.0237862 C111.512667,71.0237862 107.475222,66.082634 106.249568,64.7000733 Z" id="Path" fill="#FFFFFF" fill-rule="nonzero"></path>
                                    <path d="M91.7219736,64.7120956 C93.0197151,63.5592657 94.1845164,62.2648375 95.1946577,60.8529475 L95.1946577,55.9478622 C95.1946577,55.9478622 108.688859,52.2329813 108.196194,50.3815521 C107.70353,48.5301228 108.196194,38.7319744 108.196194,38.7319744 C110.39438,37.736124 112.362379,36.2951987 113.97599,34.5001361 C112.125494,30.2682977 102.416398,10.4556 102.416398,10.4556 C103.282427,9.18604527 104.042037,7.84701029 104.687461,6.45218472 L101.407037,5.41826971 L65.1180902,18.6788314 L66.2235812,35.7384297 C71.6188585,46.9311612 77.9994646,51.9684915 77.9994646,51.9684915 L77.9994646,62.8847107 C82.5254517,63.8132199 87.1108121,64.4238383 91.7219736,64.7120956 L91.7219736,64.7120956 Z" id="Path" fill="#E39C75" fill-rule="nonzero"></path>
                                    <path d="M102.416398,10.4195333 C109.626123,-0.400507987 102.416398,0.0924049844 102.416398,0.0924049844 C82.649737,2.20832424 68.4826283,11.7419827 64.5052636,15.4448413 C60.527899,19.1476997 61.5973415,23.1270705 61.5973415,23.1270705 C66.896489,43.2403248 77.9994646,51.9805136 77.9994646,51.9805136 L77.9994646,43.7693046 C77.9994646,43.7693046 74.0341161,43.023924 74.0341161,37.1330127 C74.0341161,31.2421014 77.9994646,34.8728263 77.9994646,34.8728263 C77.9994646,34.8728263 77.4226867,23.4757162 77.4226867,21.8527101 C77.4226867,20.2297038 88.4775975,11.8982722 102.416398,10.4195333 Z" id="Path" fill="#1C1C1C"></path>
                                    <path d="M94.5938472,171.78035 L94.5938472,198.975163" id="Path" stroke="#808184" stroke-width="0.680399938"></path>
                                    <polyline id="Path" stroke="#1A120D" stroke-width="0.680399938" opacity="0.2" points="108.043907 228.376737 104.579316 300.889551 80.2464954 430.032753"></polyline>
                                    <polyline id="Path" stroke="#1A120D" stroke-width="0.680399938" opacity="0.2" points="50.7814206 222.990963 34.0802262 300.913594 18.7595617 430.032753"></polyline>
                                    <path d="M105.901099,38.623774 L108.196194,38.7319744 C110.39438,37.736124 112.362379,36.2951987 113.97599,34.5001361 C110.92972,35.026735 108.114413,36.4644396 105.901099,38.623774 L105.901099,38.623774 Z" id="Path" fill="#000000" fill-rule="nonzero" opacity="0.3" style="mix-blend-mode: multiply;"></path>
                                    <path d="M108.196194,50.3815521 C108.196194,50.3815521 95.338852,52.5575826 89.54704,55.5751718 L95.1946577,55.9478622 C95.1946577,55.9478622 108.688859,52.2329813 108.196194,50.3815521 Z" id="Path" fill="#000000" fill-rule="nonzero" opacity="0.3" style="mix-blend-mode: multiply;"></path>
                                    <path d="M75.0314614,36.5078547 C74.9575379,38.2525544 75.5262141,39.9637209 76.6296169,41.316762 C77.3025247,42.1583208 78.432048,41.6173187 78.5522103,40.4872254 C78.6619119,38.759571 78.037973,37.0657925 76.8338925,35.8225855 C75.4640448,34.4159801 75.0314614,36.5078547 75.0314614,36.5078547 Z" id="Path" fill="#000000" fill-rule="nonzero" opacity="0.3" style="mix-blend-mode: multiply;"></path>
                                    <path d="M131.226194,104.073001 C129.41456,127.864574 127.987479,143.005034 126.944952,149.494381 C126.934123,149.401362 127.895916,112.993002 126.944952,98.7984524 C128.038009,100.118901 129.46509,101.877084 131.226194,104.073001 Z" id="Path-7" fill="#000000" fill-rule="nonzero" opacity="0.1" style="mix-blend-mode: multiply;"></path>
                                    <path d="M86.9635555,77.5879446 C84.6111486,77.6434465 82.2593488,77.4540794 79.9460902,77.0228979 L80.2945603,76.0611166 L86.302664,76.66223 L86.9635555,77.5879446 Z" id="Path" fill="url(#linearGradient-3)" fill-rule="nonzero"></path>
                                    <path d="M77.9994646,299.206433 C77.9994646,299.206433 69.04739,308.824248 67.8457692,321.147071 C66.6441486,333.469897 69.04739,430.032753 69.04739,430.032753 L74.6589589,430.032753 C74.6589589,424.08173 74.4666996,373.636294 77.9994646,339.865743 C81.7725538,303.883095 86.2185506,306.455861 87.3120254,299.747434 C88.4055003,293.03901 88.6818731,241.812125 88.6818731,241.812125 L77.9754323,259.725304 L77.9994646,299.206433 Z" id="Path" fill="#000000" fill-rule="nonzero" opacity="0.1" style="mix-blend-mode: multiply;"></path>
                                    <path d="M120.555886,98.0632646 L120.555886,96.6132726 L126.236783,99.9988519 L126.236783,107.376668 L126.222078,107.385481 L122.788446,109.431787 L122.788446,107.981979 L122.803152,107.973165 L125.021599,106.651029 L125.021599,100.723634 L120.555886,98.0632646 Z M118.323741,105.926982 L118.323741,100.00791 L119.539814,99.2882694 L119.539814,108.101511 L116.090589,106.046453 L116.090589,101.329312 L117.306543,100.609794 L117.306543,105.321181 L118.323741,105.926982 Z M113.858384,99.9988519 L113.873089,99.9901608 L119.539814,96.6132726 L119.539814,98.0767296 L119.524991,98.0854817 L118.323741,98.7965538 L118.323741,98.7878629 L115.073924,100.723634 L115.073924,106.651029 L119.539814,109.312439 L119.539814,110.762369 L119.495699,110.736052 L113.858384,107.376668 L113.858384,99.9988519 Z M121.7719,107.266818 L121.7719,105.970202 L122.788446,105.43976 L122.788446,102.054522 L121.7719,101.448293 L121.7719,105.726337 L121.7719,107.067829 L121.7719,110.03771 L120.555886,110.762369 L120.555886,99.2742536 L124.00446,101.329373 L124.00446,106.046453 L121.7719,107.266818 Z" id="path-7-2" fill="#FFFFFF" fill-rule="nonzero"></path>
                                    <polygon id="Path-9" fill="#000000" fill-rule="nonzero" opacity="0.1" style="mix-blend-mode: multiply;" points="69.8587226 229.726623 39.9441355 218.248481 38.5016565 228.384988 78.0955943 243.769145 78.0955943 232.745768"></polygon>
                                    <path d="M41.7037588,83.8043777 C33.0002713,88.7058881 27.0326166,92.3830258 23.8007948,94.8357906 C18.9530621,98.5149378 17.8501199,151.990991 22.9662844,162.664386 C26.3770608,169.779983 35.6487728,186.203426 50.7814206,211.934715 L69.5759265,203.235703 C60.6282165,184.23226 54.3633812,171.592358 50.7814206,165.315996 C47.19946,159.039634 48.9904403,135.414086 56.1543615,94.439353 L41.7037588,83.8043777 Z" id="Path-6" fill="#FFFFFF"></path>
                                    <path d="M26.8709488,152.396194 C29.6666628,157.701257 31.7898829,161.070943 33.240609,162.50525 C35.7473604,164.98363 54.0041718,176.442135 88.0110433,196.880764 L87.0286036,199.250227 C51.7079336,177.594953 32.8531471,166.123177 30.464244,164.834897 C28.5776713,163.817512 27.3799062,159.671278 26.8709488,152.396194 Z" id="Combined-Shape" fill="#E5E5E5" transform="translate(57.440996, 175.823210) rotate(40.000000) translate(-57.440996, -175.823210) "></path>
                                    <path d="M72.2490421,201.102993 C59.5357712,196.337003 48.2373948,192.061872 38.3539129,188.2776 C23.5286901,182.601193 13.4205204,177.503051 11.6422997,176.78035 C9.86407892,176.057648 6.6818228,174.215023 4.49883696,173.177892 C4.10088061,176.381571 7.74048383,177.852068 12.4366821,179.890459 C15.5674809,181.249386 33.7308777,188.320231 66.9268724,201.102993 L72.2490421,201.102993 Z" id="Path-9" fill="#E5E5E5" transform="translate(38.359047, 187.140442) rotate(42.000000) translate(-38.359047, -187.140442) "></path>
                                    <path d="M119.539814,184.392467 C125.469783,184.392467 129.210722,184.392467 130.762632,184.392467 C130.52067,187.391139 130.52067,189.172612 130.762632,189.736885 C134.721478,190.250692 138.929808,190.507595 143.387622,190.507595 C150.074342,190.507595 154.686117,191.202788 152.761514,195.088975 C150.836911,198.975163 143.054371,203.235703 138.711802,203.235703 C135.816756,203.235703 127.995836,200.858133 115.249042,196.102993 L119.539814,184.392467 Z" id="Path-4" fill="#E39C75"></path>
                                    <path d="M176.005054,137.22578 C180.092618,135.628154 183.125891,134.514836 185.104875,133.885827 C187.083859,133.256818 193.734521,133.256818 205.056863,133.885827 L174.496282,143.972444 L176.005054,137.22578 Z" id="Path-2" fill="#E39C75"></path>
                                </g>
                            </g>
                        </g>
                        <path d="M3.35985353,348 L293.540847,348" id="Line-2" stroke="#FFFFFF" stroke-linecap="square"></path>
                        <polygon id="table" fill="#D8D8D8" points="0.890271053 233.48694 105.867734 202.495241 195.218502 231.735674 88.5035959 269.372454"></polygon>
                        <polygon id="Path-53" fill="#E5E5E5" points="167.602172 295.341023 115.888073 270.975563 102.940784 274.912386 154.812737 299.432789"></polygon>
                        <ellipse id="souris-" fill="#FFFFFF" transform="translate(85.000000, 248.000000) rotate(18.000000) translate(-85.000000, -248.000000) " cx="85" cy="248" rx="12" ry="6"></ellipse>
                        <polygon id="Path-5" fill="#BBB9B9" points="0.890271053 233.48694 0.890271053 239.368031 88.5035959 276.505164 143.145877 256.390856 143.145877 250.061492 88.5035959 269.372454"></polygon>
                        <g id="femme" transform="translate(71.718458, 151.928251)">
                            <path d="M83.0942793,13.2154049 C82.5854199,25.886443 83.3038709,35.4697628 85.2496325,41.9653644 C87.1953941,48.4609659 89.190686,52.322969 91.2355083,53.5513736 C94.8901025,53.4825469 99.3978728,52.2884813 104.758819,49.9691768 C105.023753,54.5444888 105.023753,58.7047114 104.758819,62.4498448 C102.083496,64.6332711 98.4794838,66.1776104 93.9467818,67.0828627 C89.4140799,67.988115 83.3507807,69.7913482 75.756884,72.4925626 C72.3359657,78.4935432 69.85334,85.3195114 68.3090068,92.970467 C66.7646736,100.621423 65.0346203,106.873952 63.118847,111.728055 L33.5702766,100.339956 L29.2815424,109.322555 C44.6500197,120.852279 57.6591745,128.377377 68.3090068,131.89785 C73.9097857,126.119727 78.1341009,117.4704 80.9819523,105.949871 L80.9819523,83.1884463 L144.281542,63.9375556 C136.899488,61.2816175 129.859139,59.9536484 123.160495,59.9536484 C121.367948,54.4570606 120.471675,37.8297606 120.471675,10.0717486 L83.0942793,13.2154049 Z" id="corps-" fill="#E39C75"></path>
                            <path d="M127.940443,60.1737318 C133.187522,60.6512573 138.634555,61.9058652 144.281542,63.9375556 L80.9819523,83.1884463 L80.9819523,105.949871 C78.1341009,117.4704 73.9097857,126.119727 68.3090068,131.89785 C57.6591745,128.377377 44.6500197,120.852279 29.2815424,109.322555 L33.5702766,100.339956 L63.118847,111.728055 C65.0346203,106.873952 66.7646736,100.621423 68.3090068,92.970467 C69.85334,85.3195114 72.3359657,78.4935432 75.756884,72.4925626 C83.3507807,69.7913482 89.4140799,67.988115 93.9467818,67.0828627 C96.5992816,66.5531165 98.9337522,65.8045154 100.950194,64.8370594 L107.779166,65.2910714 L123.664917,63.03397 L127.940443,60.1737318 Z" id="Combined-Shape" fill="#1C1C1C"></path>
                            <path d="M83.0942793,13.2154049 C87.4755259,21.5346829 93.1275473,25.4725581 100.050344,25.0290307 C102.855976,23.0549514 107.401856,26.1595908 102.510162,34.2097167 C102.368344,43.1421917 99.9238139,55.1849975 96.9037873,61.5856452 C103.963978,61.5856452 120.37245,63.77198 132.326996,56.2127677 C132.20404,41.955247 136.281542,-2.84217094e-14 107.710638,-2.84217094e-14 C94.6540165,-2.8421989e-14 86.4485637,4.40513498 83.0942793,13.2154049 Z" id="cheveux" fill="#F3C44F"></path>
                            <path d="M104.758819,62.4498448 C112.821545,62.9628979 119.235263,62.1479347 123.999972,60.0049552 C127.124354,60.0634201 129.818656,60.2890598 132.082878,60.6818741 C128.270927,68.4115288 116.455848,70.3439425 96.6376396,66.4791151 C94.4105371,66.0792233 97.1175969,64.7361332 104.758819,62.4498448 Z" id="col" fill="#FFFFFF"></path>
                            <path d="M33.5702766,100.339956 C31.438211,98.9099273 29.6917082,97.6129346 28.3307683,96.448978 C26.2893584,94.703043 24.1481892,90.8112581 22.8650675,90.0959748 C22.009653,89.6191192 18.3023692,89.4596798 11.7432161,89.6176565 L13.6845741,91.0435423 C16.9385038,91.7273278 19.0006847,92.0692206 19.8711167,92.0692206 C20.7415487,92.0692206 21.670092,93.0292545 22.6567464,94.9493222 L14.2126258,92.0692206 C9.18233603,91.3854351 5.35403431,91.0435423 2.72772064,91.0435423 C-1.21174986,91.0435423 -0.730798611,96.7357066 3.18351264,98.8489222 C7.09782389,100.962138 13.0605662,100.429405 15.4495247,103.419553 C17.8384833,106.409701 20.4196469,106.885971 22.8650675,106.647836 C24.4953479,106.489079 26.6341728,107.380652 29.2815424,109.322555 L33.5702766,100.339956 Z" id="main" fill="#E39C75"></path>
                        </g>
                        <g id="ordi" transform="translate(48.467496, 179.655288)">
                            <polygon id="Path-57" fill="#D8D8D8" points="40.34007 52.0803865 88.2304359 38.6844924 61.5860938 30.8399532 14.0204699 42.6844924"></polygon>
                            <path d="M14.0204699,42.6844924 L1.71018461,12.0771216 C1.09193012,10.53994 1.83686775,8.79261378 3.37404939,8.17435928 C3.5685989,8.09611147 3.77081632,8.03847721 3.97738541,8.00240169 L47.3635881,0.425373466 C48.7781247,0.178336778 50.1693632,0.968304032 50.682006,2.30962365 L61.5860938,30.8399532 L14.0204699,42.6844924 Z" id="Path-58" fill="#D8D8D8"></path>
                            <polygon id="Path-59" fill="#BBB9B9" points="1.51715179 11.5737908 0.0887963458 12.7199601 12.3147394 44.2436904 39.84486 54.3353701 88.2304359 40.4601699 88.2304359 38.6844924 40.34007 52.0803865 14.0204699 42.6844924"></polygon>
                            <path d="M0.0887963458,12.7199601 C-0.303143813,10.9794506 0.602411046,9.5622932 2.80546092,8.46848779 C1.81737247,9.30104799 1.48936204,10.25917 1.60810932,11.8443493 C0.748912561,12.584261 0.242474904,12.8761313 0.0887963458,12.7199601 Z" id="Path-60" fill="#BBB9B9"></path>
                            <polygon id="Path-61" fill="#FFFFFF" points="3.32345241 10.1459289 15.3550402 40.9072357 58.9625648 30.0826429 48.4324573 2.03799156"></polygon>
                            <path d="M32.5067159,14.0333672 L32.5067159,12.3717056 L39.1182119,16.2515102 L39.1182119,24.7063355 L39.101098,24.7164362 L35.1049963,27.0614601 L35.1049963,25.4000094 L35.1221102,25.3899095 L37.7039668,23.8747692 L37.7039668,17.0820955 L32.5067159,14.0333672 Z M29.9089185,23.0450252 L29.9089185,16.2618902 L31.3241988,15.4371971 L31.3241988,25.536991 L27.309948,23.1819366 L27.309948,17.7761901 L28.7250902,16.9516366 L28.7250902,22.3507901 L29.9089185,23.0450252 Z M24.7120817,16.2515102 L24.7291956,16.24155 L31.3241988,12.3717056 L31.3241988,14.0487971 L31.3069468,14.0588268 L29.9089185,14.873701 L29.9089185,14.8637417 L26.1267409,17.0820955 L26.1267409,23.8747692 L31.3241988,26.9246893 L31.3241988,28.5862805 L31.2728569,28.5561205 L24.7120817,24.7063355 L24.7120817,16.2515102 Z M33.9219271,24.58045 L33.9219271,23.0945545 L35.1049963,22.48668 L35.1049963,18.6072663 L33.9219271,17.9125403 L33.9219271,22.8150909 L33.9219271,24.3524127 L33.9219271,27.7558358 L32.5067159,28.5862805 L32.5067159,15.4211357 L36.5202075,17.7762604 L36.5202075,23.1819366 L33.9219271,24.58045 Z" id="path-7-2" fill="#25304F" fill-rule="nonzero" transform="translate(31.915147, 20.478993) scale(-1, 1) rotate(17.000000) translate(-31.915147, -20.478993) "></path>
                        </g>
                        <g id="fauteuil" transform="translate(102.940784, 216.136493)">
                            <polygon id="Path-50" fill="#FFFFFF" points="49.759626 18.9802043 49.759626 72.2178724 64.6613881 79.2045293 64.6613881 131.538203 127.849601 108.296296 127.849601 4.20328682 113.059216 5.68434189e-14"></polygon>
                            <path d="M127.849601,5.75087501 L64.6613881,25.3108593 L64.6613881,79.2045293 L49.759626,72.2178724 L49.759626,18.9802043 L113.059216,-1.42108547e-14 L127.849601,4.20328682 L127.849601,5.75087501 Z" id="Combined-Shape" fill="#E5E5E5"></path>
                            <polygon id="Path-54" fill="#979696" points="-3.55271368e-14 58.7758928 -3.55271368e-14 107.377703 51.871953 131.377703 64.6613881 107.538203 64.6613881 79.2045293 51.871953 83.2962958"></polygon>
                            <polygon id="Path-55" fill="#FFFFFF" points="51.871953 83.2962958 51.871953 132.054649 64.6613881 131.538203 64.6613881 79.2045293"></polygon>
                        </g>
                    </g>
                </g>
            </g>
        </g>
    </g>
</svg>