<?xml version="1.0" encoding="UTF-8"?>
<svg width="297px" height="261px" viewBox="0 0 297 261" version="1.1" xmlns="http://www.w3.org/2000/svg" xmlns:xlink="http://www.w3.org/1999/xlink">
    <!-- Generator: Sketch 54.1 (76490) - https://sketchapp.com -->
    <title>illu2-solut-entreprise</title>
    <desc>Created with Sketch.</desc>
    <defs>
        <rect id="path-1" x="0" y="0" width="328" height="281"></rect>
        <linearGradient x1="43.5638592%" y1="3.44827586%" x2="55.5779887%" y2="86.637931%" id="linearGradient-3">
            <stop stop-color="#F9E4E4" offset="0%"></stop>
            <stop stop-color="#FFD24A" offset="100%"></stop>
        </linearGradient>
        <linearGradient x1="0%" y1="49.959968%" x2="100%" y2="49.959968%" id="linearGradient-4">
            <stop stop-color="#FFFFFF" offset="0%"></stop>
            <stop stop-color="#262261" offset="100%"></stop>
        </linearGradient>
    </defs>
    <g id="Design" stroke="none" stroke-width="1" fill="none" fill-rule="evenodd">
        <g id="4a-solution-entreprise-" transform="translate(-765.000000, -535.000000)">
            <g id="content-" transform="translate(0.000000, 85.000000)">
                <g id="Cover">
                    <g id="illu2-solut-entreprise" transform="translate(757.000000, 430.000000)">
                        <mask id="mask-2" fill="white">
                            <use xlink:href="#path-1"></use>
                        </mask>
                        <g id="Mask"></g>
                        <g id="illu2" mask="url(#mask-2)">
                            <g transform="translate(8.298853, 20.269461)">
                                <path d="M273.673724,158.925638 C273.704773,103.722553 228.949937,58.9967808 173.711,59.0278299 C118.472063,59.0588791 73.6668861,103.834992 73.635837,159.038077 C128.742617,159.007102 234.668281,158.947562 273.673724,158.925638 Z" id="Oval" stroke="none" fill="#59C7DD" fill-rule="evenodd" transform="translate(173.654789, 109.032946) rotate(-130.000000) translate(-173.654789, -109.032946) "></path>
                                <polygon id="Path-8" stroke="none" fill="#FFFFFF" fill-rule="evenodd" points="16.4478436 97.0451441 121.241993 76.3092059 150.865068 195.482108 47.2419934 215.959457"></polygon>
                                <polygon id="Path-49" stroke="none" fill="#FFFFFF" fill-rule="evenodd" points="125.701147 199.921555 231.048937 195.754093 261.6362 188.730539 153.015584 192.607413"></polygon>
                                <g id="femme" stroke="none" stroke-width="1" fill="none" fill-rule="evenodd" transform="translate(122.741993, 268.000000) scale(-1, 1) translate(-122.741993, -268.000000) translate(47.241993, 20.000000)">
                                    <path d="M139.556348,90.5910533 C129.202742,80.5610929 119.265507,74.6882583 119.265507,74.6882583 L120.481632,54.4809986 C120.481632,54.4809986 142.972619,-3.13025179 99.2067711,2.72926623 C99.2067711,2.72926623 84.0564909,5.28454474 83.8513614,23.5826885 C83.646232,41.8808322 88.5253841,55.8908073 89.3752062,56.5516554 C90.2250286,57.2125032 94.8843991,57.1978177 102.562104,57.6236974 C102.562104,57.6236974 101.433892,65.7007271 99.2360754,68.0504084 C99.2360754,68.0504084 93.5034928,70.993547 79.5224079,75.1951104 C75.9561202,76.8809631 70.0299874,80.1998007 66.7083947,83.7551779 C63.3868019,87.3105552 60.8955491,91.7415788 57.1855755,100.965387 L66.2688312,99.3158563 C66.2688312,99.3158563 63.0014111,106.996377 63.7047123,114.074792 C64.4080136,121.153208 73.4337123,169.204191 73.4337123,169.204191 C73.4337123,169.204191 71.0747229,169.01328 70.8695934,170.995823 C70.6644639,172.978369 70.6791159,186.019099 70.6791159,186.019099 C71.3518566,186.807345 72.2450616,187.375183 73.243235,187.649191 C73.243235,187.649191 146.811471,233.218323 117.770993,191.393995 C117.770993,191.393995 119.749027,191.393995 119.954157,189.675792 C120.159286,187.957587 120.496285,176.635059 120.496285,176.635059 C120.320365,175.47909 119.318444,174.631791 118.151947,174.652516 C118.151947,174.652516 139.12006,155.754968 147.984586,104.443801 C147.97391,102.42101 145.775416,97.5438677 143.859693,96.907433 L139.556348,90.5910533 Z" id="Path" fill="#E39C75" fill-rule="nonzero"></path>
                                    <path d="M95.7195693,10.6153843 C95.7195693,10.6153843 85.4630934,14.6832702 83.9978825,28.9575845 C83.9978825,28.9575845 85.2433118,47.8725196 89.4338148,56.5663407 C89.4338148,56.5663407 90.5766793,57.3740437 102.620712,57.638383 C102.308352,59.6423155 101.887707,61.6277791 101.360631,63.5860139 C101.360631,63.5860139 96.9649986,64.8636532 82.0931084,63.5860139 C83.5195708,55.2960463 83.5195708,46.8225038 82.0931084,38.5325362 C79.6608584,25.9029989 78.6352109,4.62369688 96.9356943,2.31807204 C96.9356943,2.31807204 118.913857,-5.47993309 126.239911,13.2587759 C133.565965,31.9974848 127.705122,64.1587486 127.705122,64.1587486 L107.646386,64.1587486 C107.646386,64.1587486 113.624446,54.8334508 115.514568,39.1933841 C115.514568,39.1933841 119.031074,38.9877869 118.825944,31.248524 C118.620815,23.5092609 113.507229,30.5436194 113.507229,30.5436194 C113.507229,30.5436194 98.0346023,24.2729074 95.7195693,10.6153843 Z" id="Path" fill="#F3C44F" fill-rule="nonzero"></path>
                                    <path d="M58.2189182,97.7342924 L39.4458475,149.232338 L9.54630311,126.134331 L1.05870868e-12,135.391994 C12.3968629,158.453457 39.5695501,171.302689 47.3769255,171.302689 C55.1843009,171.302689 71.9111663,134.25478 82.0585147,102.204043 L58.2189182,97.7342924 Z" id="Path-16" fill="#1C1C1C" fill-rule="nonzero"></path>
                                    <path d="M138.938576,89.8730742 C128.410125,79.9040264 119.265507,74.6882583 119.265507,74.6882583 C112.364364,83.2058534 99.2067711,89.8730742 99.2067711,89.8730742 C96.8917381,74.3211206 99.2067711,68.0504084 99.2067711,68.0504084 C99.2067711,68.0504084 66.2395271,70.9214704 58.0626866,98.2202415 L66.2395271,99.3158563 C66.2395271,99.3158563 62.972107,106.996377 63.6754082,114.074792 C64.3787093,121.153208 73.4044082,169.204191 73.4044082,169.204191 C84.2323162,177.530875 118.020078,174.725943 118.020078,174.725943 C118.020078,174.725943 139.12006,157.56098 147.984586,106.249813 C148.024757,104.234717 150.053731,102.47302 147.984586,99.0678686 L138.938576,89.8730742 Z" id="Path" fill="#1C1C1C" fill-rule="nonzero"></path>
                                    <path d="M117.609819,191.482108 C102.69553,192.338844 87.7356463,191.05308 73.1846264,187.663875 C73.1846264,187.663875 30.4737303,254.864764 21.5799005,313.562742 C25.2800937,315.979589 29.2057536,318.030503 33.3015873,319.686598 L62.7083689,327.95454 C73.7911914,329.713 85.022598,330.347684 96.232393,329.848969 L123.353446,326.911868 C127.368124,326.192279 131.485366,325.443318 135.734477,324.38596 C135.763782,324.356591 146.650298,233.277065 117.609819,191.482108 Z" id="Path" fill="#1C1C1C" fill-rule="nonzero"></path>
                                    <path d="M119.792983,189.763903 C119.998113,188.075071 120.335111,176.723172 120.335111,176.723172 C120.159192,175.567203 119.157271,174.719904 117.990774,174.740629 C81.213982,176.870028 73.3751039,169.218878 73.3751039,169.218878 C73.3751039,169.218878 71.0161145,169.027967 70.810985,171.01051 C70.6058553,172.993053 70.6205075,186.033786 70.6205075,186.033786 C71.2932482,186.822031 72.1864532,187.389869 73.1846264,187.663875 L73.1846264,187.663875 C94.2397062,193.53808 117.609819,191.482108 117.609819,191.482108 C117.609819,191.482108 119.587854,191.452737 119.792983,189.763903 Z" id="Path" fill="#F3C44F" fill-rule="nonzero"></path>
                                    <ellipse id="Oval" fill="url(#linearGradient-3)" fill-rule="nonzero" cx="97.4045618" cy="96.907433" rx="2.15625" ry="2.16043557"></ellipse>
                                    <path d="M91.7488478,42.1304859 C90.3026326,41.3883214 88.621861,41.2510183 87.0748254,41.7486626 C87.0748254,41.7486626 87.8220829,43.5696656 91.7488478,42.1304859 Z" id="Path" fill="#000000" fill-rule="nonzero" opacity="0.4" style="mix-blend-mode: multiply;"></path>
                                    <path d="M100.188462,66.5084301 C98.5616901,66.2326922 96.9152069,66.090261 95.2653539,66.0825504 C92.8924288,73.1240233 92.4372059,80.6726009 93.9466641,87.9492727 C96.1298284,99.6976796 99.2067711,89.8877598 99.2067711,89.8877598 C98.133064,82.098677 98.465586,74.1795492 100.188462,66.5084301 L100.188462,66.5084301 Z" id="Path" fill="#FFFFFF" fill-rule="nonzero"></path>
                                    <path d="M119.368072,72.3092059 C121.110341,73.2609685 122.433109,74.8330427 123.075056,76.7148586 C123.075056,76.7148586 115.499916,90.7542048 101.858803,95.1598573 C98.3129925,95.7472778 99.2067711,89.8730742 99.2067711,89.8730742 C107.262021,85.76332 114.185646,79.7316835 119.368072,72.3092059 Z" id="Path" fill="#FFFFFF" fill-rule="nonzero"></path>
                                    <path d="M109.492551,57.6236974 C109.492551,57.6236974 93.9613162,58.3432873 89.3752062,56.5663407 C89.3752062,56.5663407 89.1554246,54.0404333 109.492551,57.6236974 Z" id="Path" fill="#000000" fill-rule="nonzero" opacity="0.4" style="mix-blend-mode: multiply;"></path>
                                    <path d="M117.053039,29.3394078 C115.177873,30.3887808 113.812175,32.1608074 113.272795,34.2443676 C112.672059,37.431123 115.177569,38.209455 116.203217,36.9758724 C117.596743,34.6807278 117.907766,31.8858907 117.053039,29.3394078 L117.053039,29.3394078 Z" id="Path" fill="#000000" fill-rule="nonzero" opacity="0.4" style="mix-blend-mode: multiply;"></path>
                                    <path d="M146.855428,98.1850722 L136.86269,87.9052162 C133.294705,84.8238064 130.930252,82.8514888 129.769328,81.988263 C128.027942,80.6934243 125.471202,78.9703039 125.471202,80.4706384 C125.471202,81.9709728 119.840815,108.582412 119.401252,116.541958 C118.961689,124.501504 111.660128,131.741459 107.264496,134.06177 C102.868863,136.38208 109.492551,161.746262 91.9470767,174.460075 L117.990774,174.725943 C117.990774,174.725943 137.038515,146.823477 146.489125,100.123559 C146.620994,99.56551 146.723559,98.8312345 146.855428,98.1850722 Z" id="Path" fill="#D8D8D8" fill-rule="nonzero" opacity="0.4" style="mix-blend-mode: multiply;"></path>
                                    <path d="M52.5655578,114.734111 C50.2087608,106.049885 51.3932165,100.214842 56.1189248,97.2289846 C63.2074873,92.750198 70.6500945,100.127692 75.3021389,113.344649 C78.403502,122.155955 83.4546157,136.79189 90.4554806,157.252455 L150.416334,171.302689 L144.950038,186.314851 C106.557197,187.663875 80.8447858,174.479804 75.3021389,171.302689 C69.7594921,168.125577 62.1806317,149.269382 52.5655578,114.734111 Z" id="Path-3" fill="#1C1C1C" fill-rule="nonzero" transform="translate(100.902755, 141.163836) scale(-1, 1) translate(-100.902755, -141.163836) "></path>
                                    <path d="M60.9925105,96.6786934 C58.0698014,100.520083 57.3386125,105.328605 58.798944,111.104259 C61.0268177,119.915564 76.5367167,165.405603 78.355829,165.405603 C79.5685704,165.405603 103.813756,181.641276 150.389493,179.180259 L149.311917,181.641276 L145.96208,186.196846 C104.957697,187.663875 83.0973244,175.027578 77.5875353,171.869298 C72.0448885,168.692183 64.4660281,149.83599 54.850954,115.300719 C52.4941572,106.616492 53.6786129,100.78145 58.4043212,97.7955924 C59.2637149,97.2525991 60.1283125,96.8838734 60.9925105,96.6786934 Z" id="Combined-Shape" fill="#161C2F" fill-rule="nonzero" transform="translate(102.032032, 141.496772) scale(-1, 1) translate(-102.032032, -141.496772) "></path>
                                    <path d="M123.38275,326.882497 C127.397428,326.162908 131.51467,325.413947 135.763782,324.356591 C135.763782,324.356591 146.650298,233.306436 117.609819,191.482108 C114.679398,191.643648 111.924801,191.70239 109.228813,191.70239 L109.228813,191.70239 C109.228813,191.70239 129.228941,267.156534 108.071297,328.556647 L123.38275,326.882497 Z" id="Path" fill="#000000" fill-rule="nonzero" opacity="0.4" style="mix-blend-mode: multiply;"></path>
                                    <path d="M83.9392741,28.9575845 C83.9392741,28.9575845 87.1627381,15.7406269 96.1591325,12.6126134 L95.7195693,10.6153843 C95.7195693,10.6153843 85.5070496,14.38956 83.9392741,28.9575845 Z" id="Path" fill="url(#linearGradient-4)" fill-rule="nonzero" opacity="0.4" style="mix-blend-mode: multiply;"></path>
                                </g>
                                <g id="tasse" stroke="none" stroke-width="1" fill="none" fill-rule="evenodd" transform="translate(197.701147, 95.730539)">
                                    <path d="M0,32.5 C0,31.6715729 5.82029825,31 13,31 C20.1797017,31 26,31.6715729 26,32.5 L26,60.8640917 L25.6201846,60.861402 C24.2184472,61.5152506 19.0998406,62 13,62 C6.35012091,62 0.866415057,61.4238868 0.0932929511,60.6806308 L-1.50102153e-12,60.6799701 L-1.50102153e-12,32.5 Z" id="Combined-Shape" fill="#D8D8D8"></path>
                                    <ellipse id="Oval" fill="#1C1C1C" cx="13" cy="33" rx="11" ry="1"></ellipse>
                                    <path d="M11.9259395,28.8115649 C12.0841477,27.5519981 10.0694177,24.7683707 8.10548531,22.9367455 C6.01068176,20.9830659 6.40017793,17.0482449 8.4589278,13.1515418 C8.88653697,12.3421836 9.30699523,11.6243832 10.0694177,10.3718934 C10.270945,10.0410864 10.3758749,9.86880289 10.46864,9.71602194 C10.6163341,9.472775 10.7384854,9.27022791 10.8531723,9.07803411 C11.7182468,7.62833105 12.9323004,3.48314497 9.99454345,0 C16.9624694,2.88696685 17.3687977,7.91656038 15.1468277,11.6401667 C15.0247489,11.844748 14.8963215,12.0577018 14.742512,12.3110208 C14.6476642,12.4672318 14.5405612,12.6430831 14.3403539,12.9717212 C13.6281858,14.1416541 13.2464527,14.7933436 12.8798412,15.4872483 C11.5688483,17.9686328 11.353462,19.4697109 12.1102503,20.6719184 C13.920022,23.5468587 13.7250033,26.2660351 11.9259395,28.8115649 Z" id="Path-2" fill="#FFFFFF" fill-rule="nonzero"></path>
                                </g>
                                <g id="fauteuil" stroke="none" stroke-width="1" fill="none" fill-rule="evenodd" transform="translate(0.000000, 97.045144)">
                                    <polygon id="Path-21" fill="#E5E5E5" points="16.4478436 -1.42108547e-13 1.77635684e-13 10.3934187 40.7493205 162.816626 58.6152945 162.290246"></polygon>
                                    <polygon id="Path-49" fill="#FFFFFF" points="47.8525 118.914312 155.643972 114.685395 185.84513 107.723296 75.1669377 111.60017"></polygon>
                                    <path d="M231.048937,98.7089489 L231.048937,117.194324 C227.007624,111.911246 220.225028,109.269707 210.701147,109.269707 C202.503125,109.269707 196.333263,109.366234 182.182369,111.643874 C168.317395,113.875494 158.732109,110.953006 153.426511,102.876411 L173.398282,101.011054 L231.048937,98.7089489 Z" id="Path-14" fill="#D8D8D8"></path>
                                    <polygon id="Path-51" stroke="#E5E5E5" fill="#E5E5E5" points="47.2419934 118.914312 57.4736384 161.803724 155.643972 161.803724 155.643972 115.017598"></polygon>
                                    <polygon id="Path-15" fill="#979696" points="156.104514 114.460415 185.84513 107.723296 184.044578 161.803724 155.944966 161.958748"></polygon>
                                </g>
                                <path d="M146.852818,191.302689 L168.730298,195.180425 L182.403659,203.3387 C183.838382,205.777574 184.985539,208.119323 185.84513,210.363948 C187.134518,213.730886 180.685112,212.600268 176.603484,211.482108 C172.521856,210.363948 167.717384,206.218325 162.427067,206.314851 C157.136749,206.411378 157.071897,210.675886 141.386522,206.314851 C143.507122,200.15477 145.329221,195.150716 146.852818,191.302689 Z" id="maindevant-" stroke="none" fill="#E39C75" fill-rule="evenodd"></path>
                                <g id="maintasse" stroke="none" stroke-width="1" fill="none" fill-rule="evenodd" transform="translate(188.695690, 136.246915)">
                                    <path d="M-1.23989707e-12,9.88741629 C4.49068072,5.20661798 7.20440142,2.44337616 8.1411621,1.59769082 C9.07792277,0.752005478 14.1674342,0.219441871 23.4096965,-1.20792265e-13 C26.8086928,0.151082977 28.1471599,1.08360399 27.4250978,2.79756304 C26.3420046,5.36850161 19.8120048,4.1305017 15.1825513,6.1656698 C12.0962489,7.52244853 10.0372174,12.1284333 9.00545655,19.983624 L-1.23989707e-12,9.88741629 Z" id="Path-12" fill="#E39C75"></path>
                                    <path d="M35.0054566,0.912777995 C34.7422933,1.84204882 34.3431692,2.81870552 33.8080841,3.8427481 C33.0054566,5.37881196 25.6076203,10.8554343 24.6429793,11.6025234 C23.6783383,12.3496124 20.9313961,14.8575828 20.9313961,19.1450793 C20.9313961,23.4325759 32.4399675,23.0820949 35.0054566,20.7828594 C37.5709456,18.483624 37.4749892,4.59466037 37.0942099,2.75371918 C36.840357,1.52642506 36.1441059,0.912777995 35.0054566,0.912777995 Z" id="Path-13" fill="#E39C75"></path>
                                </g>
                                <path d="M40.2011468,260.045144 L296.201147,258.848868" id="Line-3" stroke="#FFFFFF" stroke-width="1" fill="none" stroke-linecap="square"></path>
                                <path d="M231.048937,195.754093 L231.048937,214.239468 C235.174164,222.0067 238.937974,230.889446 242.340365,240.887707 C245.527069,250.252151 247.287342,253.84283 248.657165,258.512452 C251.898494,258.512452 256.244032,258.512452 261.693777,258.512452 L261.693777,226.189087 L261.693777,188.730539 L231.048937,195.754093 Z" id="Path-16" stroke="none" fill="#979696" fill-rule="evenodd"></path>
                            </g>
                        </g>
                    </g>
                </g>
            </g>
        </g>
    </g>
</svg>