<?xml version="1.0" encoding="UTF-8"?>
<svg width="292px" height="317px" viewBox="0 0 292 317" version="1.1" xmlns="http://www.w3.org/2000/svg" xmlns:xlink="http://www.w3.org/1999/xlink">
    <!-- Generator: Sketch 54.1 (76490) - https://sketchapp.com -->
    <title>illu2-solut-fonds</title>
    <desc>Created with Sketch.</desc>
    <g id="Design" stroke="none" stroke-width="1" fill="none" fill-rule="evenodd">
        <g id="4c2-solutionFonds-" transform="translate(-804.000000, -517.000000)">
            <g id="content-" transform="translate(0.000000, 85.000000)">
                <g id="Cover" transform="translate(84.000000, 0.000000)">
                    <g id="illu2-solut-fonds" transform="translate(719.000000, 432.000000)">
                        <path d="M149.5,260 C200.586339,260 242,218.586339 242,167.5 C242,116.413661 200.586339,75 149.5,75 C98.4136606,75 57,116.413661 57,167.5 C57,218.586339 98.4136606,260 149.5,260 Z" id="Oval" stroke="#30C554" stroke-width="60" stroke-dasharray="388" transform="translate(149.500000, 167.500000) rotate(-210.000000) translate(-149.500000, -167.500000) "></path>
                        <polyline id="Path" stroke="#FFFFFF" stroke-width="3.60000014" points="41 230.860608 73.3567833 146 151.116561 197 194.531302 105.670198 208.285659 131.220797 252 53.5089211"></polyline>
                        <polygon id="Triangle" fill="#FFFFFF" transform="translate(254.000000, 49.500000) rotate(-330.000000) translate(-254.000000, -49.500000) " points="254 44 260 55 248 55"></polygon>
                        <g id="content-" transform="translate(103.000000, 0.000000)">
                            <g id="fusée2" transform="translate(46.000000, 136.000000) rotate(-360.000000) translate(-46.000000, -136.000000) ">
                                <path d="M12.1308072,162.970464 L12.1308072,162.970464 C12.8379286,162.970464 13.4431049,163.477882 13.5664156,164.174169 C15.8886119,177.286652 17.4439066,190.375499 18.2323066,203.440706 C18.6050558,209.617831 26.9298971,209.617831 26.9298971,221.612476 C26.9298971,221.612476 26.9298971,221.612476 26.9298971,221.612476 L26.9298971,221.612476 C26.9298971,228.796591 21.1060208,234.620467 13.9219055,234.620467 C6.73779006,234.620467 0.913913838,228.796591 0.913913838,221.612476 C0.913913838,221.545427 0.914432237,221.478379 0.915468987,221.411338 C1.00545184,215.592068 1.28976741,209.601857 1.76840665,203.440706 C2.90959153,188.751119 5.80145687,175.640784 10.4440027,164.109699 L10.4440238,164.109708 C10.7211614,163.421358 11.3887619,162.970464 12.1308072,162.970464 Z" id="Rectangle" fill="#00585E"></path>
                                <path d="M77.0719836,162.970464 L77.0719836,162.970464 C77.7791051,162.970464 78.3842814,163.477882 78.5075921,164.174169 C80.8297883,177.286652 82.3850831,190.375499 83.1734831,203.440706 C83.5462322,209.617831 91.8710735,209.617831 91.8710735,221.612476 C91.8710735,221.612476 91.8710735,221.612476 91.8710735,221.612476 L91.8710735,221.612476 C91.8710735,228.796591 86.0471973,234.620467 78.8630819,234.620467 C71.6789665,234.620467 65.8550903,228.796591 65.8550903,221.612476 C65.8550903,221.545427 65.8556087,221.478379 65.8566455,221.411338 C65.9466283,215.592068 66.2309439,209.601857 66.7095831,203.440706 C67.850768,188.751119 70.7426333,175.640784 75.3851791,164.109699 L75.3852002,164.109708 C75.6623379,163.421358 76.3299384,162.970464 77.0719836,162.970464 Z" id="Rectangle" fill="#00585E" transform="translate(78.863083, 198.919831) scale(-1, 1) translate(-78.863083, -198.919831) "></path>
                                <path d="M46.134568,265.943819 C47.3548679,265.943819 69.4849018,236.65877 69.4849018,224.084388 C69.4849018,211.510006 59.1043113,201.316456 46.2992039,201.316456 C33.4940966,201.316456 23.1135061,211.510006 23.1135061,224.084388 C23.1135061,236.65877 44.9142681,265.943819 46.134568,265.943819 Z" id="Oval" fill="#F3C44F"></path>
                                <path d="M24.9135062,198.326203 C24.5842561,198.326203 24.3173461,198.593113 24.3173461,198.922363 L24.3173461,203.080316 C24.3173461,203.328222 24.4707558,203.550247 24.7026518,203.637935 C31.809885,206.325671 38.9069911,207.667623 46,207.667623 C53.1082952,207.667623 60.4026352,206.319848 67.8872317,203.619479 C68.1235561,203.534216 68.2810631,203.309945 68.2810649,203.058705 L68.2811112,198.922351 C68.2811112,198.5931 68.0142012,198.32619 67.6849514,198.32619 L24.9135066,198.326203 Z" id="Rectangle" stroke="#DEDEDE" stroke-width="2.40767997" fill="#D8D8D8"></path>
                                <path d="M45.0789041,33.5527426 L45.0789041,1.19831224" id="Line-4" stroke="#D8D8D8" stroke-width="2.40767997" stroke-linecap="round"></path>
                                <path d="M85.7924093,115.190736 C85.7924093,115.190736 85.7924093,115.190736 85.7924093,115.190736 C85.7378426,147.26105 82.8414895,171.699422 77.10335,188.505852 L77.1033481,188.505852 C75.8331218,192.226216 73.1015414,195.268229 69.538826,196.930049 C61.556909,200.653195 53.690578,202.514768 45.9398331,202.514768 C38.1542167,202.514768 30.3689181,200.636406 22.5839373,196.879683 L22.5839371,196.879684 C19.1968605,195.245215 16.5807069,192.354298 15.2914967,188.821352 C9.15533681,172.005842 6.08725686,147.462304 6.08725686,115.190736 C6.08725686,115.159822 6.08726652,115.128911 6.08728586,115.098002 L6.08724633,115.098002 C6.10101273,93.0880155 23.9547923,75.2565557 45.964779,75.2703221 C67.9747658,75.2840885 85.8062256,93.137868 85.7924592,115.147855 C85.7924502,115.162149 85.7924336,115.176443 85.7924093,115.190736 Z" id="Rectangle" fill="#FFFFFF"></path>
                                <path d="M6.0871697,118.033755 C33.9259289,130.016878 60.4638454,130.016878 85.7009191,118.033755" id="Path-69" stroke="#30C554" stroke-width="1.7" stroke-linecap="square"></path>
                                <path d="M85.7009217,109.63384 C60.3634993,120.915665 33.8569584,120.833128 6.18129883,109.386227 C7.39515658,72.2851139 20.3610273,42.2140376 45.0789041,19.1729958 C70.9345765,42.5931488 84.4752482,72.7467639 85.7009191,109.633841 Z" id="Combined-Shape" fill="#00585E"></path>
                                <path d="M46.2992039,162.970464 L46.2992039,162.970464 C47.0070363,162.970464 47.6134589,163.476952 47.7395626,164.173461 C50.0591196,176.985162 51.6128385,189.773779 52.4007034,202.539316 C53.0867474,213.655081 53.1935386,224.77668 52.7210768,235.904112 L52.7210454,235.904111 C52.5749549,239.344838 49.7430318,242.059072 46.2992039,242.059072 L46.2992039,242.059072 C42.8530775,242.059072 40.0185836,239.34437 39.8698682,235.901453 C39.3947116,224.900261 39.5039786,213.779549 40.1977045,202.539316 C40.9958132,189.607801 42.5489186,176.819105 44.8570206,164.173229 L44.8570385,164.173233 C44.9841825,163.476623 45.5910858,162.970464 46.2992039,162.970464 Z" id="Rectangle" fill="#00585E"></path>
                                <ellipse id="Oval" stroke="#D8D8D8" stroke-width="5.40000021" fill="#FFFFFE" cx="45.0789041" cy="71.8987342" rx="16.2352941" ry="16.1772152"></ellipse>
                                <ellipse id="Oval" fill="#00585E" cx="45.0980392" cy="55.721519" rx="1.80392157" ry="1.79746835"></ellipse>
                                <ellipse id="Oval" fill="#00585E" cx="45.0980392" cy="88.0759494" rx="1.80392157" ry="1.79746835"></ellipse>
                                <ellipse id="Oval" fill="#00585E" cx="28.8627451" cy="71.8987342" rx="1.80392157" ry="1.79746835"></ellipse>
                                <ellipse id="Oval" fill="#00585E" cx="61.3333333" cy="71.8987342" rx="1.80392157" ry="1.79746835"></ellipse>
                            </g>
                        </g>
                        <path d="M2.27816041,279 L292.459153,279" id="Line-5" stroke="#FFFFFF" stroke-linecap="square"></path>
                        <rect id="Rectangle" fill="#1C1C1C" x="2" y="279" width="290" height="38"></rect>
                    </g>
                </g>
            </g>
        </g>
    </g>
</svg>