<?xml version="1.0" encoding="UTF-8"?>
<svg width="287px" height="428px" viewBox="0 0 287 428" version="1.1" xmlns="http://www.w3.org/2000/svg" xmlns:xlink="http://www.w3.org/1999/xlink">
    <!-- Generator: Sketch 54.1 (76490) - https://sketchapp.com -->
    <title>Pattern-signin@2x</title>
    <desc>Created with Sketch.</desc>
    <defs>
        <rect id="path-1" x="0" y="4.54747351e-13" width="573" height="427"></rect>
    </defs>
    <g id="Design" stroke="none" stroke-width="1" fill="none" fill-rule="evenodd" opacity="0.2">
        <g id="8a-Sign-In-Lightbox" transform="translate(-1153.000000, -359.000000)">
            <g id="Content" transform="translate(270.000000, 141.000000)">
                <g id="Pattern-signin" transform="translate(1170.000000, 432.000000) rotate(-180.000000) translate(-1170.000000, -432.000000) translate(883.500000, 218.500000)">
                    <mask id="mask-2" fill="white">
                        <use xlink:href="#path-1"></use>
                    </mask>
                    <g id="Mask"></g>
                    <g id="Lines" mask="url(#mask-2)" fill="#1C1C1C" fill-rule="nonzero">
                        <g transform="translate(460.412394, 405.116025) scale(-1, 1) rotate(-30.000000) translate(-460.412394, -405.116025) translate(-651.087606, -48.883975)">
                            <polygon id="Rectangle-2" points="1092.43232 131.946355 1093.6476 131.923073 456.567676 772.053645 455.352397 772.076927"></polygon>
                            <polygon id="Rectangle" transform="translate(785.411563, 453.190712) rotate(-45.000000) translate(-785.411563, -453.190712) " points="1104.06906 133.197547 1105.24278 133.131615 466.754069 773.183877 465.580344 773.249809"></polygon>
                            <polygon id="Rectangle" transform="translate(796.490674, 453.189388) rotate(-45.000000) translate(-796.490674, -453.189388) " points="1115.14817 133.196223 1116.32189 133.130292 477.833179 773.182553 476.659455 773.248485"></polygon>
                            <polygon id="Rectangle" transform="translate(807.569784, 453.200461) rotate(-45.000000) translate(-807.569784, -453.200461) " points="1126.22728 133.207296 1127.401 133.141364 488.91229 773.193626 487.738565 773.259558"></polygon>
                            <polygon id="Rectangle" transform="translate(818.648895, 453.199137) rotate(-45.000000) translate(-818.648895, -453.199137) " points="1137.30639 133.205972 1138.48011 133.140041 499.991401 773.192302 498.817676 773.258234"></polygon>
                            <polygon id="Rectangle" transform="translate(829.728006, 453.197814) rotate(-45.000000) translate(-829.728006, -453.197814) " points="1148.3855 133.204649 1149.55922 133.138717 511.070511 773.190979 509.896787 773.25691"></polygon>
                            <polygon id="Rectangle" transform="translate(840.807116, 453.196490) rotate(-45.000000) translate(-840.807116, -453.196490) " points="1159.46461 133.203325 1160.63834 133.137393 522.149622 773.189655 520.975897 773.255587"></polygon>
                            <polygon id="Rectangle" transform="translate(851.875149, 453.195166) rotate(-45.000000) translate(-851.875149, -453.195166) " points="1170.53264 133.202001 1171.70637 133.13607 533.217654 773.188331 532.04393 773.254263"></polygon>
                            <polygon id="Rectangle" transform="translate(862.954259, 453.193843) rotate(-45.000000) translate(-862.954259, -453.193843) " points="1181.61175 133.200677 1182.78548 133.134746 544.296765 773.187008 543.12304 773.252939"></polygon>
                            <polygon id="Rectangle" transform="translate(874.033370, 453.192519) rotate(-45.000000) translate(-874.033370, -453.192519) " points="1192.69086 133.199354 1193.86459 133.133422 555.375876 773.185684 554.202151 773.251616"></polygon>
                            <polygon id="Rectangle" transform="translate(885.112481, 453.191195) rotate(-45.000000) translate(-885.112481, -453.191195) " points="1203.76998 133.19803 1204.9437 133.132098 566.454986 773.18436 565.281262 773.250292"></polygon>
                            <polygon id="Rectangle" transform="translate(896.191591, 453.189871) rotate(-45.000000) translate(-896.191591, -453.189871) " points="1214.84909 133.196706 1216.02281 133.130775 577.534097 773.183036 576.360372 773.248968"></polygon>
                            <polygon id="Rectangle" transform="translate(907.270702, 453.200944) rotate(-45.000000) translate(-907.270702, -453.200944) " points="1225.9282 133.207779 1227.10192 133.141847 588.613207 773.194109 587.439483 773.260041"></polygon>
                            <polygon id="Rectangle" transform="translate(918.349812, 453.199620) rotate(-45.000000) translate(-918.349812, -453.199620) " points="1237.00731 133.206455 1238.18103 133.140524 599.692318 773.192786 598.518593 773.258717"></polygon>
                            <polygon id="Rectangle" transform="translate(929.428923, 453.198297) rotate(-45.000000) translate(-929.428923, -453.198297) " points="1248.08642 133.205132 1249.26014 133.1392 610.771428 773.191462 609.597704 773.257394"></polygon>
                            <polygon id="Rectangle" transform="translate(940.508034, 453.196973) rotate(-45.000000) translate(-940.508034, -453.196973) " points="1259.16553 133.203808 1260.33925 133.137876 621.850539 773.190138 620.676815 773.25607"></polygon>
                            <polygon id="Rectangle" transform="translate(951.587144, 453.195649) rotate(-45.000000) translate(-951.587144, -453.195649) " points="1270.24464 133.202484 1271.41836 133.136553 632.92965 773.188814 631.755925 773.254746"></polygon>
                            <polygon id="Rectangle" transform="translate(962.655177, 453.194326) rotate(-45.000000) translate(-962.655177, -453.194326) " points="1281.31267 133.201161 1282.4864 133.135229 643.997682 773.187491 642.823958 773.253422"></polygon>
                            <polygon id="Rectangle" transform="translate(973.734287, 453.193002) rotate(-45.000000) translate(-973.734287, -453.193002) " points="1292.39178 133.199837 1293.56551 133.133905 655.076793 773.186167 653.903068 773.252099"></polygon>
                            <polygon id="Rectangle" transform="translate(984.813398, 453.191678) rotate(-45.000000) translate(-984.813398, -453.191678) " points="1303.47089 133.198513 1304.64462 133.132581 666.155903 773.184843 664.982179 773.250775"></polygon>
                            <polygon id="Rectangle" transform="translate(995.892509, 453.190354) rotate(-45.000000) translate(-995.892509, -453.190354) " points="1314.55 133.197189 1315.72373 133.131258 677.235014 773.18352 676.06129 773.249451"></polygon>
                            <polygon id="Rectangle" transform="translate(1006.971619, 453.201427) rotate(-45.000000) translate(-1006.971619, -453.201427) " points="1325.62911 133.208262 1326.80284 133.142331 688.314125 773.194592 687.1404 773.260524"></polygon>
                            <polygon id="Rectangle" transform="translate(1018.050730, 453.200104) rotate(-45.000000) translate(-1018.050730, -453.200104) " points="1336.70822 133.206939 1337.88195 133.141007 699.393235 773.193269 698.219511 773.2592"></polygon>
                            <polygon id="Rectangle" transform="translate(1029.129840, 453.198780) rotate(-45.000000) translate(-1029.129840, -453.198780) " points="1347.78733 133.205615 1348.96106 133.139683 710.472346 773.191945 709.298621 773.257877"></polygon>
                            <polygon id="Rectangle" transform="translate(1040.208951, 453.197456) rotate(-45.000000) translate(-1040.208951, -453.197456) " points="1358.86645 133.204291 1360.04017 133.138359 721.551456 773.190621 720.377732 773.256553"></polygon>
                            <polygon id="Rectangle" transform="translate(1051.288061, 453.196132) rotate(-45.000000) translate(-1051.288061, -453.196132) " points="1369.94556 133.202967 1371.11928 133.137036 732.630567 773.189297 731.456843 773.255229"></polygon>
                            <polygon id="Rectangle" transform="translate(1062.356094, 453.194809) rotate(-45.000000) translate(-1062.356094, -453.194809) " points="1381.01359 133.201644 1382.18731 133.135712 743.6986 773.187974 742.524875 773.253905"></polygon>
                            <polygon id="Rectangle" transform="translate(1073.435205, 453.193485) rotate(-45.000000) translate(-1073.435205, -453.193485) " points="1392.0927 133.20032 1393.26642 133.134388 754.77771 773.18665 753.603986 773.252582"></polygon>
                            <polygon id="Rectangle" transform="translate(1084.514315, 453.192161) rotate(-45.000000) translate(-1084.514315, -453.192161) " points="1403.17181 133.198996 1404.34553 133.133065 765.856821 773.185326 764.683096 773.251258"></polygon>
                            <polygon id="Rectangle" transform="translate(1095.593426, 453.190838) rotate(-45.000000) translate(-1095.593426, -453.190838) " points="1414.25092 133.197672 1415.42464 133.131741 776.935931 773.184003 775.762207 773.249934"></polygon>
                            <polygon id="Rectangle" transform="translate(1106.672536, 453.189514) rotate(-45.000000) translate(-1106.672536, -453.189514) " points="1425.33003 133.196349 1426.50376 133.130417 788.015042 773.182679 786.841318 773.248611"></polygon>
                            <polygon id="Rectangle" transform="translate(763.253342, 453.193359) rotate(-45.000000) translate(-763.253342, -453.193359) " points="1081.91084 133.200194 1083.08456 133.134263 444.595848 773.186525 443.422123 773.252456"></polygon>
                            <polygon id="Rectangle" transform="translate(752.174232, 453.194683) rotate(-45.000000) translate(-752.174232, -453.194683) " points="1070.83173 133.201518 1072.00545 133.135586 433.516737 773.187848 432.343013 773.25378"></polygon>
                            <polygon id="Rectangle" transform="translate(741.106199, 453.196007) rotate(-45.000000) translate(-741.106199, -453.196007) " points="1059.76369 133.202842 1060.93742 133.13691 422.448704 773.189172 421.27498 773.255104"></polygon>
                            <polygon id="Rectangle" transform="translate(730.027088, 453.197331) rotate(-45.000000) translate(-730.027088, -453.197331) " points="1048.68458 133.204166 1049.85831 133.138234 411.369594 773.190496 410.195869 773.256427"></polygon>
                            <polygon id="Rectangle" transform="translate(718.947978, 453.198654) rotate(-45.000000) translate(-718.947978, -453.198654) " points="1037.60547 133.205489 1038.7792 133.139558 400.290483 773.191819 399.116759 773.257751"></polygon>
                            <polygon id="Rectangle" transform="translate(707.868867, 453.199978) rotate(-45.000000) translate(-707.868867, -453.199978) " points="1026.52636 133.206813 1027.70009 133.140881 389.211373 773.193143 388.037648 773.259075"></polygon>
                            <polygon id="Rectangle" transform="translate(696.789756, 453.188905) rotate(-45.000000) translate(-696.789756, -453.188905) " points="1015.44725 133.19574 1016.62098 133.129808 378.132262 773.18207 376.958538 773.248002"></polygon>
                            <polygon id="Rectangle" transform="translate(685.710646, 453.190229) rotate(-45.000000) translate(-685.710646, -453.190229) " points="1004.36814 133.197064 1005.54186 133.131132 367.053151 773.183394 365.879427 773.249326"></polygon>
                            <polygon id="Rectangle" transform="translate(674.631535, 453.191553) rotate(-45.000000) translate(-674.631535, -453.191553) " points="993.28903 133.198388 994.462754 133.132456 355.974041 773.184718 354.800316 773.250649"></polygon>
                            <polygon id="Rectangle" transform="translate(663.552425, 453.192876) rotate(-45.000000) translate(-663.552425, -453.192876) " points="982.209919 133.199711 983.383644 133.13378 344.89493 773.186041 343.721206 773.251973"></polygon>
                            <polygon id="Rectangle" transform="translate(652.473314, 453.194200) rotate(-45.000000) translate(-652.473314, -453.194200) " points="971.130809 133.201035 972.304533 133.135103 333.81582 773.187365 332.642095 773.253297"></polygon>
                            <polygon id="Rectangle" transform="translate(641.405281, 453.195524) rotate(-45.000000) translate(-641.405281, -453.195524) " points="960.062776 133.202359 961.2365 133.136427 322.747787 773.188689 321.574063 773.254621"></polygon>
                            <polygon id="Rectangle" transform="translate(630.326171, 453.196848) rotate(-45.000000) translate(-630.326171, -453.196848) " points="948.983665 133.203682 950.15739 133.137751 311.668676 773.190013 310.494952 773.255944"></polygon>
                            <polygon id="Rectangle" transform="translate(619.247060, 453.198171) rotate(-45.000000) translate(-619.247060, -453.198171) " points="937.904555 133.205006 939.078279 133.139074 300.589566 773.191336 299.415841 773.257268"></polygon>
                            <polygon id="Rectangle" transform="translate(608.167950, 453.199495) rotate(-45.000000) translate(-608.167950, -453.199495) " points="926.825444 133.20633 927.999169 133.140398 289.510455 773.19266 288.336731 773.258592"></polygon>
                            <polygon id="Rectangle" transform="translate(597.088839, 453.188422) rotate(-45.000000) translate(-597.088839, -453.188422) " points="915.746334 133.195257 916.920058 133.129325 278.431345 773.181587 277.25762 773.247519"></polygon>
                            <polygon id="Rectangle" transform="translate(586.009729, 453.189746) rotate(-45.000000) translate(-586.009729, -453.189746) " points="904.667223 133.196581 905.840948 133.130649 267.352234 773.182911 266.17851 773.248843"></polygon>
                            <polygon id="Rectangle" transform="translate(574.930618, 453.191070) rotate(-45.000000) translate(-574.930618, -453.191070) " points="893.588112 133.197904 894.761837 133.131973 256.273123 773.184235 255.099399 773.250166"></polygon>
                            <polygon id="Rectangle" transform="translate(563.851507, 453.192393) rotate(-45.000000) translate(-563.851507, -453.192393) " points="882.509002 133.199228 883.682726 133.133297 245.194013 773.185558 244.020288 773.25149"></polygon>
                            <polygon id="Rectangle" transform="translate(552.772397, 453.193717) rotate(-45.000000) translate(-552.772397, -453.193717) " points="871.429891 133.200552 872.603616 133.13462 234.114902 773.186882 232.941178 773.252814"></polygon>
                            <polygon id="Rectangle" transform="translate(541.693286, 453.195041) rotate(-45.000000) translate(-541.693286, -453.195041) " points="860.350781 133.201876 861.524505 133.135944 223.035792 773.188206 221.862067 773.254137"></polygon>
                            <polygon id="Rectangle" transform="translate(530.625254, 453.196364) rotate(-45.000000) translate(-530.625254, -453.196364) " points="849.282748 133.203199 850.456472 133.137268 211.967759 773.18953 210.794035 773.255461"></polygon>
                            <polygon id="Rectangle-2" points="1756.2628 134.15788 1757.47808 134.134597 1120.39815 774.265169 1119.18287 774.288451"></polygon>
                            <polygon id="Rectangle" transform="translate(1449.242036, 455.402236) rotate(-45.000000) translate(-1449.242036, -455.402236) " points="1767.89953 135.409071 1769.07325 135.343139 1130.58454 775.395401 1129.41082 775.461333"></polygon>
                            <polygon id="Rectangle" transform="translate(1460.321146, 455.400913) rotate(-45.000000) translate(-1460.321146, -455.400913) " points="1778.97864 135.407747 1780.15237 135.341816 1141.66365 775.394078 1140.48993 775.460009"></polygon>
                            <polygon id="Rectangle" transform="translate(1471.400257, 455.411985) rotate(-45.000000) translate(-1471.400257, -455.411985) " points="1790.05775 135.41882 1791.23148 135.352889 1152.74276 775.40515 1151.56904 775.471082"></polygon>
                            <polygon id="Rectangle" transform="translate(1482.479367, 455.410662) rotate(-45.000000) translate(-1482.479367, -455.410662) " points="1801.13686 135.417497 1802.31059 135.351565 1163.82187 775.403827 1162.64815 775.469758"></polygon>
                            <polygon id="Rectangle" transform="translate(1493.558478, 455.409338) rotate(-45.000000) translate(-1493.558478, -455.409338) " points="1812.21597 135.416173 1813.3897 135.350241 1174.90098 775.402503 1173.72726 775.468435"></polygon>
                            <polygon id="Rectangle" transform="translate(1504.637589, 455.408014) rotate(-45.000000) translate(-1504.637589, -455.408014) " points="1823.29508 135.414849 1824.46881 135.348917 1185.98009 775.401179 1184.80637 775.467111"></polygon>
                            <polygon id="Rectangle" transform="translate(1515.705621, 455.406690) rotate(-45.000000) translate(-1515.705621, -455.406690) " points="1834.36312 135.413525 1835.53684 135.347594 1197.04813 775.399856 1195.8744 775.465787"></polygon>
                            <polygon id="Rectangle" transform="translate(1526.784732, 455.405367) rotate(-45.000000) translate(-1526.784732, -455.405367) " points="1845.44223 135.412202 1846.61595 135.34627 1208.12724 775.398532 1206.95351 775.464464"></polygon>
                            <polygon id="Rectangle" transform="translate(1537.863842, 455.404043) rotate(-45.000000) translate(-1537.863842, -455.404043) " points="1856.52134 135.410878 1857.69506 135.344946 1219.20635 775.397208 1218.03262 775.46314"></polygon>
                            <polygon id="Rectangle" transform="translate(1548.942953, 455.402719) rotate(-45.000000) translate(-1548.942953, -455.402719) " points="1867.60045 135.409554 1868.77417 135.343623 1230.28546 775.395884 1229.11173 775.461816"></polygon>
                            <polygon id="Rectangle" transform="translate(1560.022064, 455.401396) rotate(-45.000000) translate(-1560.022064, -455.401396) " points="1878.67956 135.408231 1879.85328 135.342299 1241.36457 775.394561 1240.19084 775.460492"></polygon>
                            <polygon id="Rectangle" transform="translate(1571.101174, 455.412468) rotate(-45.000000) translate(-1571.101174, -455.412468) " points="1889.75867 135.419303 1890.93239 135.353372 1252.44368 775.405634 1251.26996 775.471565"></polygon>
                            <polygon id="Rectangle" transform="translate(1582.180285, 455.411145) rotate(-45.000000) translate(-1582.180285, -455.411145) " points="1900.83778 135.41798 1902.0115 135.352048 1263.52279 775.40431 1262.34907 775.470241"></polygon>
                            <polygon id="Rectangle" transform="translate(1593.259395, 455.409821) rotate(-45.000000) translate(-1593.259395, -455.409821) " points="1911.91689 135.416656 1913.09061 135.350724 1274.6019 775.402986 1273.42818 775.468918"></polygon>
                            <polygon id="Rectangle" transform="translate(1604.338506, 455.408497) rotate(-45.000000) translate(-1604.338506, -455.408497) " points="1922.996 135.415332 1924.16972 135.349401 1285.68101 775.401662 1284.50729 775.467594"></polygon>
                            <polygon id="Rectangle" transform="translate(1615.417616, 455.407174) rotate(-45.000000) translate(-1615.417616, -455.407174) " points="1934.07511 135.414008 1935.24884 135.348077 1296.76012 775.400339 1295.5864 775.46627"></polygon>
                            <polygon id="Rectangle" transform="translate(1626.485649, 455.405850) rotate(-45.000000) translate(-1626.485649, -455.405850) " points="1945.14314 135.412685 1946.31687 135.346753 1307.82815 775.399015 1306.65443 775.464947"></polygon>
                            <polygon id="Rectangle" transform="translate(1637.564760, 455.404526) rotate(-45.000000) translate(-1637.564760, -455.404526) " points="1956.22225 135.411361 1957.39598 135.345429 1318.90727 775.397691 1317.73354 775.463623"></polygon>
                            <polygon id="Rectangle" transform="translate(1648.643870, 455.403202) rotate(-45.000000) translate(-1648.643870, -455.403202) " points="1967.30136 135.410037 1968.47509 135.344106 1329.98638 775.396367 1328.81265 775.462299"></polygon>
                            <polygon id="Rectangle" transform="translate(1659.722981, 455.401879) rotate(-45.000000) translate(-1659.722981, -455.401879) " points="1978.38048 135.408714 1979.5542 135.342782 1341.06549 775.395044 1339.89176 775.460975"></polygon>
                            <polygon id="Rectangle" transform="translate(1670.802091, 455.412952) rotate(-45.000000) translate(-1670.802091, -455.412952) " points="1989.45959 135.419786 1990.63331 135.353855 1352.1446 775.406117 1350.97087 775.472048"></polygon>
                            <polygon id="Rectangle" transform="translate(1681.881202, 455.411628) rotate(-45.000000) translate(-1681.881202, -455.411628) " points="2000.5387 135.418463 2001.71242 135.352531 1363.22371 775.404793 1362.04998 775.470725"></polygon>
                            <polygon id="Rectangle" transform="translate(1692.960313, 455.410304) rotate(-45.000000) translate(-1692.960313, -455.410304) " points="2011.61781 135.417139 2012.79153 135.351207 1374.30282 775.403469 1373.12909 775.469401"></polygon>
                            <polygon id="Rectangle" transform="translate(1704.039423, 455.408980) rotate(-45.000000) translate(-1704.039423, -455.408980) " points="2022.69692 135.415815 2023.87064 135.349884 1385.38193 775.402145 1384.2082 775.468077"></polygon>
                            <polygon id="Rectangle" transform="translate(1715.118534, 455.407657) rotate(-45.000000) translate(-1715.118534, -455.407657) " points="2033.77603 135.414492 2034.94975 135.34856 1396.46104 775.400822 1395.28731 775.466753"></polygon>
                            <polygon id="Rectangle" transform="translate(1726.186566, 455.406333) rotate(-45.000000) translate(-1726.186566, -455.406333) " points="2044.84406 135.413168 2046.01779 135.347236 1407.52907 775.399498 1406.35535 775.46543"></polygon>
                            <polygon id="Rectangle" transform="translate(1737.265677, 455.405009) rotate(-45.000000) translate(-1737.265677, -455.405009) " points="2055.92317 135.411844 2057.0969 135.345912 1418.60818 775.398174 1417.43446 775.464106"></polygon>
                            <polygon id="Rectangle" transform="translate(1748.344788, 455.403685) rotate(-45.000000) translate(-1748.344788, -455.403685) " points="2067.00228 135.41052 2068.17601 135.344589 1429.68729 775.396851 1428.51357 775.462782"></polygon>
                            <polygon id="Rectangle" transform="translate(1759.423898, 455.402362) rotate(-45.000000) translate(-1759.423898, -455.402362) " points="2078.08139 135.409197 2079.25512 135.343265 1440.7664 775.395527 1439.59268 775.461459"></polygon>
                            <polygon id="Rectangle" transform="translate(1427.083814, 455.404884) rotate(-45.000000) translate(-1427.083814, -455.404884) " points="1745.74131 135.411719 1746.91503 135.345787 1108.42632 775.398049 1107.2526 775.46398"></polygon>
                            <polygon id="Rectangle" transform="translate(1416.004704, 455.406207) rotate(-45.000000) translate(-1416.004704, -455.406207) " points="1734.6622 135.413042 1735.83592 135.347111 1097.34721 775.399372 1096.17348 775.465304"></polygon>
                            <polygon id="Rectangle" transform="translate(1404.936671, 455.407531) rotate(-45.000000) translate(-1404.936671, -455.407531) " points="1723.59417 135.414366 1724.76789 135.348434 1086.27918 775.400696 1085.10545 775.466628"></polygon>
                            <polygon id="Rectangle" transform="translate(1393.857561, 455.408855) rotate(-45.000000) translate(-1393.857561, -455.408855) " points="1712.51506 135.41569 1713.68878 135.349758 1075.20007 775.40202 1074.02634 775.467952"></polygon>
                            <polygon id="Rectangle" transform="translate(1382.778450, 455.410179) rotate(-45.000000) translate(-1382.778450, -455.410179) " points="1701.43594 135.417013 1702.60967 135.351082 1064.12096 775.403344 1062.94723 775.469275"></polygon>
                            <polygon id="Rectangle" transform="translate(1371.699339, 455.411502) rotate(-45.000000) translate(-1371.699339, -455.411502) " points="1690.35683 135.418337 1691.53056 135.352406 1053.04184 775.404667 1051.86812 775.470599"></polygon>
                            <polygon id="Rectangle" transform="translate(1360.620229, 455.400429) rotate(-45.000000) translate(-1360.620229, -455.400429) " points="1679.27772 135.407264 1680.45145 135.341333 1041.96273 775.393595 1040.78901 775.459526"></polygon>
                            <polygon id="Rectangle" transform="translate(1349.541118, 455.401753) rotate(-45.000000) translate(-1349.541118, -455.401753) " points="1668.19861 135.408588 1669.37234 135.342656 1030.88362 775.394918 1029.7099 775.46085"></polygon>
                            <polygon id="Rectangle" transform="translate(1338.462008, 455.403077) rotate(-45.000000) translate(-1338.462008, -455.403077) " points="1657.1195 135.409912 1658.29323 135.34398 1019.80451 775.396242 1018.63079 775.462174"></polygon>
                            <polygon id="Rectangle" transform="translate(1327.382897, 455.404401) rotate(-45.000000) translate(-1327.382897, -455.404401) " points="1646.04039 135.411236 1647.21412 135.345304 1008.7254 775.397566 1007.55168 775.463497"></polygon>
                            <polygon id="Rectangle" transform="translate(1316.303786, 455.405724) rotate(-45.000000) translate(-1316.303786, -455.405724) " points="1634.96128 135.412559 1636.13501 135.346628 997.646292 775.398889 996.472568 775.464821"></polygon>
                            <polygon id="Rectangle" transform="translate(1305.235754, 455.407048) rotate(-45.000000) translate(-1305.235754, -455.407048) " points="1623.89325 135.413883 1625.06697 135.347951 986.578259 775.400213 985.404535 775.466145"></polygon>
                            <polygon id="Rectangle" transform="translate(1294.156643, 455.408372) rotate(-45.000000) translate(-1294.156643, -455.408372) " points="1612.81414 135.415207 1613.98786 135.349275 975.499149 775.401537 974.325424 775.467468"></polygon>
                            <polygon id="Rectangle" transform="translate(1283.077533, 455.409695) rotate(-45.000000) translate(-1283.077533, -455.409695) " points="1601.73503 135.41653 1602.90875 135.350599 964.420038 775.402861 963.246314 775.468792"></polygon>
                            <polygon id="Rectangle" transform="translate(1271.998422, 455.411019) rotate(-45.000000) translate(-1271.998422, -455.411019) " points="1590.65592 135.417854 1591.82964 135.351922 953.340928 775.404184 952.167203 775.470116"></polygon>
                            <polygon id="Rectangle" transform="translate(1260.919311, 455.399946) rotate(-45.000000) translate(-1260.919311, -455.399946) " points="1579.57681 135.406781 1580.75053 135.34085 942.261817 775.393111 941.088093 775.459043"></polygon>
                            <polygon id="Rectangle" transform="translate(1249.840201, 455.401270) rotate(-45.000000) translate(-1249.840201, -455.401270) " points="1568.4977 135.408105 1569.67142 135.342173 931.182706 775.394435 930.008982 775.460367"></polygon>
                            <polygon id="Rectangle" transform="translate(1238.761090, 455.402594) rotate(-45.000000) translate(-1238.761090, -455.402594) " points="1557.41858 135.409429 1558.59231 135.343497 920.103596 775.395759 918.929871 775.461691"></polygon>
                            <polygon id="Rectangle" transform="translate(1227.681980, 455.403918) rotate(-45.000000) translate(-1227.681980, -455.403918) " points="1546.33947 135.410752 1547.5132 135.344821 909.024485 775.397083 907.850761 775.463014"></polygon>
                            <polygon id="Rectangle" transform="translate(1216.602869, 455.405241) rotate(-45.000000) translate(-1216.602869, -455.405241) " points="1535.26036 135.412076 1536.43409 135.346144 897.945375 775.398406 896.77165 775.464338"></polygon>
                            <polygon id="Rectangle" transform="translate(1205.523759, 455.406565) rotate(-45.000000) translate(-1205.523759, -455.406565) " points="1524.18125 135.4134 1525.35498 135.347468 886.866264 775.39973 885.69254 775.465662"></polygon>
                            <polygon id="Rectangle" transform="translate(1194.455726, 455.407889) rotate(-45.000000) translate(-1194.455726, -455.407889) " points="1513.11322 135.414724 1514.28694 135.348792 875.798231 775.401054 874.624507 775.466985"></polygon>
                            <polygon id="Rectangle" transform="translate(1183.376615, 455.409212) rotate(-45.000000) translate(-1183.376615, -455.409212) " points="1502.03411 135.416047 1503.20783 135.350116 864.719121 775.402377 863.545396 775.468309"></polygon>
                            <polygon id="Rectangle" transform="translate(1172.297505, 455.410536) rotate(-45.000000) translate(-1172.297505, -455.410536) " points="1490.955 135.417371 1492.12872 135.351439 853.64001 775.403701 852.466286 775.469633"></polygon>
                            <polygon id="Rectangle" transform="translate(1161.218394, 455.411860) rotate(-45.000000) translate(-1161.218394, -455.411860) " points="1479.87589 135.418695 1481.04961 135.352763 842.5609 775.405025 841.387175 775.470957"></polygon>
                            <polygon id="Rectangle" transform="translate(1150.139284, 455.400787) rotate(-45.000000) translate(-1150.139284, -455.400787) " points="1468.79678 135.407622 1469.9705 135.34169 831.481789 775.393952 830.308065 775.459884"></polygon>
                            <polygon id="Rectangle" transform="translate(1139.060173, 455.402111) rotate(-45.000000) translate(-1139.060173, -455.402111) " points="1457.71767 135.408946 1458.89139 135.343014 820.402678 775.395276 819.228954 775.461207"></polygon>
                            <polygon id="Rectangle" transform="translate(1127.981062, 455.403434) rotate(-45.000000) translate(-1127.981062, -455.403434) " points="1446.63856 135.410269 1447.81228 135.344338 809.323568 775.396599 808.149843 775.462531"></polygon>
                            <polygon id="Rectangle" transform="translate(1116.901952, 455.404758) rotate(-45.000000) translate(-1116.901952, -455.404758) " points="1435.55945 135.411593 1436.73317 135.345661 798.244457 775.397923 797.070733 775.463855"></polygon>
                        </g>
                    </g>
                </g>
            </g>
        </g>
    </g>
</svg>