<?xml version="1.0" encoding="UTF-8"?>
<svg width="340px" height="334px" viewBox="0 0 340 334" version="1.1" xmlns="http://www.w3.org/2000/svg" xmlns:xlink="http://www.w3.org/1999/xlink">
    <!-- Generator: Sketch 54.1 (76490) - https://sketchapp.com -->
    <title>illu1-solut-pro</title>
    <desc>Created with Sketch.</desc>
    <defs>
        <rect id="path-1" x="0" y="0" width="427" height="347"></rect>
        <linearGradient x1="-156.164384%" y1="53.342001%" x2="132.534247%" y2="48.578827%" id="linearGradient-3">
            <stop stop-color="#FFFFFF" offset="0%"></stop>
            <stop stop-color="#808184" offset="100%"></stop>
        </linearGradient>
        <rect id="path-4" x="0" y="0" width="170" height="286"></rect>
        <linearGradient x1="43.5638592%" y1="3.44827586%" x2="55.5779887%" y2="86.637931%" id="linearGradient-6">
            <stop stop-color="#F9E4E4" offset="0%"></stop>
            <stop stop-color="#FFD24A" offset="100%"></stop>
        </linearGradient>
        <linearGradient x1="0%" y1="49.959968%" x2="100%" y2="49.959968%" id="linearGradient-7">
            <stop stop-color="#FFFFFF" offset="0%"></stop>
            <stop stop-color="#262261" offset="100%"></stop>
        </linearGradient>
    </defs>
    <g id="Design" stroke="none" stroke-width="1" fill="none" fill-rule="evenodd">
        <g id="4b-solutionprofessionnels" transform="translate(-302.000000, -200.000000)">
            <g id="content-" transform="translate(0.000000, 85.000000)">
                <g id="Cover" transform="translate(84.000000, 0.000000)">
                    <g id="illu1-solut-pro" transform="translate(137.000000, 100.000000)">
                        <mask id="mask-2" fill="white">
                            <use xlink:href="#path-1"></use>
                        </mask>
                        <g id="Mask"></g>
                        <g id="illu1" mask="url(#mask-2)">
                            <g transform="translate(80.540847, 15.269461)">
                                <circle id="Oval" fill="#00585E" fill-rule="nonzero" cx="117.771323" cy="117" r="117"></circle>
                                <g id="man" stroke-width="1" fill="none" fill-rule="evenodd" transform="translate(274.500000, 280.500000) scale(-1, 1) translate(-274.500000, -280.500000) translate(186.000000, 58.000000)">
                                    <path d="M111.512667,71.0237862 C111.512667,71.0237862 107.427157,66.082634 106.201504,64.7000733 C104.975851,63.3175125 95.1465927,60.8529475 95.1465927,60.8529475 L95.1465927,55.9478622 C95.1465927,55.9478622 108.640794,52.2329813 108.148129,50.3815521 C107.655465,48.5301228 108.148129,38.7319744 108.148129,38.7319744 C110.346316,37.736124 112.314315,36.2951987 113.927925,34.5001361 C112.077429,30.2682977 102.368333,10.4556 102.368333,10.4556 C109.578058,-0.364441231 102.368333,0.12847174 102.368333,0.12847174 C82.6016722,2.244391 68.4345635,11.7780494 64.4571988,15.4809081 C60.479834,19.1837665 61.5492765,23.1631374 61.5492765,23.1631374 C66.848424,43.2763916 77.9513998,52.0165805 77.9513998,52.0165805 L77.9513998,62.9327998 C77.9513998,62.9327998 71.2583723,65.7820773 69.7683624,67.0083488 C68.2783527,68.2346201 66.6441486,72.177924 66.6441486,72.177924 C66.6441486,72.177924 41.9748745,81.0864246 27.7837335,92.6157796 L48.6783397,173.621821 L39.9561517,218.248481 L25.5367026,313.573044 L14.4217106,430.044775 L27.7837335,430.044775 C27.7837335,430.044775 53.7267255,341.693129 56.7788422,334.407633 C59.8309589,327.12214 54.3756006,312.767552 54.3756006,312.767552 L77.9273675,259.725304 L77.9273675,299.206433 C77.9273675,299.206433 68.9752928,308.824248 67.773672,321.147071 C66.5720513,333.469897 68.9752928,430.032753 68.9752928,430.032753 L82.9261096,430.032753 C82.9261096,430.032753 108.039983,319.54811 110.827744,307.982688 C113.615504,296.417266 125.054933,222.071562 125.054933,222.071562 L130.762632,218.633193 C130.762632,218.633193 126.773251,195.502349 119.948045,182.746722 C119.948045,182.746722 126.725186,156.417955 129.116411,135.679544 C129.116411,135.679544 111.512667,71.0237862 111.512667,71.0237862 Z" id="Path" fill="#E3E3E3" fill-rule="nonzero"></path>
                                    <path d="M83.4548229,76.8292504 C76.6092774,101.731401 73.1865048,126.842342 73.1865048,152.162073 C73.3346919,157.093626 70.6452204,156.204396 65.1180902,149.494381 L75.0250626,77.597384 L79.9460902,76.0611166 L83.4548229,76.8292504 Z" id="Path-12" fill="#D8D8D8" fill-rule="nonzero"></path>
                                    <path d="M107.296768,73.0586227 L101.942447,74.1135091 C106.307634,96.5458095 108.83281,113.569758 109.517977,125.185356 C110.203144,136.800953 110.58566,160.633999 110.665526,196.684493 L114.887179,194.978906 L117.911298,154.951239 L114.887179,106.862167 L107.296768,73.0586227 Z" id="Path-11" fill="#D8D8D8" fill-rule="nonzero"></path>
                                    <ellipse id="Oval" fill="#1C1C1C" fill-rule="nonzero" cx="88.6938893" cy="105.467584" rx="1.76834259" ry="1.76863711"></ellipse>
                                    <ellipse id="Oval" fill="#FFD24A" fill-rule="nonzero" cx="88.6938893" cy="129.51212" rx="1.76834259" ry="1.76863711"></ellipse>
                                    <ellipse id="Oval" fill="#FFD24A" fill-rule="nonzero" cx="88.6938893" cy="153.556656" rx="1.76834259" ry="1.76863711"></ellipse>
                                    <ellipse id="Oval" fill="#FFD24A" fill-rule="nonzero" cx="88.6938893" cy="177.601193" rx="1.76834259" ry="1.76863711"></ellipse>
                                    <path d="M125.12703,222.071562 L130.834729,218.633193 C130.834729,218.633193 129.212541,209.267846 126.292603,199.157119 L118.794489,192.076003 C114.302797,196.796747 105.421481,199.157119 92.1505425,199.157119 C78.8796035,199.157119 63.2638774,196.796747 45.303364,192.076003 C45.303364,197.725419 45.303364,200.983454 45.303364,201.850107 C45.303364,202.716759 43.5169544,208.182882 39.9441355,218.248481 L25.5246864,313.573044 L14.4096946,430.044775 L27.7717172,430.044775 C27.7717172,430.044775 53.7147093,341.693129 56.766826,334.407633 C59.8189427,327.12214 54.3635845,312.767552 54.3635845,312.767552 L77.9153512,259.725304 L77.9153512,299.206433 C77.9153512,299.206433 68.9632765,308.824248 67.7616559,321.147071 C66.5600351,333.469897 68.9632765,430.032753 68.9632765,430.032753 L82.9140936,430.032753 C82.9140936,430.032753 108.027967,319.54811 110.815727,307.982688 C113.603487,296.417266 125.12703,222.071562 125.12703,222.071562 Z" id="Path" fill="#FFFFFF" fill-rule="nonzero"></path>
                                    <path d="M95.3594876,81.0024806 L95.3628845,81.0022686 C95.3628845,81.0022686 102.18809,110.637159 103.377695,158.413652 C100.613386,163.829383 97.2692899,168.928679 93.4042426,173.621821 C90.4826208,168.690362 87.8116252,163.614515 85.4014485,158.413652 C85.4014485,158.413652 90.6765635,107.920127 89.7753479,81.3509144 L85.4014485,75.4840476 L85.4014485,73.9451973 L90.8568066,66.8761037 L98.0064501,74.9670902 L95.3594876,81.0024806 Z" id="Path-3" fill="#F3C44F" fill-rule="nonzero"></path>
                                    <path d="M27.8317982,92.5676905 L48.6783397,173.621821 L39.6076816,217.345048 L39.6076816,220.7972 C58.2568357,227.866294 88.6938893,225.855955 88.6938893,225.855955 C92.5635215,192.076003 95.8380807,165.621468 94.5938472,161.7162 C85.4014485,132.864076 80.2945603,76.0250496 80.2945603,76.0250496 L68.0260123,69.3767355 C67.5328403,70.2700746 67.0876091,71.1890779 66.6922134,72.1298349 C66.6922134,72.1298349 42.0229394,81.0383355 27.8317982,92.5676905 Z" id="Path" fill="#FFFFFF" fill-rule="nonzero"></path>
                                    <path d="M71.9973951,110.001296 L71.9973951,108.339635 L78.6088911,112.219439 L78.6088911,120.674264 L78.5917772,120.684365 L74.5956755,123.029389 L74.5956755,121.367938 L74.6127894,121.357838 L77.194646,119.842698 L77.194646,113.050024 L71.9973951,110.001296 Z M69.3995977,119.012954 L69.3995977,112.229819 L70.814878,111.405126 L70.814878,121.50492 L66.8006272,119.149866 L66.8006272,113.744119 L68.2157694,112.919566 L68.2157694,118.318719 L69.3995977,119.012954 Z M64.2027609,112.219439 L64.2198748,112.209479 L70.814878,108.339635 L70.814878,110.016726 L70.797626,110.026756 L69.3995977,110.84163 L69.3995977,110.831671 L65.6174201,113.050024 L65.6174201,119.842698 L70.814878,122.892618 L70.814878,124.55421 L70.7635362,124.52405 L64.2027609,120.674264 L64.2027609,112.219439 Z M73.4126063,120.548379 L73.4126063,119.062483 L74.5956755,118.454609 L74.5956755,114.575195 L73.4126063,113.880469 L73.4126063,118.78302 L73.4126063,120.320342 L73.4126063,123.723765 L71.9973951,124.55421 L71.9973951,111.389065 L76.0108867,113.744189 L76.0108867,119.149866 L73.4126063,120.548379 Z" id="path-7-2" fill="#25304F" fill-rule="nonzero" transform="translate(71.405826, 116.446922) scale(-1, 1) rotate(9.000000) translate(-71.405826, -116.446922) "></path>
                                    <path d="M176.005054,136.923077 C160.649823,136.29427 155.651949,131.280757 150.388789,129.266194 C145.125629,127.251631 138.472362,109.586986 137.163197,105.467584 C131.385274,87.2868433 127.841508,80.8268445 122.280173,77.5355497 C111.584765,71.2058206 111.512667,71.0237862 111.512667,71.0237862 C111.512667,71.0237862 108.508616,67.4171058 106.874411,65.4815206 L105.576661,73.1036386 C105.576661,73.1036386 103.377695,132.6953 94.8822362,159.930243 C94.1634859,162.234429 96.7932973,198.975163 98.467167,225.855955 C103.151059,225.661218 120.862216,224.120949 125.078966,222.071562 L130.786664,218.633193 C130.786664,218.633193 126.797283,195.502349 119.972077,182.746722 C119.972077,182.746722 124.00446,167.70376 126.944861,151.788019 C127.387216,149.393646 128.586547,143.694274 129.085527,140.024667 C129.584507,136.35506 130.836786,140.749777 138.940235,143.992351 C147.043683,147.234925 151.174393,150.04211 173.036331,151.788019 C173.036331,149.829874 174.087826,146.77381 176.005054,136.923077 Z" id="Path" fill="#FFFFFF" fill-rule="nonzero"></path>
                                    <path d="M125.054935,227.864374 C125.054935,227.864374 123.13864,227.864374 119.788715,226.978359 L108.043907,222.071562 L110.182621,236.32802 L125.054935,241.262597 C125.054935,212.194102 125.054935,227.864374 125.054935,227.864374 Z" id="Path-10" fill="#000000" fill-rule="nonzero" opacity="0.1" style="mix-blend-mode: multiply;" transform="translate(116.549421, 231.667079) scale(-1, 1) translate(-116.549421, -231.667079) "></path>
                                    <path d="M106.249568,64.7000733 C105.047948,63.3054902 95.1946577,60.8529475 95.1946577,60.8529475 L95.1946577,56.2003298 L77.9994646,58.7851174 L77.9994646,62.8847107 C77.9994646,62.8847107 71.3064371,65.7339883 69.8164274,66.9602595 C68.3264177,68.186531 66.6922134,72.1298349 66.6922134,72.1298349 C73.6817249,75.1731675 81.2274449,76.7289267 88.8501,76.6982967 C88.8501,76.6982967 91.8060871,76.2534728 92.0584274,66.8761037 C92.0584274,66.8761037 95.1826414,73.9932864 97.3095102,74.7506893 C99.4363787,75.5080922 106.093358,74.4140658 111.560732,71.0237862 C111.512667,71.0237862 107.475222,66.082634 106.249568,64.7000733 Z" id="Path" fill="#FFFFFF" fill-rule="nonzero"></path>
                                    <path d="M91.7219736,64.7120956 C93.0197151,63.5592657 94.1845164,62.2648375 95.1946577,60.8529475 L95.1946577,55.9478622 C95.1946577,55.9478622 108.688859,52.2329813 108.196194,50.3815521 C107.70353,48.5301228 108.196194,38.7319744 108.196194,38.7319744 C110.39438,37.736124 112.362379,36.2951987 113.97599,34.5001361 C112.125494,30.2682977 102.416398,10.4556 102.416398,10.4556 C103.282427,9.18604527 104.042037,7.84701029 104.687461,6.45218472 L101.407037,5.41826971 L65.1180902,18.6788314 L66.2235812,35.7384297 C71.6188585,46.9311612 77.9994646,51.9684915 77.9994646,51.9684915 L77.9994646,62.8847107 C82.5254517,63.8132199 87.1108121,64.4238383 91.7219736,64.7120956 L91.7219736,64.7120956 Z" id="Path" fill="#E39C75" fill-rule="nonzero"></path>
                                    <path d="M102.416398,10.4195333 C109.626123,-0.400507987 102.416398,0.0924049844 102.416398,0.0924049844 C82.649737,2.20832424 68.4826283,11.7419827 64.5052636,15.4448413 C60.527899,19.1476997 61.5973415,23.1270705 61.5973415,23.1270705 C66.896489,43.2403248 77.9994646,51.9805136 77.9994646,51.9805136 L77.9994646,43.7693046 C77.9994646,43.7693046 74.0341161,43.023924 74.0341161,37.1330127 C74.0341161,31.2421014 77.9994646,34.8728263 77.9994646,34.8728263 C77.9994646,34.8728263 77.4226867,23.4757162 77.4226867,21.8527101 C77.4226867,20.2297038 88.4775975,11.8982722 102.416398,10.4195333 Z" id="Path" fill="#1C1C1C"></path>
                                    <path d="M94.5938472,171.78035 L94.5938472,198.975163" id="Path" stroke="#808184" stroke-width="0.680399938"></path>
                                    <polyline id="Path" stroke="#1A120D" stroke-width="0.680399938" opacity="0.2" points="108.043907 228.376737 104.579316 300.889551 80.2464954 430.032753"></polyline>
                                    <polyline id="Path" stroke="#1A120D" stroke-width="0.680399938" opacity="0.2" points="50.7814206 222.990963 34.0802262 300.913594 18.7595617 430.032753"></polyline>
                                    <path d="M105.901099,38.623774 L108.196194,38.7319744 C110.39438,37.736124 112.362379,36.2951987 113.97599,34.5001361 C110.92972,35.026735 108.114413,36.4644396 105.901099,38.623774 L105.901099,38.623774 Z" id="Path" fill="#000000" fill-rule="nonzero" opacity="0.3" style="mix-blend-mode: multiply;"></path>
                                    <path d="M108.196194,50.3815521 C108.196194,50.3815521 95.338852,52.5575826 89.54704,55.5751718 L95.1946577,55.9478622 C95.1946577,55.9478622 108.688859,52.2329813 108.196194,50.3815521 Z" id="Path" fill="#000000" fill-rule="nonzero" opacity="0.3" style="mix-blend-mode: multiply;"></path>
                                    <path d="M75.0314614,36.5078547 C74.9575379,38.2525544 75.5262141,39.9637209 76.6296169,41.316762 C77.3025247,42.1583208 78.432048,41.6173187 78.5522103,40.4872254 C78.6619119,38.759571 78.037973,37.0657925 76.8338925,35.8225855 C75.4640448,34.4159801 75.0314614,36.5078547 75.0314614,36.5078547 Z" id="Path" fill="#000000" fill-rule="nonzero" opacity="0.3" style="mix-blend-mode: multiply;"></path>
                                    <path d="M131.226194,104.073001 C129.41456,127.864574 127.987479,143.005034 126.944952,149.494381 C126.934123,149.401362 127.895916,112.993002 126.944952,98.7984524 C128.038009,100.118901 129.46509,101.877084 131.226194,104.073001 Z" id="Path-7" fill="#000000" fill-rule="nonzero" opacity="0.1" style="mix-blend-mode: multiply;"></path>
                                    <path d="M86.9635555,77.5879446 C84.6111486,77.6434465 82.2593488,77.4540794 79.9460902,77.0228979 L80.2945603,76.0611166 L86.302664,76.66223 L86.9635555,77.5879446 Z" id="Path" fill="url(#linearGradient-3)" fill-rule="nonzero"></path>
                                    <path d="M77.9994646,299.206433 C77.9994646,299.206433 69.04739,308.824248 67.8457692,321.147071 C66.6441486,333.469897 69.04739,430.032753 69.04739,430.032753 L74.6589589,430.032753 C74.6589589,424.08173 74.4666996,373.636294 77.9994646,339.865743 C81.7725538,303.883095 86.2185506,306.455861 87.3120254,299.747434 C88.4055003,293.03901 88.6818731,241.812125 88.6818731,241.812125 L77.9754323,259.725304 L77.9994646,299.206433 Z" id="Path" fill="#000000" fill-rule="nonzero" opacity="0.1" style="mix-blend-mode: multiply;"></path>
                                    <path d="M120.555886,98.0632646 L120.555886,96.6132726 L126.236783,99.9988519 L126.236783,107.376668 L126.222078,107.385481 L122.788446,109.431787 L122.788446,107.981979 L122.803152,107.973165 L125.021599,106.651029 L125.021599,100.723634 L120.555886,98.0632646 Z M118.323741,105.926982 L118.323741,100.00791 L119.539814,99.2882694 L119.539814,108.101511 L116.090589,106.046453 L116.090589,101.329312 L117.306543,100.609794 L117.306543,105.321181 L118.323741,105.926982 Z M113.858384,99.9988519 L113.873089,99.9901608 L119.539814,96.6132726 L119.539814,98.0767296 L119.524991,98.0854817 L118.323741,98.7965538 L118.323741,98.7878629 L115.073924,100.723634 L115.073924,106.651029 L119.539814,109.312439 L119.539814,110.762369 L119.495699,110.736052 L113.858384,107.376668 L113.858384,99.9988519 Z M121.7719,107.266818 L121.7719,105.970202 L122.788446,105.43976 L122.788446,102.054522 L121.7719,101.448293 L121.7719,105.726337 L121.7719,107.067829 L121.7719,110.03771 L120.555886,110.762369 L120.555886,99.2742536 L124.00446,101.329373 L124.00446,106.046453 L121.7719,107.266818 Z" id="path-7-2" fill="#FFFFFF" fill-rule="nonzero"></path>
                                    <polygon id="Path-9" fill="#000000" fill-rule="nonzero" opacity="0.1" style="mix-blend-mode: multiply;" points="69.8587226 229.726623 39.9441355 218.248481 38.5016565 228.384988 78.0955943 243.769145 78.0955943 232.745768"></polygon>
                                    <path d="M41.7037588,83.8043777 C33.0002713,88.7058881 27.0326166,92.3830258 23.8007948,94.8357906 C18.9530621,98.5149378 34.9039509,147.309142 41.7037588,162.909355 C46.2369641,173.309496 77.4633147,175.065675 135.382811,168.177892 L133.529789,156.683689 C90.4360911,154.311683 67.6321915,151.882856 65.1180902,149.397209 C62.6039889,146.911562 59.6160793,128.592276 56.1543615,94.439353 L41.7037588,83.8043777 Z" id="Path-6" fill="#FFFFFF"></path>
                                    <path d="M56.2953141,95.8237858 C59.6972498,129.087553 62.6381752,146.945361 65.1180902,149.397209 C67.6321915,151.882856 90.4360911,154.311683 133.529789,156.683689 L134.025478,160.040006 C87.9615151,157.237887 63.7353353,155.192823 61.3469382,153.904816 C58.9580351,152.616536 57.2271762,133.150373 56.1543615,95.5063274 L56.2953141,95.8237858 Z" id="Combined-Shape" fill="#E5E5E5"></path>
                                    <path d="M135.080521,167.339846 C110.455211,168.600308 92.6384784,169.230539 81.6303231,169.230539 C65.1180902,169.230539 48.4167795,166.120513 46.6385588,165.397812 C44.860338,164.67511 42.5437004,161.937543 39.5900642,157.696413 C40.5836497,161.737672 42.8026387,166.1395 47.498837,168.177892 C49.8832537,169.212851 76.3627549,171.439709 105.752064,170.49117 C111.885122,170.293225 121.762038,169.522133 135.382811,168.177892 L135.080521,167.339846 Z" id="Path-9" fill="#E5E5E5"></path>
                                </g>
                            </g>
                        </g>
                        <path d="M125.359854,348 L415.540847,348" id="Line-2" stroke="#FFFFFF" stroke-linecap="square"></path>
                        <g id="femme" transform="translate(94.000000, 61.000000)">
                            <mask id="mask-5" fill="white">
                                <use xlink:href="#path-4"></use>
                            </mask>
                            <g id="Mask"></g>
                            <g mask="url(#mask-5)" fill-rule="nonzero">
                                <g transform="translate(85.040847, 269.269461) scale(-1, 1) translate(-85.040847, -269.269461) translate(16.540847, 21.269461)">
                                    <path d="M125.556348,90.5910533 C115.202742,80.5610929 105.265507,74.6882583 105.265507,74.6882583 L106.481632,54.4809986 C106.481632,54.4809986 128.972619,-3.13025179 85.2067711,2.72926623 C85.2067711,2.72926623 70.0564909,5.28454474 69.8513614,23.5826885 C69.646232,41.8808322 74.5253841,55.8908073 75.3752062,56.5516554 C76.2250286,57.2125032 80.8843991,57.1978177 88.5621039,57.6236974 C88.5621039,57.6236974 87.4338916,65.7007271 85.2360754,68.0504084 C85.2360754,68.0504084 75.3752062,64.1587486 63.5574613,60.3604264 C63.5574613,60.3604264 58.0747825,58.3042783 54.5289722,63.2679801 C50.983162,68.2316821 44.8961397,79.5684824 39.2257736,93.4316026 L52.2688312,99.3158563 C52.2688312,99.3158563 49.0014111,106.996377 49.7047123,114.074792 C50.4080136,121.153208 59.4337123,169.204191 59.4337123,169.204191 C59.4337123,169.204191 57.0747229,169.01328 56.8695934,170.995823 C56.6644639,172.978369 56.6791159,186.019099 56.6791159,186.019099 C57.3518566,186.807345 58.2450616,187.375183 59.243235,187.649191 C59.243235,187.649191 16.5323389,254.850077 7.63850912,313.548055 C11.338702,315.964904 15.2643622,318.015819 19.3601957,319.671914 L17.6752034,324.6503 L36.810857,458.538082 C36.810857,458.538082 27.0965091,483.503447 24.8693886,485.42725 C22.642268,487.351051 15.9316023,487.380422 15.6825166,492.123842 L15.6825166,495.193112 L44.4739096,495.193112 C44.4739096,495.193112 49.9244939,475.94041 50.1735798,469.508158 C50.2706206,465.496637 49.256255,461.536676 47.2431582,458.068146 C47.2431582,458.068146 51.7120513,373.464932 52.7083947,362.303944 C53.7047381,351.142957 52.4153523,338.131598 47.4922439,331.860886 L48.8109338,327.939855 C59.8937562,329.698316 71.1251629,330.332998 82.3349579,329.834285 C81.1860848,332.530938 80.2073506,335.297262 79.4045361,338.116911 C78.5547139,341.582693 80.6646175,461.622039 79.4045361,467.775268 C78.1444548,473.928495 74.4228193,488.9224 74.4228193,488.9224 C74.4228193,488.9224 69.2945812,491.859501 71.3898329,495.193112 L94.9943795,495.193112 C94.9943795,495.193112 96.2398088,489.686047 90.598747,488.9224 L90.598747,467.775268 C90.598747,467.775268 110.203268,363.889978 113.573253,340.011343 L109.543923,326.794386 C113.558601,326.074794 117.675843,325.325834 121.924955,324.268478 C121.924955,324.268478 132.811471,233.218323 103.770993,191.393995 C103.770993,191.393995 105.749027,191.393995 105.954157,189.675792 C106.159286,187.957587 106.496285,176.635059 106.496285,176.635059 C106.320365,175.47909 105.318444,174.631791 104.151947,174.652516 C104.151947,174.652516 125.12006,155.754968 133.984586,104.443801 C133.97391,102.42101 131.775416,97.5438677 129.859693,96.907433 L125.556348,90.5910533 Z" id="Path" fill="#E39C75"></path>
                                    <path d="M81.7195693,10.6153843 C81.7195693,10.6153843 71.4630934,14.6832702 69.9978825,28.9575845 C69.9978825,28.9575845 71.2433118,47.8725196 75.4338148,56.5663407 C75.4338148,56.5663407 76.5766793,57.3740437 88.6207123,57.638383 C88.3083523,59.6423155 87.8877066,61.6277791 87.3606311,63.5860139 C87.3606311,63.5860139 82.9649986,64.8636532 68.0931084,63.5860139 C69.5195708,55.2960463 69.5195708,46.8225038 68.0931084,38.5325362 C65.6608584,25.9029989 64.6352109,4.62369688 82.9356943,2.31807204 C82.9356943,2.31807204 104.913857,-5.47993309 112.239911,13.2587759 C119.565965,31.9974848 113.705122,64.1587486 113.705122,64.1587486 L93.6463855,64.1587486 C93.6463855,64.1587486 99.6244457,54.8334508 101.514568,39.1933841 C101.514568,39.1933841 105.031074,38.9877869 104.825944,31.248524 C104.620815,23.5092609 99.5072289,30.5436194 99.5072289,30.5436194 C99.5072289,30.5436194 84.0346023,24.2729074 81.7195693,10.6153843 Z" id="Path" fill="#FFFFFF"></path>
                                    <path d="M39.6412237,91.2305389 L24.8909091,141.800492 L0,174.72097 L2.54084656,184.5 C13.6891015,178.168586 35.613409,159.829113 38.2959189,155.295635 C40.384899,150.334293 47.2393495,128.65268 57.4154348,95.5867116 L39.6412237,91.2305389 Z" id="Path-16" fill="#1C1C1C"></path>
                                    <path d="M124.938576,89.8730742 C114.410125,79.9040264 105.265507,74.6882583 105.265507,74.6882583 C98.3643645,83.2058534 85.2067711,89.8730742 85.2067711,89.8730742 C82.8917381,74.3211206 85.2067711,68.0504084 85.2067711,68.0504084 C85.2067711,68.0504084 51.7664699,77.3674188 46.0961041,91.2305389 L52.2395271,99.3158563 C52.2395271,99.3158563 48.972107,106.996377 49.6754082,114.074792 C50.3787093,121.153208 59.4044082,169.204191 59.4044082,169.204191 C70.2323162,177.530875 104.020078,174.725943 104.020078,174.725943 C104.020078,174.725943 125.12006,157.56098 133.984586,106.249813 C134.024757,104.234717 136.053731,102.47302 133.984586,99.0678686 L124.938576,89.8730742 Z" id="Path" fill="#1C1C1C"></path>
                                    <path d="M103.609819,191.482108 C88.6955297,192.338844 73.7356463,191.05308 59.1846264,187.663875 C59.1846264,187.663875 16.4737303,254.864764 7.57990052,313.562742 C11.2800937,315.979589 15.2057536,318.030503 19.3015873,319.686598 L48.7083689,327.95454 C59.7911914,329.713 71.022598,330.347684 82.232393,329.848969 L109.353446,326.911868 C113.368124,326.192279 117.485366,325.443318 121.734477,324.38596 C121.763782,324.356591 132.650298,233.277065 103.609819,191.482108 Z" id="Path" fill="#1C1C1C"></path>
                                    <path d="M105.792983,189.763903 C105.998113,188.075071 106.335111,176.723172 106.335111,176.723172 C106.159192,175.567203 105.157271,174.719904 103.990774,174.740629 C67.213982,176.870028 59.3751039,169.218878 59.3751039,169.218878 C59.3751039,169.218878 57.0161145,169.027967 56.810985,171.01051 C56.6058553,172.993053 56.6205075,186.033786 56.6205075,186.033786 C57.2932482,186.822031 58.1864532,187.389869 59.1846264,187.663875 L59.1846264,187.663875 C80.2397062,193.53808 103.609819,191.482108 103.609819,191.482108 C103.609819,191.482108 105.587854,191.452737 105.792983,189.763903 Z" id="Path" fill="#F3C44F"></path>
                                    <ellipse id="Oval" fill="url(#linearGradient-6)" cx="83.4045618" cy="96.907433" rx="2.15625" ry="2.16043557"></ellipse>
                                    <path d="M77.7488478,42.1304859 C76.3026326,41.3883214 74.621861,41.2510183 73.0748254,41.7486626 C73.0748254,41.7486626 73.8220829,43.5696656 77.7488478,42.1304859 Z" id="Path" fill="#000000" opacity="0.4" style="mix-blend-mode: multiply;"></path>
                                    <path d="M86.1884623,66.5084301 C84.5616901,66.2326922 82.9152069,66.090261 81.2653539,66.0825504 C78.8924288,73.1240233 78.4372059,80.6726009 79.9466641,87.9492727 C82.1298284,99.6976796 85.2067711,89.8877598 85.2067711,89.8877598 C84.133064,82.098677 84.465586,74.1795492 86.1884623,66.5084301 L86.1884623,66.5084301 Z" id="Path" fill="#FFFFFF"></path>
                                    <path d="M105.368072,72.3092059 C107.110341,73.2609685 108.433109,74.8330427 109.075056,76.7148586 C109.075056,76.7148586 101.499916,90.7542048 87.8588027,95.1598573 C84.3129925,95.7472778 85.2067711,89.8730742 85.2067711,89.8730742 C93.2620213,85.76332 100.185646,79.7316835 105.368072,72.3092059 Z" id="Path" fill="#FFFFFF"></path>
                                    <path d="M95.4925513,57.6236974 C95.4925513,57.6236974 79.9613162,58.3432873 75.3752062,56.5663407 C75.3752062,56.5663407 75.1554246,54.0404333 95.4925513,57.6236974 Z" id="Path" fill="#000000" opacity="0.4" style="mix-blend-mode: multiply;"></path>
                                    <path d="M103.053039,29.3394078 C101.177873,30.3887808 99.8121751,32.1608074 99.2727952,34.2443676 C98.6720588,37.431123 101.177569,38.209455 102.203217,36.9758724 C103.596743,34.6807278 103.907766,31.8858907 103.053039,29.3394078 L103.053039,29.3394078 Z" id="Path" fill="#000000" opacity="0.4" style="mix-blend-mode: multiply;"></path>
                                    <path d="M132.855428,98.1850722 L122.86269,87.9052162 C119.294705,84.8238064 116.930252,82.8514888 115.769328,81.988263 C114.027942,80.6934243 111.471202,78.9703039 111.471202,80.4706384 C111.471202,81.9709728 105.840815,108.582412 105.401252,116.541958 C104.961689,124.501504 97.660128,131.741459 93.2644955,134.06177 C88.8688631,136.38208 95.4925513,161.746262 77.9470767,174.460075 L103.990774,174.725943 C103.990774,174.725943 123.038515,146.823477 132.489125,100.123559 C132.620994,99.56551 132.723559,98.8312345 132.855428,98.1850722 Z" id="Path" fill="#D8D8D8" opacity="0.4" style="mix-blend-mode: multiply;"></path>
                                    <path d="M35.2172294,114.734111 C32.8604325,106.049885 34.0448882,100.214842 38.7705964,97.2289846 C45.859159,92.750198 53.3017661,100.127692 57.9538106,113.344649 C61.0551736,122.155955 66.1062874,136.79189 73.1071522,157.252455 L136.416334,200.177805 L129.533627,212.730539 C91.3441073,193.642466 63.4964575,174.479804 57.9538106,171.302689 C52.4111637,168.125577 44.8323033,149.269382 35.2172294,114.734111 Z" id="Path-3" fill="#1C1C1C" transform="translate(85.228590, 154.323417) scale(-1, 1) translate(-85.228590, -154.323417) "></path>
                                    <path d="M46.5437129,96.6786934 C43.6210038,100.520083 42.8898149,105.328605 44.3501464,111.104259 C46.5780201,119.915564 62.087919,165.405603 63.9070314,165.405603 C65.1197728,165.405603 92.2439066,184.137664 136.389493,207.568612 L136.389493,207.730539 L134.193015,211.421131 L127.517111,207.568612 C90.1079848,186.92735 68.6485268,175.027578 63.1387377,171.869298 C57.5960908,168.692183 50.0172305,149.83599 40.4021564,115.300719 C38.0453596,106.616492 39.2298153,100.78145 43.9555235,97.7955924 C44.8149172,97.2525991 45.6795148,96.8838734 46.5437129,96.6786934 Z" id="Combined-Shape" fill="#000000" transform="translate(87.807634, 154.049912) scale(-1, 1) translate(-87.807634, -154.049912) "></path>
                                    <path d="M109.38275,326.882497 C113.397428,326.162908 117.51467,325.413947 121.763782,324.356591 C121.763782,324.356591 132.650298,233.306436 103.609819,191.482108 C100.679398,191.643648 97.9248013,191.70239 95.2288132,191.70239 L95.2288132,191.70239 C95.2288132,191.70239 115.228941,267.156534 94.0712966,328.556647 L109.38275,326.882497 Z" id="Path" fill="#000000" opacity="0.4" style="mix-blend-mode: multiply;"></path>
                                    <path d="M69.9392741,28.9575845 C69.9392741,28.9575845 73.1627381,15.7406269 82.1591325,12.6126134 L81.7195693,10.6153843 C81.7195693,10.6153843 71.5070496,14.38956 69.9392741,28.9575845 Z" id="Path" fill="url(#linearGradient-7)" opacity="0.4" style="mix-blend-mode: multiply;"></path>
                                    <path d="M80.2148947,70.009527 L81.2653539,66.0825504 C71.3281831,62.8596554 65.6027733,61.0126372 64.0891249,60.5414957 C61.8186523,59.8347833 56.7629914,57.8761037 51.7007852,65.113509 C46.6385789,72.3509144 40.0759186,88.3022902 38.2447833,95.9162943 C37.1562995,100.442295 43.3414763,95.8900096 59.4263862,88.3022902 L80.2148947,70.009527 Z" id="Path-23" fill="#1C1C1C"></path>
                                </g>
                            </g>
                        </g>
                        <path d="M253,295.446391 L262.331939,295 C268.769168,296.412116 273.608768,298.931811 276.850738,302.559087 C272.057315,306.186362 264.096584,308.172716 252.968545,308.518148 C242.318426,308.172716 234.596655,306.186362 229.803232,302.559087 C233.045203,298.931811 237.666812,296.412116 243.668061,295 L253,295.446391 Z" id="Combined-Shape" fill="#F3C44F"></path>
                        <path d="M245.509234,290.039945 C245.190186,289.615488 245,289.08088 245,288.5 C245,287.686026 245.373446,286.96291 245.9516,286.506419 C245.90488,272.042537 243.518706,260.469572 238.79308,251.787524 C229.992231,244.073902 224.727871,227.783351 223,202.915869 L223.118222,202.915869 C223.039974,202.780944 223,202.644304 223,202.506213 C223,200.0175 235.983742,198 252,198 C268.016258,198 281,200.0175 281,202.506213 C281,202.644304 280.960026,202.780944 280.881778,202.915869 L281,202.915869 C280.011271,227.951951 275.177206,244.294406 266.497804,251.943235 C261.978956,260.552401 259.682765,271.981697 259.609232,286.231123 C260.430483,286.628173 261,287.494806 261,288.5 C261,289.08088 260.809814,289.615488 260.490766,290.039945 C261.914163,290.274168 263,291.510279 263,293 C263,294.656854 261.693461,295 260,296 C259.790858,296.1235 259.587617,296.196009 259.39201,296.225119 C257.217737,296.995829 255.087068,297.381184 253,297.381184 C250.856743,297.381184 248.667505,296.9748 246.432285,296.162032 C246.287383,296.136578 246.142653,296.083801 246,296 C244.6,295.177578 243,294.656854 243,293 C243,291.510279 244.085837,290.274168 245.509234,290.039945 Z" id="Combined-Shape" fill="#F3C44F"></path>
                        <path d="M246.933008,260.37295 C244.219442,261.779421 242.62283,264.255461 242.143171,267.801073 C241.663511,271.346684 242.38909,275.58187 244.319907,280.506633 L256.858434,284 C261.388221,282.415587 264.807819,280.862979 267.117229,279.342177 C270.581344,277.060973 262.977857,267.801073 259.36614,267.801073 C256.958328,267.801073 253.155999,266.470878 247.959153,263.810488 L246.933008,260.37295 Z" id="Path-23" fill="#E39C75" transform="translate(255.000000, 272.186475) scale(-1, 1) translate(-255.000000, -272.186475) "></path>
                        <ellipse id="Oval" fill="#C59B32" cx="252" cy="203" rx="26" ry="2"></ellipse>
                        <path d="M206.118595,293.690592 L216.636957,302.908666 C230.747807,306.648321 239.002694,308.518148 241.401616,308.518148 C245,308.518148 238.362846,299.421346 235.719113,297.381184 C233.956625,296.021077 231.984665,294.790879 229.803232,293.690592 L237.076191,297.381184 L238.788454,296.570575 C234.350968,293.280586 231.131174,291.423728 229.129072,291 C227.126969,290.576272 221.069193,288.909606 210.955744,286 L206.118595,293.690592 Z" id="Path-2" fill="#E39C75"></path>
                        <path d="M224,205 C224,205 224,205.670809 224,207.012427 C225.902733,232.653882 231.228103,239.469274 234.229721,245.469468 C215.716202,242.067796 205.610794,228.577974 203.913497,205 L224,205 Z M230.481639,239.564237 C226.83824,231.678989 224.34436,222.023285 223,210.597125 C214.950128,210.517633 210.60127,210.517633 209.953428,210.597125 C211.719846,225.373496 218.234091,234.899043 229.496162,239.173764 C230.153146,239.43408 230.481639,239.564237 230.481639,239.564237 Z" id="Combined-Shape" fill="#F3C44F"></path>
                        <path d="M290,205 C290,205 290,205.670809 290,207.012427 C291.902733,232.653882 297.228103,239.469274 300.229721,245.469468 C281.716202,242.067796 271.610794,228.577974 269.913497,205 L290,205 Z M296.481639,239.564237 C292.83824,231.678989 290.34436,222.023285 289,210.597125 C280.950128,210.517633 276.60127,210.517633 275.953428,210.597125 C277.719846,225.373496 284.234091,234.899043 295.496162,239.173764 C296.153146,239.43408 296.481639,239.564237 296.481639,239.564237 Z" id="Combined-Shape" fill="#F3C44F" transform="translate(285.071609, 225.234734) scale(-1, 1) translate(-285.071609, -225.234734) "></path>
                        <polygon id="Path-73" fill="#885D46" points="288.484216 218.613259 292.869255 217.720677 292.18177 219.999572"></polygon>
                        <path d="M308.158036,241.447353 C300.864357,240.767361 296.416857,240.427365 294.815537,240.427365 C292.413557,240.427365 282.684394,236.154371 282.003167,233.311248 C281.321941,230.468125 286.287047,220.321089 287.770215,218.938199 C288.758993,218.016272 291.829704,219.056129 296.982348,222.05777 L297.870564,218.938199 C301.498679,220.62631 304.038384,222.362991 305.489678,224.148242 C306.940973,225.933492 308.448099,227.868461 310.011057,229.95315 L308.158036,241.447353 Z" id="Path-4" fill="#E39C75"></path>
                        <path d="M223.513724,214.788155 C222.280489,215.4976 221.663872,216.574403 221.663872,218.018564 C221.663872,220.184806 221.663872,229.95315 223.513724,231.775278 C225.363576,233.597407 226.998539,234.949578 228.59619,234.949578 C230.193841,234.949578 244.393608,234.843695 245.8785,231.775278 C247.363391,228.706861 238.170935,221.567826 235.278659,220.253013 C233.350474,219.37647 229.579351,218.19001 223.965289,216.693633 L223.513724,214.788155 Z" id="Path-74" fill="#E39C75"></path>
                    </g>
                </g>
            </g>
        </g>
    </g>
</svg>