<?xml version="1.0" encoding="UTF-8"?>
<svg width="67px" height="66px" viewBox="0 0 67 66" version="1.1" xmlns="http://www.w3.org/2000/svg" xmlns:xlink="http://www.w3.org/1999/xlink">
    <!-- Generator: sketchtool 53.2 (72643) - https://sketchapp.com -->
    <title>0E43A429-086C-4DBC-9F5E-4C62D80D813B</title>
    <desc>Created with sketchtool.</desc>
    <g id="Design" stroke="none" stroke-width="1" fill="none" fill-rule="evenodd">
        <g id="5a-Services" transform="translate(-271.000000, -1501.000000)">
            <g id="content-" transform="translate(0.000000, 87.000000)">
                <g id="Section-1" transform="translate(271.000000, 779.000000)">
                    <g id="4" transform="translate(0.500000, 635.000000)">
                        <g id="etude">
                            <path d="M17.9471964,2.82762546e-15 L48.0528036,7.25088215e-16 C54.2934348,-4.21297134e-16 56.5564384,0.649779278 58.8379199,1.86992893 C61.1194014,3.09007857 62.9099214,4.88059859 64.1300711,7.16208008 C65.3502207,9.44356156 66,11.7065652 66,17.9471964 L66,48.0528036 C66,54.2934348 65.3502207,56.5564384 64.1300711,58.8379199 C62.9099214,61.1194014 61.1194014,62.9099214 58.8379199,64.1300711 C56.5564384,65.3502207 54.2934348,66 48.0528036,66 L17.9471964,66 C11.7065652,66 9.44356156,65.3502207 7.16208008,64.1300711 C4.88059859,62.9099214 3.09007857,61.1194014 1.86992893,58.8379199 C0.649779278,56.5564384 3.83357843e-15,54.2934348 3.06932154e-15,48.0528036 L4.83392144e-16,17.9471964 C-2.80864756e-16,11.7065652 0.649779278,9.44356156 1.86992893,7.16208008 C3.09007857,4.88059859 4.88059859,3.09007857 7.16208008,1.86992893 C9.44356156,0.649779278 11.7065652,3.97401081e-15 17.9471964,2.82762546e-15 Z" id="Rectangle-Copy-5" fill="#59C7DD" fill-rule="nonzero"></path>
                            <g id="Group" transform="translate(18.000000, 18.000000)" stroke-linecap="round" stroke-linejoin="round">
                                <g id="performance-increase">
                                    <path d="M6.11010516,21.8852857 L1.94412437,21.8852857 C1.36892245,21.8852857 0.902629171,22.3329273 0.902629171,22.8851211 L0.902629171,29.8839689 L7.15160035,29.8839689 L7.15160035,22.8851211 C7.15160035,22.3329273 6.68530707,21.8852857 6.11010516,21.8852857 Z" id="Shape" stroke="#1C1C1C" stroke-width="1.5" fill="#1C1C1C"></path>
                                    <path d="M16.5250571,15.8862734 L12.3590763,15.8862734 C11.7838744,15.8862734 11.3175811,16.333915 11.3175811,16.8861088 L11.3175811,29.8839689 L17.5665523,29.8839689 L17.5665523,16.8861088 C17.5665523,16.333915 17.100259,15.8862734 16.5250571,15.8862734 Z" id="Shape" stroke="#1C1C1C" stroke-width="1.5" fill="#1C1C1C"></path>
                                    <path d="M26.9400091,11.8869319 L22.7740283,11.8869319 C22.1988264,11.8869319 21.7325331,12.3345734 21.7325331,12.8867672 L21.7325331,29.8839689 L27.9815043,29.8839689 L27.9815043,12.8867672 C27.9815043,12.3345734 27.515211,11.8869319 26.9400091,11.8869319 Z" id="Shape" stroke="#1C1C1C" stroke-width="1.5" fill="#1C1C1C"></path>
                                    <path d="M0.902629171,12.9621023 L23.2156223,3.23437055" id="Shape" stroke="#F2F2F2" stroke-width="2.5"></path>
                                    <polyline id="Shape" stroke="#F2F2F2" stroke-width="2.5" transform="translate(22.313183, 3.740684) rotate(21.000000) translate(-22.313183, -3.740684) " points="25.0136547 6.44115566 25.0136547 1.04021317 19.6127123 1.04021317"></polyline>
                                </g>
                            </g>
                        </g>
                    </g>
                </g>
            </g>
        </g>
    </g>
</svg>