<?xml version="1.0" encoding="UTF-8"?>
<svg width="67px" height="66px" viewBox="0 0 67 66" version="1.1" xmlns="http://www.w3.org/2000/svg" xmlns:xlink="http://www.w3.org/1999/xlink">
    <!-- Generator: sketchtool 53.2 (72643) - https://sketchapp.com -->
    <title>FE4964C0-CD1D-4026-A9DA-DC8AFB6E0269</title>
    <desc>Created with sketchtool.</desc>
    <g id="Design" stroke="none" stroke-width="1" fill="none" fill-rule="evenodd">
        <g id="5a-Services" transform="translate(-271.000000, -1117.000000)">
            <g id="content-" transform="translate(0.000000, 87.000000)">
                <g id="Section-1" transform="translate(271.000000, 779.000000)">
                    <g id="1" transform="translate(0.500000, 251.000000)">
                        <g id="board">
                            <path d="M17.9471964,2.82762546e-15 L48.0528036,7.25088215e-16 C54.2934348,-4.21297134e-16 56.5564384,0.649779278 58.8379199,1.86992893 C61.1194014,3.09007857 62.9099214,4.88059859 64.1300711,7.16208008 C65.3502207,9.44356156 66,11.7065652 66,17.9471964 L66,48.0528036 C66,54.2934348 65.3502207,56.5564384 64.1300711,58.8379199 C62.9099214,61.1194014 61.1194014,62.9099214 58.8379199,64.1300711 C56.5564384,65.3502207 54.2934348,66 48.0528036,66 L17.9471964,66 C11.7065652,66 9.44356156,65.3502207 7.16208008,64.1300711 C4.88059859,62.9099214 3.09007857,61.1194014 1.86992893,58.8379199 C0.649779278,56.5564384 3.83357843e-15,54.2934348 3.06932154e-15,48.0528036 L4.83392144e-16,17.9471964 C-2.80864756e-16,11.7065652 0.649779278,9.44356156 1.86992893,7.16208008 C3.09007857,4.88059859 4.88059859,3.09007857 7.16208008,1.86992893 C9.44356156,0.649779278 11.7065652,3.97401081e-15 17.9471964,2.82762546e-15 Z" id="Rectangle-Copy-5" fill="#00585E" fill-rule="nonzero"></path>
                            <g id="camembert" transform="translate(15.500000, 15.000000)">
                                <circle id="Oval" fill="#30C554" cx="17.1157419" cy="18.4732895" r="17.0430993"></circle>
                                <g id="Oval" transform="translate(16.996559, 0.067649)" fill="#FFFFFF">
                                    <circle cx="0.119182513" cy="18.4056403" r="17.0430993"></circle>
                                </g>
                                <ellipse id="Oval" fill="#FFFFFF" cx="17.1157419" cy="18.4732895" rx="7.38931579" ry="7.50849831"></ellipse>
                            </g>
                        </g>
                    </g>
                </g>
            </g>
        </g>
    </g>
</svg>