<?xml version="1.0" encoding="UTF-8"?>
<svg width="67px" height="66px" viewBox="0 0 67 66" version="1.1" xmlns="http://www.w3.org/2000/svg" xmlns:xlink="http://www.w3.org/1999/xlink">
    <!-- Generator: sketchtool 53.2 (72643) - https://sketchapp.com -->
    <title>7D30F87B-FDE2-4619-96F6-65356CA52853</title>
    <desc>Created with sketchtool.</desc>
    <g id="Design" stroke="none" stroke-width="1" fill="none" fill-rule="evenodd">
        <g id="5a-Services" transform="translate(-951.000000, -1117.000000)">
            <g id="content-" transform="translate(0.000000, 87.000000)">
                <g id="Section-1" transform="translate(271.000000, 779.000000)">
                    <g id="3" transform="translate(680.500000, 251.000000)">
                        <g id="document">
                            <path d="M17.9471964,2.82762546e-15 L48.0528036,7.25088215e-16 C54.2934348,-4.21297134e-16 56.5564384,0.649779278 58.8379199,1.86992893 C61.1194014,3.09007857 62.9099214,4.88059859 64.1300711,7.16208008 C65.3502207,9.44356156 66,11.7065652 66,17.9471964 L66,48.0528036 C66,54.2934348 65.3502207,56.5564384 64.1300711,58.8379199 C62.9099214,61.1194014 61.1194014,62.9099214 58.8379199,64.1300711 C56.5564384,65.3502207 54.2934348,66 48.0528036,66 L17.9471964,66 C11.7065652,66 9.44356156,65.3502207 7.16208008,64.1300711 C4.88059859,62.9099214 3.09007857,61.1194014 1.86992893,58.8379199 C0.649779278,56.5564384 3.83357843e-15,54.2934348 3.06932154e-15,48.0528036 L4.83392144e-16,17.9471964 C-2.80864756e-16,11.7065652 0.649779278,9.44356156 1.86992893,7.16208008 C3.09007857,4.88059859 4.88059859,3.09007857 7.16208008,1.86992893 C9.44356156,0.649779278 11.7065652,3.97401081e-15 17.9471964,2.82762546e-15 Z" id="Rectangle" fill="#F3C44F" fill-rule="nonzero"></path>
                            <g id="Group" transform="translate(20.500000, 19.000000)" stroke-linecap="round" stroke-linejoin="round" stroke-width="1.5">
                                <g id="book-book-pages">
                                    <path d="M2.00013385,0.12837582 L22.0014723,0.12837582 C23.1061158,0.12837582 24.0016062,1.02386625 24.0016062,2.12850967 L24.0016062,23.1299151 C24.0016062,24.2345585 23.1061158,25.1300489 22.0014723,25.1300489 L18.0012046,25.1300489" id="Shape" stroke="#FFFFFF" fill="#FFFFFF"></path>
                                    <path d="M18.0012046,27.4982074 C18.0013366,28.1229621 17.709534,28.711893 17.2123801,29.0902533 C16.7152262,29.4686136 16.0698334,29.5929377 15.4677018,29.4263364 L1.46676482,25.5367428 C0.60185279,25.2974369 0.00220432081,24.5113522 -1.72349965e-12,23.6139475 L-1.72349965e-12,2.12850967 C-0.00013193978,1.50375494 0.291670668,0.914824057 0.78882456,0.536463779 C1.28597845,0.158103502 1.93137124,0.0337793595 2.53350287,0.200380639 L16.5344398,4.72201656 C17.4007804,4.96172059 18.0007952,5.74992177 18.0012046,6.64881217 L18.0012046,27.4982074 Z" id="Shape" stroke="#1C1C1C" fill="#1C1C1C"></path>
                                </g>
                            </g>
                        </g>
                    </g>
                </g>
            </g>
        </g>
    </g>
</svg>