<?xml version="1.0" encoding="UTF-8"?>
<svg width="381px" height="522px" viewBox="0 0 381 522" version="1.1" xmlns="http://www.w3.org/2000/svg" xmlns:xlink="http://www.w3.org/1999/xlink">
    <!-- Generator: Sketch 54.1 (76490) - https://sketchapp.com -->
    <title>Illustration</title>
    <desc>Created with Sketch.</desc>
    <defs>
        <linearGradient x1="-156.164384%" y1="53.3396025%" x2="132.534247%" y2="48.579847%" id="linearGradient-1">
            <stop stop-color="#FFFFFF" offset="0%"></stop>
            <stop stop-color="#808184" offset="100%"></stop>
        </linearGradient>
    </defs>
    <g id="Page-1" stroke="none" stroke-width="1" fill="none" fill-rule="evenodd">
        <g id="Illustration" transform="translate(-53.000000, -44.000000)">
            <path d="M355.519095,305.756079 C355.567708,204.282346 273.300898,122.06104 171.771031,122.109653 C70.2411637,122.158267 -12.1044638,204.458391 -12.1530772,305.932124 C89.1338817,305.883627 283.826596,305.790405 355.519095,305.756079 Z" id="Oval" fill="#1C1C1C" fill-rule="nonzero" transform="translate(171.683020, 214.020878) rotate(-60.000000) translate(-171.683020, -214.020878) "></path>
            <circle id="Oval" fill="#F2F2F2" fill-rule="nonzero" cx="253.5" cy="260" r="114.5"></circle>
            <g id="illu-services" transform="translate(41.000000, 0.500000)">
                <g id="man" transform="translate(207.802956, 283.094779) scale(-1, 1) translate(-207.802956, -283.094779) translate(0.802956, 0.094779)">
                    <path d="M221.452714,233.136543 C221.452714,233.136543 217.672965,228.56683 216.539041,227.2882 C215.405116,226.00957 206.311485,223.730273 206.311485,223.730273 L206.311485,219.193916 C206.311485,219.193916 218.795773,215.758292 218.33998,214.046039 C217.884187,212.333787 218.33998,203.27219 218.33998,203.27219 C220.373653,202.351201 222.194366,201.018594 223.687213,199.35847 C221.975209,195.44475 212.992747,177.121424 212.992747,177.121424 C219.662892,167.114753 212.992747,167.570613 212.992747,167.570613 C194.705433,169.527473 181.598599,178.344462 177.918902,181.768967 C174.239205,185.193472 175.22861,188.873703 175.22861,188.873703 C180.131167,207.474992 190.40319,215.558158 190.40319,215.558158 L190.40319,225.653777 C190.40319,225.653777 184.211072,228.288867 182.832575,229.422957 C181.454079,230.557046 179.942179,234.203922 179.942179,234.203922 C179.942179,234.203922 157.119167,242.442747 143.990098,253.105411 L163.320941,328.022019 L155.251526,369.293978 L141.911237,457.452748 L131.628096,565.168998 L143.990098,565.168998 C143.990098,565.168998 167.991503,483.458973 170.815198,476.721147 C173.638892,469.983323 168.591816,456.707806 168.591816,456.707806 L190.380956,407.652881 L190.380956,444.166112 C190.380956,444.166112 182.098859,453.060931 180.987169,464.457416 C179.875478,475.853902 182.098859,565.15788 182.098859,565.15788 L195.00559,565.15788 C195.00559,565.15788 218.239928,462.978653 220.819051,452.282633 C223.398173,441.586613 233.98147,372.829668 233.98147,372.829668 L239.262001,369.64977 C239.262001,369.64977 235.571188,348.257731 229.256784,336.460978 C229.256784,336.460978 235.52672,312.111412 237.738985,292.931961 C237.738985,292.931961 221.452714,233.136543 221.452714,233.136543 Z" id="Path" fill="#E3E3E3" fill-rule="nonzero"></path>
                    <path d="M195.494734,238.505596 C189.161513,261.535788 185.994902,284.759074 185.994902,308.175456 C186.131999,312.736291 183.643809,311.913907 178.530332,305.708301 L187.695861,239.215987 L192.248597,237.795205 L195.494734,238.505596 Z" id="Path-12" fill="#D8D8D8" fill-rule="nonzero"></path>
                    <path d="M217.552335,235.018416 L212.598734,235.994004 C216.637228,256.74001 218.973419,272.484225 219.607308,283.226648 C220.241196,293.969071 220.595085,316.010525 220.668974,349.351011 L224.574676,347.773637 L227.372468,310.754953 L224.574676,266.280861 L217.552335,235.018416 Z" id="Path-11" fill="#D8D8D8" fill-rule="nonzero"></path>
                    <ellipse id="Oval" fill="#1C1C1C" fill-rule="nonzero" cx="200.341706" cy="264.991112" rx="1.63599889" ry="1.63568409"></ellipse>
                    <ellipse id="Oval" fill="#FFD24A" fill-rule="nonzero" cx="200.341706" cy="287.228158" rx="1.63599889" ry="1.63568409"></ellipse>
                    <ellipse id="Oval" fill="#FFD24A" fill-rule="nonzero" cx="200.341706" cy="309.465204" rx="1.63599889" ry="1.63568409"></ellipse>
                    <ellipse id="Oval" fill="#FFD24A" fill-rule="nonzero" cx="200.341706" cy="331.702251" rx="1.63599889" ry="1.63568409"></ellipse>
                    <path d="M234.048171,372.829668 L239.328703,369.64977 C239.328703,369.64977 237.82792,360.98844 235.126511,351.637763 L228.189561,345.088953 C224.034029,349.454826 215.817396,351.637763 203.539661,351.637763 C191.261926,351.637763 176.814889,349.454826 160.19855,345.088953 C160.19855,350.313688 160.19855,353.326808 160.19855,354.128312 C160.19855,354.929816 158.545837,359.985036 155.240409,369.293978 L141.90012,457.452748 L131.61698,565.168998 L143.978981,565.168998 C143.978981,565.168998 167.980386,483.458973 170.804081,476.721147 C173.627775,469.983323 168.580699,456.707806 168.580699,456.707806 L190.369839,407.652881 L190.369839,444.166112 C190.369839,444.166112 182.087742,453.060931 180.976052,464.457416 C179.864361,475.853902 182.087742,565.15788 182.087742,565.15788 L194.994473,565.15788 C194.994473,565.15788 218.228811,462.978653 220.807934,452.282633 C223.387056,441.586613 234.048171,372.829668 234.048171,372.829668 Z" id="Path" fill="#1C1C1C" fill-rule="nonzero"></path>
                    <path d="M206.508447,242.365114 L206.51159,242.364918 C206.51159,242.364918 212.825993,269.772077 213.926567,313.957087 C211.369141,318.965704 208.275319,323.681672 204.699534,328.022019 C201.996568,323.461271 199.525471,318.766988 197.295673,313.957087 C197.295673,313.957087 202.175996,267.259291 201.342227,242.687355 L197.295673,237.261515 L197.295673,235.838345 L202.342749,229.300653 L208.957309,236.783419 L206.508447,242.365114 Z" id="Path-3" fill="#F3C44F" fill-rule="nonzero"></path>
                    <path d="M144.034566,253.060937 L163.320941,328.022019 L154.929136,368.458458 L154.929136,371.651103 C172.182577,378.188795 200.341706,376.329579 200.341706,376.329579 C203.921733,345.088953 206.951222,320.623073 205.800108,317.011374 C197.295673,290.328139 192.570987,237.761849 192.570987,237.761849 L181.220624,231.613306 C180.764361,232.43949 180.352451,233.28941 179.986647,234.159448 C179.986647,234.159448 157.163635,242.398273 144.034566,253.060937 Z" id="Path" fill="#1C1C1C" fill-rule="nonzero"></path>
                    <path d="M316.043284,276.965808 C301.837246,276.38427 289.500668,276.646392 273.954896,274.434362 C258.409123,272.222333 252.620256,263.516207 252.500449,263.355428 C237.821134,243.655878 236.559496,242.202681 231.414374,239.158801 C221.519416,233.304894 221.452714,233.136543 221.452714,233.136543 C221.452714,233.136543 218.673487,229.800986 217.161588,228.010904 L215.960962,235.060048 C215.960962,235.060048 213.926567,290.172051 206.066913,315.359672 C205.401955,317.490647 207.83495,351.469485 209.383546,376.329579 C213.716893,376.14948 230.102538,374.724997 234.003704,372.829668 L239.284235,369.64977 C239.284235,369.64977 235.593421,348.257731 229.279018,336.460978 C229.279018,336.460978 233.009614,322.548835 235.729954,307.82952 C236.139203,305.615138 236.139203,301.993557 237.710412,295.578467 C239.28162,289.163376 256.471006,296.852747 263.543042,297.539014 C270.615077,298.225282 303.117375,294.617158 317.020721,291.666362 C317.020721,289.855416 317.020721,287.062558 316.043284,276.965808 Z" id="Path" fill="#1C1C1C" fill-rule="nonzero"></path>
                    <path d="M233.981471,378.18702 C233.981471,378.18702 232.208593,378.18702 229.109378,377.367608 L218.243557,372.829668 L220.222209,386.014431 L233.981471,390.578064 C233.981471,363.694722 233.981471,378.18702 233.981471,378.18702 Z" id="Path-10" fill="#000000" fill-rule="nonzero" opacity="0.1" style="mix-blend-mode: multiply;" transform="translate(226.112514, 381.703866) scale(-1, 1) translate(-226.112514, -381.703866) "></path>
                    <path d="M320.689293,270.274246 C325.559478,269.979256 329.106832,270.779695 331.331352,272.675562 C333.555872,274.571429 334.706451,275.95092 334.197932,276.495402 C333.935684,276.949627 333.519679,277.012263 332.949915,276.68331 C330.443028,275.235958 328.979161,274.876745 328.558316,275.605671 C331.219735,279.407715 333.482071,281.884122 335.345323,283.034894 C339.474522,285.585148 345.677856,286.024739 347.261649,287.826679 C348.060707,288.735797 347.008543,290.558199 344.105156,293.293884 C334.676749,296.539 320.377153,292.160543 314.185502,283.494017 C314.98927,281.707046 317.157201,277.300455 320.689293,270.274246 Z" id="Path-14" fill="#E39C75" fill-rule="nonzero" transform="translate(330.852914, 282.289599) rotate(-30.000000) translate(-330.852914, -282.289599) "></path>
                    <g id="Group-2" transform="translate(206.873439, 154.690045) rotate(-10.000000) translate(-206.873439, -154.690045) translate(18.873439, 31.190045)">
                        <g id="1" transform="translate(298.701986, 169.474561)" fill-rule="nonzero">
                            <path d="M20.276695,11.4493643 L56.620368,11.4442491 C61.4915189,11.4437875 65.4407412,15.3922614 65.4412027,20.2634124 C65.4412028,20.2639695 65.4412028,20.2645267 65.4412027,20.2650839 L65.4344159,56.6069528 C65.4339544,61.477451 61.4857508,65.4256545 56.6152526,65.426116 L20.2715798,65.4329029 C15.4004289,65.4333645 11.4512066,61.4848906 11.450745,56.6137397 C11.450745,56.6131825 11.450745,56.6126253 11.450745,56.6120681 L11.4575319,20.2701993 C11.4579934,15.3997011 15.406197,11.4514975 20.2766952,11.451036 L20.276695,11.4493643 Z" id="Rectangle-Copy-5" fill="#F3C44F" transform="translate(38.445974, 38.438576) rotate(40.000000) translate(-38.445974, -38.438576) "></path>
                            <g id="Group" transform="translate(39.000000, 37.000000) rotate(-140.000000) translate(-39.000000, -37.000000) translate(29.000000, 25.000000)">
                                <g id="book-book-pages">
                                    <path d="M1.60010708,0.102700656 L17.6011779,0.102700656 C18.4848926,0.102700656 19.2012849,0.819092997 19.2012849,1.70280773 L19.2012849,18.5039321 C19.2012849,19.3876468 18.4848926,20.1040391 17.6011779,20.1040391 L14.4009637,20.1040391" id="Shape" stroke="#FFFFFF" fill="#FFFFFF"></path>
                                    <path d="M14.4009637,21.9985659 C14.4010693,22.4983697 14.1676272,22.9695144 13.7699041,23.2722026 C13.3721809,23.5748909 12.8558667,23.6743502 12.3741614,23.5410691 L1.17341186,20.4293942 C0.481482232,20.2379495 0.00176345665,19.6090818 -1.37666705e-12,18.891158 L-1.37666705e-12,1.70280773 C-0.000105551824,1.20300395 0.233336535,0.731859246 0.631059648,0.429171024 C1.02878276,0.126482802 1.54509699,0.0270234876 2.0268023,0.160304511 L13.2275518,3.77761325 C13.9206244,3.96937648 14.4006361,4.59993742 14.4009637,5.31904973 L14.4009637,21.9985659 Z" id="Shape" stroke="#1C1C1C" fill="#1C1C1C"></path>
                                </g>
                            </g>
                        </g>
                        <g id="2" transform="translate(258.957188, 42.707766)">
                            <path d="M17.0022705,8.1789369 L53.3490206,8.17559808 C58.2201716,8.17529683 62.1692639,12.1239008 62.1695651,16.9950517 C62.1695651,16.9954154 62.1695651,16.9957791 62.1695651,16.9961428 L62.1651354,53.3349347 C62.1648341,58.2056596 58.2164067,62.154087 53.3456818,62.1543882 L16.9989318,62.1588181 C12.1277808,62.1591194 8.17868853,58.2105155 8.17838727,53.3393645 C8.17838725,53.3390008 8.17838725,53.3386372 8.17838727,53.3382735 L8.18281702,16.9994816 C8.18311829,12.1287567 12.1315457,8.18032922 17.0022706,8.18002799 L17.0022705,8.1789369 Z" id="Rectangle-Copy-5" fill="#8035C7" fill-rule="nonzero" transform="translate(35.173976, 35.167208) rotate(20.000000) translate(-35.173976, -35.167208) "></path>
                            <g id="Group" transform="translate(35.000000, 35.000000) scale(-1, 1) rotate(-20.000000) translate(-35.000000, -35.000000) translate(24.000000, 23.000000)">
                                <g id="performance-increase">
                                    <path d="M4.80079691,17.5082286 L1.52752629,17.5082286 C1.07558193,17.5082286 0.709208634,17.8663418 0.709208634,18.3080969 L0.709208634,23.9071751 L5.61911456,23.9071751 L5.61911456,18.3080969 C5.61911456,17.8663418 5.25274127,17.5082286 4.80079691,17.5082286 Z" id="Shape" stroke="#1C1C1C" stroke-width="1.19999993" fill="#1C1C1C" fill-rule="nonzero"></path>
                                    <path d="M12.9839735,12.7090187 L9.71070284,12.7090187 C9.25875848,12.7090187 8.89238518,13.067132 8.89238518,13.508887 L8.89238518,23.9071751 L13.8022911,23.9071751 L13.8022911,13.508887 C13.8022911,13.067132 13.4359178,12.7090187 12.9839735,12.7090187 Z" id="Shape" stroke="#1C1C1C" stroke-width="1.19999993" fill="#1C1C1C" fill-rule="nonzero"></path>
                                    <path d="M21.16715,9.50954548 L17.8938794,9.50954548 C17.441935,9.50954548 17.0755617,9.86765872 17.0755617,10.3094138 L17.0755617,23.9071751 L21.9854677,23.9071751 L21.9854677,10.3094138 C21.9854677,9.86765872 21.6190944,9.50954548 21.16715,9.50954548 Z" id="Shape" stroke="#1C1C1C" stroke-width="1.19999993" fill="#1C1C1C" fill-rule="nonzero"></path>
                                    <path d="M0.709208634,10.3696819 L18.2408461,2.58749644" id="Shape" stroke="#F2F2F2" stroke-width="1.99999988"></path>
                                    <polyline id="Shape" stroke="#F2F2F2" stroke-width="1.99999988" transform="translate(17.531787, 2.992548) rotate(21.000000) translate(-17.531787, -2.992548) " points="19.6714476 5.16087711 19.6456338 0.85003212 15.3921271 0.824218292"></polyline>
                                </g>
                            </g>
                        </g>
                        <g id="3" transform="translate(117.983228, 0.789615)" fill-rule="nonzero">
                            <path d="M20.2724818,11.4450185 L56.6143508,11.450134 C61.484849,11.4505955 65.4330526,15.3987991 65.4335141,20.2692973 L65.440301,56.6129701 C65.4407626,61.484121 61.4922887,65.4333433 56.6211377,65.4338049 C56.6205805,65.4338049 56.6200234,65.4338049 56.6194662,65.4338049 L20.2775973,65.427018 C15.4070991,65.4265565 11.4588956,61.4783529 11.4584341,56.6078547 L11.4516472,20.2641819 C11.4511856,15.393031 15.3996595,11.4438087 20.2708104,11.4433471 C20.2713676,11.4433471 20.2719248,11.4433471 20.272482,11.4433471 L20.2724818,11.4450185 Z" id="Rectangle-Copy-5" fill="#00585E" transform="translate(38.445974, 38.438576) rotate(130.000000) translate(-38.445974, -38.438576) "></path>
                            <g id="camembert" transform="translate(23.015192, 24.826352)">
                                <ellipse id="Oval" fill="#30C554" cx="14.6925936" cy="13.881261" rx="13.6344795" ry="13.7291633"></ellipse>
                                <g id="Oval" transform="translate(0.597248, 0.054495)" fill="#FFFFFF">
                                    <ellipse cx="14.095346" cy="13.8267658" rx="13.6344795" ry="13.7291633"></ellipse>
                                </g>
                                <ellipse id="Oval" fill="#FFFFFF" cx="14.6925936" cy="13.881261" rx="5.91145263" ry="6.04851252"></ellipse>
                            </g>
                        </g>
                        <g id="4" transform="translate(0.151985, 77.422167)">
                            <path d="M19.010718,10.1868951 L55.3560862,10.1913936 C60.2266631,10.1917995 64.1749444,14.1400807 64.1753503,19.0106577 L64.1813185,55.3508314 C64.1817244,60.2219824 60.2332054,64.1711595 55.3620544,64.1715655 C55.3615645,64.1715655 55.3610745,64.1715655 55.3605845,64.1715655 L19.0152165,64.1655971 C14.1446396,64.1651913 10.1963583,60.21691 10.1959524,55.3463331 L10.1899842,19.0061593 C10.1895782,14.1350083 14.1380972,10.1858312 19.0092482,10.1854253 C19.0097382,10.1854252 19.0102282,10.1854252 19.0107181,10.1854253 L19.010718,10.1868951 Z" id="Rectangle-Copy-5" fill="#A6B7C7" fill-rule="nonzero" transform="translate(37.185651, 37.178495) rotate(-30.000000) translate(-37.185651, -37.178495) "></path>
                            <g id="audit" transform="translate(37.500000, 38.000000) scale(-1, 1) rotate(30.000000) translate(-37.500000, -38.000000) translate(26.000000, 25.000000)">
                                <g id="1" transform="translate(0.498762, 0.232129)">
                                    <g id="check1" transform="translate(0.266721, 0.161810)">
                                        <rect id="Rectangle-Copy-4" fill="#25304F" fill-rule="nonzero" x="0.294341127" y="0.154051783" width="20.6206897" height="23.6363636" rx="3.19999981"></rect>
                                        <polyline id="Path-12" stroke="#FFFFFF" stroke-width="3.19999981" stroke-linecap="round" points="6.63916871 12.7601124 9.4047729 16.0768718 15.4414565 7.86759538"></polyline>
                                    </g>
                                </g>
                            </g>
                        </g>
                    </g>
                    <path d="M216.583508,227.2882 C215.471818,225.998452 206.355953,223.730273 206.355953,223.730273 L206.355953,219.427405 L190.447657,221.817887 L190.447657,225.609303 C190.447657,225.609303 184.25554,228.244393 182.877043,229.378483 C181.498546,230.512572 179.986647,234.159448 179.986647,234.159448 C186.45306,236.974005 193.434054,238.412814 200.486225,238.384486 C200.486225,238.384486 203.220985,237.973101 203.45444,229.300653 C203.45444,229.300653 206.344836,235.882819 208.312529,236.583286 C210.280221,237.283753 216.438989,236.271967 221.497182,233.136543 C221.452714,233.136543 217.717433,228.56683 216.583508,227.2882 Z" id="Path" fill="#E3E3E3" fill-rule="nonzero"></path>
                    <path d="M203.143166,227.299319 C204.343784,226.23315 205.421411,225.036028 206.355953,223.730273 L206.355953,219.193916 C206.355953,219.193916 218.840241,215.758292 218.384448,214.046039 C217.928654,212.333787 218.384448,203.27219 218.384448,203.27219 C220.41812,202.351201 222.238833,201.018594 223.73168,199.35847 C222.019677,195.44475 213.037215,177.121424 213.037215,177.121424 C213.838429,175.947305 214.54119,174.708929 215.13831,173.418956 L212.103395,172.462763 L178.530332,184.726494 L179.553087,200.503678 C184.544579,210.855023 190.447657,215.513684 190.447657,215.513684 L190.447657,225.609303 C194.634917,226.468014 198.877107,227.032731 203.143166,227.299319 L203.143166,227.299319 Z" id="Path" fill="#E39C75" fill-rule="nonzero"></path>
                    <path d="M213.037215,177.088069 C219.70736,167.081398 213.037215,167.537257 213.037215,167.537257 C194.749901,169.494117 181.643066,178.311106 177.96337,181.735611 C174.283673,185.160116 175.273078,188.840347 175.273078,188.840347 C180.175634,207.441637 190.447657,215.524803 190.447657,215.524803 L190.447657,207.930852 C190.447657,207.930852 186.779078,207.241503 186.779078,201.793427 C186.779078,196.345351 190.447657,199.703144 190.447657,199.703144 C190.447657,199.703144 189.914046,189.162785 189.914046,187.661784 C189.914046,186.160783 200.141601,178.455647 213.037215,177.088069 Z" id="Path" fill="#1C1C1C" fill-rule="nonzero"></path>
                    <path d="M205.800108,326.318976 L205.800108,351.469485" id="Path" stroke="#808184" stroke-width="0.629999934"></path>
                    <polyline id="Path" stroke="#1A120D" stroke-width="0.629999934" opacity="0.2" points="218.243557 378.660867 215.038258 445.722706 192.526519 565.15788"></polyline>
                    <polyline id="Path" stroke="#1A120D" stroke-width="0.629999934" opacity="0.2" points="165.266626 373.679955 149.815358 445.744941 135.6413 565.15788"></polyline>
                    <path d="M216.261118,203.172124 L218.384448,203.27219 C220.41812,202.351201 222.238833,201.018594 223.73168,199.35847 C220.913395,199.845484 218.308787,201.175112 216.261118,203.172124 L216.261118,203.172124 Z" id="Path" fill="#000000" fill-rule="nonzero" opacity="0.3" style="mix-blend-mode: multiply;"></path>
                    <path d="M218.384448,214.046039 C218.384448,214.046039 206.489356,216.058492 201.131006,218.849241 L206.355953,219.193916 C206.355953,219.193916 218.840241,215.758292 218.384448,214.046039 Z" id="Path" fill="#000000" fill-rule="nonzero" opacity="0.3" style="mix-blend-mode: multiply;"></path>
                    <path d="M187.701781,201.215264 C187.63339,202.82881 188.159506,204.411343 189.18033,205.662673 C189.802877,206.44097 190.847866,205.940636 190.959035,204.895495 C191.060527,203.297713 190.483284,201.73126 189.369317,200.581508 C188.10199,199.280641 187.701781,201.215264 187.701781,201.215264 Z" id="Path" fill="#000000" fill-rule="nonzero" opacity="0.3" style="mix-blend-mode: multiply;"></path>
                    <path d="M239.69087,263.701363 C238.014819,285.704463 236.694542,299.706775 235.730038,305.708301 C235.72002,305.622274 236.609832,271.950825 235.730038,258.823316 C236.741291,260.044503 238.061568,261.670519 239.69087,263.701363 Z" id="Path-7" fill="#000000" fill-rule="nonzero" opacity="0.1" style="mix-blend-mode: multiply;"></path>
                    <path d="M198.740871,239.207257 C196.564519,239.258587 194.38873,239.083455 192.248597,238.684686 L192.570987,237.795205 L198.129441,238.351131 L198.740871,239.207257 Z" id="Path" fill="url(#linearGradient-1)" fill-rule="nonzero"></path>
                    <path d="M190.447657,444.166112 C190.447657,444.166112 182.165561,453.060931 181.05387,464.457416 C179.942179,475.853902 182.165561,565.15788 182.165561,565.15788 L187.357157,565.15788 C187.357157,559.65421 187.179286,513.000888 190.447657,481.768956 C193.938367,448.491217 198.051623,450.870581 199.063261,444.666445 C200.0749,438.46231 200.330589,391.086282 200.330589,391.086282 L190.425424,407.652881 L190.447657,444.166112 Z" id="Path" fill="#000000" fill-rule="nonzero" opacity="0.1" style="mix-blend-mode: multiply;"></path>
                    <path d="M229.819134,258.143394 L229.819134,256.802402 L235.074869,259.933479 L235.074869,266.756685 L235.061264,266.764836 L231.884608,268.657316 L231.884608,267.316493 L231.898213,267.308342 L233.950631,266.085594 L233.950631,260.603777 L229.819134,258.143394 Z M227.754044,265.415976 L227.754044,259.941856 L228.879105,259.276312 L228.879105,267.42704 L225.688021,265.526466 L225.688021,261.163924 L226.812973,260.498494 L226.812973,264.855715 L227.754044,265.415976 Z M223.622877,259.933479 L223.636481,259.925441 L228.879105,256.802402 L228.879105,258.155847 L228.865391,258.163941 L227.754044,258.82156 L227.754044,258.813523 L224.747444,260.603777 L224.747444,266.085594 L228.879105,268.546939 L228.879105,269.887875 L228.838292,269.863535 L223.622877,266.756685 L223.622877,259.933479 Z M230.94414,266.655093 L230.94414,265.455947 L231.884608,264.96538 L231.884608,261.834619 L230.94414,261.273961 L230.94414,265.230414 L230.94414,266.471062 L230.94414,269.21769 L229.819134,269.887875 L229.819134,259.26335 L233.009614,261.163981 L233.009614,265.526466 L230.94414,266.655093 Z" id="path-7-2" fill="#FFFFFF" fill-rule="nonzero"></path>
                    <polygon id="Path-9" fill="#000000" fill-rule="nonzero" opacity="0.1" style="mix-blend-mode: multiply;" points="182.916173 379.909278 155.240409 369.293978 153.905886 378.668497 190.536593 392.896188 190.536593 382.701466"></polygon>
                </g>
                <path d="M257.822291,244.88801 C265.496498,249.004937 270.73243,252.372517 273.530087,254.990748 C277.726573,258.918095 290.631012,271.049342 298.704499,274.529141 C304.086824,276.849007 318.843948,274.923325 342.975873,268.752095 L347.375772,279.642599 C323.418947,290.965547 307.19519,296.627022 298.704499,296.627022 C290.213809,296.627022 277.611332,291.350168 260.89707,280.796461 L257.822291,244.88801 Z" id="Path-39" fill="#1C1C1C" fill-rule="nonzero"></path>
                <path d="M342.975873,268.752095 C343.854694,266.000347 345.699514,263.054782 348.510333,259.915399 C352.726562,255.206326 354.208148,255.879098 354.208148,256.394768 C354.208148,256.910438 352.157415,260.009461 350.918701,263.035769 C349.679988,266.062078 358.697942,262.015103 359.937322,261.450068 C361.176703,260.885032 363.803256,256.21832 365.282172,254.547562 C366.761088,252.876805 368.781796,251.737395 370.072553,254.547562 C371.36331,257.35773 365.667831,269.479308 363.957052,272.611019 C362.816533,274.698826 357.289439,277.042686 347.375772,279.642599 L342.975873,268.752095 Z" id="Path-40" fill="#E39C75" fill-rule="nonzero"></path>
                <path d="M178.503402,302.930742 C178.250268,297.770465 177.262786,294.705187 175.540955,293.734909 C172.958209,292.279493 164.766973,294.239602 161.021745,295.282896 C157.276518,296.326189 153.539144,298.102965 145.949444,297.598629 C138.359744,297.094294 118.086314,295.196581 97.7822355,291.761141 C98.0215422,289.072656 98.0215422,287.782154 97.7822355,287.889634 C121.49481,291.536761 137.249739,293.485185 145.047023,293.734909 C152.844307,293.984633 163.804846,291.169079 177.928641,285.288247 L178.503402,302.930742 Z" id="Path-41" fill="#000000" fill-rule="nonzero" opacity="0.1" style="mix-blend-mode: multiply;"></path>
                <path d="M263.360293,282.307982 L264.466517,278.122861 C278.271463,287.160501 289.440988,291.949542 297.975093,292.489984 C306.509198,293.030426 322.785547,288.241385 346.804142,278.122861 L347.375772,279.642599 C327.368947,288.652771 314.613864,293.736051 309.110521,294.892439 C300.855508,296.627022 295.990591,298.558718 282.328352,292.489984 C273.220192,288.444161 266.897506,285.050161 263.360293,282.307982 Z" id="Path-42" fill="#000000" fill-rule="nonzero" opacity="0.1" style="mix-blend-mode: multiply;"></path>
            </g>
        </g>
    </g>
</svg>