<?xml version="1.0" encoding="UTF-8"?>
<svg width="10px" height="6px" viewBox="0 0 10 6" version="1.1" xmlns="http://www.w3.org/2000/svg" xmlns:xlink="http://www.w3.org/1999/xlink">
    <!-- Generator: Sketch 54.1 (76490) - https://sketchapp.com -->
    <title>Path@2x</title>
    <desc>Created with Sketch.</desc>
    <g id="Symbols" stroke="none" stroke-width="1" fill="none" fill-rule="evenodd">
        <g id="Header" transform="translate(-363.000000, -25.000000)" fill="#25304F" stroke="#25304F">
            <g transform="translate(85.000000, 0.000000)" id="Link">
                <g transform="translate(203.000000, 16.500000)">
                    <path d="M80.1795042,9.80537372 C80.1100849,9.8088103 80.0440327,9.83634313 79.9927105,9.88323581 L76.1074008,13.4713547 C76.0227052,13.5420653 75.9838227,13.6536985 76.0062523,13.7617563 C76.028682,13.869814 76.108777,13.9567279 76.2146108,13.9878532 C76.3204445,14.0189785 76.4348103,13.9892547 76.5121205,13.91053 L80.1950704,10.5092921 L83.8780202,13.91053 C83.9553304,13.9892546 84.0696962,14.0189784 84.1755299,13.9878531 C84.2813636,13.9567279 84.3614587,13.869814 84.3838883,13.7617562 C84.406318,13.6536985 84.3674355,13.5420653 84.2827399,13.4713547 L80.3974302,9.88323581 C80.338184,9.82906088 80.2596491,9.80100139 80.1795042,9.80537372 L80.1795042,9.80537372 Z" id="Path" transform="translate(80.195070, 11.902465) rotate(180.000000) translate(-80.195070, -11.902465) "></path>
                </g>
            </g>
        </g>
    </g>
</svg>