<svg xmlns="http://www.w3.org/2000/svg" xmlns:xlink="http://www.w3.org/1999/xlink" viewBox="0 0 641 594"><defs><path id="a" d="M0 0h641v594H0z"/></defs><g fill="none" fill-rule="evenodd" opacity=".1"><mask id="b" fill="#fff"><use xlink:href="#a"/></mask><g fill-rule="nonzero" mask="url(#b)"><path fill="#CACFD6" d="M-9.598 671.819l.292 1.18 453.43-781.05-.292-1.18z"/><path fill="#FFF" d="M433.833-113.16l-.24-1.151-452.99 782.39.24 1.151zM424.239-118.701l-.24-1.15-452.99 782.39.24 1.15zM414.639-124.231l-.24-1.15-452.99 782.39.24 1.15zM405.045-129.772l-.24-1.15-452.99 782.39.24 1.15zM395.45-135.313l-.24-1.15-452.99 782.39.24 1.15zM385.856-140.853l-.24-1.151-452.99 782.39.24 1.151zM376.272-146.388l-.24-1.151-452.99 782.39.24 1.151zM366.678-151.93l-.24-1.15-452.99 782.39.24 1.151zM357.083-157.47l-.24-1.15-452.99 782.39.24 1.15zM347.49-163.01l-.24-1.151-452.99 782.39.24 1.151zM337.895-168.551l-.24-1.151-452.99 782.39.24 1.151zM328.295-174.081l-.24-1.151-452.99 782.39.24 1.151zM318.7-179.622l-.24-1.15-452.99 782.39.24 1.15zM309.107-185.163l-.24-1.15-452.99 782.39.24 1.15zM299.513-190.703l-.24-1.151-452.99 782.39.24 1.151zM289.918-196.244l-.24-1.15-452.99 782.39.24 1.15zM280.334-201.78l-.24-1.15-452.99 782.39.24 1.151zM270.74-207.32l-.24-1.15-452.99 782.39.24 1.15zM261.146-212.86l-.24-1.151-452.99 782.39.24 1.15zM251.551-218.401l-.24-1.151-452.99 782.39.24 1.151zM241.951-223.931l-.24-1.151-452.99 782.39.24 1.151zM232.357-229.472l-.24-1.15-452.99 782.39.24 1.15zM222.763-235.013l-.24-1.15-452.99 782.39.24 1.15zM213.169-240.553l-.24-1.151-452.99 782.39.24 1.151zM203.575-246.094l-.24-1.15-452.99 782.39.24 1.15zM193.99-251.63l-.24-1.15-452.99 782.39.24 1.151zM184.396-257.17l-.24-1.15-452.99 782.39.24 1.15zM174.802-262.71l-.24-1.151-452.99 782.39.24 1.15zM165.208-268.251l-.24-1.151-452.99 782.39.24 1.151zM155.614-273.792l-.24-1.15-452.99 782.39.24 1.15zM453.021-102.079l-.24-1.15L-.209 679.16l.24 1.15zM462.616-96.538l-.24-1.151L9.385 684.7l.24 1.151zM472.2-91.003l-.24-1.151-452.99 782.39.24 1.151zM481.794-85.462l-.24-1.151-452.99 782.39.24 1.151zM491.388-79.922l-.24-1.15-452.99 782.39.24 1.15zM500.982-74.381l-.24-1.15-452.99 782.39.24 1.15zM510.583-68.851l-.24-1.15-452.99 782.39.24 1.15zM520.177-63.31l-.24-1.151-452.99 782.39.24 1.151zM529.771-57.77l-.24-1.15L76.54 723.47l.24 1.15zM539.365-52.229l-.24-1.15-452.99 782.39.24 1.15zM548.96-46.688l-.24-1.151L95.73 734.55l.24 1.151zM558.544-41.153l-.24-1.15-452.99 782.39.24 1.15zM568.138-35.612l-.24-1.151-452.99 782.39.24 1.151zM577.732-30.072l-.24-1.15-452.99 782.39.24 1.15zM587.326-24.531l-.24-1.15-452.99 782.39.24 1.15zM596.927-19.001l-.24-1.15-452.99 782.39.24 1.15zM606.52-13.46l-.24-1.151-452.99 782.39.24 1.151zM616.115-7.92l-.24-1.15-452.99 782.39.24 1.15zM625.709-2.379l-.24-1.15-452.99 782.39.24 1.15zM635.303 3.162l-.24-1.151-452.99 782.39.24 1.151zM644.897 8.702l-.24-1.15-452.99 782.39.24 1.15zM654.482 14.238l-.24-1.151-452.99 782.39.24 1.151zM664.076 19.778l-.24-1.15-452.99 782.39.24 1.15zM673.67 25.319l-.24-1.15-452.99 782.39.24 1.15zM683.264 30.86l-.24-1.151-452.99 782.39.24 1.151zM692.864 36.39l-.24-1.151-452.99 782.39.24 1.151zM702.459 41.93l-.24-1.15-452.99 782.39.24 1.15zM712.053 47.471l-.24-1.15-452.99 782.39.24 1.15zM721.647 53.012l-.24-1.151-452.99 782.39.24 1.151z"/><g><path fill="#CACFD6" d="M677.952 175.743l-1.04-.628 231.662 872.91 1.04.628z"/><path fill="#FFF" d="M1009.833 216.84l-.24-1.151-452.99 782.39.24 1.151zM1000.239 211.299l-.24-1.15-452.99 782.39.24 1.15zM990.638 205.769l-.24-1.15-452.99 782.39.24 1.15zM981.044 200.228l-.24-1.15-452.99 782.39.24 1.15zM971.45 194.687l-.24-1.15-452.99 782.39.24 1.15zM961.856 189.147l-.24-1.151-452.99 782.39.24 1.151zM952.272 183.612l-.24-1.151-452.99 782.39.24 1.151zM942.677 178.07l-.24-1.15-452.99 782.39.24 1.151zM933.083 172.53l-.24-1.15-452.99 782.39.24 1.15zM923.49 166.99l-.24-1.151-452.99 782.39.24 1.151zM913.895 161.449l-.24-1.151-452.99 782.39.24 1.151zM904.295 155.919l-.24-1.151-452.99 782.39.24 1.151zM894.7 150.378l-.24-1.15-452.99 782.39.24 1.15zM885.106 144.837l-.24-1.15-452.99 782.39.24 1.15zM875.512 139.297l-.24-1.151-452.99 782.39.24 1.151zM865.918 133.756l-.24-1.15-452.99 782.39.24 1.15zM856.334 128.22l-.24-1.15-452.99 782.39.24 1.151zM846.74 122.68l-.24-1.15-452.99 782.39.24 1.15zM837.145 117.14l-.24-1.151-452.99 782.39.24 1.15zM827.551 111.599l-.24-1.151-452.99 782.39.24 1.151zM817.95 106.069l-.24-1.151-452.99 782.39.241 1.151zM808.357 100.528l-.24-1.15-452.99 782.39.24 1.15zM798.763 94.987l-.24-1.15-452.99 782.39.24 1.15zM789.169 89.447l-.24-1.151-452.99 782.39.24 1.151zM779.574 83.906l-.24-1.15-452.99 782.39.24 1.15zM769.99 78.37l-.24-1.15-452.99 782.39.24 1.151zM760.396 72.83l-.24-1.15-452.99 782.39.24 1.15zM750.802 67.29l-.24-1.151-452.99 782.39.24 1.15zM741.208 61.749l-.24-1.151-452.99 782.39.24 1.151zM731.613 56.208l-.24-1.15-452.99 782.39.24 1.15zM1029.021 227.921l-.24-1.15-452.99 782.39.24 1.15zM1038.615 233.462l-.24-1.151-452.99 782.39.24 1.151zM1048.2 238.997l-.24-1.151-452.99 782.39.24 1.151zM1057.794 244.538l-.24-1.151-452.99 782.39.24 1.151zM1067.388 250.078l-.24-1.15-452.99 782.39.24 1.15zM1076.982 255.619l-.24-1.15-452.99 782.39.24 1.15zM1115.365 227.771l-.24-1.15-452.99 782.39.24 1.15zM1124.96 233.312l-.241-1.151-452.99 782.39.24 1.151zM1134.544 238.847l-.24-1.15-452.99 782.39.24 1.15zM1144.138 244.388l-.24-1.151-452.99 782.39.24 1.151zM1153.732 249.928l-.24-1.15-452.99 782.39.24 1.15zM1163.326 255.469l-.24-1.15-452.99 782.39.24 1.15z"/></g></g></g></svg>