<?xml version="1.0" encoding="UTF-8"?>
<svg width="165px" height="39px" viewBox="0 0 165 39" version="1.1" xmlns="http://www.w3.org/2000/svg" xmlns:xlink="http://www.w3.org/1999/xlink">
    <!-- Generator: Sketch 54.1 (76490) - https://sketchapp.com -->
    <title>uplaw-white</title>
    <desc>Created with Sketch.</desc>
    <g id="Symbols" stroke="none" stroke-width="1" fill="none" fill-rule="evenodd">
        <g id="Footer" transform="translate(-120.000000, -46.000000)" fill="#FFFFFF">
            <g id="uplaw-white">
                <path d="M139.340444,49.9853786 L139.340444,46 L155.745225,55.3054409 L155.745225,75.5837522 L155.702761,75.6079764 L145.78743,81.2323546 L145.78743,77.2474808 L145.829894,77.2232568 L152.236128,73.5892966 L152.236128,57.2975414 L139.340444,49.9853786 Z M132.894657,71.5992147 L132.894657,55.3303379 L136.406322,53.3523681 L136.406322,77.5760209 L126.445958,71.9275866 L126.445958,58.9622792 L129.957282,56.9846459 L129.957282,69.9341403 L132.894657,71.5992147 Z M120,55.3054409 L120.042464,55.2815532 L136.406322,46 L136.406322,50.0223877 L136.363516,50.0464436 L132.894657,52.0008621 L132.894657,51.9769744 L123.510125,57.2975414 L123.510125,73.5892966 L136.406322,80.9043192 L136.406322,84.8895296 L136.27893,84.8171937 L120,75.5837522 L120,55.3054409 Z M142.851938,75.2818233 L142.851938,71.7180077 L145.78743,70.2600612 L145.78743,60.9555574 L142.851938,59.2893055 L142.851938,71.0477319 L142.851938,74.7348924 L142.851938,82.8977655 L139.340444,84.8895296 L139.340444,53.3138451 L149.298924,58.9624476 L149.298924,71.9275867 L142.851938,75.2818233 Z M180.296368,77.582573 C177.793706,77.582573 175.821529,76.7664998 174.379778,75.1343289 C172.938027,73.502158 172.217163,71.2579566 172.217163,68.4016575 L172.217163,56.9357142 C172.217163,56.6364829 172.312371,56.3984615 172.502791,56.221643 C172.693211,56.0448245 172.924432,55.9564166 173.19646,55.9564166 L176.868827,55.9564166 C177.140855,55.9564166 177.372076,56.0516251 177.562496,56.242045 C177.752916,56.432465 177.848124,56.6636857 177.848124,56.9357142 L177.848124,68.1568331 C177.848124,71.5027835 179.303455,73.1757336 182.21416,73.1757336 C183.628708,73.1757336 184.750808,72.7268933 185.580495,71.8291993 C186.410182,70.9315053 186.825019,69.7073955 186.825019,68.1568331 L186.825019,56.9357142 C186.825019,56.6364829 186.920228,56.3984615 187.110648,56.221643 C187.301068,56.0448245 187.532289,55.9564166 187.804317,55.9564166 L191.435879,55.9564166 C191.73511,55.9564166 191.973132,56.0448245 192.14995,56.221643 C192.326769,56.3984615 192.415177,56.6364829 192.415177,56.9357142 L192.415177,76.1952347 C192.415177,76.4672632 192.326769,76.6984839 192.14995,76.8889038 C191.973132,77.0793238 191.73511,77.1745323 191.435879,77.1745323 L188.049141,77.1745323 C187.777113,77.1745323 187.545892,77.0793238 187.355472,76.8889038 C187.165052,76.6984839 187.069844,76.4672632 187.069844,76.1952347 L187.069844,74.5222678 C185.573687,76.5624815 183.315885,77.582573 180.296368,77.582573 Z M198.821416,84.9273054 C198.549387,84.9273054 198.318166,84.8388975 198.127746,84.6620789 C197.937326,84.4852604 197.842118,84.2472391 197.842118,83.9480077 L197.842118,56.9357142 C197.842118,56.6364829 197.937326,56.3984615 198.127746,56.221643 C198.318166,56.0448245 198.549387,55.9564166 198.821416,55.9564166 L202.085741,55.9564166 C202.384972,55.9564166 202.629794,56.0516251 202.820214,56.242045 C203.010634,56.432465 203.105843,56.6636857 203.105843,56.9357142 L203.105843,58.567877 C204.547594,56.5548662 206.710188,55.5483759 209.59369,55.5483759 C212.341177,55.5483759 214.449367,56.4120533 215.91832,58.1394342 C217.387274,59.8668151 218.176145,62.1858232 218.284956,65.096528 C218.312159,65.4229621 218.32576,65.9126061 218.32576,66.5654744 C218.32576,67.2183428 218.312159,67.7079867 218.284956,68.0344209 C218.203348,70.89072 217.421278,73.1961268 215.938722,74.9507106 C214.456167,76.7052943 212.341177,77.582573 209.59369,77.582573 C206.873405,77.582573 204.792418,76.6168864 203.350667,74.6854841 L203.350667,83.9480077 C203.350667,84.2472391 203.262259,84.4852604 203.085441,84.6620789 C202.908622,84.8388975 202.670601,84.9273054 202.37137,84.9273054 L198.821416,84.9273054 Z M208.043135,73.1757336 C210.95384,73.1757336 212.504379,71.3803725 212.694799,67.7895965 C212.722002,67.517568 212.735603,67.1095314 212.735603,66.5654744 C212.735603,66.0214175 212.722002,65.6133809 212.694799,65.3413524 C212.504379,61.7505764 210.95384,59.9552153 208.043135,59.9552153 C206.492573,59.9552153 205.336469,60.4584604 204.574789,61.4649658 C203.81311,62.4714712 203.405073,63.6955811 203.350667,65.137332 C203.323464,65.4637662 203.309863,65.9806126 203.309863,66.6878866 C203.309863,67.3951607 203.323464,67.9256083 203.350667,68.2792453 C203.405073,69.6393878 203.826711,70.7954915 204.615593,71.7475912 C205.404476,72.6996909 206.546978,73.1757336 208.043135,73.1757336 Z M224.756926,77.1745323 C224.484897,77.1745323 224.260477,77.0861244 224.083659,76.9093059 C223.90684,76.7324874 223.818432,76.5080672 223.818432,76.2360387 L223.818432,49.1421371 C223.818432,48.8429057 223.90684,48.611685 224.083659,48.4484679 C224.260477,48.2852508 224.484897,48.2036435 224.756926,48.2036435 L226.552305,48.2036435 C226.824333,48.2036435 227.048753,48.2920514 227.225572,48.4688699 C227.40239,48.6456884 227.490798,48.8701086 227.490798,49.1421371 L227.490798,76.2360387 C227.490798,76.5080672 227.40239,76.7324874 227.225572,76.9093059 C227.048753,77.0861244 226.824333,77.1745323 226.552305,77.1745323 L224.756926,77.1745323 Z M239.487195,77.582573 C238.154255,77.582573 236.923345,77.3105486 235.794426,76.7664916 C234.665508,76.2224347 233.767828,75.4811682 233.101358,74.5426699 C232.434888,73.6041716 232.101658,72.5636783 232.101658,71.4211586 C232.101658,69.6257706 232.836124,68.1568388 234.305078,67.0143192 C235.774032,65.8717996 237.773411,65.1101312 240.303276,64.7292913 L246.423886,63.8724059 L246.423886,62.6890879 C246.423886,59.8871945 244.805341,58.4862688 241.568202,58.4862688 C240.316871,58.4862688 239.310381,58.7378914 238.548701,59.2411441 C237.787021,59.7443968 237.229371,60.3360499 236.875734,61.0161211 C236.766923,61.2881496 236.651312,61.471766 236.5289,61.566976 C236.406487,61.662186 236.236471,61.7097902 236.018849,61.7097902 L234.42749,61.7097902 C234.182664,61.7097902 233.971845,61.6213823 233.795027,61.4445638 C233.618208,61.2677453 233.529801,61.0569264 233.529801,60.8121007 C233.529801,60.1864352 233.822227,59.4587699 234.407088,58.6290831 C234.991949,57.7993962 235.89643,57.0785315 237.120559,56.4664674 C238.344687,55.8544033 239.840821,55.5483759 241.609006,55.5483759 C244.655725,55.5483759 246.838721,56.2556393 248.158059,57.6701874 C249.477397,59.0847356 250.137057,60.8528942 250.137057,62.9747164 L250.137057,76.2360387 C250.137057,76.5080672 250.048649,76.7324874 249.87183,76.9093059 C249.695012,77.0861244 249.470591,77.1745323 249.198563,77.1745323 L247.403184,77.1745323 C247.131155,77.1745323 246.913536,77.0861244 246.750319,76.9093059 C246.587102,76.7324874 246.505494,76.5080672 246.505494,76.2360387 L246.505494,74.4406597 C245.907032,75.3383537 245.036554,76.0864208 243.894034,76.6848835 C242.751514,77.2833462 241.282583,77.582573 239.487195,77.582573 Z M240.303276,74.603876 C242.098664,74.603876 243.567596,74.0190235 244.710115,72.849301 C245.852635,71.6795785 246.423886,69.979426 246.423886,67.7487924 L246.423886,66.6062785 L241.64981,67.2999477 C239.691205,67.5719762 238.208672,68.0344176 237.202167,68.687286 C236.195661,69.3401544 235.692416,70.1562276 235.692416,71.1355301 C235.692416,72.2508469 236.148057,73.1077238 237.059352,73.7061865 C237.970648,74.3046491 239.051945,74.603876 240.303276,74.603876 Z M261.684608,77.1745323 C261.303768,77.1745323 261.018142,77.092925 260.827723,76.9297079 C260.637303,76.7664908 260.487689,76.5080676 260.378878,76.1544306 L254.5847,57.2213427 L254.503092,56.813302 C254.503092,56.5684764 254.584699,56.3644581 254.747916,56.201241 C254.911133,56.0380239 255.115152,55.9564166 255.359977,55.9564166 L257.032944,55.9564166 C257.304973,55.9564166 257.529393,56.0312233 257.706211,56.1808389 C257.88303,56.3304546 257.985039,56.4732674 258.012242,56.6092817 L262.623102,72.1964359 L267.51959,56.813302 C267.573996,56.5956792 267.696406,56.3984615 267.886826,56.221643 C268.077246,56.0448245 268.33567,55.9564166 268.662104,55.9564166 L269.967834,55.9564166 C270.294268,55.9564166 270.552691,56.0448245 270.743111,56.221643 C270.933531,56.3984615 271.055942,56.5956792 271.110348,56.813302 L276.006836,72.1964359 L280.617696,56.6092817 C280.644899,56.4732674 280.746908,56.3304546 280.923726,56.1808389 C281.100545,56.0312233 281.324965,55.9564166 281.596994,55.9564166 L283.26996,55.9564166 C283.514786,55.9564166 283.718804,56.0380239 283.882021,56.201241 C284.045238,56.3644581 284.126846,56.5684764 284.126846,56.813302 L284.045238,57.2213427 L278.25106,76.1544306 C278.142249,76.5080676 277.992635,76.7664908 277.802215,76.9297079 C277.611795,77.092925 277.32617,77.1745323 276.94533,77.1745323 L275.476383,77.1745323 C274.769109,77.1745323 274.306668,76.8345018 274.089045,76.1544306 L269.314969,61.3833577 L264.540893,76.1544306 C264.32327,76.8345018 263.860829,77.1745323 263.153554,77.1745323 L261.684608,77.1745323 Z"></path>
            </g>
        </g>
    </g>
</svg>