<?xml version="1.0" encoding="UTF-8"?>
<svg width="162px" height="41px" viewBox="0 0 162 41" version="1.1" xmlns="http://www.w3.org/2000/svg" xmlns:xlink="http://www.w3.org/1999/xlink">
    <!-- Generator: Sketch 54.1 (76490) - https://sketchapp.com -->
    <title>uplaw-white</title>
    <desc>Created with Sketch.</desc>
    <g id="Symbols" stroke="none" stroke-width="1" fill="none" fill-rule="evenodd">
        <g id="Footer" transform="translate(-120.000000, -46.000000)" fill="#FFFFFF">
            <g id="uplaw-white">
                <path d="M139.340444,49.9853786 L139.340444,46 L155.745225,55.3054409 L155.745225,75.5837522 L155.702761,75.6079764 L145.78743,81.2323546 L145.78743,77.2474808 L145.829894,77.2232568 L152.236128,73.5892966 L152.236128,57.2975414 L139.340444,49.9853786 Z M132.894657,71.5992147 L132.894657,55.3303379 L136.406322,53.3523681 L136.406322,77.5760209 L126.445958,71.9275866 L126.445958,58.9622792 L129.957282,56.9846459 L129.957282,69.9341403 L132.894657,71.5992147 Z M120,55.3054409 L120.042464,55.2815532 L136.406322,46 L136.406322,50.0223877 L136.363516,50.0464436 L132.894657,52.0008621 L132.894657,51.9769744 L123.510125,57.2975414 L123.510125,73.5892966 L136.406322,80.9043192 L136.406322,84.8895296 L136.27893,84.8171937 L120,75.5837522 L120,55.3054409 Z M142.851938,75.2818233 L142.851938,71.7180077 L145.78743,70.2600612 L145.78743,60.9555574 L142.851938,59.2893055 L142.851938,71.0477319 L142.851938,74.7348924 L142.851938,82.8977655 L139.340444,84.8895296 L139.340444,53.3138451 L149.298924,58.9624476 L149.298924,71.9275867 L142.851938,75.2818233 Z M175.944359,56.8360764 L175.944359,71.0019421 C175.944359,72.0911187 176.117031,72.9810422 176.46238,73.6717396 C177.099947,74.9468731 178.288725,75.5844303 180.028751,75.5844303 C182.525888,75.5844303 184.22604,74.4687052 185.12926,72.2372215 C185.620717,71.0417838 185.866443,69.4014023 185.866443,67.3160277 L185.866443,56.8360764 L189.452738,56.8360764 L189.452738,78.1745323 L186.065681,78.1745323 L186.105529,75.0265622 C185.640636,75.8368033 185.06285,76.520849 184.372153,77.0787199 C183.004041,78.1944618 181.343736,78.7523243 179.391187,78.7523243 C176.349463,78.7523243 174.277402,77.7362175 173.174943,75.7039735 C172.577224,74.6147969 172.278369,73.1603696 172.278369,71.3406478 L172.278369,56.8360764 L175.944359,56.8360764 Z M204.056928,75.7637451 C205.730541,75.7637451 207.121877,75.0630963 208.230977,73.6617776 C209.340078,72.260459 209.89462,70.1651539 209.89462,67.3757993 C209.89462,65.6756212 209.648895,64.2145527 209.157437,62.9925497 C208.227652,60.6415223 206.527499,59.4660262 204.056928,59.4660262 C201.573074,59.4660262 199.872922,60.7079345 198.95642,63.1917883 C198.464962,64.5200524 198.219237,66.2069225 198.219237,68.2524492 C198.219237,69.8994967 198.464962,71.3007943 198.95642,72.456384 C199.886205,74.6613024 201.586357,75.7637451 204.056928,75.7637451 Z M194.772409,56.9356957 L198.259085,56.9356957 L198.259085,59.7648841 C198.976347,58.7952513 199.760011,58.0447934 200.6101,57.5134877 C201.818821,56.7165293 203.240042,56.318056 204.873807,56.318056 C207.291247,56.318056 209.343384,57.2445063 211.03028,59.0974347 C212.717175,60.9503631 213.56061,63.5968896 213.56061,67.0370936 C213.56061,71.6860179 212.345267,75.0066283 209.914544,76.9990245 C208.373757,78.2608754 206.580628,78.8917913 204.535101,78.8917913 C202.927901,78.8917913 201.579734,78.5398066 200.490557,77.8358267 C199.85299,77.4373474 199.14238,76.7533017 198.358704,75.7836689 L198.358704,86.6820213 L194.772409,86.6820213 L194.772409,56.9356957 Z M223.446892,48.9063795 L227.033187,48.9063795 L227.033187,78.1745323 L223.446892,78.1745323 L223.446892,48.9063795 Z M235.162123,72.4962317 C235.162123,73.5322777 235.540672,74.3491479 236.297783,74.9468667 C237.054893,75.5445856 237.951458,75.8434405 238.987504,75.8434405 C240.249355,75.8434405 241.47134,75.5512268 242.653495,74.9667906 C244.645891,73.9971578 245.642074,72.409906 245.642074,70.2049876 L245.642074,67.3160277 C245.203747,67.5949631 244.639243,67.8274059 243.948546,68.0133628 C243.257848,68.1993198 242.580444,68.3321442 241.916312,68.4118401 L239.744611,68.6907741 C238.442912,68.8634485 237.466653,69.1357385 236.815803,69.5076525 C235.713344,70.1319366 235.162123,71.1281197 235.162123,72.4962317 Z M243.848926,65.2439461 C244.67245,65.1376849 245.223671,64.7923415 245.502607,64.2079053 C245.661999,63.8891219 245.741693,63.4308776 245.741693,62.8331588 C245.741693,61.6111558 245.306693,60.7245529 244.43668,60.1733233 C243.566667,59.6220937 242.321438,59.346483 240.700956,59.346483 C238.828104,59.346483 237.49986,59.8512158 236.716184,60.8606965 C236.277857,61.4185674 235.992284,62.24872 235.859458,63.3511792 L232.512249,63.3511792 C232.578662,60.7212163 233.432059,58.89156 235.072465,57.8621553 C236.712871,56.8327506 238.615581,56.318056 240.780652,56.318056 C243.291071,56.318056 245.329926,56.7962239 246.897277,57.7525741 C248.451346,58.7089242 249.228369,60.1965577 249.228369,62.2155191 L249.228369,74.5085418 C249.228369,74.8804557 249.304743,75.1793106 249.457493,75.4051155 C249.610244,75.6309204 249.932343,75.7438212 250.423801,75.7438212 C250.583192,75.7438212 250.762505,75.7338594 250.961745,75.7139354 C251.160985,75.6940114 251.373504,75.6641259 251.599309,75.624278 L251.599309,78.2741516 C251.041438,78.4335433 250.6164,78.5331616 250.324181,78.5730096 C250.031963,78.6128575 249.63349,78.6327811 249.12875,78.6327811 C247.893464,78.6327811 246.996899,78.1944606 246.439028,77.3178063 C246.14681,76.8529138 245.940932,76.195433 245.821389,75.345344 C245.090843,76.3016941 244.041531,77.1318467 242.673419,77.8358267 C241.305307,78.5398066 239.797749,78.8917913 238.150702,78.8917913 C236.171588,78.8917913 234.554451,78.2907609 233.299242,77.0886819 C232.044032,75.8866029 231.416437,74.3823663 231.416437,72.5759272 C231.416437,70.5968137 232.03407,69.0626917 233.269356,67.9735151 C234.504641,66.8843386 236.125099,66.2135753 238.130778,65.9612051 L243.848926,65.2439461 Z M256.759589,56.8360764 L260.863904,73.6518157 L265.027991,56.8360764 L269.052611,56.8360764 L273.236622,73.5521964 L277.599948,56.8360764 L281.186243,56.8360764 L274.989922,78.1745323 L271.26416,78.1745323 L266.920758,61.657651 L262.716823,78.1745323 L258.991061,78.1745323 L252.834588,56.8360764 L256.759589,56.8360764 Z"></path>
            </g>
        </g>
    </g>
</svg>