<?xml version="1.0" encoding="UTF-8"?>
<svg width="67px" height="66px" viewBox="0 0 67 66" version="1.1" xmlns="http://www.w3.org/2000/svg" xmlns:xlink="http://www.w3.org/1999/xlink">
    <!-- Generator: sketchtool 53.2 (72643) - https://sketchapp.com -->
    <title>3D3B5AA2-B771-4807-AA34-85A35F2812C5</title>
    <desc>Created with sketchtool.</desc>
    <g id="Design" stroke="none" stroke-width="1" fill="none" fill-rule="evenodd">
        <g id="5a-Services" transform="translate(-634.000000, -1501.000000)">
            <g id="content-" transform="translate(0.000000, 87.000000)">
                <g id="Section-1" transform="translate(271.000000, 779.000000)">
                    <g id="5" transform="translate(363.500000, 635.000000)">
                        <g id="search">
                            <path d="M17.9471964,2.82762546e-15 L48.0528036,7.25088215e-16 C54.2934348,-4.21297134e-16 56.5564384,0.649779278 58.8379199,1.86992893 C61.1194014,3.09007857 62.9099214,4.88059859 64.1300711,7.16208008 C65.3502207,9.44356156 66,11.7065652 66,17.9471964 L66,48.0528036 C66,54.2934348 65.3502207,56.5564384 64.1300711,58.8379199 C62.9099214,61.1194014 61.1194014,62.9099214 58.8379199,64.1300711 C56.5564384,65.3502207 54.2934348,66 48.0528036,66 L17.9471964,66 C11.7065652,66 9.44356156,65.3502207 7.16208008,64.1300711 C4.88059859,62.9099214 3.09007857,61.1194014 1.86992893,58.8379199 C0.649779278,56.5564384 3.83357843e-15,54.2934348 3.06932154e-15,48.0528036 L4.83392144e-16,17.9471964 C-2.80864756e-16,11.7065652 0.649779278,9.44356156 1.86992893,7.16208008 C3.09007857,4.88059859 4.88059859,3.09007857 7.16208008,1.86992893 C9.44356156,0.649779278 11.7065652,3.97401081e-15 17.9471964,2.82762546e-15 Z" id="Rectangle-Copy-5" fill="#1C1C1C" fill-rule="nonzero"></path>
                            <path d="M37.9365184,35.9415364 C38.028898,36.0132161 38.1151369,36.0957169 38.1933937,36.1888787 C38.1939471,36.1895376 38.1945001,36.1901969 38.1950526,36.1908567 L44.6680395,43.9208591 C45.2632898,44.6317034 45.1704201,45.6903227 44.4604938,46.2866676 C43.75198,46.8818259 42.6951449,46.7899331 42.0999866,46.0814193 C42.0994332,46.0807604 42.0988802,46.0801011 42.0983278,46.0794414 L35.6253408,38.3494389 C35.5101478,38.2118761 35.4207249,38.061289 35.3565572,37.9035485 C33.9895363,38.6239305 32.4326034,39.0316097 30.7805936,39.0316097 C25.3456861,39.0316097 20.939823,34.6191819 20.939823,29.1761764 C20.939823,23.7331709 25.3456861,19.3207432 30.7805936,19.3207432 C36.2155011,19.3207432 40.6213641,23.7331709 40.6213641,29.1761764 C40.6213641,31.7956258 39.600957,34.1763913 37.9365184,35.9415364 Z M30.7805936,36.4738058 C34.8049667,36.4738058 38.0673657,33.2065459 38.0673657,29.1761764 C38.0673657,25.145807 34.8049667,21.878547 30.7805936,21.878547 C26.7562204,21.878547 23.4938214,25.145807 23.4938214,29.1761764 C23.4938214,33.2065459 26.7562204,36.4738058 30.7805936,36.4738058 Z" id="loupe" fill="#A6B7C7"></path>
                            <circle id="Oval" fill="#FFFFFF" cx="30.759469" cy="29.1885035" r="5.84403452"></circle>
                        </g>
                    </g>
                </g>
            </g>
        </g>
    </g>
</svg>