<?xml version="1.0" encoding="UTF-8"?>
<svg width="67px" height="66px" viewBox="0 0 67 66" version="1.1" xmlns="http://www.w3.org/2000/svg" xmlns:xlink="http://www.w3.org/1999/xlink">
    <!-- Generator: Sketch 54.1 (76490) - https://sketchapp.com -->
    <title>board</title>
    <desc>Created with Sketch.</desc>
    <g id="Page-1" stroke="none" stroke-width="1" fill="none" fill-rule="evenodd">
        <g id="board">
            <path d="M18.4471964,2.10253725e-15 L48.5528036,0 C54.7934348,-1.14638535e-15 57.0564384,0.649779278 59.3379199,1.86992893 C61.6194014,3.09007857 63.4099214,4.88059859 64.6300711,7.16208008 C65.8502207,9.44356156 66.5,11.7065652 66.5,17.9471964 L66.5,48.0528036 C66.5,54.2934348 65.8502207,56.5564384 64.6300711,58.8379199 C63.4099214,61.1194014 61.6194014,62.9099214 59.3379199,64.1300711 C57.0564384,65.3502207 54.7934348,66 48.5528036,66 L18.4471964,66 C12.2065652,66 9.94356156,65.3502207 7.66208008,64.1300711 C5.38059859,62.9099214 3.59007857,61.1194014 2.36992893,58.8379199 C1.14977928,56.5564384 0.5,54.2934348 0.5,48.0528036 L0.5,17.9471964 C0.5,11.7065652 1.14977928,9.44356156 2.36992893,7.16208008 C3.59007857,4.88059859 5.38059859,3.09007857 7.66208008,1.86992893 C9.94356156,0.649779278 12.2065652,3.24892259e-15 18.4471964,2.10253725e-15 Z" id="Rectangle-Copy-5" fill="#00585E" fill-rule="nonzero"></path>
            <g id="camembert" transform="translate(15.000000, 16.000000)" fill-rule="nonzero">
                <g id="Oval" transform="translate(0.996559, 0.067649)" fill="#FFFFFF">
                    <circle cx="17.1191825" cy="17.4056403" r="17.0430993"></circle>
                </g>
                <circle id="Oval" fill="#30C554" cx="18.1157419" cy="17.4732895" r="17.0430993"></circle>
                <ellipse id="Oval" fill="#FFFFFF" cx="18.1157419" cy="17.4732895" rx="7.38931579" ry="7.50849831"></ellipse>
            </g>
            <path d="M33.1157419,33.567649 L38.9472902,17.4667654 C43.952793,19.3238587 47.4158371,22.8530882 49.3364225,28.0544538 C38.8301809,31.6224461 33.4232874,33.4601778 33.1157419,33.567649 Z" id="Path" fill="#FFFFFF"></path>
        </g>
    </g>
</svg>