<?xml version="1.0" encoding="UTF-8"?>
<svg width="15px" height="15px" viewBox="0 0 15 15" version="1.1" xmlns="http://www.w3.org/2000/svg" xmlns:xlink="http://www.w3.org/1999/xlink">
    <!-- Generator: Sketch 54.1 (76490) - https://sketchapp.com -->
    <title>facebook-link</title>
    <desc>Created with Sketch.</desc>
    <g id="Symbols" stroke="none" stroke-width="1" fill="none" fill-rule="evenodd">
        <g id="Footer" transform="translate(-1053.000000, -60.000000)" fill="#FFFFFF">
            <g id="Social">
                <g transform="translate(1053.000000, 60.000000)">
                    <path d="M7.82346425,14.9999963 L0.808405079,14.9999963 C0.361803864,14.9999963 0,14.6292433 0,14.1720591 L0,0.827877746 C0,0.370577955 0.361861842,0 0.808405079,0 L13.8387087,0 C14.285139,0 14.6470588,0.370577955 14.6470588,0.827877746 L14.6470588,14.1720591 C14.6470588,14.6293027 14.2850841,14.9999963 13.8387087,14.9999963 L10.1062398,14.9999963 L10.1062398,9.19118641 L12.0101203,9.19118641 L12.2951991,6.92738432 L10.1062411,6.92738432 L10.1062411,5.48209124 C10.1062411,4.82666966 10.2839609,4.38001987 11.2017164,4.38001987 L12.3722671,4.37949581 L12.3722671,2.35473423 C12.1698248,2.32714581 11.4749727,2.26550896 10.6665676,2.26550896 C8.97888393,2.26550896 7.82345022,3.32049598 7.82345022,5.25789509 L7.82345022,6.92738807 L5.91468438,6.92738807 L5.91468438,9.19119016 L7.82345022,9.19119016 L7.82345022,15 L7.82345022,15 L7.82346425,14.9999963 Z" id="facebook-link"></path>
                </g>
            </g>
        </g>
    </g>
</svg>