<?xml version="1.0" encoding="UTF-8"?>
<svg width="18px" height="15px" viewBox="0 0 18 15" version="1.1" xmlns="http://www.w3.org/2000/svg" xmlns:xlink="http://www.w3.org/1999/xlink">
    <!-- Generator: Sketch 54.1 (76490) - https://sketchapp.com -->
    <title>twitter-link</title>
    <desc>Created with Sketch.</desc>
    <g id="Symbols" stroke="none" stroke-width="1" fill="none" fill-rule="evenodd">
        <g id="Footer" transform="translate(-1086.000000, -60.000000)" fill="#FFFFFF">
            <g id="Social">
                <g transform="translate(1053.000000, 60.000000)">
                    <path d="M50.4321635,2.40546071 C49.8144778,2.69231036 49.1494279,2.88629286 48.4518177,2.97296786 C49.1642283,2.52721786 49.7108712,1.82041071 49.9684045,0.978435714 C49.3013829,1.39116786 48.5643025,1.69143214 47.776902,1.85239643 C47.1493471,1.15178214 46.2524212,0.714285714 45.2597827,0.714285714 C43.3564021,0.714285714 41.8121862,2.32910357 41.8121862,4.32053571 C41.8121862,4.60325786 41.8417878,4.877725 41.9009909,5.141875 C39.0345727,4.9912275 36.4937854,3.55698214 34.7916992,1.37258929 C34.494697,1.90707857 34.3249808,2.52721071 34.3249808,3.18758214 C34.3249808,4.43816429 34.9337884,5.54222143 35.8593275,6.18918214 C35.2949248,6.17164107 34.7620948,6.00757964 34.2963641,5.73930357 L34.2963641,5.7836725 C34.2963641,7.5315975 35.4853588,8.98957607 37.0641103,9.31976179 C36.7750015,9.40437214 36.4701067,9.44667714 36.1553434,9.44667714 C35.9333315,9.44667714 35.7162542,9.42500893 35.5060816,9.38270357 C35.9451708,10.8148857 37.218037,11.8580679 38.7277174,11.8859286 C37.5476008,12.8537857 36.0596308,13.4305821 34.444379,13.4305821 C34.1661244,13.4305821 33.8908298,13.4140729 33.6214554,13.3810543 C35.147908,14.4025686 36.9614983,14.9999971 38.9082892,14.9999971 C45.252903,14.9999971 48.7212012,9.50549714 48.7212012,4.73946143 C48.7212012,4.58262286 48.7182411,4.42578429 48.7123206,4.27204 C49.3862487,3.76334714 49.9713741,3.12876857 50.4321701,2.40545429" id="twitter-link"></path>
                </g>
            </g>
        </g>
    </g>
</svg>