<svg xmlns="http://www.w3.org/2000/svg" xmlns:xlink="http://www.w3.org/1999/xlink" viewBox="0 0 337 343"><defs><circle id="a" cx="338" cy="135" r="39"/><mask id="b" width="120" height="120" x="-21" y="-21" maskContentUnits="userSpaceOnUse" maskUnits="objectBoundingBox"><path fill="#fff" d="M278 75h120v120H278z"/><use xlink:href="#a"/></mask></defs><g fill="none" fill-rule="evenodd" transform="translate(-60 -50)"><circle cx="212.312" cy="167.269" r="117" fill="#F3C44F" fill-rule="nonzero"/><path stroke="#FFF" stroke-width="4" d="M62.54 152.06l26.224-68.759 63.018 158 35.185-74 11.147 20.702 35.427-62.966"/><use fill="#FFF" stroke="#FFF" stroke-dasharray="90" stroke-width="42" mask="url(#b)" transform="rotate(140 338 135)" xlink:href="#a"/><path stroke="#1C1C1C" stroke-dasharray="90" stroke-width="21" d="M312.931 105.124c-16.5 13.845-18.652 38.445-4.807 54.945s38.445 18.652 54.945 4.807 18.652-38.445 4.807-54.945-38.445-18.652-54.945-4.807z"/><path stroke="#8035C7" stroke-dasharray="90" stroke-width="21" d="M338 174c21.54 0 39-17.46 39-39s-17.46-39-39-39-39 17.46-39 39 17.46 39 39 39z"/><g fill-rule="nonzero"><path fill="#FFF" stroke="#25304F" d="M330.643 164.29s-16.014 37.515 18.593 38.5c0 0 3.795-.129 7.799-5.516 0 0-15.87-6.403-8.272-23.347l-18.12-9.637z"/><path fill="#25304F" d="M349.236 202.79s-5.013-1.386-7.647-5.18c0 0-3.715 1.601-7.206.873 0 0 4.187 3.906 12.995 4.298l1.858.008z"/></g><path fill="#1C1C1C" fill-rule="nonzero" d="M190.768 234.85a31.53 31.53 0 0 0-4.524 3.643l-1.401 1.835s-8.448 49.184-10.898 52.874c-2.45 3.69-8.447 12.006-8.447 16.568 0 4.563-.617 58.606-.617 58.606l11.57-1.665c6.294-25.773 31.724-89.645 31.724-89.645s1.994 23.78.609 27.006c-1.385 3.225-4.908 8.132-4.292 12.734.617 4.602 10.585 41.893 10.585 41.893l17.616 4.002.192-4.482c.977-18.602.377-51.538 1.698-60.599.8-5.442 3.9-23.707 6.253-37.434l-50.068-25.335z"/><path stroke="#1A120D" stroke-width=".5" d="M208.432 248.276l-15.454 49.008-19.873 69.995M230.627 260.658l-2.146 43.878v56.804"/><path style="mix-blend-mode:multiply" fill="#000" fill-rule="nonzero" d="M198.455 240.344l-19.025-4.714-.12.336 5.485 4.362s-8.448 49.184-10.898 52.874c-2.45 3.69-8.447 12.006-8.447 16.568 0 4.563-.617 58.606-.617 58.606l2.114-.304c-.288-13.207-.272-44.783 6.142-53.787 8.19-11.478 18.64-26.598 25.366-73.941zM208.151 277.09s1.994 23.78.609 27.006c-1.385 3.225-4.908 8.132-4.292 12.734.617 4.602 10.842 43.366 10.842 43.366l7.662.32c-10.609-18.978-13.844-25.797-10.649-49.52 3.323-24.677-4.172-33.906-4.172-33.906z" opacity=".4"/><g transform="translate(137.721 90.445)"><path fill="#FFF" fill-rule="nonzero" d="M181.52 92.022l-46.61-4.386-20.986-24.54-3.202-4.683a11.565 11.565 0 0 1-10.466-3.241c-.977.696-4.54 3.201-5.725 3.201-1.385 0-24.261 20.746-24.261 20.746-.304 8.589-2.763 23.476-2.763 23.476s-4.756 17.801-4.604 17.801c-11.97 18.411-16.783 24.788-17.495 24.788 32.28 19.963 57.17 20.647 57.707 21.66.536 1.012 2.762-13.343 2.762-13.343s1.514-16.44 1.65-20.138c.136-3.698.8-4.939.8-4.939 10.698-9.86 14.95-27.678 14.95-27.678s4.243 2.057 8.495 4.386c4.252 2.33 7.262 1.641 7.262 1.641l43.463-6.403c3.147-5.187-.977-8.348-.977-8.348z"/><path stroke="#808184" stroke-width=".5" d="M108.111 60.11s5.037 28.318-7.398 65.633c0 0-3.684 24.283-9.953 38.386"/><path fill="#1C1C1C" fill-rule="nonzero" d="M101.225 125.495c5.702-20.955-4.724-59.118-6.341-67.17-.115.032-.234.05-.353.056-1.385 0-24.261 20.738-24.261 20.738-.304 8.589-2.763 23.476-2.763 23.476S63 120.396 62.903 120.396c-9.208 8.968-21.314 25.125-21.314 25.125 9.336 8.204 33.002 20.738 42.19 20.738.498.093 15.586-33.929 17.446-40.764z"/><path fill="#FFF" d="M90.87 79.025V78L95 80.393v5.214l-.01.006-2.497 1.447v-1.025l.01-.006 1.613-.935v-4.189l-3.246-1.88zm-1.623 5.558v-4.184l.884-.508v6.228l-2.508-1.452v-3.334l.884-.508v3.33l.74.428zM86 80.393l.01-.006L90.13 78v1.034l-.01.006-.873.503v-.006l-2.363 1.368v4.19l3.247 1.88V88l-.032-.019L86 85.607v-5.214zm5.754 5.136v-.916l.739-.375v-2.392l-.74-.429v6.071L90.87 88v-8.12l2.507 1.453v3.334l-1.623.862z"/><path fill="#1C1C1C" fill-rule="nonzero" d="M100.48 126.155c-1.024 2.337-5.38 27.941-7.574 42.732 1.16.32 10.67 1.551 11.166.897.495-.655 1.813-16.315 1.813-16.315s1.514-16.44 1.65-20.139c.136-3.697.8-4.938.8-4.938 10.698-9.86 14.95-27.678 14.95-27.678s4.243 2.057 8.495 4.386c4.252 2.33 7.263 1.641 7.263 1.641l43.462-6.403c3.107-5.115-.993-8.276-.993-8.276l-46.61-4.386-20.986-24.54s4.82 26.4-13.435 63.02z"/><path style="mix-blend-mode:multiply" fill="#000" fill-rule="nonzero" d="M139.05 106.733l43.463-6.403c.38-.62.679-1.288.889-1.985-3.684.296-43.279 3.49-46.65 3.042-3.53-.473-12.274-7.636-12.274-7.636a279.35 279.35 0 0 1-1.185 6.987s4.243 2.057 8.495 4.386c4.252 2.33 7.263 1.61 7.263 1.61zM70.278 79.08c-.304 8.588-2.763 23.475-2.763 23.475s-4.326 17.801-4.604 17.801c-11.97 11.974-21.202 24.828-21.202 24.828 2.562 2.041 5.243 4.972 7.893 6.773 7.199-13.858 20.964-31.817 20.964-31.817C79.21 100.314 86 84.14 86 79.08c0-5.063-15.722 0-15.722 0z" opacity=".4"/><path fill="#774427" fill-rule="nonzero" d="M47.367 144.555c-1.759 2.42-3.047 4.378-3.864 5.874-1.226 2.244 2.929 8.16 3.864 10.276.934 2.116 3.487-.11 3.487-2.416 0-1.538.226-4.014.68-7.43l2.342.445c.537-2.174.537-3.901 0-5.182-.017-.018-2.187-.54-6.51-1.567z"/><path fill="#FFF" fill-rule="nonzero" stroke="#25304F" d="M54.79 147.723l31.207 5.595a2.384 2.384 0 0 1 1.926 2.768s0 0 0 0L84.25 176.54a2.384 2.384 0 0 1-2.767 1.926l-31.206-5.595a2.384 2.384 0 0 1-1.926-2.768s0 0 0 0l3.672-20.454a2.384 2.384 0 0 1 2.767-1.926z"/><circle cx="80.906" cy="166.498" r="1.5" fill="#25304F" fill-rule="nonzero"/><path fill="#FFF" fill-rule="nonzero" d="M113.924 63.095l-3.202-4.682a11.565 11.565 0 0 1-10.466-3.241 33.432 33.432 0 0 1-4.708 2.897s3.747 4.978 6.846 5.347l5.717-3.306 3.932 4.514s.728-.072 1.961-1.432l-.08-.097z"/><ellipse cx="93.218" cy="147.594" fill="#25304F" fill-rule="nonzero" rx="1" ry="1"/><ellipse cx="97.222" cy="131.586" fill="#25304F" fill-rule="nonzero" rx="1" ry="1"/><ellipse cx="101.225" cy="115.578" fill="#25304F" fill-rule="nonzero" rx="1" ry="1"/><ellipse cx="104.428" cy="99.57" fill="#25304F" fill-rule="nonzero" rx="1" ry="1"/><ellipse cx="106.83" cy="83.562" fill="#25304F" fill-rule="nonzero" rx="1" ry="1"/><path fill="#6E59DD" d="M106.085 62.393l1.49-2.283 1.545-.212 2.058 2.495-1.147 3.282 2.77 3.598c.798 8.965.257 18.622-1.623 28.97-.476 3.03-1.162 5.894-2.058 8.595l-7.462 17.515.933-19.96c2.204-16.103 3.617-27.81 4.24-35.12-.054.036.455-.975 1.526-3.033l-2.272-3.847z"/><path fill="#1C1C1C" d="M95 58.325c-12.095 2.217-19.128 3.573-21.1 4.068-2.959.742-13.345 38.241-17.1 41.507-2.502 2.177-6.3 15.643-11.392 40.4l9.396 2.55 26.518-62.544L95 58.326z"/></g><g><path fill="#774427" fill-rule="nonzero" d="M237.978 145.617c1.297 1.6 4.588 4.546 10.593 3.441l-.128-.2 1.793-5.226s7.023-2.105 7.415-2.962c.392-.856.392-6.867.392-6.867s2.266-1.945 2.026-3.042c-.24-1.096-3.747-9.909-3.747-9.909 4.06-6.627.552-6.787.552-6.787-10.77-2.882-22.091 5.93-23.725 7.724-1.633 1.793-1.561 2.577-1.561 2.577l6.902 10.293a6.938 6.938 0 0 0 2.09 5.707l-2.306 5.067-.296.184zM330.163 194.345c-2.066-2.545-4.18-11.206-2.578-12.903 2.322-2.449 3.947-.16 4.564 0a.985.985 0 0 0 1.177-1.44 2.906 2.906 0 0 0-.801-.849c-5.693-3.673-7.567-1.785-7.567-1.785-.945.48-5.693 5.099-5.693 5.099s3.267 3.202.993 8.276a24.22 24.22 0 0 0 9.905 3.602z"/><path style="mix-blend-mode:multiply" fill="#000" fill-rule="nonzero" d="M327.585 181.442c.194-.202.406-.387.632-.552 0 0-2.17 1.08-3.002 5.603-.833 4.522 3.202 7.468 4.948 7.892-2.066-2.585-4.18-11.246-2.578-12.943z" opacity=".7"/><path style="mix-blend-mode:multiply" fill="#000" fill-rule="nonzero" d="M250.236 143.632s6.31-1.81 7.415-2.962a39.461 39.461 0 0 0-8.752 2.962c.431.163.907.163 1.337 0zM258.043 133.803a11.143 11.143 0 0 0 1.738-1.977c-1.49.5-2.902 1.205-4.196 2.097.786.385 1.714.34 2.458-.12zM239.563 135.964s-.312-1.473.985-.592c1.297.88 2.114 2.353 1.521 3.097-.592.744-1.977-.44-2.506-2.505z" opacity=".4"/></g><g fill="#FFF" fill-rule="nonzero"><path d="M256.322 120.852c4.06-6.627.552-6.787.552-6.787-10.77-2.882-22.091 5.93-23.725 7.724-1.633 1.793-1.561 2.577-1.561 2.577l6.902 10.293s.993-2.697 4.436.849c0 0 .913 1.016 1.601.752l-5.484-11.206s10.193-7.195 17.279-4.202z"/></g><path stroke="#25304F" stroke-linecap="square" d="M96 354h300"/><path fill="#FFF" d="M154.319 354.5h87v38h-87z"/></g></svg>