<svg xmlns="http://www.w3.org/2000/svg" viewBox="0 0 66 66"><g fill="none" fill-rule="nonzero"><path fill="#00585E" d="M17.947 0h30.106c6.24 0 8.503.65 10.785 1.87a12.721 12.721 0 0 1 5.292 5.292C65.35 9.444 66 11.707 66 17.947v30.106c0 6.24-.65 8.503-1.87 10.785a12.721 12.721 0 0 1-5.292 5.292C56.556 65.35 54.293 66 48.053 66H17.947c-6.24 0-8.503-.65-10.785-1.87a12.721 12.721 0 0 1-5.292-5.292C.65 56.556 0 54.293 0 48.053V17.947c0-6.24.65-8.503 1.87-10.785A12.721 12.721 0 0 1 7.162 1.87C9.444.65 11.707 0 17.947 0z"/><g transform="translate(17.5 18)"><path fill="#30C554" d="M15.1 20.078l-2.78 2.992H8.698v3.51H5.28v3.51H0v-5.265l10.043-9.716a10.462 10.462 0 0 1-1.049-4.58C8.994 4.714 13.722 0 19.554 0c5.832 0 10.56 4.714 10.56 10.529 0 5.815-4.728 10.53-10.56 10.53-1.592 0-3.101-.352-4.455-.981z"/><circle cx="19.906" cy="8.045" r="2.721" fill="#FFF"/></g></g></svg>