<svg xmlns="http://www.w3.org/2000/svg" xmlns:xlink="http://www.w3.org/1999/xlink" viewBox="0 0 69 172"><defs><path id="a" d="M0 0h92v183H0z"/><linearGradient id="c" x1="-156.164%" x2="132.534%" y1="53.34%" y2="48.58%"><stop offset="0%" stop-color="#FFF"/><stop offset="100%" stop-color="#808184"/></linearGradient></defs><g fill="none" fill-rule="evenodd"><g transform="translate(-20 -12)"><mask id="b" fill="#fff"><use xlink:href="#a"/></mask><g mask="url(#b)"><g transform="translate(20.772 12.185)"><path fill="#FFF" fill-rule="nonzero" d="M53.254 40.505c-1.075-1.464-5.984-6.76-5.984-6.76s-1.944-2.35-2.527-3.008c-.584-.658-5.26-1.83-5.26-1.83l-8.183.99s-3.185 1.355-3.894 1.938c-.71.583-1.487 2.46-1.487 2.46s-6.69 4.237-13.443 9.722c1.713 18.387 2.479 31.785 2.298 40.192-.057 2.64-1.18 5.813-3.367 9.52l6.862 10.054 35.445 1.819 2.716-1.636s-1.898-11.004-5.146-17.072c0 0-.983-12.525.155-22.39 0 0 2.89-22.534 1.815-23.999z"/><circle cx="36.412" cy="50.131" r="1" fill="#1C1C1C" fill-rule="nonzero"/><circle cx="36.412" cy="61.569" r="1" fill="#1C1C1C" fill-rule="nonzero"/><circle cx="36.412" cy="73.008" r="1" fill="#FFD24A" fill-rule="nonzero"/><circle cx="36.412" cy="84.446" r="1" fill="#FFD24A" fill-rule="nonzero"/><path fill="#1C1C1C" fill-rule="nonzero" d="M53.748 105.602l2.716-1.636s-.772-4.455-2.161-9.265l-3.568-3.369-16.01 3.69-18.96-3.69-6.72 6.343 4.17 6.108-6.862 45.348-5.29 55.408h6.359s12.345-42.03 13.797-45.496c1.452-3.466-1.143-10.295-1.143-10.295l11.207-25.233v18.782s-4.26 4.575-4.832 10.437c-.572 5.863.572 51.8.572 51.8h6.638s11.95-52.56 13.277-58.062c1.327-5.502 6.81-40.87 6.81-40.87z"/><path fill="#A6B7C7" fill-rule="nonzero" d="M34.845 35.135v.732l2.081 2.791h2.585l1.332-3.037-3.402-3.849z"/><path fill="#A6B7C7" fill-rule="nonzero" d="M39.585 38.492s3.248 14.098 3.814 36.827a39.95 39.95 0 0 1-4.746 7.234 81.06 81.06 0 0 1-3.808-7.234s2.51-24.021 2.081-36.66l2.659-.167z"/><path fill="#1C1C1C" fill-rule="nonzero" d="M7.45 43.994C3.03 61.118 1.194 70.568 1.948 72.344c.753 1.777 5.029 5.811 12.826 12.102l-5.728 13.23 4.168 6.107c8.874 3.363 15.107 3.432 15.107 3.432-3.745-51.628 4.094-71.09 4.094-71.09l-5.838-3.163c-.235.425-.447.862-.635 1.31 0 0-11.739 4.237-18.492 9.722z"/><path fill="#FFF" fill-rule="nonzero" d="M21.35 48.464V47.6l3.475 2.014v4.387l-.009.005-2.1 1.217v-.862l.008-.005 1.358-.787v-3.524l-2.733-1.582zm-1.366 4.676v-3.52l.744-.428v5.241l-2.11-1.222v-2.805l.744-.428v2.802l.622.36zm-2.732-3.525l.009-.005 3.467-2.009v.87l-.01.006-.734.423v-.005l-1.988 1.15v3.525l2.732 1.583v.862L20.7 56l-3.45-1.998v-4.387zm4.841 4.322v-.771l.622-.316v-2.013l-.622-.36v5.107l-.744.431v-6.831l2.11 1.222v2.805l-1.366.726z"/><path fill="#1C1C1C" fill-rule="nonzero" d="M59.824 57.03c1.815-8.587-2.32-18.047-3.394-19.51-1.075-1.465-9.16-3.775-9.16-3.775s-1.43-1.716-2.207-2.636l-.618 3.626s8.697 33.743 2.86 72.486a16.236 16.236 0 0 0 6.42-1.619l2.716-1.636s-1.898-11.004-5.146-17.072c0 0 3.225-12.525 4.363-22.39 0 0 5.997 4.612 10.012 3.659 2.023-1.156 7.713-17.369-12.138-43.477l-5.09 2.784 11.382 29.56z"/><g fill-rule="nonzero"><path fill="#E39C75" d="M53.532 24.686c-.892-2.829-1.444-4.645-1.655-5.447-.211-.803-1.364-2.326-3.458-4.57-.776-.523-1.574-.352-2.395.514-1.23 1.298-3.55 6.167-3.141 6.792.273.417 2.911.192 7.915-.675l-4.774 4.925c.777.698 1.583 1.113 2.418 1.245 1.41-.744 3.107-1.672 5.09-2.784z"/><path fill="#25304F" d="M43.539 26.879l-4.893-13.444a.84.84 0 0 1 .502-1.076l7.119-2.592a.84.84 0 0 1 1.076.502l4.893 13.444a.84.84 0 0 1-.502 1.077l-7.119 2.59a.84.84 0 0 1-1.076-.501z"/><path fill="#FFF" d="M44.099 25.958L39.667 13.78a.672.672 0 0 1 .401-.861l5.854-2.13a.672.672 0 0 1 .861.401l4.432 12.178a.672.672 0 0 1-.401.861l-5.854 2.13a.672.672 0 0 1-.861-.4z"/></g><path fill="#FFF" fill-rule="nonzero" d="M44.765 30.737c-.571-.664-5.26-1.83-5.26-1.83v-2.214l-8.182 1.23v1.95s-3.185 1.356-3.894 1.94c-.71.582-1.487 2.458-1.487 2.458a26.154 26.154 0 0 0 10.544 2.174s1.406-.212 1.527-4.673c0 0 1.486 3.386 2.498 3.746 1.012.36 4.18-.16 6.782-1.773-.023 0-1.944-2.35-2.528-3.008z"/><path fill="#E39C75" fill-rule="nonzero" d="M37.852 30.743a11.077 11.077 0 0 0 1.653-1.836v-2.334s6.421-1.767 6.187-2.648c-.235-.88 0-5.542 0-5.542a8.308 8.308 0 0 0 2.75-2.013c-.88-2.013-5.5-11.438-5.5-11.438.411-.604.773-1.241 1.08-1.905l-1.56-.492-17.269 6.309.526 8.115c2.567 5.325 5.604 7.721 5.604 7.721v5.193c2.153.442 4.335.733 6.53.87z"/><path fill="#1C1C1C" fill-rule="nonzero" d="M42.941 4.914c3.431-5.147 0-4.912 0-4.912-9.406 1.006-16.147 5.542-18.04 7.303-1.892 1.762-1.383 3.655-1.383 3.655 2.521 9.568 7.805 13.726 7.805 13.726V20.78s-1.887-.355-1.887-3.157c0-2.803 1.887-1.076 1.887-1.076s-.275-5.421-.275-6.194c0-.772 5.26-4.735 11.893-5.439z"/><path stroke="#808184" stroke-width=".6" d="M39.219 82.553v8.596"/><path stroke="#1A120D" stroke-width=".6" d="M46.32 95.982l-2.35 47.115-11.578 61.437M15.787 105.94l-5.363 37.169-7.29 61.425"/><path style="mix-blend-mode:multiply" fill="#000" fill-rule="nonzero" d="M44.6 18.332l1.092.051a8.308 8.308 0 0 0 2.75-2.013c-1.45.25-2.79.935-3.842 1.962zM45.692 23.925s-6.118 1.035-8.874 2.471l2.687.177s6.421-1.767 6.187-2.648zM29.91 17.325c-.035.83.236 1.644.76 2.288.321.4.858.143.916-.395A2.923 2.923 0 0 0 30.768 17c-.652-.669-.858.326-.858.326z" opacity=".4"/><path fill="url(#c)" fill-rule="nonzero" d="M35.588 36.868a16.15 16.15 0 0 1-3.34-.269l.167-.457 2.859.286.314.44z"/><path fill="#000" fill-rule="nonzero" d="M31.323 142.297s-4.26 4.575-4.832 10.437c-.572 5.863.572 51.8.572 51.8h2.67c0-2.831-.091-26.83 1.59-42.895 1.795-17.117 3.91-15.894 4.431-19.085.52-3.191.652-27.561.652-27.561l-5.095 8.522.012 18.782z"/><g transform="rotate(23 -163.924 121.187)"><path fill="#59C7DD" fill-rule="nonzero" d="M0 .025v28.582h21.037V2.547H8.379A59.592 59.592 0 0 0 7.125.706C6.732.146 4.357-.08 0 .025z"/><rect width="6.732" height="5.89" x="7.573" y="14.303" fill="#FFF" fill-rule="nonzero" rx=".84"/><circle cx="10.939" cy="16.828" r="1" fill="#59C7DD" fill-rule="nonzero"/><path fill="#59C7DD" fill-rule="nonzero" d="M10.518 17.472l-.42 1.526h1.682l-.44-1.526z"/><path stroke="#FFF" stroke-width=".84" d="M8.415 14.642c.175-1.963 1.022-2.944 2.541-2.944 1.52 0 2.367.981 2.542 2.944"/></g><path style="mix-blend-mode:multiply" fill="#000" fill-rule="nonzero" d="M28.221 88.244c.362.981.966 1.679 1.812 2.094 1.27.622 5.31.738 4.89 4.701-3.066.2-6.107-1.096-9.122-3.89l1.702-2.905h.718z" opacity=".4"/><path fill="#E39C75" fill-rule="nonzero" d="M23.142 90.135a408.897 408.897 0 0 1 2.458 5.23c.538 1.174 3.572 1.8 9.103 1.878.786-3.231-.535-5.223-3.962-5.977-1.5-.293-2.485-1.018-2.953-2.174l.97-2.019c-.467-.54-1.52-1.076-3.158-1.61a243.58 243.58 0 0 1-2.458 4.672z"/><path fill="#000" fill-rule="nonzero" d="M20.344 77.61c-3.337-5.048-5.165-7.863-5.483-8.446-.318-.582.236-2.893 1.664-6.931l3.819 15.376z"/><path fill="#161C2F" fill-rule="nonzero" d="M14.75 84.427l7.465 5.661 3.1 4.655-.259.62c-1.852-2.54-2.963-4.007-3.33-4.403-.369-.396-2.875-2.145-7.52-5.246l.543-1.287zM23.142 100.017l19.364 8.219 1.071-2.634-.77 4.845-19.665-8.246z"/><path fill="#000" fill-rule="nonzero" d="M51.445 35.215l4.985 14.916-8.096-16.048c.82.216 1.445.395 1.875.536.429.141.841.34 1.236.596z"/><path style="mix-blend-mode:multiply" fill="#000" fill-rule="nonzero" d="M46.643 26.693l4.35-1.575c.862-.254 1.244-.652 1.146-1.193-.1-.54-.78-2.432-2.042-5.674 1.104 1.742 1.785 2.835 2.042 3.278.257.444.562 1.589.917 3.435l-4.614 2.506a3.81 3.81 0 0 1-1.15-.35" opacity=".4"/></g></g></g><path stroke="#1C1C1C" stroke-linecap="square" stroke-width="2" d="M1 171h65"/></g></svg>