<svg xmlns="http://www.w3.org/2000/svg" xmlns:xlink="http://www.w3.org/1999/xlink" viewBox="0 0 79 171"><defs><path id="a" d="M0 0h90v180H0z"/><linearGradient id="c" x1="46.559%" x2="56.814%" y1=".167%" y2="86.882%"><stop offset="0%" stop-color="#FFD24A"/><stop offset="100%" stop-color="#3B2314"/></linearGradient><linearGradient id="d" x1="43.534%" x2="55.603%" y1="3.744%" y2="86.406%"><stop offset="0%" stop-color="#F9E4E4"/><stop offset="100%" stop-color="#FFD24A"/></linearGradient><linearGradient id="e" x1="0%" x2="100%" y1="49.96%" y2="49.96%"><stop offset="0%" stop-color="#FFF"/><stop offset="100%" stop-color="#262261"/></linearGradient></defs><g fill="none" fill-rule="evenodd"><g transform="matrix(-1 0 0 1 79 -10)"><mask id="b" fill="#fff"><use xlink:href="#a"/></mask><g mask="url(#b)"><g transform="translate(0 10.754)"><path fill="#774427" fill-rule="nonzero" d="M65.046 28.72l.475-7.845S74.3-1.49 57.216.785c0 0-5.913.991-5.993 8.095-.08 7.103 1.824 12.542 2.156 12.799.332.256 2.15.25 5.147.416 0 0-.44 3.136-1.298 4.048 0 0-5.782-3.13-10.352-3.683 0 0-.76-.479-2.145 1.448-1.384 1.927-3.584 6.82-5.798 12.202l5.427 2.17s-1.276 2.982-1.001 5.73c.274 2.748 3.797 21.402 3.797 21.402s-.92-.074-1 .696c-.08.77-.075 5.832-.075 5.832a2.02 2.02 0 0 0 1 .633S30.412 98.66 26.94 121.448a26.654 26.654 0 0 0 4.575 2.378l-.658 1.932 7.47 51.977s-3.792 9.692-4.662 10.439c-.869.747-3.488.758-3.586 2.6v1.191h11.239s2.127-7.474 2.225-9.971a8.405 8.405 0 0 0-1.144-4.441s1.744-32.844 2.133-37.177c.389-4.333-.114-9.384-2.036-11.819l.515-1.522c4.326.683 8.71.93 13.085.736a27.126 27.126 0 0 0-1.143 3.215c-.332 1.346.491 47.946 0 50.335-.492 2.389-1.945 8.21-1.945 8.21s-2.002 1.14-1.184 2.434h9.214s.486-2.138-1.716-2.434v-8.21s7.653-40.33 8.968-49.6l-1.573-5.13c1.567-.28 3.174-.57 4.833-.981 0 0 4.25-35.347-7.086-51.584 0 0 .772 0 .852-.667.08-.667.212-5.062.212-5.062a.909.909 0 0 0-.916-.77s8.236-12.063 11.696-31.983a1.83 1.83 0 0 0-1.258-1.728c-1.304-.57-10.003-5.096-10.003-5.096z"/><path fill="#F3C44F" fill-rule="nonzero" d="M55.855 3.846s-4.003 1.579-4.575 7.12c0 0 .486 7.343 2.122 10.719 0 0 .446.313 5.147.416a21.701 21.701 0 0 1-.492 2.309s-1.716.496-7.52 0a28.524 28.524 0 0 0 0-9.726C49.586 9.78 49.186 1.52 56.33.624c0 0 8.579-3.027 11.439 4.248 2.86 7.275.571 19.76.571 19.76h-7.83s2.334-3.62 3.072-9.692c0 0 1.373-.08 1.293-3.084-.08-3.005-2.077-.274-2.077-.274s-6.04-2.434-6.943-7.736z"/><path style="mix-blend-mode:multiply" fill="#000" fill-rule="nonzero" d="M44.188 127.223l-4.718-3.466s-4.244 3.039-2.666 6.403c1.579 3.363 5.148 18.351 3.86 41.156a47.102 47.102 0 0 0 .281 5.427A4.051 4.051 0 0 1 39.801 180s-.766 7.354-4.003 9.691c-3.237 2.338 6.17 0 6.17 0l1.385-6.214c.09-.488.15-.98.177-1.476a8.405 8.405 0 0 0-1.144-4.441s1.745-32.845 2.134-37.177c.389-4.333-.115-9.384-2.036-11.819l.514-1.522 1.19.182z" opacity=".4"/><path fill="url(#c)" fill-rule="nonzero" d="M65.046 28.72c-2.694 3.306-7.83 5.895-7.83 5.895-.903-6.038 0-8.472 0-8.472s-5.782-3.13-10.351-3.683c0 0-.761-.479-2.145 1.448s-3.37 6.82-5.582 12.202l5.21 2.17s-1.275 2.982-1 5.73c.274 2.748 3.797 21.402 3.797 21.402 4.226 3.233 17.415 2.144 17.415 2.144s8.236-12.064 11.696-31.984a1.83 1.83 0 0 0-1.207-1.756c-1.304-.57-10.003-5.096-10.003-5.096z"/><path fill="#1C1C1C" fill-rule="nonzero" d="M65.046 28.72c-2.694 3.306-7.83 5.895-7.83 5.895-.903-6.038 0-8.472 0-8.472s-5.782-3.13-10.351-3.683c0 0-.761-.479-2.145 1.448s-3.878 7.725-6.091 13.107l5.72 1.265s-1.276 2.982-1.002 5.73c.275 2.748 3.798 21.402 3.798 21.402 4.226 3.233 17.415 2.144 17.415 2.144s8.236-12.064 11.696-31.984a1.83 1.83 0 0 0-1.207-1.756c-1.304-.57-10.003-5.096-10.003-5.096z"/><path style="mix-blend-mode:multiply" fill="#000" fill-rule="nonzero" d="M75.816 37.841l-.767-4.025-5.89-2.953-1.356-.7s1.527 13.203 1.355 16.293c-.171 3.09-3.334 6.51-5.05 7.411-1.716.901 1.785 8.649-3.225 13.825l3.666-.136s7.435-10.832 11.124-28.962c.051-.217.091-.502.143-.753z" opacity=".4"/><path fill="#1C1C1C" fill-rule="nonzero" d="M39.356 35.254c-.726 1.137-2.168 5.204-4.325 12.2L19.635 61.44l2.163 3.976 18.696-12.982 3.45-7.822c-.49-2.17-.35-4.28.416-6.332-2.682-1.136-3.914-4.73-5.004-3.026z"/><path fill="#1C1C1C" fill-rule="nonzero" d="M55.85 41.098c11.552-5.514 17.952-7.94 19.2-7.282 1.87.99 3.188 2.792 1.206 6.18-1.982 3.387-20.04 10.315-24.35 9.702-2.874-.409-13.99-3.643-33.346-9.703l1.075-4.19c16.229 3.53 25.575 5.502 28.039 5.918 2.463.416 5.189.208 8.176-.625z"/><path fill="#000" fill-rule="nonzero" d="M77.242 37.035c-.014.821-.305 1.797-.986 2.96-1.622 2.772-14.008 7.915-20.818 9.356l-2.957.385a4.311 4.311 0 0 1-.576-.038c-2.873-.409-13.988-3.643-33.345-9.703l.336-1.308c19.182 5.423 29.59 8.254 31.222 8.493 2.462.36 15.926-3.272 27.124-10.145z"/><path fill="#774427" fill-rule="nonzero" d="M19.635 35.805a84.928 84.928 0 0 0-5.024-2.094c-2.48-.94-11.088 1.648-11.088 2.972s1.948 1.324 3.677 1.324 3.647-.712 5.224.555c1.578 1.268 3.5 2.866 6.136 1.433.563-2.232.922-3.629 1.075-4.19zM19.687 61.537c-1.682-.28-3.01.046-3.984.976-1.462 1.396-2.52 2.877-5.328 2.877-2.808 0-3.642 1.57-3.642 2.385 0 .814 8.598.814 9.922.814.882 0 2.597-1.066 5.143-3.2l-2.111-3.852z"/><path fill="#000" fill-rule="nonzero" d="M42.695 47.184l-2.071-.626c-.652 2.796-1.147 4.363-1.486 4.702-.34.34-6.301 4.65-17.885 12.934l.625 1.134 18.616-12.894 2.087-4.724.165-.367-.051-.159z"/><path fill="#161C2F" fill-rule="nonzero" d="M44.868 41.098c.223-1.037.977-2.904 2.264-5.603-1.756 2.083-3.155 3.82-4.196 5.209l1.932.394z"/><path fill="#F3C44F" fill-rule="nonzero" d="M8.65 58.895l-7.2-6.944L0 47.542l2.508-2.876h12.508l2.283 2.876-1.408 4.41z"/><path stroke="#FFF" stroke-width=".6" d="M0 47.542h17.299M1.45 51.951h14.44M2.508 44.666l2.978 2.876 3.184-2.876 3.294 2.876 3.052-2.876M5.486 47.542v4.238l3.163 7.115M11.964 47.542v4.41l-3.202 6.943"/><path fill="#1C1C1C" fill-rule="nonzero" d="M64.4 74.06a61.34 61.34 0 0 1-17.341-1.482s-16.672 26.089-20.143 48.876a26.654 26.654 0 0 0 4.575 2.377l11.479 3.21c4.326.683 8.71.93 13.085.735l10.587-1.14c1.567-.28 3.174-.57 4.833-.98.011-.012 4.26-35.37-7.075-51.595z"/><path style="mix-blend-mode:multiply" fill="#000" fill-rule="nonzero" d="M55.855 188.99c-.572-5.941 3.432-41.693 4.164-45.125.732-3.432.738-8.74-.246-11.602a5.289 5.289 0 0 1 .898-4.988l-5.788.536 1.184-.035a27.126 27.126 0 0 0-1.144 3.216c-.332 1.345.492 47.946 0 50.335-.492 2.389-1.945 8.21-1.945 8.21s-2.001 1.14-1.183 2.434h3.431c.492-.496.778-1.408.63-2.982z" opacity=".4"/><path fill="#F3C44F" fill-rule="nonzero" d="M65.252 73.394c.08-.656.212-5.063.212-5.063a.909.909 0 0 0-.915-.77c-14.356.827-17.416-2.143-17.416-2.143s-.92-.074-1 .695c-.08.77-.075 5.832-.075 5.832a2.02 2.02 0 0 0 1.001.633c8.219 2.28 17.34 1.483 17.34 1.483s.773-.012.853-.667z"/><circle cx="56.513" cy="37.345" r="1" fill="url(#d)" fill-rule="nonzero"/><path style="mix-blend-mode:multiply" fill="#000" fill-rule="nonzero" d="M54.305 16.08a2.403 2.403 0 0 0-1.824-.148s.292.707 1.824.148z"/><path fill="#FFF" fill-rule="nonzero" d="M57.6 25.544a11.893 11.893 0 0 0-1.922-.165 16.165 16.165 0 0 0-.515 8.489c.852 4.56 2.053.752 2.053.752-.419-3.023-.289-6.098.384-9.076z"/><path fill="#FFF" fill-rule="nonzero" d="M65.086 27.796c.68.37 1.197.98 1.447 1.71 0 0-2.957 5.45-8.281 7.161-1.384.228-1.036-2.052-1.036-2.052a21.502 21.502 0 0 0 7.87-6.819z"/><path style="mix-blend-mode:multiply" fill="#000" fill-rule="nonzero" d="M61.231 22.095s-6.062.28-7.852-.41c0 0-.086-.981 7.852.41zM64.183 11.115a3.063 3.063 0 0 0-1.476 1.904c-.235 1.237.743 1.54 1.144 1.06a3.525 3.525 0 0 0 .332-2.964z"/><path fill="#000" fill-rule="nonzero" d="M66.653 126.625c1.567-.28 3.174-.57 4.833-.98 0 0 4.25-35.348-7.086-51.584-1.144.062-2.22.085-3.272.085 0 0 7.807 29.292-.451 53.129l5.976-.65z"/><path style="mix-blend-mode:multiply" fill="url(#e)" fill-rule="nonzero" d="M51.257 10.966s1.258-5.13 4.77-6.345l-.172-.775s-3.986 1.465-4.598 7.12z"/></g></g></g><path stroke="#1C1C1C" stroke-linecap="square" stroke-width="2" d="M66 170H1"/></g></svg>