<?xml version="1.0" encoding="utf-8"?>
<!-- Generator: Adobe Illustrator 23.0.3, SVG Export Plug-In . SVG Version: 6.00 Build 0)  -->
<svg version="1.1" id="Layer_1" xmlns="http://www.w3.org/2000/svg" xmlns:xlink="http://www.w3.org/1999/xlink" x="0px" y="0px"
	 viewBox="0 0 639 491" style="enable-background:new 0 0 639 491;" xml:space="preserve">
<style type="text/css">
	.st0{opacity:0.1;}
	.st1{filter:url(#Adobe_OpacityMaskFilter);}
	.st2{fill-rule:evenodd;clip-rule:evenodd;fill:#FFFFFF;}
	.st3{mask:url(#mask-2_1_);}
	.st4{fill:#1C1C1C;}
</style>
<title>traits diagonale-home</title>
<desc>Created with Sketch.</desc>
<g id="Design" class="st0">
	<g transform="translate(0.000000, -1967.000000)">
		<g id="content-" transform="translate(-69.000000, 94.000000)">
			<g id="Section-2---Gestion" transform="translate(0.000000, 1102.000000)">
				<g id="traits-diagonale-home" transform="translate(67.000000, 771.000000)">
					<g id="Mask">
					</g>
					<defs>
						<filter id="Adobe_OpacityMaskFilter" filterUnits="userSpaceOnUse" x="-277.6" y="-262.9" width="1528.1" height="1351.6">
							<feColorMatrix  type="matrix" values="1 0 0 0 0  0 1 0 0 0  0 0 1 0 0  0 0 0 1 0"/>
						</filter>
					</defs>
					<mask maskUnits="userSpaceOnUse" x="-277.6" y="-262.9" width="1528.1" height="1351.6" id="mask-2_1_">
						<g class="st1">
							<rect id="path-1_1_" class="st2" width="641" height="491"/>
						</g>
					</mask>
					<g id="Group-6" class="st3">
						<g id="Group-Copy" transform="translate(-670.000000, -491.000000)">
							
								<g transform="translate(902.000000, 783.000000) scale(-1, 1) rotate(-30.000000) translate(-902.000000, -783.000000) translate(122.000000, 330.000000)">
								<line id="Rectangle-2_2_" class="st4" x1="-88.2" y1="744.3" x2="455.4" y2="772.1"/>
								<path id="Rectangle-2_1_" class="st4" d="M548.8,104.1"/>
								<polygon id="Rectangle" class="st4" points="784.5,1.6 785.3,0.7 786.4,904.8 785.6,905.7 								"/>
								<polygon id="Rectangle_1_" class="st4" points="773.2,-4.9 774,-5.8 775.1,898.3 774.3,899.2 								"/>
								<path id="Rectangle_3_" class="st4" d="M775.1,898.3"/>
								<path id="Rectangle_2_" class="st4" d="M774-5.8"/>
								<polygon class="st4" points="795.5,1.6 796.3,0.7 797.4,904.8 796.7,905.7 								"/>
								<polygon class="st4" points="806.6,1.6 807.4,0.7 808.5,904.8 807.7,905.7 								"/>
								<polygon class="st4" points="817.7,1.6 818.5,0.7 819.6,904.8 818.8,905.7 								"/>
								<polygon class="st4" points="828.8,1.6 829.6,0.7 830.7,904.8 829.9,905.7 								"/>
								<polygon class="st4" points="839.9,1.6 840.6,0.7 841.8,904.8 841,905.7 								"/>
								<polygon class="st4" points="850.9,1.6 851.7,0.7 852.8,904.8 852,905.7 								"/>
								<polygon class="st4" points="862,1.6 862.8,0.7 863.9,904.8 863.1,905.7 								"/>
								<polygon class="st4" points="873.1,1.6 873.9,0.7 875,904.8 874.2,905.7 								"/>
								<polygon class="st4" points="884.2,1.6 885,0.7 886.1,904.8 885.3,905.7 								"/>
								<polygon class="st4" points="895.2,1.6 896,0.7 897.1,904.8 896.4,905.7 								"/>
								<polygon class="st4" points="906.3,1.6 907.1,0.7 908.2,904.8 907.4,905.7 								"/>
								<polygon class="st4" points="917.4,1.6 918.2,0.7 919.3,904.8 918.5,905.7 								"/>
								<polygon class="st4" points="928.5,1.6 929.3,0.7 930.4,904.8 929.6,905.7 								"/>
								<polygon class="st4" points="939.6,1.6 940.3,0.7 941.5,904.8 940.7,905.7 								"/>
								<polygon class="st4" points="950.6,1.6 951.4,0.7 952.5,904.8 951.7,905.7 								"/>
								<polygon class="st4" points="961.7,1.6 962.5,0.7 963.6,904.8 962.8,905.7 								"/>
								<polygon class="st4" points="972.8,1.6 973.6,0.7 974.7,904.8 973.9,905.7 								"/>
								<polygon class="st4" points="983.9,1.6 984.7,0.7 985.8,904.8 985,905.7 								"/>
								<polygon class="st4" points="994.9,1.6 995.7,0.7 996.8,904.8 996.1,905.7 								"/>
								<polygon class="st4" points="1006,1.6 1006.8,0.7 1007.9,904.8 1007.1,905.7 								"/>
								<polygon class="st4" points="1017.1,1.6 1017.9,0.7 1019,904.8 1018.2,905.7 								"/>
								<polygon class="st4" points="1028.2,1.6 1029,0.7 1030.1,904.8 1029.3,905.7 								"/>
								<polygon class="st4" points="1039.3,1.6 1040,0.7 1041.2,904.8 1040.4,905.7 								"/>
								<polygon class="st4" points="1050.3,1.6 1051.1,0.7 1052.2,904.8 1051.4,905.7 								"/>
								<polygon class="st4" points="1061.4,1.6 1062.2,0.7 1063.3,904.8 1062.5,905.7 								"/>
								<polygon class="st4" points="1072.5,1.6 1073.3,0.7 1074.4,904.8 1073.6,905.7 								"/>
								<polygon class="st4" points="1083.6,1.6 1084.4,0.7 1085.5,904.8 1084.7,905.7 								"/>
								<polygon class="st4" points="1094.6,1.6 1095.4,0.7 1096.5,904.8 1095.8,905.7 								"/>
								<polygon class="st4" points="1105.7,1.6 1106.5,0.7 1107.6,904.8 1106.8,905.7 								"/>
								<polygon class="st4" points="762.3,1.6 763.1,0.7 764.2,904.8 763.4,905.7 								"/>
								<polygon class="st4" points="751.2,1.6 752,0.7 753.1,904.8 752.3,905.7 								"/>
								<polygon class="st4" points="740.2,1.6 740.9,0.7 742.1,904.8 741.3,905.7 								"/>
								<polygon class="st4" points="729.1,1.6 729.9,0.7 731,904.8 730.2,905.7 								"/>
								<polygon class="st4" points="718,1.6 718.8,0.7 719.9,904.8 719.1,905.7 								"/>
								<polygon class="st4" points="706.9,1.6 707.7,0.7 708.8,904.8 708,905.7 								"/>
								<polygon class="st4" points="695.8,1.6 696.6,0.7 697.7,904.8 697,905.7 								"/>
								<polygon class="st4" points="684.8,1.6 685.5,0.7 686.7,904.8 685.9,905.7 								"/>
								<polygon class="st4" points="673.7,1.6 674.5,0.7 675.6,904.8 674.8,905.7 								"/>
								<polygon class="st4" points="662.6,1.6 663.4,0.7 664.5,904.8 663.7,905.7 								"/>
								<polygon class="st4" points="651.5,1.6 652.3,0.7 653.4,904.8 652.6,905.7 								"/>
								<polygon class="st4" points="640.5,1.6 641.2,0.7 642.3,904.8 641.6,905.7 								"/>
								<polygon class="st4" points="629.4,1.6 630.2,0.7 631.3,904.8 630.5,905.7 								"/>
								<polygon class="st4" points="618.3,1.6 619.1,0.7 620.2,904.8 619.4,905.7 								"/>
								<polygon class="st4" points="607.2,1.6 608,0.7 609.1,904.8 608.3,905.7 								"/>
								<polygon class="st4" points="596.1,1.6 596.9,0.7 598,904.8 597.2,905.7 								"/>
								<polygon class="st4" points="585.1,1.6 585.8,0.7 587,904.8 586.2,905.7 								"/>
								<polygon class="st4" points="574,1.6 574.8,0.7 575.9,904.8 575.1,905.7 								"/>
								<polygon class="st4" points="562.9,1.6 563.7,0.7 564.8,904.8 564,905.7 								"/>
								<polygon class="st4" points="551.8,1.6 552.6,0.7 553.7,904.8 552.9,905.7 								"/>
								<polygon class="st4" points="540.7,1.6 541.5,0.7 542.6,904.8 541.9,905.7 								"/>
								<polygon class="st4" points="529.7,1.6 530.5,0.7 531.6,904.8 530.8,905.7 								"/>
								<polygon class="st4" points="518.6,1.6 519.4,0.7 520.5,904.8 519.7,905.7 								"/>
								<polygon class="st4" points="507.5,1.6 508.3,0.7 509.4,904.8 508.6,905.7 								"/>
								<polygon class="st4" points="496.4,1.6 497.2,0.7 498.3,904.8 497.5,905.7 								"/>
								<polygon class="st4" points="485.4,1.6 486.1,0.7 487.3,904.8 486.5,905.7 								"/>
								<polygon class="st4" points="474.3,1.6 475.1,0.7 476.2,904.8 475.4,905.7 								"/>
								<polygon class="st4" points="463.2,1.6 464,0.7 465.1,904.8 464.3,905.7 								"/>
								<polygon class="st4" points="452.1,1.6 452.9,0.7 454,904.8 453.2,905.7 								"/>
							</g>
							
								<g transform="translate(1477.924497, 1088.130454) scale(-1, 1) rotate(-30.000000) translate(-1477.924497, -1088.130454) translate(710.424497, 613.630454)">
								<polygon class="st4" points="1067.4,174.9 1068.6,174.9 431.6,815.1 430.4,815.1 								"/>
								<polygon class="st4" points="759.5,44.6 760.3,43.7 761.4,947.8 760.6,948.7 								"/>
								<polygon class="st4" points="770.5,44.6 771.3,43.7 772.4,947.8 771.7,948.7 								"/>
								<polygon class="st4" points="781.6,44.6 782.4,43.7 783.5,947.8 782.7,948.7 								"/>
								<polygon class="st4" points="792.7,44.6 793.5,43.7 794.6,947.8 793.8,948.7 								"/>
								<polygon class="st4" points="803.8,44.6 804.6,43.7 805.7,947.8 804.9,948.7 								"/>
								<polygon class="st4" points="814.9,44.6 815.6,43.7 816.8,947.8 816,948.7 								"/>
								<polygon class="st4" points="825.9,44.6 826.7,43.7 827.8,947.8 827,948.7 								"/>
								<polygon class="st4" points="837,44.6 837.8,43.7 838.9,947.8 838.1,948.7 								"/>
								<polygon class="st4" points="848.1,44.6 848.9,43.7 850,947.8 849.2,948.7 								"/>
								<polygon class="st4" points="859.2,44.6 860,43.7 861.1,947.8 860.3,948.7 								"/>
								<polygon class="st4" points="870.2,44.6 871,43.7 872.1,947.8 871.4,948.7 								"/>
								<polygon class="st4" points="881.3,44.6 882.1,43.7 883.2,947.8 882.4,948.7 								"/>
								<polygon class="st4" points="892.4,44.6 893.2,43.7 894.3,947.8 893.5,948.7 								"/>
								<polygon class="st4" points="903.5,44.6 904.3,43.7 905.4,947.8 904.6,948.7 								"/>
								<polygon class="st4" points="914.6,44.6 915.3,43.7 916.5,947.8 915.7,948.7 								"/>
								<polygon class="st4" points="925.6,44.6 926.4,43.7 927.5,947.8 926.7,948.7 								"/>
								<polygon class="st4" points="936.7,44.6 937.5,43.7 938.6,947.8 937.8,948.7 								"/>
								<polygon class="st4" points="947.8,44.6 948.6,43.7 949.7,947.8 948.9,948.7 								"/>
								<polygon class="st4" points="958.9,44.6 959.7,43.7 960.8,947.8 960,948.7 								"/>
								<polygon class="st4" points="969.9,44.6 970.7,43.7 971.8,947.8 971.1,948.7 								"/>
								<polygon class="st4" points="981,44.6 981.8,43.7 982.9,947.8 982.1,948.7 								"/>
								<polygon class="st4" points="992.1,44.6 992.9,43.7 994,947.8 993.2,948.7 								"/>
								<polygon class="st4" points="1003.2,44.6 1004,43.7 1005.1,947.8 1004.3,948.7 								"/>
								<polygon class="st4" points="1014.3,44.6 1015,43.7 1016.2,947.8 1015.4,948.7 								"/>
								<polygon class="st4" points="1025.3,44.6 1026.1,43.7 1027.2,947.8 1026.4,948.7 								"/>
								<polygon class="st4" points="1036.4,44.6 1037.2,43.7 1038.3,947.8 1037.5,948.7 								"/>
								<polygon class="st4" points="1047.5,44.6 1048.3,43.7 1049.4,947.8 1048.6,948.7 								"/>
								<polygon class="st4" points="1058.6,44.6 1059.4,43.7 1060.5,947.8 1059.7,948.7 								"/>
								<polygon class="st4" points="1069.6,44.6 1070.4,43.7 1071.5,947.8 1070.8,948.7 								"/>
								<polygon class="st4" points="1080.7,44.6 1081.5,43.7 1082.6,947.8 1081.8,948.7 								"/>
								<polygon class="st4" points="737.3,44.6 738.1,43.7 739.2,947.8 738.4,948.7 								"/>
								<polygon class="st4" points="726.2,44.6 727,43.7 728.1,947.8 727.3,948.7 								"/>
								<polygon class="st4" points="715.2,44.6 715.9,43.7 717.1,947.8 716.3,948.7 								"/>
								<polygon class="st4" points="704.1,44.6 704.9,43.7 706,947.8 705.2,948.7 								"/>
								<polygon class="st4" points="693,44.6 693.8,43.7 694.9,947.8 694.1,948.7 								"/>
								<polygon class="st4" points="681.9,44.6 682.7,43.7 683.8,947.8 683,948.7 								"/>
								<polygon class="st4" points="670.8,44.6 671.6,43.7 672.7,947.8 672,948.7 								"/>
								<polygon class="st4" points="659.8,44.6 660.5,43.7 661.7,947.8 660.9,948.7 								"/>
								<polygon class="st4" points="648.7,44.6 649.5,43.7 650.6,947.8 649.8,948.7 								"/>
								<polygon class="st4" points="662.6,1.3 663.4,0.4 664.5,904.5 663.7,905.4 								"/>
								<polygon class="st4" points="651.5,1.3 652.3,0.4 653.4,904.5 652.6,905.4 								"/>
								<polygon class="st4" points="640.5,1.3 641.2,0.4 642.3,904.5 641.6,905.4 								"/>
								<polygon class="st4" points="629.4,1.3 630.2,0.4 631.3,904.5 630.5,905.4 								"/>
								<polygon class="st4" points="618.3,1.3 619.1,0.4 620.2,904.5 619.4,905.4 								"/>
								<polygon class="st4" points="607.2,1.3 608,0.4 609.1,904.5 608.3,905.4 								"/>
								<polygon class="st4" points="596.1,1.3 596.9,0.4 598,904.5 597.2,905.4 								"/>
								<polygon class="st4" points="585.1,1.3 585.8,0.4 587,904.5 586.2,905.4 								"/>
								<polygon class="st4" points="574,1.3 574.8,0.4 575.9,904.5 575.1,905.4 								"/>
								<polygon class="st4" points="562.9,1.3 563.7,0.4 564.8,904.5 564,905.4 								"/>
								<polygon class="st4" points="551.8,1.3 552.6,0.4 553.7,904.5 552.9,905.4 								"/>
								<polygon class="st4" points="540.7,1.3 541.5,0.4 542.6,904.5 541.9,905.4 								"/>
								<polygon class="st4" points="529.7,1.3 530.5,0.4 531.6,904.5 530.8,905.4 								"/>
							</g>
						</g>
					</g>
				</g>
			</g>
		</g>
	</g>
</g>
</svg>
