<svg xmlns="http://www.w3.org/2000/svg" viewBox="0 0 14 17"><path fill="#1C1C1C" fill-rule="nonzero" d="M13.041 13.92c.004-1.095-.63-2.08-1.596-2.48L8.46 10.193a.19.19 0 0 1-.114-.177v-1.18c0-.063.03-.122.078-.158.62-.496.987-1.269.992-2.09a.194.194 0 0 1 .072-.138c.27-.25.414-.62.39-.998a1.34 1.34 0 0 0-.298-.914.199.199 0 0 1-.043-.19 4.97 4.97 0 0 0 .243-2.418C9.53.875 8.17.5 7.083.5 6.15.5 5.018.776 4.555 1.521a.18.18 0 0 1-.148.087.994.994 0 0 0-.772.33c-.515.586-.258 1.716-.073 2.408a.198.198 0 0 1-.047.186.913.913 0 0 0-.15.213 1.549 1.549 0 0 0-.16.707c-.025.379.119.748.39.998a.194.194 0 0 1 .071.138c.005.821.371 1.594.992 2.09a.196.196 0 0 1 .078.157v1.182a.19.19 0 0 1-.114.177l-2.987 1.255c-.965.4-1.597 1.384-1.594 2.477v2.193c0 .21.162.381.362.381H12.68c.2 0 .361-.17.361-.381V13.92z"/></svg>