<svg xmlns="http://www.w3.org/2000/svg" viewBox="0 0 118 28"><path fill="#1C1C1C" fill-rule="evenodd" d="M13.919 2.87V0l11.806 6.7v14.6l-.03.017-7.137 4.05v-2.87l.031-.017 4.61-2.616V8.134L13.92 2.87zM9.279 18.43V6.718l2.528-1.424v17.44L4.64 18.668V9.333l2.527-1.424v9.323l2.114 1.2zM0 6.7l.03-.017L11.808 0v2.896l-.03.017L9.28 4.321v-.018L2.526 8.134v11.73l9.281 5.267V28l-.092-.052L0 21.3V6.7zm16.446 14.383v-2.566l2.112-1.05v-6.7l-2.112-1.199V26.566L13.919 28V5.266l7.167 4.067v9.335l-4.64 2.415zm26.924 1.362c-1.796 0-3.21-.586-4.245-1.757-1.034-1.17-1.551-2.781-1.551-4.83V7.632c0-.215.068-.386.204-.513a.705.705 0 0 1 .498-.19h2.635c.195 0 .36.068.498.205a.678.678 0 0 1 .204.498v8.05c0 2.4 1.045 3.6 3.133 3.6 1.015 0 1.82-.321 2.415-.965.595-.644.893-1.522.893-2.635v-8.05c0-.215.068-.386.205-.513a.705.705 0 0 1 .497-.19h2.606c.215 0 .385.063.512.19s.19.298.19.513v13.817a.705.705 0 0 1-.19.498.665.665 0 0 1-.512.205h-2.43a.678.678 0 0 1-.498-.205.678.678 0 0 1-.205-.498v-1.2c-1.073 1.464-2.693 2.196-4.86 2.196zm13.29 5.269a.705.705 0 0 1-.497-.19.665.665 0 0 1-.205-.513V7.631c0-.214.068-.385.205-.512a.705.705 0 0 1 .498-.19h2.342c.214 0 .39.068.527.205a.678.678 0 0 1 .204.498v1.17c1.035-1.444 2.586-2.166 4.655-2.166 1.971 0 3.484.62 4.538 1.86 1.054 1.238 1.62 2.902 1.698 4.99.02.235.029.586.029 1.054 0 .469-.01.82-.03 1.054-.058 2.05-.62 3.703-1.683 4.962-1.063 1.26-2.58 1.889-4.552 1.889-1.952 0-3.445-.693-4.479-2.079v6.645c0 .215-.063.386-.19.513s-.298.19-.513.19h-2.546zm6.617-8.431c2.088 0 3.2-1.288 3.337-3.864.02-.196.03-.488.03-.879 0-.39-.01-.683-.03-.878-.137-2.576-1.25-3.864-3.337-3.864-1.113 0-1.942.36-2.489 1.083-.546.722-.839 1.6-.878 2.635-.02.234-.03.605-.03 1.112 0 .508.01.888.03 1.142.04.976.342 1.805.908 2.488.566.683 1.385 1.025 2.459 1.025zm12.104 2.869a.654.654 0 0 1-.483-.19.654.654 0 0 1-.19-.484V2.04c0-.215.063-.38.19-.498a.684.684 0 0 1 .483-.175h1.288c.196 0 .357.063.483.19.127.127.19.288.19.483v19.438a.654.654 0 0 1-.19.483.654.654 0 0 1-.483.19h-1.288zm10.568.293c-.956 0-1.839-.196-2.649-.586-.81-.39-1.454-.922-1.932-1.595a3.78 3.78 0 0 1-.717-2.24c0-1.288.527-2.342 1.58-3.162 1.054-.82 2.489-1.366 4.304-1.639l4.391-.615v-.849c0-2.01-1.161-3.015-3.484-3.015-.897 0-1.62.18-2.166.542-.546.36-.946.785-1.2 1.273-.078.195-.161.327-.249.395a.583.583 0 0 1-.366.103H82.32a.62.62 0 0 1-.453-.19.62.62 0 0 1-.19-.454c0-.45.21-.971.629-1.567.42-.595 1.068-1.112 1.947-1.551.878-.44 1.951-.659 3.22-.659 2.186 0 3.752.508 4.698 1.523.947 1.014 1.42 2.283 1.42 3.805v9.514a.654.654 0 0 1-.19.483.654.654 0 0 1-.483.19h-1.288a.607.607 0 0 1-.469-.19.684.684 0 0 1-.175-.483V20.19c-.43.644-1.054 1.181-1.874 1.61-.82.43-1.873.645-3.162.645zm.586-2.138c1.288 0 2.342-.42 3.162-1.258.82-.84 1.23-2.06 1.23-3.66v-.82l-3.426.498c-1.405.195-2.469.527-3.19.996-.723.468-1.084 1.054-1.084 1.756 0 .8.327 1.415.98 1.844.654.43 1.43.644 2.328.644zm15.34 1.845c-.273 0-.478-.059-.615-.176-.137-.117-.244-.302-.322-.556L96.781 7.836l-.058-.292a.596.596 0 0 1 .615-.615h1.2c.195 0 .356.054.483.161.126.107.2.21.22.307l3.307 11.183 3.513-11.036a.863.863 0 0 1 .264-.425c.136-.127.322-.19.556-.19h.937c.234 0 .42.063.556.19a.863.863 0 0 1 .263.425l3.513 11.036 3.308-11.183c.02-.097.093-.2.22-.307a.722.722 0 0 1 .483-.161h1.2c.176 0 .322.059.44.176a.596.596 0 0 1 .175.439l-.059.292-4.157 13.584c-.078.254-.185.439-.322.556-.136.117-.341.176-.614.176h-1.054c-.508 0-.84-.244-.996-.732l-3.425-10.598-3.425 10.598c-.156.488-.488.732-.995.732h-1.054z"/></svg>