<?xml version="1.0" encoding="UTF-8"?>
<svg width="360px" height="472px" viewBox="0 0 360 472" version="1.1" xmlns="http://www.w3.org/2000/svg" xmlns:xlink="http://www.w3.org/1999/xlink">
    <!-- Generator: Sketch 54.1 (76490) - https://sketchapp.com -->
    <title>origin-obj-2</title>
    <desc>Created with Sketch.</desc>
    <defs>
        <rect id="path-1" x="0" y="0" width="360" height="472"></rect>
    </defs>
    <g id="Page-1" stroke="none" stroke-width="1" fill="none" fill-rule="evenodd" opacity="0.2">
        <g id="origin-obj-2">
            <g id="Design">
                <g id="3a-about-">
                    <g id="content-">
                        <g id="Section1">
                            <g id="traits-diagonale-about">
                                <g id="Group-6-Clipped">
                                    <mask id="mask-2" fill="white">
                                        <use xlink:href="#path-1"></use>
                                    </mask>
                                    <g id="path-1"></g>
                                    <g id="Group-6" mask="url(#mask-2)">
                                        <g transform="translate(-690.000000, -625.000000)" id="Group-Copy">
                                            <g>
                                                <g id="Group" transform="translate(902.000000, 783.000000) scale(-1, 1) rotate(-30.000000) translate(-902.000000, -783.000000) translate(122.000000, 330.000000)" fill="#FFFFFF" fill-rule="nonzero">
                                                    <polygon id="Rectangle" transform="translate(785.411562, 453.190713) rotate(-45.000000) translate(-785.411562, -453.190713) " points="1104.06906 133.197548 1105.24278 133.131616 466.754069 773.183878 465.580344 773.24981"></polygon>
                                                    <polygon id="Rectangle" transform="translate(796.490673, 453.189389) rotate(-45.000000) translate(-796.490673, -453.189389) " points="1115.14817 133.196224 1116.32189 133.130293 477.83318 773.182554 476.659456 773.248486"></polygon>
                                                    <polygon id="Rectangle" transform="translate(807.569783, 453.200462) rotate(-45.000000) translate(-807.569783, -453.200462) " points="1126.22728 133.207297 1127.401 133.141365 488.91229 773.193627 487.738565 773.259559"></polygon>
                                                    <polygon id="Rectangle" transform="translate(818.648894, 453.199139) rotate(-45.000000) translate(-818.648894, -453.199139) " points="1137.30639 133.205973 1138.48011 133.140042 499.991402 773.192303 498.817677 773.258235"></polygon>
                                                    <polygon id="Rectangle" transform="translate(829.728004, 453.197815) rotate(-45.000000) translate(-829.728004, -453.197815) " points="1148.3855 133.204651 1149.55922 133.138719 511.070511 773.190981 509.896787 773.256912"></polygon>
                                                    <polygon id="Rectangle" transform="translate(840.807118, 453.196488) rotate(-45.000000) translate(-840.807118, -453.196488) " points="1159.46461 133.203323 1160.63834 133.137391 522.149621 773.189653 520.975896 773.255585"></polygon>
                                                    <polygon id="Rectangle" transform="translate(851.875150, 453.195166) rotate(-45.000000) translate(-851.875150, -453.195166) " points="1170.53264 133.202 1171.70637 133.136069 533.217654 773.18833 532.04393 773.254262"></polygon>
                                                    <polygon id="Rectangle" transform="translate(862.954259, 453.193842) rotate(-45.000000) translate(-862.954259, -453.193842) " points="1181.61175 133.200676 1182.78548 133.134745 544.296764 773.187007 543.123039 773.252938"></polygon>
                                                    <polygon id="Rectangle" transform="translate(874.033370, 453.192519) rotate(-45.000000) translate(-874.033370, -453.192519) " points="1192.69086 133.199354 1193.86459 133.133422 555.375876 773.185684 554.202151 773.251616"></polygon>
                                                    <polygon id="Rectangle" transform="translate(885.112481, 453.191195) rotate(-45.000000) translate(-885.112481, -453.191195) " points="1203.76998 133.19803 1204.9437 133.132098 566.454986 773.18436 565.281262 773.250292"></polygon>
                                                    <polygon id="Rectangle" transform="translate(896.191591, 453.189871) rotate(-45.000000) translate(-896.191591, -453.189871) " points="1214.84909 133.196706 1216.02281 133.130775 577.534097 773.183036 576.360372 773.248968"></polygon>
                                                    <polygon id="Rectangle" transform="translate(907.270702, 453.200944) rotate(-45.000000) translate(-907.270702, -453.200944) " points="1225.9282 133.207779 1227.10192 133.141847 588.613207 773.194109 587.439483 773.260041"></polygon>
                                                    <polygon id="Rectangle" transform="translate(918.349812, 453.199621) rotate(-45.000000) translate(-918.349812, -453.199621) " points="1237.00731 133.206455 1238.18103 133.140524 599.692319 773.192786 598.518594 773.258717"></polygon>
                                                    <polygon id="Rectangle" transform="translate(929.428922, 453.198298) rotate(-45.000000) translate(-929.428922, -453.198298) " points="1248.08642 133.205133 1249.26014 133.139201 610.771428 773.191463 609.597704 773.257395"></polygon>
                                                    <polygon id="Rectangle" transform="translate(940.508033, 453.196974) rotate(-45.000000) translate(-940.508033, -453.196974) " points="1259.16553 133.203809 1260.33925 133.137877 621.850539 773.190139 620.676815 773.256071"></polygon>
                                                    <polygon id="Rectangle" transform="translate(951.587143, 453.195650) rotate(-45.000000) translate(-951.587143, -453.195650) " points="1270.24464 133.202485 1271.41836 133.136554 632.929651 773.188815 631.755926 773.254747"></polygon>
                                                    <polygon id="Rectangle" transform="translate(962.655178, 453.194324) rotate(-45.000000) translate(-962.655178, -453.194324) " points="1281.31267 133.20116 1282.4864 133.135228 643.997681 773.18749 642.823957 773.253421"></polygon>
                                                    <polygon id="Rectangle" transform="translate(973.734288, 453.193001) rotate(-45.000000) translate(-973.734288, -453.193001) " points="1292.39178 133.199836 1293.56551 133.133904 655.076792 773.186166 653.903067 773.252098"></polygon>
                                                    <polygon id="Rectangle" transform="translate(984.813399, 453.191677) rotate(-45.000000) translate(-984.813399, -453.191677) " points="1303.47089 133.198512 1304.64462 133.13258 666.155903 773.184842 664.982179 773.250774"></polygon>
                                                    <polygon id="Rectangle" transform="translate(995.892510, 453.190354) rotate(-45.000000) translate(-995.892510, -453.190354) " points="1314.55 133.197188 1315.72373 133.131257 677.235014 773.183519 676.06129 773.24945"></polygon>
                                                    <polygon id="Rectangle" transform="translate(1006.971620, 453.201427) rotate(-45.000000) translate(-1006.971620, -453.201427) " points="1325.62911 133.208261 1326.80284 133.14233 688.314125 773.194591 687.1404 773.260523"></polygon>
                                                    <polygon id="Rectangle" transform="translate(1018.050730, 453.200103) rotate(-45.000000) translate(-1018.050730, -453.200103) " points="1336.70822 133.206939 1337.88195 133.141007 699.393234 773.193269 698.21951 773.2592"></polygon>
                                                    <polygon id="Rectangle" transform="translate(1029.129840, 453.198780) rotate(-45.000000) translate(-1029.129840, -453.198780) " points="1347.78733 133.205615 1348.96106 133.139683 710.472346 773.191945 709.298621 773.257877"></polygon>
                                                    <polygon id="Rectangle" transform="translate(1040.208951, 453.197456) rotate(-45.000000) translate(-1040.208951, -453.197456) " points="1358.86645 133.204291 1360.04017 133.138359 721.551456 773.190621 720.377732 773.256553"></polygon>
                                                    <polygon id="Rectangle" transform="translate(1051.288062, 453.196132) rotate(-45.000000) translate(-1051.288062, -453.196132) " points="1369.94556 133.202967 1371.11928 133.137036 732.630567 773.189297 731.456843 773.255229"></polygon>
                                                    <polygon id="Rectangle" transform="translate(1062.356093, 453.194810) rotate(-45.000000) translate(-1062.356093, -453.194810) " points="1381.01359 133.201645 1382.18731 133.135713 743.6986 773.187975 742.524875 773.253906"></polygon>
                                                    <polygon id="Rectangle" transform="translate(1073.435204, 453.193486) rotate(-45.000000) translate(-1073.435204, -453.193486) " points="1392.0927 133.200321 1393.26642 133.134389 754.777711 773.186651 753.603987 773.252583"></polygon>
                                                    <polygon id="Rectangle" transform="translate(1084.514314, 453.192163) rotate(-45.000000) translate(-1084.514314, -453.192163) " points="1403.17181 133.198997 1404.34553 133.133066 765.856822 773.185327 764.683097 773.251259"></polygon>
                                                    <polygon id="Rectangle" transform="translate(1095.593424, 453.190839) rotate(-45.000000) translate(-1095.593424, -453.190839) " points="1414.25092 133.197674 1415.42464 133.131743 776.935931 773.184005 775.762207 773.249936"></polygon>
                                                    <polygon id="Rectangle" transform="translate(1106.672538, 453.189512) rotate(-45.000000) translate(-1106.672538, -453.189512) " points="1425.33003 133.196347 1426.50376 133.130415 788.015041 773.182677 786.841317 773.248609"></polygon>
                                                    <polygon id="Rectangle" transform="translate(763.253342, 453.193360) rotate(-45.000000) translate(-763.253342, -453.193360) " points="1081.91084 133.200194 1083.08456 133.134263 444.595848 773.186525 443.422123 773.252456"></polygon>
                                                    <polygon id="Rectangle" transform="translate(774.511672, 459.693360) rotate(-45.000000) translate(-774.511672, -459.693360) " points="1093.16917 139.700194 1094.34289 139.634263 455.854179 779.686525 454.680454 779.752456"></polygon>
                                                    <polygon id="Rectangle" transform="translate(752.174232, 453.194683) rotate(-45.000000) translate(-752.174232, -453.194683) " points="1070.83173 133.201518 1072.00545 133.135586 433.516737 773.187848 432.343013 773.25378"></polygon>
                                                    <polygon id="Rectangle" transform="translate(741.106200, 453.196006) rotate(-45.000000) translate(-741.106200, -453.196006) " points="1059.76369 133.202841 1060.93742 133.136909 422.448704 773.189171 421.27498 773.255103"></polygon>
                                                    <polygon id="Rectangle" transform="translate(730.027089, 453.197330) rotate(-45.000000) translate(-730.027089, -453.197330) " points="1048.68458 133.204165 1049.85831 133.138233 411.369593 773.190495 410.195868 773.256426"></polygon>
                                                    <polygon id="Rectangle" transform="translate(718.947979, 453.198653) rotate(-45.000000) translate(-718.947979, -453.198653) " points="1037.60547 133.205488 1038.7792 133.139557 400.290483 773.191818 399.116759 773.25775"></polygon>
                                                    <polygon id="Rectangle" transform="translate(707.868868, 453.199977) rotate(-45.000000) translate(-707.868868, -453.199977) " points="1026.52636 133.206812 1027.70009 133.14088 389.211372 773.193142 388.037647 773.259074"></polygon>
                                                    <polygon id="Rectangle" transform="translate(696.789758, 453.188903) rotate(-45.000000) translate(-696.789758, -453.188903) " points="1015.44725 133.195738 1016.62098 133.129806 378.132261 773.182068 376.958537 773.248"></polygon>
                                                    <polygon id="Rectangle" transform="translate(685.710644, 453.190231) rotate(-45.000000) translate(-685.710644, -453.190231) " points="1004.36814 133.197066 1005.54186 133.131134 367.053152 773.183396 365.879428 773.249328"></polygon>
                                                    <polygon id="Rectangle" transform="translate(674.631535, 453.191553) rotate(-45.000000) translate(-674.631535, -453.191553) " points="993.28903 133.198388 994.462754 133.132456 355.974041 773.184718 354.800316 773.250649"></polygon>
                                                    <polygon id="Rectangle" transform="translate(663.552425, 453.192876) rotate(-45.000000) translate(-663.552425, -453.192876) " points="982.209919 133.199711 983.383644 133.13378 344.89493 773.186041 343.721206 773.251973"></polygon>
                                                    <polygon id="Rectangle" transform="translate(652.473314, 453.194200) rotate(-45.000000) translate(-652.473314, -453.194200) " points="971.130809 133.201035 972.304533 133.135103 333.81582 773.187365 332.642095 773.253297"></polygon>
                                                    <polygon id="Rectangle" transform="translate(641.405281, 453.195524) rotate(-45.000000) translate(-641.405281, -453.195524) " points="960.062776 133.202359 961.2365 133.136427 322.747787 773.188689 321.574063 773.254621"></polygon>
                                                    <polygon id="Rectangle" transform="translate(630.326171, 453.196848) rotate(-45.000000) translate(-630.326171, -453.196848) " points="948.983665 133.203682 950.15739 133.137751 311.668676 773.190013 310.494952 773.255944"></polygon>
                                                    <polygon id="Rectangle" transform="translate(619.247060, 453.198171) rotate(-45.000000) translate(-619.247060, -453.198171) " points="937.904555 133.205006 939.078279 133.139074 300.589566 773.191336 299.415841 773.257268"></polygon>
                                                    <polygon id="Rectangle" transform="translate(608.167950, 453.199495) rotate(-45.000000) translate(-608.167950, -453.199495) " points="926.825444 133.20633 927.999169 133.140398 289.510455 773.19266 288.336731 773.258592"></polygon>
                                                    <polygon id="Rectangle" transform="translate(597.088839, 453.188422) rotate(-45.000000) translate(-597.088839, -453.188422) " points="915.746334 133.195257 916.920058 133.129325 278.431345 773.181587 277.25762 773.247519"></polygon>
                                                    <polygon id="Rectangle" transform="translate(586.009729, 453.189746) rotate(-45.000000) translate(-586.009729, -453.189746) " points="904.667223 133.196581 905.840948 133.130649 267.352234 773.182911 266.17851 773.248843"></polygon>
                                                    <polygon id="Rectangle" transform="translate(574.930618, 453.191070) rotate(-45.000000) translate(-574.930618, -453.191070) " points="893.588112 133.197904 894.761837 133.131973 256.273123 773.184235 255.099399 773.250166"></polygon>
                                                    <polygon id="Rectangle" transform="translate(563.851507, 453.192393) rotate(-45.000000) translate(-563.851507, -453.192393) " points="882.509002 133.199228 883.682726 133.133297 245.194013 773.185558 244.020288 773.25149"></polygon>
                                                    <polygon id="Rectangle" transform="translate(552.772397, 453.193717) rotate(-45.000000) translate(-552.772397, -453.193717) " points="871.429891 133.200552 872.603616 133.13462 234.114902 773.186882 232.941178 773.252814"></polygon>
                                                    <polygon id="Rectangle" transform="translate(541.693286, 453.195041) rotate(-45.000000) translate(-541.693286, -453.195041) " points="860.350781 133.201876 861.524505 133.135944 223.035792 773.188206 221.862067 773.254137"></polygon>
                                                    <polygon id="Rectangle" transform="translate(530.625254, 453.196365) rotate(-45.000000) translate(-530.625254, -453.196365) " points="849.282749 133.203199 850.456473 133.137268 211.96776 773.18953 210.794036 773.255461"></polygon>
                                                    <polygon id="Rectangle" transform="translate(519.546143, 453.197688) rotate(-45.000000) translate(-519.546143, -453.197688) " points="838.203637 133.204523 839.377362 133.138591 200.888648 773.190853 199.714924 773.256785"></polygon>
                                                    <polygon id="Rectangle" transform="translate(508.467032, 453.199012) rotate(-45.000000) translate(-508.467032, -453.199012) " points="827.124527 133.205847 828.298251 133.139915 189.809538 773.192177 188.635813 773.258109"></polygon>
                                                    <polygon id="Rectangle" transform="translate(497.387922, 453.200336) rotate(-45.000000) translate(-497.387922, -453.200336) " points="816.045416 133.207171 817.219141 133.141239 178.730427 773.193501 177.556703 773.259432"></polygon>
                                                    <polygon id="Rectangle" transform="translate(486.308811, 453.189263) rotate(-45.000000) translate(-486.308811, -453.189263) " points="804.966306 133.196098 806.14003 133.130166 167.651317 773.182428 166.477592 773.248359"></polygon>
                                                    <polygon id="Rectangle" transform="translate(475.229701, 453.190586) rotate(-45.000000) translate(-475.229701, -453.190586) " points="793.887195 133.197421 795.06092 133.13149 156.572206 773.183752 155.398482 773.249683"></polygon>
                                                    <polygon id="Rectangle" transform="translate(464.150590, 453.191910) rotate(-45.000000) translate(-464.150590, -453.191910) " points="782.808085 133.198745 783.981809 133.132813 145.493096 773.185075 144.319371 773.251007"></polygon>
                                                    <polygon id="Rectangle" transform="translate(453.071479, 453.193234) rotate(-45.000000) translate(-453.071479, -453.193234) " points="771.728974 133.200069 772.902698 133.134137 134.413985 773.186399 133.240261 773.252331"></polygon>
                                                </g>
                                                <g id="Group" transform="translate(1314.754026, 1018.750000) scale(-1, 1) rotate(-30.000000) translate(-1314.754026, -1018.750000) translate(723.254026, 565.750000)" fill="#FFFFFF" fill-rule="nonzero">
                                                    <polygon id="Rectangle" transform="translate(452.728004, 453.197815) rotate(-45.000000) translate(-452.728004, -453.197815) " points="771.3855 133.204651 772.55922 133.138719 134.070511 773.190981 132.896787 773.256912"></polygon>
                                                    <polygon id="Rectangle" transform="translate(463.807118, 453.196488) rotate(-45.000000) translate(-463.807118, -453.196488) " points="782.464609 133.203323 783.638339 133.137391 145.149621 773.189653 143.975896 773.255585"></polygon>
                                                    <polygon id="Rectangle" transform="translate(474.875150, 453.195166) rotate(-45.000000) translate(-474.875150, -453.195166) " points="793.53264 133.202 794.70637 133.136069 156.217654 773.18833 155.04393 773.254262"></polygon>
                                                    <polygon id="Rectangle" transform="translate(485.954259, 453.193842) rotate(-45.000000) translate(-485.954259, -453.193842) " points="804.611749 133.200676 805.785479 133.134745 167.296764 773.187007 166.123039 773.252938"></polygon>
                                                    <polygon id="Rectangle" transform="translate(497.033370, 453.192519) rotate(-45.000000) translate(-497.033370, -453.192519) " points="815.69086 133.199354 816.86459 133.133422 178.375876 773.185684 177.202151 773.251616"></polygon>
                                                    <polygon id="Rectangle" transform="translate(508.112481, 453.191195) rotate(-45.000000) translate(-508.112481, -453.191195) " points="826.76998 133.19803 827.9437 133.132098 189.454986 773.18436 188.281262 773.250292"></polygon>
                                                    <polygon id="Rectangle" transform="translate(519.191591, 453.189871) rotate(-45.000000) translate(-519.191591, -453.189871) " points="837.84909 133.196706 839.02281 133.130775 200.534097 773.183036 199.360372 773.248968"></polygon>
                                                    <polygon id="Rectangle" transform="translate(530.270702, 453.200944) rotate(-45.000000) translate(-530.270702, -453.200944) " points="848.9282 133.207779 850.10192 133.141847 211.613207 773.194109 210.439483 773.260041"></polygon>
                                                    <polygon id="Rectangle" transform="translate(541.349812, 453.199621) rotate(-45.000000) translate(-541.349812, -453.199621) " points="860.007311 133.206455 861.181031 133.140524 222.692319 773.192786 221.518594 773.258717"></polygon>
                                                    <polygon id="Rectangle" transform="translate(552.428922, 453.198298) rotate(-45.000000) translate(-552.428922, -453.198298) " points="871.08642 133.205133 872.26014 133.139201 233.771428 773.191463 232.597704 773.257395"></polygon>
                                                    <polygon id="Rectangle" transform="translate(563.508033, 453.196974) rotate(-45.000000) translate(-563.508033, -453.196974) " points="882.16553 133.203809 883.33925 133.137877 244.850539 773.190139 243.676815 773.256071"></polygon>
                                                    <polygon id="Rectangle" transform="translate(574.587143, 453.195650) rotate(-45.000000) translate(-574.587143, -453.195650) " points="893.244641 133.202485 894.418361 133.136554 255.929651 773.188815 254.755926 773.254747"></polygon>
                                                    <polygon id="Rectangle" transform="translate(585.655178, 453.194324) rotate(-45.000000) translate(-585.655178, -453.194324) " points="904.312669 133.20116 905.486399 133.135228 266.997681 773.18749 265.823957 773.253421"></polygon>
                                                    <polygon id="Rectangle" transform="translate(596.734288, 453.193001) rotate(-45.000000) translate(-596.734288, -453.193001) " points="915.391779 133.199836 916.565509 133.133904 278.076792 773.186166 276.903067 773.252098"></polygon>
                                                    <polygon id="Rectangle" transform="translate(607.813399, 453.191677) rotate(-45.000000) translate(-607.813399, -453.191677) " points="926.47089 133.198512 927.64462 133.13258 289.155903 773.184842 287.982179 773.250774"></polygon>
                                                    <polygon id="Rectangle" transform="translate(618.892510, 453.190354) rotate(-45.000000) translate(-618.892510, -453.190354) " points="937.55 133.197188 938.72373 133.131257 300.235014 773.183519 299.06129 773.24945"></polygon>
                                                    <polygon id="Rectangle" transform="translate(629.971620, 453.201427) rotate(-45.000000) translate(-629.971620, -453.201427) " points="948.62911 133.208261 949.80284 133.14233 311.314125 773.194591 310.1404 773.260523"></polygon>
                                                    <polygon id="Rectangle" transform="translate(641.050730, 453.200103) rotate(-45.000000) translate(-641.050730, -453.200103) " points="959.70822 133.206939 960.88195 133.141007 322.393235 773.193269 321.219511 773.2592"></polygon>
                                                    <polygon id="Rectangle" transform="translate(652.129840, 453.198780) rotate(-45.000000) translate(-652.129840, -453.198780) " points="970.78733 133.205615 971.96106 133.139683 333.472346 773.191945 332.298621 773.257877"></polygon>
                                                    <polygon id="Rectangle" transform="translate(663.208951, 453.197456) rotate(-45.000000) translate(-663.208951, -453.197456) " points="981.86645 133.204291 983.04017 133.138359 344.551456 773.190621 343.377732 773.256553"></polygon>
                                                    <polygon id="Rectangle" transform="translate(674.288062, 453.196132) rotate(-45.000000) translate(-674.288062, -453.196132) " points="992.94556 133.202967 994.11928 133.137036 355.630567 773.189297 354.456843 773.255229"></polygon>
                                                    <polygon id="Rectangle" transform="translate(685.356093, 453.194810) rotate(-45.000000) translate(-685.356093, -453.194810) " points="1004.01359 133.201645 1005.18731 133.135713 366.6986 773.187975 365.524875 773.253906"></polygon>
                                                    <polygon id="Rectangle" transform="translate(696.435204, 453.193486) rotate(-45.000000) translate(-696.435204, -453.193486) " points="1015.0927 133.200321 1016.26642 133.134389 377.777711 773.186651 376.603987 773.252583"></polygon>
                                                    <polygon id="Rectangle" transform="translate(707.514314, 453.192163) rotate(-45.000000) translate(-707.514314, -453.192163) " points="1026.17181 133.198997 1027.34553 133.133066 388.856822 773.185327 387.683097 773.251259"></polygon>
                                                    <polygon id="Rectangle" transform="translate(718.593424, 453.190839) rotate(-45.000000) translate(-718.593424, -453.190839) " points="1037.25092 133.197674 1038.42464 133.131743 399.935931 773.184005 398.762207 773.249936"></polygon>
                                                    <polygon id="Rectangle" transform="translate(729.672538, 453.189512) rotate(-45.000000) translate(-729.672538, -453.189512) " points="1048.33003 133.196347 1049.50376 133.130415 411.015041 773.182677 409.841317 773.248609"></polygon>
                                                </g>
                                            </g>
                                        </g>
                                    </g>
                                </g>
                            </g>
                        </g>
                    </g>
                </g>
            </g>
        </g>
    </g>
</svg>