<?xml version="1.0" encoding="UTF-8"?>
<svg width="112px" height="30px" viewBox="0 0 112 30" version="1.1" xmlns="http://www.w3.org/2000/svg" xmlns:xlink="http://www.w3.org/1999/xlink">
    <!-- Generator: Sketch 54.1 (76490) - https://sketchapp.com -->
    <title>l-express</title>
    <desc>Created with Sketch.</desc>
    <g id="Design" stroke="none" stroke-width="1" fill="none" fill-rule="evenodd">
        <g id="3a-about-" transform="translate(-859.000000, -3485.000000)" fill="#FFFFFF" fill-rule="nonzero">
            <g id="content-" transform="translate(-165.000000, 59.000000)">
                <g id="Section-3" transform="translate(164.000000, 3137.000000)">
                    <g id="Logo" transform="translate(704.000000, 289.000000)">
                        <g id="l-express" transform="translate(156.000000, 0.000000)">
                            <path d="M4.94350259,28.8750881 L4.94350259,9.28346114 L0.168450777,9.28346114 L0.168450777,28.8750881 L4.94350259,28.8750881 Z M11.6272176,28.8750881 L11.6272176,25.4141088 L6.27997409,25.4141088 L6.27997409,28.8750881 L11.6272176,28.8750881 Z M77.2745078,28.8750881 L77.2745078,9.28346114 L72.5008135,9.28346114 L72.5008135,28.8750881 L77.2745078,28.8750881 Z M84.2453368,12.7396891 L84.2453368,9.28346114 L78.898772,9.28346114 L78.898772,12.7396891 L84.2453368,12.7396891 Z M84.2453368,20.613943 L84.2453368,17.1563575 L78.898772,17.1563575 L78.898772,20.613943 L84.2453368,20.613943 Z M84.2453368,28.8750881 L84.2453368,25.4141088 L78.898772,25.4141088 L78.898772,28.8750881 L84.2453368,28.8750881 Z M48.6282694,28.8750881 L48.6282694,9.28346114 L43.8538964,9.28346114 L43.8538964,28.8750881 L48.6282694,28.8750881 Z M50.6346736,13.4299845 L50.0136114,13.4299845 L50.6346736,13.4299845 Z M50.6095596,13.4238756 C51.7091451,13.4238756 52.5772746,14.5967668 52.5772746,15.7024611 C52.5772746,16.8088342 51.7491917,17.8283264 50.5858031,17.8283264 L50.0136114,17.8188238 L50.0129326,21.8133057 L50.1710829,21.8119482 C54.2293679,21.8594611 57.3991606,19.5917358 57.3991606,15.8599326 C57.3991606,12.129487 54.9780363,9.47554922 50.7290207,9.28346114 L50.0122539,9.28346114 L50.6095596,13.4238756 L50.6095596,13.4238756 Z" id="Shape"></path>
                            <path d="M50.0136114,13.4299845 L50.0136114,9.28346114 L50.0136114,13.4299845 Z" id="Path" stroke="#FFFFFF" stroke-width="0.5" stroke-linejoin="round"></path>
                            <path d="M50.6930466,9.28346114 L50.6930466,13.4299845 L50.0136114,13.4299845 L50.0136114,9.28346114 L50.6930466,9.28346114 Z M20.2691451,28.8750881 L20.2691451,9.28346114 L15.494772,9.28346114 L15.494772,28.8750881 L20.2691451,28.8750881 Z M27.2392953,12.7396891 L27.2392953,9.28346114 L21.8920518,9.28346114 L21.8920518,12.7396891 L27.2392953,12.7396891 Z M27.2392953,20.613943 L27.2392953,17.1563575 L21.8920518,17.1563575 L21.8920518,20.613943 L27.2392953,20.613943 Z M27.2392953,28.8750881 L27.2392953,25.4141088 L21.8920518,25.4141088 L21.8920518,28.8750881 L27.2392953,28.8750881 Z M28.277114,9.25970466 L33.2910881,9.25970466 L42.8866684,28.8750881 L28.277114,9.25970466 Z" id="Shape"></path>
                            <path d="M28.277114,9.25970466 L33.2910881,9.25970466 L28.277114,9.25970466 Z" id="Path" stroke="#FFFFFF" stroke-width="0.5"></path>
                            <path d="M42.8751295,28.8750881 L37.6948601,28.8750881 L28.277114,9.25970466 L34.3492694,17.4190363 L42.8751295,28.8750881 Z M38.0050518,9.30789637 L42.6606425,9.30789637 L38.6505492,17.2527409 L36.3339534,12.7159326 L38.0050518,9.30789637 Z M32.5627824,28.8750881 L27.9078705,28.8750881 L31.9186425,20.901057 L34.2332021,25.4378653 L32.5627824,28.8750881 L32.5627824,28.8750881 Z M97.6928601,13.1170777 C96.9971347,9.06490155 92.8736891,9.06490155 92.8736891,9.06490155 L92.8859067,12.698285 C92.8859067,12.698285 93.9013264,12.8618653 94.1836891,14.5614715 L97.6928601,13.1170777 Z" id="Shape"></path>
                            <path d="M92.7121451,25.3781347 C93.2212124,25.2613886 93.4995026,24.7964404 93.4995026,24.7964404 C94.2868601,23.4694715 93.4533472,22.6305285 93.4533472,22.6305285 C93.384114,22.1187461 89.9333161,20.3953834 89.9333161,20.3953834 C87.7090311,19.1145699 87.2237202,18.253228 87.2237202,18.253228 C85.6714041,16.5997772 86.204228,13.7123472 86.204228,13.7123472 C86.7370518,9.05404145 91.4381192,9.07711917 91.4381192,9.07711917 L91.4381192,12.5238446 C91.4381192,12.5238446 90.3032383,12.8964819 90.2808394,13.8053368 C90.2808394,13.8053368 90.0724611,14.6429223 90.6507617,15.1784611 C90.6507617,15.1784611 91.5772642,16.1327927 94.4260052,17.2982176 C94.4260052,17.2982176 96.533544,18.2763057 97.576114,20.5806839 C97.576114,20.5806839 98.6404041,22.211057 97.8306477,25.0536891 C97.8306477,25.0536891 97.8082487,25.8437617 96.2090984,27.7544611 C96.2090984,27.7544611 95.0742176,28.6402383 93.9393368,28.8730518 C93.9393368,28.8730518 93.0827461,29.0345959 92.7114663,28.9884404 L92.7114663,25.3781347 L92.7121451,25.3781347 L92.7121451,25.3781347 Z" id="Path"></path>
                            <path d="M88.8914249,22.7703523 C88.8914249,22.7703523 89.4004922,25.168399 91.3919637,25.5647927 L91.3695648,29.0807513 C91.3695648,29.0807513 90.5598083,29.1974974 89.5403161,28.8723731 C89.5403161,28.8723731 86.8083212,28.2662435 85.8349845,25.9835855 C85.8349845,25.9835855 85.2241036,24.5887409 85.209171,24.2140674 L88.8914249,22.7703523 L88.8914249,22.7703523 Z M111.171606,13.1632332 C110.477238,9.11173575 106.353793,9.11173575 106.353793,9.11173575 L106.36601,12.7451192 C106.36601,12.7451192 107.38143,12.9086995 107.663793,14.6083057 L111.171606,13.1632332 Z" id="Shape"></path>
                            <path d="M106.192249,25.4242902 C106.701316,25.3089016 106.979606,24.8425959 106.979606,24.8425959 C107.766964,23.5156269 106.933451,22.6780415 106.933451,22.6780415 C106.864218,22.1649016 103.41342,20.4415389 103.41342,20.4415389 C101.189135,19.1607254 100.703824,18.2993834 100.703824,18.2993834 C99.1515078,16.6459326 99.6843316,13.7585026 99.6843316,13.7585026 C100.217155,9.10087565 104.918223,9.12327461 104.918223,9.12327461 L104.918223,12.57 C104.918223,12.57 103.783342,12.9426373 103.760943,13.8514922 C103.760943,13.8514922 103.551207,14.6897565 104.130865,15.2246166 C104.130865,15.2246166 105.057368,16.1789482 107.906109,17.3443731 C107.906109,17.3443731 110.013648,18.3211036 111.056218,20.6268394 C111.056218,20.6268394 112.120508,22.2572124 111.310751,25.098487 C111.310751,25.098487 111.286995,25.8912746 109.689202,27.7999378 C109.689202,27.7999378 108.554321,28.685715 107.41944,28.917171 C107.41944,28.917171 106.56285,29.0800725 106.19157,29.0339171 L106.19157,25.4242902 L106.192249,25.4242902 L106.192249,25.4242902 Z" id="Path"></path>
                            <path d="M102.370171,22.8171865 C102.370171,22.8171865 102.880596,25.2152332 104.873425,25.6116269 L104.849668,29.1275855 C104.849668,29.1275855 104.038554,29.2443316 103.02042,28.9178497 C103.02042,28.9178497 100.287067,28.3130777 99.3137306,26.0304197 C99.3137306,26.0304197 98.7042073,24.6355751 98.6879171,24.2609016 L102.370171,22.8171865 L102.370171,22.8171865 Z" id="Path"></path>
                            <polygon id="Path" points="12.3433057 14.560114 12.3433057 0.573658031 8.33253368 0.573658031 8.33253368 14.560114"></polygon>
                            <path d="M66.6173523,9.34115544 L64.3516632,9.34115544 L64.3279067,13.272513 C65.4376736,13.2053161 65.9467409,13.5209378 65.9467409,13.5209378 C66.6159948,13.8087306 66.8426995,14.7562746 66.8426995,14.7562746 C66.9621606,15.5246269 66.8426995,15.9929689 66.8426995,15.9929689 C66.6872642,16.8448083 65.9467409,17.2534197 65.9467409,17.2534197 C65.3392539,17.7808135 64.3835648,17.757057 64.3835648,17.757057 L64.3835648,21.4053731 L66.7232383,28.8757668 L71.4731762,28.8757668 L68.7038497,19.9046425 C68.7411813,19.8924249 68.7805492,19.883601 68.8138083,19.8659534 C73.5427047,17.4224301 72.3161917,9.34319171 67.0517565,9.34115544 L66.6173523,9.34115544 L66.6173523,9.34115544 Z M63.0470933,28.8750881 L63.0470933,9.33165285 L58.273399,9.33165285 L58.273399,28.8750881 L63.0470933,28.8750881 Z" id="Shape"></path>
                        </g>
                    </g>
                </g>
            </g>
        </g>
    </g>
</svg>