<?xml version="1.0" encoding="UTF-8"?>
<svg width="97px" height="25px" viewBox="0 0 97 25" version="1.1" xmlns="http://www.w3.org/2000/svg" xmlns:xlink="http://www.w3.org/1999/xlink">
    <!-- Generator: Sketch 54.1 (76490) - https://sketchapp.com -->
    <title>forbes</title>
    <desc>Created with Sketch.</desc>
    <g id="Design" stroke="none" stroke-width="1" fill="none" fill-rule="evenodd">
        <g id="3a-about-" transform="translate(-703.000000, -3489.000000)" fill="#FFFFFF" fill-rule="nonzero">
            <g id="content-" transform="translate(-165.000000, 59.000000)">
                <g id="Section-3" transform="translate(164.000000, 3137.000000)">
                    <g id="Logo" transform="translate(704.000000, 289.000000)">
                        <path d="M24.3308876,28.9345238 C22.6734247,28.6948101 21.2237597,27.9976094 20.1167566,26.9078596 C19.1933539,25.998931 18.5946357,24.999388 18.1533383,23.6298477 C17.4642553,21.4915118 17.4640502,18.7423101 18.1526547,16.6475832 C18.8200693,14.6175905 20.3227774,12.8505426 22.1618586,11.9331231 C24.708752,10.6626201 28.2934053,10.7424341 30.6523235,12.1221634 C32.7752131,13.3638654 34.0611004,15.570264 34.4189368,18.5847199 C34.5281675,19.5050602 34.4572838,21.4491255 34.2852352,22.2515448 C33.5810458,25.5360777 31.5302703,27.8304415 28.5256744,28.6951498 C28.2018785,28.7882774 27.6998138,28.8973679 27.4099901,28.9373768 C26.7966441,29.0222173 24.9245476,29.0204512 24.3308876,28.9345238 Z M24.915671,27.2919025 C25.3584863,27.4952831 26.168798,27.4840368 26.6267974,27.2679196 C27.8904262,26.6720051 28.5678934,24.9572267 28.7887659,21.7955467 C29.096596,17.3896683 28.3832755,13.7122202 26.9699458,12.4190397 C26.3336163,11.8367426 25.3439041,11.6460988 24.6297141,11.9683099 C23.5878273,12.438348 22.9187215,13.8298313 22.601928,16.1851704 C22.3763732,17.8624163 22.3997848,21.2853339 22.6473467,22.8245086 C23.0377866,25.2525417 23.8169274,26.7871096 24.915671,27.2919025 Z M53.7923509,28.931691 C53.0908056,28.8625762 50.9470653,28.5159717 50.1982129,28.3505359 L49.6801683,28.2360774 L49.7205455,25.5482266 C49.8178468,19.0767877 49.8300802,15.543964 49.7670748,12.1082857 C49.7054129,8.74268404 49.6874518,8.38687341 49.5538039,7.88898586 C49.3845166,7.25815883 49.1402026,6.81818755 48.8463894,6.61489663 C48.7322583,6.53595738 48.4221104,6.42404089 48.1572189,6.36619332 C47.2767693,6.17403222 47.3245714,6.20481097 47.3010946,5.81458036 C47.2875884,5.58978554 47.3126209,5.44125057 47.3718078,5.39570077 C47.451148,5.33455548 54.6729419,3.99622934 54.9029718,4.00000799 C54.9690886,4.00110723 54.9784228,4.89822543 54.9445511,7.9862 C54.9205087,10.1778121 54.9173973,11.9709493 54.937692,11.9709493 C54.9579159,11.9709493 55.2218175,11.8599259 55.5241162,11.7242383 C56.4352553,11.3152519 57.2750449,11.1377932 58.4947762,11.0964342 C59.3067755,11.0689532 59.6830402,11.0861975 60.0996115,11.1698773 C62.8236946,11.7175055 64.8395855,13.8837663 65.54403,17.0205197 C65.7278135,17.8387674 65.7961224,19.8725009 65.6742129,20.8910853 C65.5701939,21.7592797 65.2734815,22.9290784 64.9647478,23.6881732 C63.799607,26.552727 61.2999674,28.4215057 57.9838029,28.9071642 C57.2199593,29.0189432 54.8212981,29.0330273 53.7923509,28.931691 Z M55.8443022,27.4002142 C56.4752181,27.4658201 57.1838714,27.4429887 57.5143945,27.3463678 C58.026887,27.1965882 58.6822706,26.7384468 59.0769689,26.2542419 C59.8909728,25.2550922 60.4757498,23.7087449 60.7971849,21.7050126 C60.9510515,20.7453365 60.971884,18.0486844 60.8312998,17.2722098 C60.3999001,14.8885958 59.5690484,13.4322675 58.3044201,12.842708 C57.6746926,12.5490629 56.7863768,12.5127527 55.9612575,12.746706 L55.4019968,12.9053568 L55.3386606,15.071591 C55.2588261,17.8027653 55.3885746,27.1379279 55.5083962,27.2800054 C55.5518088,27.3314448 55.7030189,27.3855663 55.8443022,27.4002142 Z M74.101231,28.8976774 C70.7231287,28.289746 68.3072316,25.8991968 67.5178433,22.3835633 C67.4163185,21.9314368 67.371446,21.4253595 67.3459796,20.4464995 C67.3056693,18.8978949 67.4319115,17.9366334 67.8324275,16.7422421 C68.6014563,14.4489946 69.9796343,12.8239484 71.9816694,11.8499806 C74.0947622,10.8219942 76.9837611,10.7546576 78.8538343,11.689827 C80.959369,12.7427504 82.1982312,14.8451318 82.512543,17.8984466 C82.5548961,18.3096004 82.579341,18.7987586 82.5670845,18.9856158 L82.5446823,19.3253562 L77.5058891,19.3427509 L72.4670958,19.3602136 L72.4862296,19.9542836 C72.5307617,21.330504 72.8272334,22.5478617 73.3757128,23.6060851 C73.6249969,24.0871574 73.8234164,24.3493691 74.3055064,24.834994 C75.3944304,25.9322195 76.477771,26.356895 78.186739,26.356895 C79.4258055,26.356895 80.3168548,26.1101755 81.2488272,25.508971 C81.5098231,25.3405277 81.7743597,25.2027969 81.8365276,25.2027969 C81.9787713,25.2027969 82.3062929,25.6234635 82.3062929,25.8062438 C82.3062929,26.1057589 81.3293117,27.0712331 80.3764351,27.7135463 C79.596035,28.2396003 78.3583303,28.7160522 77.2851354,28.9033171 C76.5335382,29.0346608 74.8450658,29.0316031 74.101231,28.8976774 Z M72.161266,18.0318042 C72.2010752,18.0954902 75.4757971,18.0530088 77.0006699,17.9691279 L77.7603306,17.9272957 L77.7161388,16.7990507 C77.6265865,14.5133503 77.1745153,12.9692349 76.3844682,12.2501527 C76.0900997,11.982282 75.6946378,11.8133662 75.3595106,11.8125007 C75.2763132,11.8122843 75.0313956,11.8639976 74.8151115,11.9273952 C74.5008749,12.0195704 74.3250573,12.1390808 73.9397486,12.522423 C73.2232571,13.2350861 72.7026704,14.3924694 72.3775502,15.9952942 C72.2425643,16.660283 72.1062637,17.9440286 72.161266,18.0318042 Z M87.8097288,28.9833546 C86.5343946,28.8534515 84.504712,28.4313002 83.8288908,28.155239 L83.4988186,28.020575 L83.4537925,26.4667701 C83.4290246,25.6122658 83.4005343,24.4695942 83.3903694,23.9276736 L83.3719008,22.942382 L83.569758,22.852266 C83.6785652,22.8027532 83.8981122,22.7564369 84.0577437,22.7493636 L84.3478722,22.7365774 L84.5950505,23.3146804 C85.559497,25.5699623 86.6905901,26.785951 88.1679333,27.1558009 C88.7315114,27.2969941 89.7882291,27.2982183 90.2054186,27.1581813 C91.3740931,26.7662955 92.0149815,25.9254617 92.020565,24.776941 C92.0271507,23.4166986 91.2402317,22.7631701 88.2672914,21.6598095 C86.4254443,20.9762197 85.7829095,20.624461 85.0178951,19.8804764 C84.1926073,19.0778653 83.796535,18.1643946 83.7221596,16.8919558 C83.6323221,15.3544738 84.1387048,14.0582988 85.2610648,12.95385 C86.3904399,11.8423279 87.8566161,11.2398765 89.8539429,11.0667177 C91.612753,10.9142345 94.3125301,11.2686457 95.7270945,11.8377031 L95.9851535,11.9414896 L96.0311818,13.3263524 C96.0565224,14.0880201 96.082722,15.1090181 96.0893793,15.5953047 L96.1015485,16.4793943 L95.7549405,16.6016801 C95.2070393,16.7949705 95.1709612,16.7707582 94.866158,16.0034455 C94.0117356,13.8526302 93.0190853,12.8349648 91.4723775,12.5240814 C90.5297641,12.3345996 89.742344,12.5382959 89.1699612,13.1196635 C88.723494,13.5731683 88.5492594,13.9759361 88.5070966,14.6522487 C88.4612831,15.3850112 88.5991532,15.7811138 89.0703883,16.2710051 C89.6511464,16.8748167 90.6027078,17.3959936 92.4983143,18.1486157 C94.8200581,19.070384 95.9277434,19.8529315 96.5299766,20.9966233 C96.9211097,21.7394517 97.0318496,22.3327214 96.9925501,23.4747129 C96.9629861,24.3316656 96.9341379,24.507749 96.7289076,25.0830635 C96.0598868,26.9588378 94.5497583,28.1938019 92.2167042,28.7728571 C91.4264924,28.968936 91.3136765,28.9790018 89.742344,28.9954608 C88.8368825,29.0047104 87.9671412,28.9994055 87.8097288,28.9833546 L87.8097288,28.9833546 Z M0.0934168447,28.9605829 C0.0350049576,28.9374491 0.00555299529,28.7658731 0.00555299529,28.4482649 C0.00555299529,27.8776993 -0.0314904036,27.9032429 1.09506473,27.6985498 C1.95922326,27.5415014 2.26829314,27.3809416 2.64990341,26.8909312 C3.38971702,25.9407229 3.54962923,24.1113601 3.55131621,16.5786818 C3.55286262,9.50454912 3.41368628,8.01641036 2.64856788,6.92306145 C2.30906196,6.43800836 1.73696287,6.17458563 0.778684579,6.0622213 L0.040628244,5.97567599 L0.0203844131,5.41123806 L0,4.84686897 L0.231257652,4.80652247 C0.358484506,4.78435255 4.82667756,4.77498885 10.1607161,4.78566071 L19.8589873,4.80521431 L19.9043953,5.08061706 C19.9294189,5.23208857 19.9704689,6.78577318 19.9956331,8.53320362 L20.0413223,11.7103874 L19.5413419,11.8591738 C18.788665,12.0830762 18.7931636,12.0858302 18.4545715,11.2082594 C17.6228874,9.05268206 16.6691781,7.81061566 15.3641539,7.1833859 C14.4640766,6.75079703 14.0479534,6.69853936 11.5061577,6.69853936 L9.29409741,6.69853936 L9.25592936,7.06000546 C9.18437304,7.73784048 9.07155586,12.0982234 9.07232906,14.1516263 L9.07310226,16.1999342 L9.72329474,16.1962851 C10.0809358,16.1942884 10.7860959,16.1685383 11.2903641,16.1390013 C12.0483128,16.0945927 12.2735957,16.0552101 12.590749,15.911381 C13.3699257,15.5580392 13.8999907,14.7804396 14.2248058,13.5142754 L14.39245,12.860607 L14.9661658,12.8405715 L15.5398816,12.8205359 L15.5398816,21.0938411 L14.9659549,21.0738055 L14.3920282,21.05377 L14.2290935,20.3996884 C13.9230462,19.1707037 13.3339366,18.2909296 12.6060022,17.9755246 C12.2698,17.8299054 11.4379753,17.747078 9.82873136,17.6991579 L9.07310226,17.6765749 L9.07310226,19.2306726 C9.07310226,20.9241241 9.16820609,23.2151307 9.29002053,24.4585053 C9.45984378,26.1918902 9.91209658,27.1496033 10.7241694,27.4962665 C10.8792315,27.562432 11.3699336,27.6698391 11.8144544,27.7351095 C12.2590454,27.8003111 12.6781911,27.8816926 12.7458112,27.9159803 C12.9173917,28.0027321 12.9275136,28.9004762 12.7576904,28.964232 C12.6246996,29.0143553 0.22008137,29.0105685 0.0934168447,28.9605829 Z M34.5543221,28.9567783 C34.4910538,28.9165039 34.4703806,28.7563088 34.484949,28.4194617 L34.505761,27.9396404 L34.7485669,27.887978 C34.8821102,27.8595081 35.1689682,27.8029156 35.3859674,27.7623634 C36.0577075,27.6367488 36.4436996,27.2718485 36.6609763,26.5569772 C36.8379472,25.9747338 36.9159226,24.1118326 36.9199463,20.3708232 C36.9249411,15.7955774 36.8296918,14.7150419 36.3675279,14.1025927 C36.1170215,13.7706063 35.9364432,13.6762391 35.3285958,13.5594433 C35.0286263,13.5018091 34.7129785,13.4400087 34.6271639,13.4220935 C34.4881402,13.3931376 34.4710744,13.3477941 34.4710744,13.0074751 C34.4710744,12.6765998 34.4919557,12.616813 34.6271639,12.5611232 C34.8347284,12.4757136 41.707248,11.1006887 41.926814,11.1006887 L42.0980962,11.1006887 L42.0645196,12.1249094 C42.045997,12.688196 42.0165134,13.5084753 41.9988927,13.947675 L41.9668423,14.7462199 L42.2158225,14.2968127 C43.0128505,12.8581819 43.906654,11.9650615 45.0952241,11.4198983 C45.7476784,11.1205482 46.1830643,11.03125 46.9891108,11.03125 C47.9450727,11.03125 48.9008264,11.3434463 48.9008264,11.6557816 C48.9008264,11.8657642 47.216516,16.320395 47.1236253,16.356017 C47.0783247,16.3733767 46.7494266,16.2475538 46.3927793,16.0761791 C45.6489605,15.7189171 44.9512054,15.5442788 44.2738461,15.545737 C43.4302687,15.5475424 42.4879733,15.8585583 42.1159945,16.2579696 C41.9568525,16.4287888 41.9560894,16.4390657 41.9165467,18.9903126 C41.8774203,21.5168393 41.9615005,24.5986673 42.103438,25.8381479 C42.2243554,26.894102 42.5046922,27.4139201 43.0836111,27.6560528 C43.2767459,27.7367405 44.4986844,27.9043655 44.8974412,27.9047821 C44.9276879,27.9047821 44.9432275,28.1469843 44.9321278,28.442932 L44.9118708,28.9810818 L39.7782584,28.9976082 C36.9546328,29.0068436 34.6039239,28.9885118 34.5543221,28.9567783 L34.5543221,28.9567783 Z" id="forbes"></path>
                    </g>
                </g>
            </g>
        </g>
    </g>
</svg>